<?xml version="1.0" encoding="UTF-8"?>
<svg
   viewBox="0 0 80 80"
   version="1.1"
   xmlns="http://www.w3.org/2000/svg">
   <path
      style="fill:#ffffff;fill-opacity:1;stroke:#656565;stroke-width:1.047;stroke-dasharray:none;stroke-opacity:1"
      d="m 70,0 c -3.07693,0.47513 -6.05006,2.04129 -7.88777,4.5983 -1.30355,1.81804 -1.93818,4.16961 -1.48376,6.38098 0.32571,1.74815 1.29227,3.33441 2.60308,4.52232 -4.21414,8.91644 -8.42827,17.83289 -12.64241,26.74933 -1.1598,-0.0392 -2.31366,0.11579 -3.44187,0.37675 -2.42306,-3.31927 -4.85182,-6.63607 -7.27653,-9.95482 1.93367,-2.52028 2.29907,-6.20522 0.62246,-8.95463 -2.10116,-3.57937 -6.54448,-5.16802 -10.5396,-4.75389 -3.32375,0.34044 -6.60275,1.93516 -8.57972,4.6848 -1.30223,1.81838 -1.93757,4.16972 -1.48379,6.38099 0.32503,1.7496 1.29529,3.33504 2.60365,4.52618 -4.21294,8.91562 -8.42587,17.831236 -12.63881,26.746855 -3.54997,-0.07952 -7.21114,1.312469 -9.5509,4.030036 -1.81913,2.042365 -2.68548,5.00163 -1.90792,7.663334 0.66327,2.551231 2.68136,4.600866 5.05715,5.659131 4.68715,2.133788 10.74922,1.026524 14.21071,-2.851509 2.16737,-2.344807 2.99226,-5.991486 1.57011,-8.922074 -0.41523,-1.01264 -1.09916,-1.895282 -1.8789,-2.655752 4.23391,-8.963238 8.46782,-17.926471 12.70173,-26.889711 0.9921,-0.0125 1.98885,-0.0889 2.9561,-0.32488 2.4606,3.36728 4.9212,6.73457 7.3818,10.10186 -1.11386,1.65029 -1.7175,3.65586 -1.50268,5.64992 0.27868,2.498068 1.82438,4.757576 3.93611,6.08891 3.24585,2.11368 7.5203,2.329032 11.09838,0.954863 3.5019,-1.302876 6.54136,-4.48568 6.74362,-8.349023 0.1383,-2.34582 -0.87599,-4.68444 -2.57698,-6.28471 4.23335,-8.9625 8.46671,-17.92501 12.70006,-26.88751 3.41187,0.0144 6.886,-1.3218 9.19262,-3.87536 1.61748,-1.77726 2.53989,-4.21038 2.27714,-6.62028 -0.33966,-3.58654 -3.32513,-6.43299 -6.67794,-7.39498 -1.79937,-0.55517 -3.72582,-0.67524 -5.58514,-0.39543 z"
   />
</svg>