<?xml version="1.0" encoding="UTF-8" standalone="no"?>
<!-- Uploaded to: SVG Repo, www.svgrepo.com, Generator: SVG Repo Mixer Tools -->

<svg
   version="1.0"
   id="Layer_1"
   width="800px"
   height="800px"
   viewBox="0 0 64 64"
   enable-background="new 0 0 64 64"
   xml:space="preserve"
   sodipodi:docname="plane.svg"
   inkscape:version="1.3.2 (091e20e, 2023-11-25, custom)"
   xmlns:inkscape="http://www.inkscape.org/namespaces/inkscape"
   xmlns:sodipodi="http://sodipodi.sourceforge.net/DTD/sodipodi-0.dtd"
   xmlns:xlink="http://www.w3.org/1999/xlink"
   xmlns="http://www.w3.org/2000/svg"
   xmlns:svg="http://www.w3.org/2000/svg"><defs
   id="defs7"><linearGradient
     id="linearGradient40"
     inkscape:collect="always"><stop
       style="stop-color:#00fafd;stop-opacity:1;"
       offset="0.24360538"
       id="stop40" /><stop
       style="stop-color:#00fafd;stop-opacity:0.07025411;"
       offset="0.2813642"
       id="stop42" /><stop
       style="stop-color:#00fafd;stop-opacity:0;"
       offset="1"
       id="stop41" /></linearGradient><linearGradient
     id="linearGradient39"><stop
       style="stop-color:#1dd6ff;stop-opacity:0.47384155;"
       offset="0.12667477"
       id="stop38" /><stop
       style="stop-color:#27d0f7;stop-opacity:0;"
       offset="0.27131549"
       id="stop39" /></linearGradient><linearGradient
     id="linearGradient38"><stop
       style="stop-color:#1dd6ff;stop-opacity:0.46935725;"
       offset="0.12667477"
       id="stop36" /><stop
       style="stop-color:#27d0f7;stop-opacity:0;"
       offset="0.27131549"
       id="stop37" /></linearGradient><linearGradient
     id="linearGradient30"><stop
       style="stop-color:#27d0f7;stop-opacity:0.41405082;"
       offset="0"
       id="stop35" /><stop
       style="stop-color:#00c3ef;stop-opacity:0;"
       offset="1"
       id="stop33" /></linearGradient><radialGradient
     inkscape:collect="always"
     xlink:href="#linearGradient30"
     id="radialGradient31"
     cx="32.000874"
     cy="31.987968"
     fx="32.000874"
     fy="31.987968"
     r="31.999126"
     gradientTransform="matrix(1.0000272,0,0,1.0000272,-0.00174651,0.01115826)"
     gradientUnits="userSpaceOnUse"
     spreadMethod="pad" /><radialGradient
     inkscape:collect="always"
     xlink:href="#linearGradient40"
     id="radialGradient41"
     cx="32.000938"
     cy="31.987968"
     fx="32.000938"
     fy="31.987968"
     r="55.463284"
     gradientTransform="matrix(0.57695829,0,0,0.57695829,13.536794,13.544276)"
     gradientUnits="userSpaceOnUse" /><filter
     inkscape:collect="always"
     style="color-interpolation-filters:sRGB"
     id="filter42"
     x="-0.10579034"
     y="-0.10579034"
     width="1.2115807"
     height="1.2115807"><feGaussianBlur
       inkscape:collect="always"
       stdDeviation="2.8210757"
       id="feGaussianBlur42" /></filter></defs><sodipodi:namedview
   id="namedview7"
   pagecolor="#ffffff"
   bordercolor="#000000"
   borderopacity="0.25"
   inkscape:showpageshadow="2"
   inkscape:pageopacity="0.0"
   inkscape:pagecheckerboard="0"
   inkscape:deskcolor="#d1d1d1"
   inkscape:zoom="0.531875"
   inkscape:cx="284.84136"
   inkscape:cy="399.52996"
   inkscape:window-width="1920"
   inkscape:window-height="1009"
   inkscape:window-x="-8"
   inkscape:window-y="-8"
   inkscape:window-maximized="1"
   inkscape:current-layer="Layer_1" />
<path
   id="ellipse35"
   style="mix-blend-mode:normal;fill:url(#radialGradient41);stroke:none;stroke-width:0;stroke-opacity:1;filter:url(#filter42)"
   inkscape:label="path28"
   d="M 32,0 A 18.462161,31.999975 0 0 0 15.44878,17.976837 32.000003,16.417862 0 0 0 0,32.006173 32.000003,16.417862 0 0 0 15.452656,46.036871 18.462161,31.999975 0 0 0 32,64 18.462161,31.999975 0 0 0 48.547254,46.036871 32.000003,16.417862 0 0 0 64,32.006173 32.000003,16.417862 0 0 0 48.587911,17.968741 18.462161,31.999975 0 0 0 32,0 Z"
   transform="matrix(0.60004916,0,0,0.60004916,12.798426,12.798426)" /><circle
   style="mix-blend-mode:normal;fill:url(#radialGradient31);stroke:none;stroke-width:0;stroke-opacity:1"
   id="path28"
   cx="32"
   cy="32"
   inkscape:label="path28"
   r="32" /><path
   d="m 32.000578,21.334234 c -0.789284,0 -1.472612,0.288993 -1.976704,0.836329 -1.197084,1.300087 -1.041496,3.619959 -1.017841,3.898287 l 1.664196,14.968499 c 0.07264,0.798362 0.511767,1.604354 1.330038,1.604354 0.818602,0 1.257684,-0.805992 1.328315,-1.591036 l 1.667894,-15.000128 c 0.02242,-0.260017 0.177562,-2.579889 -1.019196,-3.879976 -0.50409,-0.547336 -1.187417,-0.836329 -1.976702,-0.836329 z"
   style="fill:none;stroke:#000000;stroke-width:0.333051;stroke-opacity:1"
   id="path14" /><path
   d="m 29.681695,38.315963 -1.428996,1.142625 c -0.158257,0.12617 -0.250191,0.317594 -0.250191,0.51968 v 0.665861 c 0,0.367552 0.298522,0.665858 0.666344,0.665858 h 1.349036 c -0.0099,-0.06558 -0.01943,-0.131794 -0.02536,-0.199384 z"
   style="fill:#ffffff;fill-opacity:1;stroke:#000000;stroke-width:0.333051;stroke-opacity:1"
   id="path13" /><path
   d="m 34.290151,38.292658 -0.313182,2.817573 c -0.0064,0.06791 -0.01544,0.134189 -0.02499,0.20013 h 1.380324 c 0.367821,0 0.666344,-0.298306 0.666344,-0.665858 v -0.665861 c 0,-0.202099 -0.09195,-0.393865 -0.250191,-0.520044 z"
   style="fill:#ffffff;fill-opacity:1;stroke:#000000;stroke-width:0.333051;stroke-opacity:1"
   id="path12" /><path
   d="m 34.991112,31.987969 -0.148267,1.331718 h 7.152903 c 0.36782,0 0.666343,-0.298307 0.666343,-0.66586 v -0.665858 z"
   style="fill:#ffffff;fill-opacity:1;stroke:#000000;stroke-width:0.333051;stroke-opacity:1"
   id="path11" /><path
   d="M 35.507219,27.345634 35.06509,31.32211 h 7.597008 v -0.665858 c 0,-0.272003 -0.165928,-0.517049 -0.418807,-0.61826 z"
   style="fill:#ffffff;fill-opacity:1;stroke:#000000;stroke-width:0.333051;stroke-opacity:1"
   id="path10" /><path
   d="m 28.474936,27.462471 -6.734408,2.915786 c -0.24355,0.105547 -0.401472,0.345579 -0.401472,0.610923 v 0.33293 h 7.564997 z"
   style="fill:#ffffff;fill-opacity:1;stroke:#000000;stroke-width:0.333051;stroke-opacity:1"
   id="path9" /><path
   d="m 21.339056,31.987969 v 0.665858 c 0,0.367553 0.298524,0.66586 0.666346,0.66586 h 7.120887 l -0.147894,-1.331718 z"
   style="fill:#ffffff;fill-opacity:1;stroke:#000000;stroke-width:0.333051;stroke-opacity:1"
   id="path8" />
<path
   id="path27"
   style="display:inline;fill:#ffffff;fill-opacity:1;stroke:none;stroke-width:0.335032;stroke-opacity:1"
   d="m 32.156879,21.435686 c -0.09315,-0.0045 -0.18638,-0.0038 -0.279226,0.0019 -1.061802,0.013 -2.007492,0.800265 -2.336934,1.789347 -0.533597,1.301933 -0.415434,2.743942 -0.22965,4.110097 0.517813,4.620145 1.012955,9.243694 1.55723,13.860399 0.135387,0.524143 0.602527,1.064076 1.190139,0.948454 0.614791,-0.124696 0.920813,-0.787834 0.955166,-1.361935 0.318685,-2.703633 0.607496,-5.41116 0.913414,-8.116469 0.26808,-2.452236 0.552506,-4.903916 0.786938,-7.359049 0.01373,-0.862165 -0.09334,-1.779295 -0.46442,-2.568404 -0.10356,-0.177487 -0.221031,-0.347979 -0.357356,-0.507959 -0.438345,-0.487868 -1.083346,-0.765601 -1.735293,-0.796502 z m 2.09265,1.304462 c -13.127387,-1.636755 -13.127387,-1.636755 0,0 z"
   sodipodi:nodetypes="sccccccccccscc" /><path
   id="path22"
   style="display:inline;fill:#000000;fill-opacity:1;stroke:none;stroke-width:0.335032;stroke-opacity:1"
   d="m 34.150425,22.54205 c 0.371195,0.789182 0.478285,1.706429 0.464599,2.568715 -0.234433,2.45513 -0.518837,4.906758 -0.786918,7.358994 -0.305921,2.705312 -0.594767,5.412821 -0.913451,8.116453 -0.03435,0.574103 -0.340388,1.237321 -0.955178,1.362018 -0.438815,0.08634 -0.810103,-0.193156 -1.026561,-0.558388 -0.0262,-0.06352 -0.04803,-0.128011 -0.06462,-0.192309 0.0032,0.02793 0.0064,0.0559 0.0098,0.08384 -0.04516,-0.09214 -0.084,-0.186529 -0.108556,-0.281656 0.0088,0.07463 0.01694,0.149363 0.02588,0.223997 0.03422,0.175169 0.104801,0.352687 0.200031,0.5155 0.191263,0.456759 0.588609,0.855584 1.111655,0.799955 0.623438,-0.07493 0.995853,-0.711428 1.050513,-1.286383 0.127296,-0.840461 0.183417,-1.690459 0.295083,-2.536742 0.476273,-4.325691 0.977838,-8.649427 1.423445,-12.978022 0.02366,-0.955179 -0.09446,-1.966206 -0.536365,-2.823517 -0.05675,-0.12712 -0.118794,-0.251798 -0.189219,-0.372452 z" /></svg>
