<?xml version="1.0" standalone="no"?>
<!DOCTYPE svg PUBLIC "-//W3C//DTD SVG 1.1//EN" "http://www.w3.org/Graphics/SVG/1.1/DTD/svg11.dtd" >
<svg xmlns="http://www.w3.org/2000/svg" xmlns:xlink="http://www.w3.org/1999/xlink" version="1.1">
<metadata>
Created by FontForge 20170812 at Fri May 24 21:06:22 2024
 By www-data
Copyright 2016 The Inter Project Authors (https://github.com/rsms/inter)
</metadata>
<defs>
<font id="Inter-Italic" horiz-adv-x="1328" >
  <font-face 
    font-family="Inter"
    font-weight="400"
    font-style="italic"
    font-stretch="normal"
    units-per-em="2048"
    panose-1="2 0 5 3 0 0 0 2 0 4"
    ascent="1638"
    descent="-410"
    x-height="1118"
    cap-height="1490"
    bbox="-493 -480 5322 2263"
    underline-thickness="140"
    underline-position="-418"
    slope="-9.3988"
    unicode-range="U+0020-FEFF"
  />
<missing-glyph horiz-adv-x="1344" 
d="M855 -416h-688l376 2272h688zM388 -192l-10 -64h320l10 64h-215l236 127l11 65h-320l-11 -64h216zM473 320l-42 -256h320l42 256h-320zM697 128h-192l21 128h192zM537 704l-43 -256h320l43 256h-192l-22 -128h64l11 64h64l-21 -128h-192l32 192h-64zM558 832l-11 -64h320
l37 224h-64l-26 -160h-256zM579 960l-11 -64h192l27 160h128l10 64h-320l-10 -64h128l-16 -96h-128zM755 1248h-64l15 96h64zM653 1408l-37 -224h320l11 64h-128l26 160h-192zM674 1536l-10 -64h320l10 64h-144l16 96h144l11 64h-320l-11 -64h112l-16 -96h-112z" />
    <glyph glyph-name=".notdef" horiz-adv-x="1344" 
d="M855 -416h-688l376 2272h688zM388 -192l-10 -64h320l10 64h-215l236 127l11 65h-320l-11 -64h216zM473 320l-42 -256h320l42 256h-320zM697 128h-192l21 128h192zM537 704l-43 -256h320l43 256h-192l-22 -128h64l11 64h64l-21 -128h-192l32 192h-64zM558 832l-11 -64h320
l37 224h-64l-26 -160h-256zM579 960l-11 -64h192l27 160h128l10 64h-320l-10 -64h128l-16 -96h-128zM755 1248h-64l15 96h64zM653 1408l-37 -224h320l11 64h-128l26 160h-192zM674 1536l-10 -64h320l10 64h-144l16 96h144l11 64h-320l-11 -64h112l-16 -96h-112z" />
    <glyph glyph-name=".null" horiz-adv-x="1200" 
 />
    <glyph glyph-name=".null" horiz-adv-x="1200" 
 />
    <glyph glyph-name="nonmarkingreturn" horiz-adv-x="682" 
 />
    <glyph glyph-name="space" unicode=" " horiz-adv-x="576" 
 />
    <glyph glyph-name="exclam" unicode="!" horiz-adv-x="589" 
d="M189 479l156 1011h204l-181 -1011h-179zM210 -13q-58 0 -94.5 43t-26.5 104q9 53 51.5 87.5t91.5 34.5q61 0 95.5 -43t26.5 -100q-7 -52 -49 -89t-95 -37z" />
    <glyph glyph-name="quotedbl" unicode="&#x22;" horiz-adv-x="954" 
d="M292 923l72 567h194l-115 -567h-151zM632 923l72 567h194l-115 -567h-151z" />
    <glyph glyph-name="numbersign" unicode="#" horiz-adv-x="1297" 
d="M729 0l270 1490h153l-270 -1490h-153zM60 411l27 150h1116l-29 -150h-1114zM205 0l272 1490h151l-270 -1490h-153zM156 927l27 152h1116l-29 -152h-1114z" />
    <glyph glyph-name="dollar" unicode="$" horiz-adv-x="1312" 
d="M468 -218l319 1926h120l-319 -1926h-120zM575 -26q-160 0 -274 51.5t-170 145.5t-44 219h195q-6 -84 34 -138.5t111.5 -81t159.5 -26.5q101 0 187 33t143 92.5t70 139.5q12 72 -20.5 116.5t-94.5 73.5t-140 52l-172 51q-160 47 -250.5 139t-65.5 248q20 126 99.5 221
t200.5 147.5t266 52.5t253.5 -51.5t164 -141t40.5 -203.5h-185q5 108 -76 168t-215 60q-97 0 -174 -31t-126 -85.5t-61 -123.5q-13 -78 26.5 -126t102 -74.5t115.5 -42.5l142 -41q56 -16 123.5 -43.5t126.5 -73.5t90 -118t14 -177q-20 -122 -95.5 -220t-201.5 -155t-299 -57
z" />
    <glyph glyph-name="percent" unicode="%" horiz-adv-x="2011" 
d="M567 831q-96 0 -154.5 42t-79.5 111t-8 150l13 78q14 81 59 150t117.5 110.5t166.5 41.5q97 0 155 -41.5t79 -110.5t7 -150l-13 -78q-13 -81 -57.5 -150t-116.5 -111t-168 -42zM589 962q76 0 116 52.5t51 119.5l13 78q11 68 -11 120t-99 52q-73 0 -115 -52t-53 -120
l-13 -78q-11 -67 11.5 -119.5t99.5 -52.5zM1392 -29q-96 0 -154.5 42t-79.5 111t-8 150l13 78q14 81 59 150t117.5 110.5t166.5 41.5q97 0 155 -41.5t79 -110.5t7 -150l-13 -78q-13 -81 -57.5 -150t-116.5 -111t-168 -42zM1414 102q76 0 116 52.5t51 119.5l13 78
q11 68 -11 120t-99 52q-73 0 -115 -52t-53 -120l-13 -78q-11 -67 11.5 -119.5t99.5 -52.5zM311 0l1271 1490h169l-1271 -1490h-169z" />
    <glyph glyph-name="ampersand" unicode="&#x26;" horiz-adv-x="1412" 
d="M495 -20q-150 0 -250 56t-143 151.5t-24 213.5q16 95 66.5 164.5t129 130t178.5 125.5l249 163q31 20 68 48.5t68 69.5t40 96q11 67 -26.5 109t-114.5 42q-59 0 -108 -24.5t-81 -68t-42 -100.5q-9 -53 7 -103t49.5 -104.5t78.5 -121.5l552 -827h-213l-450 683
q-64 97 -115.5 174.5t-76 153.5t-9.5 168q16 96 71.5 169t142 114.5t194.5 41.5q115 0 191 -45t109 -120.5t17 -167.5q-10 -65 -43.5 -121.5t-84.5 -104.5t-116 -91l-336 -221q-104 -68 -153.5 -128t-61.5 -134q-11 -70 13.5 -123t80 -82t135.5 -29q90 0 180.5 37t168 106
t132.5 165t74 213h173q-24 -150 -72.5 -246t-100 -151t-84.5 -83l-46 -45q-87 -79 -201 -116t-216 -37z" />
    <glyph glyph-name="quotesingle" unicode="'" horiz-adv-x="614" 
d="M292 923l72 567h194l-115 -567h-151z" />
    <glyph glyph-name="parenleft" unicode="(" horiz-adv-x="747" 
d="M226 608q27 162 89.5 340.5t148.5 344t181 288.5h175q-104 -159 -188.5 -328.5t-141.5 -334.5t-81 -309q-22 -132 -18 -268.5t34 -288.5t87 -331h-175q-93 221 -120 446t9 441z" />
    <glyph glyph-name="parenright" unicode=")" horiz-adv-x="746" 
d="M-43 -280q115 176 195.5 327t130 289t71.5 271q24 146 21.5 310.5t-30.5 334t-80 328.5h176q54 -123 84.5 -288.5t34 -344t-23.5 -341.5q-36 -217 -137.5 -442.5t-265.5 -443.5h-176z" />
    <glyph glyph-name="asterisk" unicode="*" horiz-adv-x="1026" 
d="M455 652l68 317l-295 -171l-50 126l302 146l-258 146l92 128l242 -171l39 317h144l-64 -317l291 171l54 -128l-304 -146l260 -146l-93 -126l-241 171l-43 -317h-144z" />
    <glyph glyph-name="plus" unicode="+" horiz-adv-x="1356" 
d="M517 100l160 966h169l-160 -966h-169zM185 497l28 172h965l-28 -172h-965z" />
    <glyph glyph-name="comma" unicode="," horiz-adv-x="589" 
d="M-23 -359l182 567h206l-250 -567h-138z" />
    <glyph glyph-name="hyphen" unicode="-" horiz-adv-x="944" 
d="M826 719l-28 -166h-654l28 166h654z" />
    <glyph glyph-name="period" unicode="." horiz-adv-x="589" 
d="M210 -13q-58 0 -94.5 43t-26.5 104q9 53 51.5 87.5t91.5 34.5q61 0 95.5 -43t26.5 -100q-7 -52 -49 -89t-95 -37z" />
    <glyph glyph-name="slash" unicode="/" horiz-adv-x="738" 
d="M858 1560l-774 -1784h-166l774 1784h166z" />
    <glyph glyph-name="zero" unicode="0" horiz-adv-x="1291" 
d="M550 -20q-166 0 -268.5 90t-136 261t6.5 413q40 243 131 414t223.5 261.5t296.5 90.5t266.5 -90t137 -260.5t-5.5 -412.5q-40 -245 -130 -416.5t-222.5 -261t-298.5 -89.5zM577 146q110 0 198 71.5t150 206t93 323.5q31 186 14 320t-81 206t-175 72q-107 0 -195 -69.5
t-151 -204t-95 -328.5q-31 -188 -13.5 -321.5t82 -204.5t173.5 -71z" />
    <glyph glyph-name="one" unicode="1" horiz-adv-x="834" 
d="M808 1490l-247 -1490h-186l218 1314h-10l-405 -267l34 204l364 239h232z" />
    <glyph glyph-name="two" unicode="2" horiz-adv-x="1249" 
d="M61 0l23 137l583 537q99 91 166 160t104.5 130.5t48.5 130.5q13 79 -12 134.5t-79.5 85.5t-132.5 30q-84 0 -156 -34.5t-120.5 -96.5t-62.5 -147h-181q22 132 97.5 231.5t187.5 155.5t245 56q134 0 229 -56t139.5 -150.5t24.5 -211.5q-10 -61 -36.5 -119.5t-75 -122.5
t-126 -143t-190.5 -181l-384 -347l-2 -12h686l-27 -167h-949z" />
    <glyph glyph-name="three" unicode="3" horiz-adv-x="1264" 
d="M548 -20q-145 0 -252.5 49.5t-161.5 139t-39 207.5h192q-6 -71 28 -122.5t99 -79t149 -27.5q93 0 171.5 32t130.5 90.5t65 136.5q14 81 -16.5 143t-102 97t-182.5 35h-121l28 165h121q86 0 157 31t118 87.5t60 134.5q13 75 -10.5 130t-78 85.5t-135.5 30.5
q-77 0 -148.5 -27.5t-122 -79t-65.5 -123.5h-183q24 118 103 206.5t194 138.5t245 50q138 0 231 -55.5t134.5 -146.5t23.5 -197q-21 -127 -102.5 -215t-200.5 -122l-2 -12q94 -15 153 -64.5t82 -125t7 -168.5q-20 -123 -101 -218.5t-202.5 -150.5t-265.5 -55z" />
    <glyph glyph-name="four" unicode="4" horiz-adv-x="1325" 
d="M79 303l25 155l823 1032h116l-39 -238h-78l-615 -770l-2 -12h882l-27 -167h-1085zM730 0l57 349l13 73l177 1068h181l-247 -1490h-181z" />
    <glyph glyph-name="five" unicode="5" horiz-adv-x="1213" 
d="M501 -20q-131 0 -226.5 51.5t-143 141t-33.5 203.5h184q-7 -98 57.5 -163.5t179.5 -65.5q89 0 168.5 41.5t135 116t70.5 171.5q16 98 -12.5 172.5t-92.5 117t-155 42.5q-67 0 -146 -21.5t-130 -56.5l-174 22l211 738h784l-28 -167h-624l-124 -435h8q52 38 126 62.5
t151 24.5q136 0 232.5 -64.5t140 -177.5t18.5 -259q-24 -142 -106.5 -254t-205 -176t-265.5 -64z" />
    <glyph glyph-name="six" unicode="6" horiz-adv-x="1267" 
d="M565 -20q-93 0 -183 34t-156 114t-92 217t8 343q33 197 93.5 350t146 258t193 159.5t233.5 54.5t220.5 -50t147 -139t50.5 -206h-186q-9 102 -66.5 164.5t-169.5 62.5q-114 0 -209 -67t-162 -193.5t-97 -305.5h12q53 65 113 109t128 66.5t142 22.5q129 0 228.5 -63.5
t148.5 -175t25 -255.5q-23 -140 -100.5 -253.5t-197 -180t-270.5 -66.5zM567 147q89 0 170.5 44t138.5 119.5t73 168.5q16 91 -10 166t-87.5 119.5t-152.5 44.5q-68 0 -132.5 -27t-118 -73.5t-89 -106t-46.5 -125.5q-14 -87 12.5 -162.5t88.5 -121.5t153 -46z" />
    <glyph glyph-name="seven" unicode="7" horiz-adv-x="1161" 
d="M98 0l879 1311l2 12h-753l28 167h963l-30 -177l-878 -1313h-211z" />
    <glyph glyph-name="eight" unicode="8" horiz-adv-x="1264" 
d="M545 -20q-151 0 -260 53.5t-160 147.5t-31 216q16 95 67.5 175t126 133.5t158.5 68.5l1 8q-103 28 -151.5 120.5t-29.5 210.5q19 116 91.5 205.5t182.5 140.5t241 51q130 0 226.5 -51.5t143.5 -140.5t28 -203q-13 -80 -54 -149t-101.5 -117t-134.5 -67l-1 -8
q78 -15 135 -69t83.5 -134.5t9.5 -176.5q-21 -121 -100 -214.5t-200.5 -146.5t-270.5 -53zM555 145q97 0 177 32t132 91t65 140q13 82 -16.5 145t-94 99.5t-157.5 36.5q-91 0 -171.5 -35t-136 -98t-70.5 -147q-14 -78 12.5 -137.5t92 -93t167.5 -33.5zM672 848
q80 0 148.5 32t114.5 89.5t58 132.5t-11.5 129.5t-77.5 84.5t-134 30t-148.5 -29.5t-114.5 -84t-59 -131.5q-13 -76 10.5 -133t78.5 -88.5t135 -31.5z" />
    <glyph glyph-name="nine" unicode="9" horiz-adv-x="1268" 
d="M524 -20q-126 0 -222 50t-148.5 140t-50.5 209h188q8 -101 64 -166t171 -65q113 0 208.5 66.5t163 193.5t97.5 308h-12q-51 -62 -113.5 -107t-132.5 -68.5t-146 -23.5q-130 0 -228 64t-144.5 176t-22.5 255q23 134 98.5 248.5t196.5 183.5t277 66q94 -1 183 -36t154 -115
t90.5 -216t-8.5 -340q-33 -196 -93 -349t-144.5 -259t-191.5 -160.5t-234 -54.5zM638 683q66 0 129 26t115 71.5t87.5 105t47.5 126.5q15 86 -13.5 161.5t-93 122.5t-157.5 47q-88 0 -167.5 -44t-134.5 -119.5t-70 -170.5q-14 -88 13 -162.5t89.5 -119t154.5 -44.5z" />
    <glyph glyph-name="colon" unicode=":" horiz-adv-x="590" 
d="M211 -13q-58 0 -94.5 43t-26.5 104q9 53 51.5 87.5t91.5 34.5q61 0 95.5 -43t26.5 -100q-7 -52 -49 -89t-95 -37zM344 796q-58 0 -94.5 43t-26.5 104q9 53 51.5 87.5t91.5 34.5q61 0 95.5 -43t26.5 -100q-7 -52 -49 -89t-95 -37z" />
    <glyph glyph-name="semicolon" unicode=";" horiz-adv-x="616" 
d="M-23 -359l182 567h206l-250 -567h-138zM371 796q-58 0 -94.5 43t-26.5 104q9 53 51.5 87.5t91.5 34.5q61 0 95.5 -43t26.5 -100q-7 -52 -49 -89t-95 -37z" />
    <glyph glyph-name="less" unicode="&#x3c;" horiz-adv-x="1356" 
d="M168 520l22 126l1020 476l-30 -196l-773 -341l4 12l-2 -28l-6 10l663 -341l-33 -194z" />
    <glyph glyph-name="equal" unicode="=" horiz-adv-x="1356" 
d="M255 717l27 166h904l-27 -166h-904zM182 283l27 166h904l-27 -166h-904z" />
    <glyph glyph-name="greater" unicode="&#x3e;" horiz-adv-x="1356" 
d="M1173 520l-1020 -476l33 194l770 341l-4 -10l2 28l6 -12l-659 341l29 196l865 -476z" />
    <glyph glyph-name="question" unicode="?" horiz-adv-x="1047" 
d="M364 449l2 11q25 136 64 211t95 118.5t132 84.5q72 40 127.5 101.5t69.5 148.5q12 70 -12.5 120.5t-74.5 78.5t-118 28q-59 0 -117.5 -24.5t-103.5 -76.5t-64 -135h-190q26 126 95.5 214t170.5 134.5t219 46.5q130 0 221.5 -50.5t133.5 -139.5t23 -203q-20 -121 -87 -207
t-174 -145q-71 -39 -115.5 -75.5t-71 -89t-42.5 -140.5l-2 -11h-181zM381 -13q-56 0 -89 39.5t-24 94.5q9 56 55 95.5t102 39.5t88.5 -39.5t23.5 -95.5q-9 -55 -54.5 -94.5t-101.5 -39.5z" />
    <glyph glyph-name="at" unicode="@" horiz-adv-x="1975" 
d="M901 -395q-223 0 -387 61t-265.5 178.5t-135.5 289t2 391.5q35 214 121.5 383t219.5 287.5t308 180.5t387 62q206 0 353 -66.5t236 -180t121 -255.5t7 -294q-17 -105 -44.5 -213t-75 -198.5t-124.5 -145.5t-194 -55q-75 0 -129 20.5t-82.5 58.5t-27.5 89h-8
q-36 -62 -114 -111.5t-194 -49.5q-132 0 -213 65t-110 177.5t-6 253.5q22 136 91.5 242t171.5 167.5t221 61.5q98 0 160 -35.5t81 -71.5h10l14 83h159l-110 -659q-10 -58 13 -104t89 -46q73 0 121.5 50t81.5 154.5t60 267.5q21 125 -1.5 241.5t-91 209t-187 147t-291.5 54.5
q-171 0 -315 -52.5t-255 -153t-184 -245t-103 -327.5t-5.5 -325.5t103 -240.5t211 -149t318.5 -51q79 0 160 15t146.5 33t96.5 28l19 -140q-48 -19 -119.5 -38t-152 -31.5t-157.5 -12.5zM899 190q97 0 163.5 39t107 117.5t59.5 196.5q20 118 1.5 185.5t-72.5 96t-143 28.5
q-81 0 -146.5 -42t-108.5 -112.5t-57 -156.5q-15 -94 -3 -174.5t60 -129t139 -48.5z" />
    <glyph glyph-name="A" unicode="A" horiz-adv-x="1413" 
d="M-41 0l788 1490h220l301 -1490h-192l-169 884q-13 71 -33 199t-43 318h36q-81 -181 -141.5 -308t-102.5 -209l-454 -884h-210zM300 416l27 166h765l-27 -166h-765z" />
    <glyph glyph-name="B" unicode="B" horiz-adv-x="1340" 
d="M87 0l247 1490h522q156 0 249.5 -54.5t130 -146t18.5 -202.5q-14 -91 -58.5 -153t-107.5 -99.5t-134 -56.5v-10q70 -4 132.5 -49.5t95.5 -129t14 -201.5q-18 -112 -83 -199.5t-182 -138t-292 -50.5h-552zM305 167h345q177 0 264 73.5t103 173.5q12 74 -16.5 133t-91 94
t-154.5 35h-365zM416 836h323q79 0 150 33t121 92.5t63 139.5q16 93 -37.5 157.5t-199.5 64.5h-339z" />
    <glyph glyph-name="C" unicode="C" horiz-adv-x="1495" 
d="M698 -20q-169 0 -295 72t-195 206.5t-69 321.5q0 176 55 342.5t158 299t249 210.5t328 78q115 0 211.5 -33t168 -96t111 -153.5t40.5 -206.5h-190q-3 76 -30.5 134t-74.5 98t-109 60.5t-134 20.5q-140 0 -251 -64t-188.5 -172t-118.5 -241.5t-41 -271.5q0 -140 49 -236
t135 -144.5t198 -48.5q76 0 148.5 20.5t136 60.5t112.5 98t77 134h191q-39 -114 -106 -204t-156.5 -154t-193.5 -97.5t-216 -33.5z" />
    <glyph glyph-name="D" unicode="D" horiz-adv-x="1477" 
d="M585 0h-393l27 168h348q183 0 314.5 70t212 200.5t109.5 309.5q30 180 -7.5 308.5t-142 197t-276.5 68.5h-374l28 168h363q218 0 364 -89.5t207 -256t22 -398.5q-39 -235 -142.5 -401.5t-269 -255.5t-390.5 -89zM524 1490l-247 -1490h-190l247 1490h190z" />
    <glyph glyph-name="E" unicode="E" horiz-adv-x="1232" 
d="M87 0l247 1490h908l-28 -167h-718l-80 -487h669l-28 -167h-670l-83 -502h727l-27 -167h-917z" />
    <glyph glyph-name="F" unicode="F" horiz-adv-x="1209" 
d="M87 0l247 1490h901l-28 -167h-711l-85 -512h643l-27 -167h-643l-107 -644h-190z" />
    <glyph glyph-name="G" unicode="G" horiz-adv-x="1527" 
d="M704 -20q-175 0 -301.5 72t-195 205.5t-68.5 318.5q0 177 54 344t156 300t247.5 211.5t327.5 78.5q120 0 219 -35.5t170.5 -100t111 -154t41.5 -197.5h-196q-11 72 -38.5 129t-71.5 98t-105 62.5t-138 21.5q-138 0 -247.5 -64t-187 -172t-118.5 -241t-41 -271
q0 -211 108 -320.5t280 -109.5q129 0 236.5 55t179.5 155t94 234l53 -17h-443l28 166h572l-28 -169q-23 -138 -85 -248.5t-155 -189t-210 -120.5t-249 -42z" />
    <glyph glyph-name="H" unicode="H" horiz-adv-x="1522" 
d="M87 0l247 1490h190l-107 -644h782l107 644h190l-247 -1490h-190l113 678h-783l-112 -678h-190z" />
    <glyph glyph-name="I" unicode="I" horiz-adv-x="550" 
d="M524 1490l-247 -1490h-190l247 1490h190z" />
    <glyph glyph-name="J" unicode="J" horiz-adv-x="1169" 
d="M458 -20q-175 0 -281.5 91.5t-106.5 260.5q0 15 1.5 33.5t6 51.5t13.5 89h190q-8 -52 -12.5 -80.5t-5.5 -43t-1 -25.5q0 -102 57.5 -156t157.5 -54q112 0 194.5 70t105.5 209l177 1064h190l-177 -1064q-35 -212 -172.5 -329t-336.5 -117z" />
    <glyph glyph-name="K" unicode="K" horiz-adv-x="1376" 
d="M288 426l24 203q63 70 124.5 134t124.5 125t128 121l525 481h258l-749 -682l-11 1zM87 0l247 1490h191l-85 -510l-57 -321l-12 -93l-93 -566h-191zM1017 0l-412 758l125 148l496 -906h-209z" />
    <glyph glyph-name="L" unicode="L" horiz-adv-x="1158" 
d="M87 0l247 1490h190l-219 -1322h690l-28 -168h-880z" />
    <glyph glyph-name="M" unicode="M" horiz-adv-x="1850" 
d="M87 0l247 1490h270l211 -940q8 -34 16.5 -84.5t17 -108.5t16 -115t12.5 -104h-42q23 50 50 108t54.5 115.5t52 106.5t42.5 82l519 940h271l-247 -1490h-187l140 851q8 50 19 112t23.5 128t25 130.5t22.5 120.5h16q-33 -70 -68.5 -142t-69 -138t-62 -120.5t-48.5 -90.5
l-474 -851h-165l-197 851q-10 46 -24.5 123.5t-31 173.5t-34.5 194h19q-8 -60 -17.5 -126t-19.5 -131.5t-19 -125.5t-17 -108l-140 -851h-181z" />
    <glyph glyph-name="N" unicode="N" horiz-adv-x="1543" 
d="M87 0l247 1490h218l448 -953q14 -30 38.5 -86.5t53 -132t54.5 -163.5h-21q5 86 14 163.5t19 143.5t18 114l151 914h190l-247 -1490h-219l-400 848q-25 54 -51.5 115.5t-61 148.5t-86.5 217h28q-15 -121 -26.5 -214t-20 -159t-15.5 -106l-140 -850h-191z" />
    <glyph glyph-name="O" unicode="O" horiz-adv-x="1566" 
d="M699 -20q-169 0 -295 72t-195.5 206.5t-69.5 321.5q0 177 55 343.5t159 298.5t250 210t327 78q169 0 294 -72t194.5 -206t69.5 -321q0 -178 -55 -344.5t-158.5 -299t-249 -210t-326.5 -77.5zM706 156q140 0 251 64t188.5 172t118 241.5t40.5 272.5q0 140 -48.5 235.5
t-134.5 144t-198 48.5q-140 0 -251 -64t-189 -172t-119 -241t-41 -272q0 -140 49 -235.5t135.5 -144.5t198.5 -49z" />
    <glyph glyph-name="P" unicode="P" horiz-adv-x="1308" 
d="M87 0l247 1490h510q173 0 275 -62.5t139.5 -169.5t15.5 -240q-21 -133 -93.5 -241.5t-195.5 -173t-297 -64.5h-361l28 167h351q121 0 199.5 41.5t122 112.5t57.5 157q14 87 -7 156t-86.5 109.5t-185.5 40.5h-310l-219 -1323h-190z" />
    <glyph glyph-name="Q" unicode="Q" horiz-adv-x="1566" 
d="M740 466h182l130 -218l32 -58l194 -330h-182l-126 218l-33 56zM699 -20q-169 0 -295 72t-195.5 206.5t-69.5 321.5q0 177 55 343.5t159 298.5t250 210t327 78q169 0 294 -72t194.5 -206t69.5 -321q0 -178 -55 -344.5t-158.5 -299t-249 -210t-326.5 -77.5zM706 156
q140 0 251 64t188.5 172t118 241.5t40.5 272.5q0 140 -48.5 235.5t-134.5 144t-198 48.5q-140 0 -251 -64t-189 -172t-119 -241t-41 -272q0 -140 49 -235.5t135.5 -144.5t198.5 -49z" />
    <glyph glyph-name="R" unicode="R" horiz-adv-x="1318" 
d="M87 0l247 1490h510q176 0 278.5 -60t139 -164t14.5 -236t-93 -234t-193 -160t-296 -58h-405l28 169h395q119 0 197 34.5t121 98.5t57 150q23 139 -43 216t-238 77h-310l-219 -1323h-190zM943 0l-249 671h214l255 -671h-220z" />
    <glyph glyph-name="S" unicode="S" horiz-adv-x="1312" 
d="M575 -26q-160 0 -274 51.5t-170 145.5t-44 219h195q-6 -84 34 -138.5t111.5 -81t159.5 -26.5q101 0 187 33t143 92.5t70 139.5q12 72 -20.5 116.5t-94.5 73.5t-140 52l-172 51q-160 47 -250.5 139t-65.5 248q20 126 99.5 221t200.5 147.5t266 52.5t253.5 -51.5t164 -141
t40.5 -203.5h-185q5 108 -76 168t-215 60q-97 0 -174 -31t-126 -85.5t-61 -123.5q-13 -78 26.5 -126t102 -74.5t115.5 -42.5l142 -41q56 -16 123.5 -43.5t126.5 -73.5t90 -118t14 -177q-20 -122 -95.5 -220t-201.5 -155t-299 -57z" />
    <glyph glyph-name="T" unicode="T" horiz-adv-x="1324" 
d="M226 1323l28 167h1126l-28 -167h-467l-219 -1323h-190l219 1323h-469z" />
    <glyph glyph-name="U" unicode="U" horiz-adv-x="1523" 
d="M677 -24q-179 0 -301 70.5t-175.5 192.5t-28.5 275l162 976h190l-161 -974q-18 -109 15 -191t111 -127.5t195 -45.5q123 0 221 49t161.5 134t81.5 194l159 961h190l-163 -989q-25 -154 -115.5 -272.5t-229.5 -185.5t-312 -67z" />
    <glyph glyph-name="V" unicode="V" horiz-adv-x="1413" 
d="M507 0l-301 1490h200l169 -884q17 -90 35 -210.5t41 -305.5h-36q81 182 141.5 308t102.5 208l454 884h202l-789 -1490h-219z" />
    <glyph glyph-name="W" unicode="W" horiz-adv-x="2018" 
d="M365 0l-159 1490h194l84 -914q7 -73 11.5 -148.5t8 -153t4.5 -159.5h-24q28 82 57 159.5t59.5 153t61.5 148.5l393 914h216l88 -914q7 -73 12.5 -148.5t9.5 -153t6 -159.5h-27q28 82 57.5 159.5t59.5 153t61 148.5l386 914h196l-655 -1490h-221l-99 944
q-10 93 -14.5 199.5t-3.5 251.5h39q-44 -137 -83.5 -243.5t-83.5 -207.5l-412 -944h-222z" />
    <glyph glyph-name="X" unicode="X" horiz-adv-x="1397" 
d="M-36 0l720 833l-23 -141l-417 798h211l162 -316q36 -69 58.5 -117t40.5 -94t39 -111h-33q43 64 77 110.5t73 95t98 116.5l272 316h224l-681 -790l23 140l439 -840h-211l-198 378q-32 62 -53.5 106.5t-39 89t-38.5 106.5h40q-40 -61 -73 -106t-70 -89.5t-90 -106.5
l-326 -378h-224z" />
    <glyph glyph-name="Y" unicode="Y" horiz-adv-x="1390" 
d="M507 0l101 610l-402 880h206l215 -481q36 -81 62.5 -154.5t49.5 -185.5h-76q60 114 111 188.5t111 151.5l374 481h233l-694 -880l-101 -610h-190z" />
    <glyph glyph-name="Z" unicode="Z" horiz-adv-x="1290" 
d="M38 0l23 134l995 1189h-807l28 167h1037l-23 -136l-996 -1187h807l-28 -167h-1036z" />
    <glyph glyph-name="bracketleft" unicode="[" horiz-adv-x="747" 
d="M87 -279l308 1860h398l-25 -153h-226l-258 -1554h226l-25 -153h-398z" />
    <glyph glyph-name="backslash" unicode="\" horiz-adv-x="736" 
d="M398 -224l-186 1784h162l184 -1784h-160z" />
    <glyph glyph-name="bracketright" unicode="]" horiz-adv-x="748" 
d="M-15 -279l25 153h226l258 1554h-226l25 153h398l-308 -1860h-398z" />
    <glyph glyph-name="asciicircum" unicode="^" horiz-adv-x="965" 
d="M596 1360h52l-12 -75h-52zM126 814l401 629h202l198 -629h-170l-153 501h18l-311 -501h-185z" />
    <glyph glyph-name="underscore" unicode="_" horiz-adv-x="934" 
d="M841 0l-27 -166h-934l27 166h934z" />
    <glyph glyph-name="grave" unicode="`" horiz-adv-x="659" 
d="M459 1264l-144 294h201l90 -294h-147z" />
    <glyph glyph-name="a" unicode="a" horiz-adv-x="1257" 
d="M481 -24q-139 0 -234 71.5t-133.5 202t-9.5 307.5q30 178 112 306.5t201 198.5t258 70q108 0 166 -35.5t84.5 -81t40.5 -76.5h15l29 179h181l-185 -1118h-175l28 173h-21q-25 -33 -68 -79.5t-113 -82t-176 -35.5zM537 137q102 0 180.5 54t130.5 149t72 219
q21 124 0.5 216.5t-82 144t-163.5 51.5q-107 0 -187.5 -55.5t-131 -148.5t-69.5 -208q-19 -117 1 -213t82 -152.5t167 -56.5z" />
    <glyph glyph-name="b" unicode="b" horiz-adv-x="1255" 
d="M592 -24q-108 0 -169 35.5t-91 82t-45 79.5h-18l-30 -173h-174l247 1490h180l-92 -551h15q26 32 66 77.5t106.5 80.5t171.5 35q123 0 213 -54t139 -154t49 -239q0 -130 -38.5 -256.5t-111.5 -228.5t-178.5 -163t-239.5 -61zM568 137q100 0 176.5 49t129 129.5t79 176
t26.5 188.5q0 128 -60.5 209.5t-189.5 81.5q-101 0 -177 -47.5t-126.5 -126.5t-76 -175t-25.5 -193q0 -133 61 -212.5t183 -79.5z" />
    <glyph glyph-name="c" unicode="c" horiz-adv-x="1171" 
d="M528 -24q-135 0 -232 56.5t-149.5 159.5t-52.5 241q0 133 41.5 258t119.5 224.5t189.5 158t252.5 58.5q83 0 153.5 -21.5t124 -62.5t87.5 -99t45 -131l-176 -39q-5 43 -23 78t-48 60.5t-71.5 39.5t-95.5 14q-102 0 -180 -48t-131.5 -127t-80.5 -173.5t-27 -187.5
q0 -83 26.5 -151t83.5 -107.5t148 -39.5q58 0 109.5 16t94 44.5t74.5 67t51 83.5l166 -58q-34 -74 -86 -132t-117 -98.5t-140 -62t-156 -21.5z" />
    <glyph glyph-name="d" unicode="d" horiz-adv-x="1255" 
d="M492 -24q-183 0 -290.5 120.5t-107.5 328.5q0 132 38.5 258t112 227.5t179 161.5t239.5 60q111 0 171.5 -36.5t89 -83.5t42.5 -78h12l92 556h181l-247 -1490h-175l30 173h-19q-24 -35 -65.5 -81.5t-110 -81t-172.5 -34.5zM524 137q101 0 177 49t127 130t77 178t26 192
q0 131 -61 208t-186 77q-100 0 -176 -47.5t-127.5 -126t-78 -173t-26.5 -189.5q0 -130 60.5 -214t187.5 -84z" />
    <glyph glyph-name="e" unicode="e" horiz-adv-x="1179" 
d="M535 -24q-138 0 -236.5 54t-151.5 155t-53 242q0 147 47 276.5t131 228t194.5 154.5t237.5 56q108 0 188 -37.5t124 -106t44 -161.5q0 -94 -48.5 -160.5t-150.5 -108.5t-261.5 -61.5t-380.5 -19.5l24 136q183 0 306 10.5t195.5 35.5t104 67t31.5 105q0 64 -53.5 102.5
t-140.5 38.5q-113 0 -192.5 -54.5t-129.5 -140t-73.5 -181t-23.5 -178.5q0 -82 27 -148.5t88.5 -105.5t163.5 -39q107 0 190.5 46.5t126.5 126.5l167 -47q-62 -132 -195.5 -208.5t-299.5 -76.5z" />
    <glyph glyph-name="f" unicode="f" horiz-adv-x="764" 
d="M780 1118l-24 -146h-667l24 146h667zM-56 -448q-21 0 -41.5 2t-39 5.5t-36.5 9.5l45 161q14 -5 48 -8.5t47 -3.5q72 0 113.5 39.5t55.5 125.5l217 1312q20 118 72 199.5t134 123.5t190 42q39 0 74 -6t71 -14l-50 -154q-17 4 -54 6t-67 2q-80 0 -126 -48t-63 -148
l-217 -1314q-18 -109 -67 -183t-126.5 -111.5t-179.5 -37.5z" />
    <glyph glyph-name="g" unicode="g" horiz-adv-x="1256" 
d="M456 -442q-129 0 -216 33.5t-139 87t-76 112.5l155 84q17 -30 45 -67.5t83 -65t152 -27.5q138 0 239 67.5t124 204.5l37 218l-16 -4q-25 -33 -66 -76t-108 -75t-172 -32q-119 0 -209.5 49.5t-141.5 144.5t-51 231q0 128 39 250.5t113 221.5t179 158t237 59q83 0 137 -22
t86.5 -55t50 -66t27.5 -55l21 5l30 179h175l-192 -1153q-24 -144 -102 -233.5t-192.5 -131.5t-248.5 -42zM531 178q103 0 178.5 45t125 119.5t73.5 165t24 182.5q0 128 -61 204.5t-186 76.5q-97 0 -173 -45t-128.5 -120.5t-79.5 -167.5t-27 -185q0 -125 63 -200t191 -75z
" />
    <glyph glyph-name="h" unicode="h" horiz-adv-x="1211" 
d="M356 670l-111 -670h-180l247 1490h180l-107 -643h-31q52 105 114.5 167.5t135.5 90t156 27.5q113 0 193 -46.5t114.5 -140t10.5 -235.5l-118 -710h-181l116 695q22 131 -35 203t-173 72q-79 0 -148.5 -35t-118 -101.5t-64.5 -163.5z" />
    <glyph glyph-name="i" unicode="i" horiz-adv-x="497" 
d="M66 0l185 1118h180l-185 -1118h-180zM372 1301q-51 0 -82 35t-23 84q8 50 51 84.5t94 34.5q52 0 83 -34.5t23 -84.5q-8 -49 -51 -84t-95 -35z" />
    <glyph glyph-name="j" unicode="j" horiz-adv-x="496" 
d="M250 1118h181l-199 -1198q-17 -106 -66 -181.5t-128.5 -116t-188.5 -40.5h-36l27 166h33q77 0 121.5 44t57.5 128zM371 1301q-51 0 -82 35t-23 84q8 50 51 84.5t94 34.5q52 0 83 -34.5t23 -84.5q-8 -49 -51 -84t-95 -35z" />
    <glyph glyph-name="k" unicode="k" horiz-adv-x="1125" 
d="M301 402l37 223h33l559 493h223l-605 -531h-20zM65 0l247 1490h180l-247 -1490h-180zM772 0l-338 547l150 127l419 -674h-231z" />
    <glyph glyph-name="l" unicode="l" horiz-adv-x="496" 
d="M492 1490l-247 -1490h-180l247 1490h180z" />
    <glyph glyph-name="m" unicode="m" horiz-adv-x="1794" 
d="M65 0l186 1118h175l-40 -250l-15 5q38 92 96.5 150.5t127 86.5t137.5 28q86 0 143 -37t85.5 -99.5t30.5 -141.5l-22 12q34 83 95 142.5t140 91.5t165 32q100 0 175 -43.5t110 -130t13 -216.5l-124 -748h-180l126 756q14 81 -8.5 129t-68 68.5t-101.5 20.5
q-80 0 -143 -33.5t-102.5 -90t-51.5 -126.5l-120 -724h-180l128 773q16 95 -35 148t-139 53q-68 0 -133 -31.5t-112 -93.5t-62 -152l-116 -697h-180z" />
    <glyph glyph-name="n" unicode="n" horiz-adv-x="1211" 
d="M356 664l-111 -664h-180l186 1118h173l-44 -271l-26 6q75 152 177 215.5t227 63.5q116 0 196 -48t113.5 -143t9.5 -237l-117 -704h-180l117 701q22 131 -32 200t-167 69q-82 0 -154 -36.5t-122 -105t-66 -164.5z" />
    <glyph glyph-name="o" unicode="o" horiz-adv-x="1229" 
d="M528 -24q-135 0 -232 56.5t-149.5 159.5t-52.5 241q0 133 41.5 258t120 224.5t190 158t251.5 58.5q135 0 233 -56t150.5 -159t52.5 -243q0 -135 -42 -260t-121.5 -224t-191 -156.5t-250.5 -57.5zM532 137q103 0 181.5 48t131.5 126.5t80 172.5t27 186q0 85 -27 153
t-84 108t-149 40q-102 0 -180 -48t-131 -127t-80 -173.5t-27 -187.5q0 -126 61 -212t197 -86z" />
    <glyph glyph-name="p" unicode="p" horiz-adv-x="1255" 
d="M-4 -418l255 1536h174l-30 -179h9q24 34 66.5 79.5t112.5 79.5t176 34q123 0 213 -54t139 -154t49 -239q0 -130 -38.5 -256.5t-111.5 -228.5t-178.5 -163t-239.5 -61q-109 0 -169.5 37.5t-89 85.5t-41.5 79h-17l-99 -596h-180zM568 137q100 0 176.5 49t129 129.5t79 176
t26.5 188.5q0 128 -60.5 209.5t-189.5 81.5q-101 0 -177 -47.5t-126.5 -126.5t-76 -175t-25.5 -193q0 -133 61 -212.5t183 -79.5z" />
    <glyph glyph-name="q" unicode="q" horiz-adv-x="1255" 
d="M935 -418h-181l99 590h-16q-25 -37 -66.5 -83t-108.5 -79.5t-170 -33.5q-122 0 -211.5 54.5t-138 155t-48.5 239.5q0 132 38.5 258t112 227.5t179 161.5t239.5 60q111 0 173 -37.5t92 -86t45 -80.5h10l32 190h175zM524 137q101 0 177 49t127 130t77 178t26 192
q0 131 -61 208t-186 77q-100 0 -176 -47.5t-127.5 -126t-78 -173t-26.5 -189.5q0 -130 60.5 -214t187.5 -84z" />
    <glyph glyph-name="r" unicode="r" horiz-adv-x="772" 
d="M66 0l185 1118h174l-28 -172h12q44 85 132.5 136.5t188.5 51.5q20 0 47 -1t43 -2l-30 -181q-12 2 -42.5 6t-63.5 4q-80 0 -149 -33.5t-114.5 -92t-58.5 -134.5l-116 -700h-180z" />
    <glyph glyph-name="s" unicode="s" horiz-adv-x="1080" 
d="M451 -24q-112 0 -195.5 32t-133 93t-59.5 149q-1 7 -1.5 13.5t-0.5 13.5l174 29q8 -92 65 -132t154 -40q81 0 145 25t104 66t48 90q8 53 -24 88.5t-111 54.5l-179 44q-146 36 -209.5 115t-43.5 201q16 93 80 164t161.5 110.5t213.5 39.5q161 0 245.5 -65.5t111.5 -167.5
q3 -10 5.5 -20.5t3.5 -21.5l-165 -30q-13 60 -56.5 106t-147.5 46q-69 0 -128 -23t-97.5 -62t-46.5 -89q-10 -58 27 -92t131 -57l162 -40q146 -36 209 -115t43 -198q-12 -71 -53 -131t-105.5 -104t-147.5 -68t-179 -24z" />
    <glyph glyph-name="t" unicode="t" horiz-adv-x="672" 
d="M691 1118l-25 -154h-578l25 154h578zM326 1384h180l-181 -1094q-13 -77 13 -110.5t95 -33.5q17 0 44 4t50 8l11 -152q-27 -9 -63 -14.5t-73 -5.5q-147 0 -214.5 77t-45.5 213z" />
    <glyph glyph-name="u" unicode="u" horiz-adv-x="1212" 
d="M443 -14q-112 0 -189.5 46t-110 140t-9.5 236l117 710h180l-114 -695q-21 -128 33.5 -201.5t172.5 -73.5q79 0 148.5 34.5t118.5 101.5t65 164l110 670h181l-185 -1118h-174l45 271h24q-77 -157 -183 -221t-230 -64z" />
    <glyph glyph-name="v" unicode="v" horiz-adv-x="1151" 
d="M389 0l-242 1118h188l129 -663q20 -103 30 -205.5t23 -198.5h-66q45 96 88 198t98 206l348 663h205l-612 -1118h-189z" />
    <glyph glyph-name="w" unicode="w" horiz-adv-x="1676" 
d="M317 0l-154 1118h191l55 -488q11 -100 22 -226t17 -287h-31q55 153 106.5 279.5t98.5 233.5l215 488h192l51 -488q11 -100 20.5 -226t14.5 -287h-32q56 154 108 279.5t100 233.5l217 488h191l-524 -1118h-179l-61 506q-8 71 -16 150t-14.5 165.5t-12.5 176.5h39
q-35 -89 -70.5 -174.5t-69.5 -165.5t-67 -153l-228 -505h-179z" />
    <glyph glyph-name="x" unicode="x" horiz-adv-x="1118" 
d="M-28 0l548 643l-24 -138l-316 613h202l104 -217q41 -84 67.5 -157t57.5 -141h-94q54 68 102 141t116 157l178 217h214l-521 -621l21 133l333 -630h-204l-123 251q-40 82 -66 152.5t-57 135.5h95q-52 -65 -98.5 -135.5t-114.5 -152.5l-207 -251h-213z" />
    <glyph glyph-name="y" unicode="y" horiz-adv-x="1151" 
d="M-19 -405l72 156l17 -4q55 -13 101.5 -6.5t88 44t81.5 116.5l47 93l-241 1124h188l129 -663q20 -103 29.5 -205.5t22.5 -198.5h-66q45 96 88 198.5t98 205.5l349 663h205l-704 -1285q-48 -88 -105.5 -145.5t-125 -85.5t-147.5 -28q-44 0 -78.5 7t-48.5 14z" />
    <glyph glyph-name="z" unicode="z" horiz-adv-x="1131" 
d="M33 0l23 134l752 806l2 11h-599l27 167h839l-24 -143l-732 -797l-2 -11h620l-27 -167h-879z" />
    <glyph glyph-name="braceleft" unicode="{" horiz-adv-x="875" 
d="M160 646l15 95q123 0 180 50.5t76 168.5l38 230q17 102 49.5 176t85.5 121.5t130.5 70.5t185.5 23l-25 -151q-127 1 -183.5 -58.5t-77.5 -184.5l-48 -286q-9 -56 -31.5 -102.5t-69 -81t-125 -53t-200.5 -18.5zM612 -279q-106 0 -176.5 22.5t-108 69.5t-46 121.5
t8.5 177.5l38 228q20 117 -19.5 168.5t-162.5 52.5l16 95q120 0 192.5 -19t107.5 -53t42.5 -81t-1.5 -104l-47 -284q-21 -127 17 -186t165 -59zM146 560l30 182h180l-31 -182h-179z" />
    <glyph glyph-name="bar" unicode="|" horiz-adv-x="681" 
d="M651 1970l-404 -2450h-157l404 2450h157z" />
    <glyph glyph-name="braceright" unicode="}" horiz-adv-x="874" 
d="M743 646q-122 0 -195 18.5t-107.5 53t-41.5 81t2 102.5l48 286q21 125 -16.5 184.5t-165.5 58.5l25 151q108 0 178.5 -23t107.5 -70.5t45.5 -121.5t-8.5 -176l-38 -230q-19 -118 20 -168.5t161 -50.5zM-16 -279l25 149q127 0 184 59t78 186l47 284q9 57 32 104t69.5 81
t125 53t199.5 19l-15 -95q-124 -1 -180 -53t-75 -168l-37 -228q-16 -102 -48.5 -175.5t-85.5 -121.5t-131.5 -71t-187.5 -23zM729 561l-179 -1l30 182l178 -1z" />
    <glyph glyph-name="asciitilde" unicode="~" horiz-adv-x="1356" 
d="M148 439q19 123 71 198t123 109t147 34q74 0 130 -31.5t126 -101.5q46 -46 77 -65t69 -19q63 0 106.5 45t56.5 132h162q-17 -121 -68.5 -194.5t-122.5 -107t-148 -33.5q-75 0 -130 33.5t-123 100.5q-46 46 -79 61.5t-72 15.5q-58 0 -102 -40.5t-59 -136.5h-164z" />
    <glyph glyph-name="uni00A0" unicode="&#xa0;" horiz-adv-x="576" 
 />
    <glyph glyph-name="exclamdown" unicode="&#xa1;" horiz-adv-x="589" 
d="M41 -361l181 1011h179l-156 -1011h-204zM347 873q-55 0 -88.5 39.5t-23.5 95.5q9 56 55 95t101 39q56 0 89 -39t24 -95q-10 -56 -55.5 -95.5t-101.5 -39.5z" />
    <glyph glyph-name="cent" unicode="&#xa2;" horiz-adv-x="1171" 
d="M451 0l247 1490h118l-247 -1490h-118zM560 166q-135 0 -232 56.5t-149.5 159t-52.5 241.5q0 133 41.5 258t119.5 224.5t189.5 158t252.5 58.5q83 0 153.5 -21.5t124 -62.5t87.5 -99t45 -131l-176 -39q-5 43 -23 78t-48 60.5t-71.5 39.5t-95.5 14q-102 0 -180 -48
t-131.5 -127t-80.5 -173.5t-27 -187.5q0 -83 26.5 -151t83.5 -107.5t148 -39.5q58 0 109.5 16t94 44.5t74.5 67t51 83.5l166 -58q-34 -74 -86 -132t-117 -98.5t-140 -62t-156 -21.5z" />
    <glyph glyph-name="sterling" unicode="&#xa3;" horiz-adv-x="1250" 
d="M38 120l7 47q80 0 131.5 46t65.5 153l91 684q18 136 88 239.5t179.5 162t246.5 58.5q115 0 202.5 -46.5t136.5 -130t48 -195.5l-177 -28q-1 110 -58.5 171.5t-163.5 61.5q-87 0 -155 -35t-111 -99.5t-55 -153.5l-92 -682q-9 -67 -42.5 -112t-80 -73t-96.5 -43t-94 -20
t-71 -5zM18 0l27 167h777q44 0 67.5 19t30.5 65l10 62h169l-8 -47q-23 -136 -98 -201t-205 -65h-770zM129 670l24 150h812l-25 -150h-811z" />
    <glyph glyph-name="currency" unicode="&#xa4;" horiz-adv-x="1484" 
d="M642 -20q-123 0 -223 47.5t-167 133t-94 200t-5 247.5q21 133 85.5 247t160 199t211 132.5t238.5 47.5q122 0 222.5 -47t170 -131.5t98 -198.5t6.5 -248t-88 -248.5t-163 -200t-213 -133t-239 -47.5zM668 142q89 0 173 36t154 100t118 148t64 180q23 130 -18.5 236
t-129.5 169t-207 63t-227 -62.5t-183 -168t-97 -235.5q-22 -127 18.5 -233t128 -169.5t206.5 -63.5zM1222 925l-98 124l236 206l102 -124zM1148 -15l-166 206l140 122l168 -204zM141 -15l-97 124l236 204l100 -122zM382 925l-166 206l138 124l168 -206z" />
    <glyph glyph-name="yen" unicode="&#xa5;" horiz-adv-x="1129" 
d="M396 1490l240 -824l-157 -66l-292 890h209zM534 666l512 824h209l-589 -890zM699 782l-131 -782h-190l132 782h189zM1014 744l-21 -136h-839l21 136h839zM967 456l-20 -136h-839l21 136h838z" />
    <glyph glyph-name="brokenbar" unicode="&#xa6;" horiz-adv-x="553" 
d="M166 403h169l-114 -683h-169zM515 1490l-114 -679h-169l114 679h169z" />
    <glyph glyph-name="section" unicode="&#xa7;" horiz-adv-x="1161" 
d="M419 -302q-114 0 -188.5 37t-113 106.5t-44.5 166.5l168 42q10 -91 53.5 -144.5t153.5 -53.5q93 0 157 40.5t77 119.5q9 55 -10 92t-50.5 63t-62.5 45l-255 164q-58 38 -97.5 89t-56.5 110t-7 119q10 61 47 117.5t94.5 94.5t128.5 42l4 5q-58 57 -82.5 114t-11.5 136
q16 95 73.5 163.5t147 106t200.5 37.5q109 0 177.5 -36.5t105.5 -106t49 -170.5l-159 -41q-18 97 -55.5 148.5t-139.5 51.5q-96 0 -156 -43t-72 -116q-8 -53 10.5 -90.5t51 -63.5t63.5 -47l254 -166q60 -39 98.5 -90.5t55 -108.5t6.5 -115q-10 -63 -48.5 -118.5t-96 -91.5
t-124.5 -42l-4 -7q42 -36 66 -75t31.5 -83t-0.5 -94q-15 -94 -75.5 -163t-154 -106.5t-208.5 -37.5zM656 350q28 -18 75 -5.5t88.5 53.5t52.5 107q7 41 -3 76t-35 65.5t-66 55.5l-259 164q-29 19 -73 5t-82 -55.5t-49 -106.5q-6 -40 2.5 -75.5t34.5 -67.5t70 -60z" />
    <glyph glyph-name="dieresis" unicode="&#xa8;" horiz-adv-x="1211" 
d="M939 1301q-49 0 -78 35t-21 84t49 83.5t90 34.5t77.5 -34.5t20.5 -83.5t-48.5 -84t-89.5 -35zM518 1301q-49 0 -78 35t-21 84t49 83.5t90 34.5t77.5 -34.5t20.5 -83.5t-48.5 -84t-89.5 -35z" />
    <glyph glyph-name="copyright" unicode="&#xa9;" horiz-adv-x="1873" 
d="M542 744q20 120 94.5 218t182.5 156t227 58q104 0 184 -44.5t125 -120.5t43 -173h-176q-3 74 -61.5 122t-142.5 48q-72 0 -138 -35.5t-112 -95.5t-58 -133q-12 -72 14 -131.5t80.5 -95t126.5 -35.5q84 0 150 47.5t94 122.5h176q-29 -97 -95.5 -174t-157.5 -121.5
t-195 -44.5q-119 0 -207.5 58.5t-130.5 156.5t-23 217zM840 -23q-143 0 -262.5 48.5t-206.5 136t-135 204.5t-48 253q0 175 74 335.5t201 286.5t290 199t341 73q143 0 262.5 -48.5t206.5 -135.5t135 -203.5t48 -253.5q0 -175 -74 -336t-201 -287t-290 -199t-341 -73z
M869 151q138 0 263.5 56.5t224 154t155.5 222t57 260.5q0 141 -64.5 253t-178 177t-260.5 65q-138 0 -264 -56.5t-224.5 -154t-155.5 -221.5t-57 -259q0 -141 64.5 -253.5t178.5 -178t261 -65.5z" />
    <glyph glyph-name="ordfeminine" unicode="&#xaa;" horiz-adv-x="929" 
d="M385 647q-85 0 -149 29.5t-94.5 86.5t-17.5 139q16 95 76 146t143 73.5t168 31.5q122 13 176.5 22.5t61.5 53.5l1 4q11 68 -26.5 106t-123.5 38q-58 0 -103 -16t-76.5 -41.5t-49.5 -55.5l-154 39q44 76 109.5 122.5t141.5 67.5t152 21q53 0 111 -12.5t106.5 -44
t72.5 -88.5t9 -147l-92 -557h-166l19 115h-9q-34 -50 -105.5 -91.5t-180.5 -41.5zM443 781q74 0 130.5 26.5t91 69t42.5 90.5l18 106q-14 -11 -57.5 -20t-91.5 -14.5t-78 -9.5q-80 -10 -137.5 -38.5t-68.5 -90.5q-10 -58 33.5 -88.5t117.5 -30.5z" />
    <glyph glyph-name="guillemotleft" unicode="&#xab;" horiz-adv-x="1193" 
d="M432 144l-323 472l479 472h206l-472 -472l316 -472h-206zM838 144l-323 472l479 472h206l-472 -472l316 -472h-206z" />
    <glyph glyph-name="logicalnot" unicode="&#xac;" horiz-adv-x="1356" 
d="M851 315l45 271h-667l26 159h836l-71 -430h-169z" />
    <glyph glyph-name="registered" unicode="&#xae;" horiz-adv-x="1364" 
d="M646 346q-120 0 -218 45.5t-165 125.5t-94.5 185.5t-7.5 225.5t82.5 225.5t156 185.5t206.5 125.5t233 45.5q121 0 219 -45.5t164.5 -125.5t94.5 -185.5t8 -225.5t-83 -225.5t-156 -185.5t-206 -125.5t-234 -45.5zM670 487q92 0 177.5 34t156 95t118 141t62.5 171
q20 122 -23 222t-133 159.5t-212 59.5q-91 0 -176.5 -34t-156.5 -95t-118.5 -140.5t-62.5 -171.5q-20 -122 23 -222t133.5 -159.5t211.5 -59.5zM822 661l-89 254h130l91 -254h-132zM493 661l89 536h272q34 0 70 -18.5t57.5 -56t11.5 -95.5q-10 -59 -45 -100.5t-79 -62.5
t-81 -21h-195l14 89h159q25 0 56.5 23.5t39.5 71.5t-17 65.5t-47 17.5h-110l-75 -449h-120z" />
    <glyph glyph-name="macron" unicode="&#xaf;" horiz-adv-x="979" 
d="M921 1491l-24 -142h-554l24 142h554z" />
    <glyph glyph-name="degree" unicode="&#xb0;" horiz-adv-x="933" 
d="M568 829q-93 0 -169 45.5t-121.5 121.5t-45.5 168q0 93 45.5 170t121.5 122.5t169 45.5t169 -45.5t121 -122.5t45 -170q0 -92 -45 -168.5t-121 -121.5t-169 -45zM568 979q52 0 93.5 25t66.5 67t25 93q0 52 -25 94t-66.5 67.5t-93.5 25.5q-51 0 -93.5 -25t-68 -67.5
t-25.5 -94.5q0 -51 25.5 -93t68 -67t93.5 -25z" />
    <glyph glyph-name="plusminus" unicode="&#xb1;" horiz-adv-x="1356" 
d="M126 69l27 168h943l-27 -168h-943zM224 658l27 168h943l-27 -168h-943zM562 364l124 757h171l-125 -757h-170z" />
    <glyph glyph-name="two.sups" unicode="&#xb2;" horiz-adv-x="906" 
d="M175 898l20 123l385 269q54 38 90.5 67t56.5 55.5t25 56.5q9 54 -32.5 85.5t-110.5 31.5q-71 0 -121 -31.5t-59 -85.5h-166q19 114 122 182.5t247 68.5q151 0 230.5 -66.5t62.5 -170.5q-6 -33 -21 -66.5t-48.5 -71.5t-92.5 -84t-151 -106l-171 -111l-1 -7h437l-23 -139
h-679z" />
    <glyph glyph-name="three.sups" unicode="&#xb3;" horiz-adv-x="912" 
d="M512 888q-98 0 -173.5 29t-114 81.5t-28.5 122.5h176q-4 -40 44.5 -65.5t121.5 -25.5q78 0 132.5 31t62.5 78q8 49 -40.5 80t-140.5 31h-76l20 123h76q77 0 132.5 30.5t62.5 78.5q8 45 -30.5 73.5t-106.5 28.5q-70 0 -124 -27.5t-63 -72.5h-167q13 70 67 123t135.5 83
t175.5 30q146 0 223 -66.5t61 -163.5q-11 -68 -70 -113.5t-143 -56.5l-1 -6q104 -13 153 -62t36 -126q-11 -69 -66.5 -123t-142 -84.5t-192.5 -30.5z" />
    <glyph glyph-name="acute" unicode="&#xb4;" horiz-adv-x="422" 
d="M160 1282l186 276h201l-240 -276h-147z" />
    <glyph glyph-name="uni00B5" unicode="&#xb5;" horiz-adv-x="1202" 
d="M-3 -418l254 1536h180l-112 -678q-17 -106 9 -171.5t82.5 -95.5t130.5 -30q78 0 142.5 31.5t109 97t61.5 168.5l112 678h180l-143 -865q-9 -55 11 -76.5t81 -21.5h29l-26 -155h-36q-137 0 -196.5 63.5t-38.5 187.5l17 101h41q-18 -111 -61 -183t-98.5 -112t-111.5 -56.5
t-101 -16.5t-95.5 16.5t-92 57t-60.5 112t-1 182.5h41l-128 -770h-180z" />
    <glyph glyph-name="paragraph" unicode="&#xb6;" horiz-adv-x="1234" 
d="M1168 1324h-354l-127 -772h-84q-160 0 -260 61.5t-139 168t-17 240.5q23 135 97.5 240.5t194.5 166.5t278 61h438zM775 0l248 1490h185l-248 -1490h-185z" />
    <glyph glyph-name="periodcentered" unicode="&#xb7;" horiz-adv-x="589" 
d="M307 573q-58 0 -94.5 43t-26.5 104q9 53 51.5 87.5t91.5 34.5q61 0 95.5 -43t26.5 -100q-7 -52 -49 -89t-95 -37z" />
    <glyph glyph-name="cedilla" unicode="&#xb8;" horiz-adv-x="549" 
d="M-7 -418l17 105h118q55 0 79 14.5t30 50.5t-12 51t-75 15h-82l68 230h95l-8 -48l-14 -86q95 -4 135 -41.5t27 -117.5q-14 -89 -75 -131t-184 -42h-119z" />
    <glyph glyph-name="one.sups" unicode="&#xb9;" horiz-adv-x="624" 
d="M690 1710l-134 -812h-173l110 665h-8l-241 -129l26 152l227 124h193z" />
    <glyph glyph-name="ordmasculine" unicode="&#xba;" horiz-adv-x="988" 
d="M508 648q-125 0 -209.5 54.5t-120 151.5t-14.5 226q22 131 89.5 228.5t170.5 151.5t228 54t209.5 -54t120.5 -151.5t14 -228.5q-21 -129 -89.5 -226.5t-171 -151.5t-227.5 -54zM532 791q83 0 143 39.5t97.5 105t50.5 144.5t-2 145t-62.5 106t-130.5 40q-82 0 -142 -39.5
t-97.5 -105.5t-50.5 -146q-13 -79 2.5 -144.5t62.5 -105t129 -39.5z" />
    <glyph glyph-name="guillemotright" unicode="&#xbb;" horiz-adv-x="1194" 
d="M12 144l472 472l-316 472h206l323 -472l-479 -472h-206zM418 144l472 472l-316 472h206l323 -472l-479 -472h-206z" />
    <glyph glyph-name="onequarter" unicode="&#xbc;" horiz-adv-x="1618" 
d="M584 1490l-134 -812h-157l114 683h-9l-201 -134l23 140l185 123h179zM87 0l1271 1490h169l-1271 -1490h-169zM844 126l20 122l428 564h112l-31 -187h-70l-276 -363l-1 -10h464l-21 -126h-625zM1203 0l27 164l15 53l98 595h144l-135 -812h-149z" />
    <glyph glyph-name="onehalf" unicode="&#xbd;" horiz-adv-x="1732" 
d="M584 1490l-134 -812h-157l114 683h-9l-201 -134l23 140l185 123h179zM87 0l1271 1490h169l-1271 -1490h-169zM978 0l18 109l329 282q50 43 80.5 76t46.5 62t20 59q8 54 -24 83.5t-84 29.5q-56 0 -97.5 -31t-50.5 -81h-149q18 107 101 169.5t204 62.5q126 0 198 -65
t53 -163q-5 -27 -19 -57t-43.5 -68.5t-82 -92.5t-135.5 -129l-122 -111l-2 -9h352l-21 -126h-572z" />
    <glyph glyph-name="threequarters" unicode="&#xbe;" horiz-adv-x="1777" 
d="M406 669q-78 0 -142.5 25t-100 72.5t-26.5 112.5h160q-3 -32 35.5 -55.5t93.5 -23.5q58 0 102 31.5t54 83.5q11 56 -27.5 88.5t-109.5 32.5h-65l18 113h66q60 0 106 33t53 85q7 47 -20.5 77t-81.5 30q-55 0 -99.5 -27t-52.5 -71h-150q12 67 58.5 117t115 78t146.5 28
q122 0 188 -66.5t49 -164.5q-11 -67 -62 -112t-124 -57l-1 -8q92 -13 132 -61t26 -126q-18 -104 -113 -169.5t-228 -65.5zM246 0l1271 1490h169l-1271 -1490h-169zM1003 126l20 122l428 564h112l-31 -187h-70l-276 -363l-1 -10h464l-21 -126h-625zM1362 0l27 164l15 53
l98 595h144l-135 -812h-149z" />
    <glyph glyph-name="questiondown" unicode="&#xbf;" horiz-adv-x="1038" 
d="M674 665l-2 -11q-24 -136 -63.5 -211t-95.5 -118t-132 -85q-72 -40 -127.5 -101.5t-69.5 -148.5q-11 -69 13 -120t74.5 -79t117.5 -28q59 0 117.5 24.5t103.5 76.5t64 135h190q-25 -125 -95 -213.5t-171 -135t-219 -46.5q-129 0 -221 51t-134 139.5t-23 202.5
q20 121 87.5 207t173.5 145q71 40 115.5 76t71 88.5t42.5 140.5l2 11h181zM657 1127q56 0 89 -39t24 -95t-55 -95.5t-102 -39.5q-55 0 -88 39.5t-24 95.5t55 95t101 39z" />
    <glyph glyph-name="Agrave" unicode="&#xc0;" horiz-adv-x="1413" 
d="M-41 0l788 1490h220l301 -1490h-192l-169 884q-13 71 -33 199t-43 318h36q-81 -181 -141.5 -308t-102.5 -209l-454 -884h-210zM300 416l27 166h765l-27 -166h-765zM813 1636l-144 294h201l90 -294h-147z" />
    <glyph glyph-name="Aacute" unicode="&#xc1;" horiz-adv-x="1413" 
d="M-41 0l788 1490h220l301 -1490h-192l-169 884q-13 71 -33 199t-43 318h36q-81 -181 -141.5 -308t-102.5 -209l-454 -884h-210zM300 416l27 166h765l-27 -166h-765zM801 1654l186 276h201l-240 -276h-147z" />
    <glyph glyph-name="Acircumflex" unicode="&#xc2;" horiz-adv-x="1413" 
d="M-41 0l788 1490h220l301 -1490h-192l-169 884q-13 71 -33 199t-43 318h36q-81 -181 -141.5 -308t-102.5 -209l-454 -884h-210zM300 416l27 166h765l-27 -166h-765zM743 1654h-177l2 9l279 267h171l192 -267l-2 -9h-179l-112 175z" />
    <glyph glyph-name="Atilde" unicode="&#xc3;" horiz-adv-x="1413" 
d="M-41 0l788 1490h220l301 -1490h-192l-169 884q-13 71 -33 199t-43 318h36q-81 -181 -141.5 -308t-102.5 -209l-454 -884h-210zM300 416l27 166h765l-27 -166h-765zM1024 1685q-37 0 -70.5 12.5t-62.5 29t-53 29t-43 12.5q-28 0 -44.5 -25.5t-22.5 -53.5h-126
q19 92 68.5 150t128.5 58q39 0 70 -13t57.5 -29.5t50.5 -29.5t49 -13q26 0 41.5 19.5t27.5 61.5h123q-19 -97 -70.5 -152.5t-123.5 -55.5z" />
    <glyph glyph-name="Adieresis" unicode="&#xc4;" horiz-adv-x="1413" 
d="M-41 0l788 1490h220l301 -1490h-192l-169 884q-13 71 -33 199t-43 318h36q-81 -181 -141.5 -308t-102.5 -209l-454 -884h-210zM300 416l27 166h765l-27 -166h-765zM1101 1673q-49 0 -78 35t-21 84t49 83.5t90 34.5t77.5 -34.5t20.5 -83.5t-48.5 -84t-89.5 -35zM680 1673
q-49 0 -78 35t-21 84t49 83.5t90 34.5t77.5 -34.5t20.5 -83.5t-48.5 -84t-89.5 -35z" />
    <glyph glyph-name="Aring" unicode="&#xc5;" horiz-adv-x="1413" 
d="M-41 0l788 1490h220l301 -1490h-192l-169 884q-13 71 -33 199t-43 318h36q-81 -181 -141.5 -308t-102.5 -209l-454 -884h-210zM300 416l27 166h765l-27 -166h-765zM879 1541q-76 0 -132.5 36t-83 96t-14.5 131q11 66 53 120t104.5 86t133.5 32q77 0 133 -35.5t83 -95
t15 -130.5q-11 -68 -54 -122.5t-105.5 -86t-132.5 -31.5zM889 1667q50 0 93 35t53 87q10 53 -20 90.5t-84 37.5q-52 0 -94.5 -36t-51.5 -88t21 -89t83 -37z" />
    <glyph glyph-name="AE" unicode="&#xc6;" horiz-adv-x="2036" 
d="M-41 0l963 1490h1122l-28 -167h-716l-81 -493h669l-28 -168h-669l-82 -495h727l-28 -167h-917l219 1319h-108l-834 -1319h-209zM371 416l27 166h686l-27 -166h-686z" />
    <glyph glyph-name="Ccedilla" unicode="&#xc7;" horiz-adv-x="1495" 
d="M698 -20q-169 0 -295 72t-195 206.5t-69 321.5q0 176 55 342.5t158 299t249 210.5t328 78q115 0 211.5 -33t168 -96t111 -153.5t40.5 -206.5h-190q-3 76 -30.5 134t-74.5 98t-109 60.5t-134 20.5q-140 0 -251 -64t-188.5 -172t-118.5 -241.5t-41 -271.5q0 -140 49 -236
t135 -144.5t198 -48.5q76 0 148.5 20.5t136 60.5t112.5 98t77 134h191q-39 -114 -106 -204t-156.5 -154t-193.5 -97.5t-216 -33.5zM507 -429l17 105h118q55 0 79 14.5t30 50.5t-12 51t-75 15h-82l68 230h95l-8 -48l-14 -86q95 -4 135 -41.5t27 -117.5q-14 -89 -75 -131
t-184 -42h-119z" />
    <glyph glyph-name="Egrave" unicode="&#xc8;" horiz-adv-x="1232" 
d="M87 0l247 1490h908l-28 -167h-718l-80 -487h669l-28 -167h-670l-83 -502h727l-27 -167h-917zM746 1636l-144 294h201l90 -294h-147z" />
    <glyph glyph-name="Eacute" unicode="&#xc9;" horiz-adv-x="1232" 
d="M87 0l247 1490h908l-28 -167h-718l-80 -487h669l-28 -167h-670l-83 -502h727l-27 -167h-917zM734 1654l186 276h201l-240 -276h-147z" />
    <glyph glyph-name="Ecircumflex" unicode="&#xca;" horiz-adv-x="1232" 
d="M87 0l247 1490h908l-28 -167h-718l-80 -487h669l-28 -167h-670l-83 -502h727l-27 -167h-917zM676 1654h-177l2 9l279 267h171l192 -267l-2 -9h-179l-112 175z" />
    <glyph glyph-name="Edieresis" unicode="&#xcb;" horiz-adv-x="1232" 
d="M87 0l247 1490h908l-28 -167h-718l-80 -487h669l-28 -167h-670l-83 -502h727l-27 -167h-917zM1034 1673q-49 0 -78 35t-21 84t49 83.5t90 34.5t77.5 -34.5t20.5 -83.5t-48.5 -84t-89.5 -35zM613 1673q-49 0 -78 35t-21 84t49 83.5t90 34.5t77.5 -34.5t20.5 -83.5
t-48.5 -84t-89.5 -35z" />
    <glyph glyph-name="Igrave" unicode="&#xcc;" horiz-adv-x="550" 
d="M524 1490l-247 -1490h-190l247 1490h190zM382 1636l-144 294h201l90 -294h-147z" />
    <glyph glyph-name="Iacute" unicode="&#xcd;" horiz-adv-x="550" 
d="M524 1490l-247 -1490h-190l247 1490h190zM370 1654l186 276h201l-240 -276h-147z" />
    <glyph glyph-name="Icircumflex" unicode="&#xce;" horiz-adv-x="550" 
d="M524 1490l-247 -1490h-190l247 1490h190zM312 1654h-177l2 9l279 267h171l192 -267l-2 -9h-179l-112 175z" />
    <glyph glyph-name="Idieresis" unicode="&#xcf;" horiz-adv-x="550" 
d="M524 1490l-247 -1490h-190l247 1490h190zM670 1673q-49 0 -78 35t-21 84t49 83.5t90 34.5t77.5 -34.5t20.5 -83.5t-48.5 -84t-89.5 -35zM249 1673q-49 0 -78 35t-21 84t49 83.5t90 34.5t77.5 -34.5t20.5 -83.5t-48.5 -84t-89.5 -35z" />
    <glyph glyph-name="Eth" unicode="&#xd0;" horiz-adv-x="1504" 
d="M612 0h-393l27 168h348q183 0 314.5 70t212 200.5t109.5 309.5q30 180 -7.5 308.5t-142 197t-276.5 68.5h-374l28 168h363q218 0 364 -89.5t207 -256t22 -398.5q-39 -235 -142.5 -401.5t-269 -255.5t-390.5 -89zM551 1490l-247 -1490h-190l247 1490h190zM43 668l25 154
h773l-25 -154h-773z" />
    <glyph glyph-name="Ntilde" unicode="&#xd1;" horiz-adv-x="1543" 
d="M87 0l247 1490h218l448 -953q14 -30 38.5 -86.5t53 -132t54.5 -163.5h-21q5 86 14 163.5t19 143.5t18 114l151 914h190l-247 -1490h-219l-400 848q-25 54 -51.5 115.5t-61 148.5t-86.5 217h28q-15 -121 -26.5 -214t-20 -159t-15.5 -106l-140 -850h-191zM1090 1685
q-37 0 -70.5 12.5t-62.5 29t-53 29t-43 12.5q-28 0 -44.5 -25.5t-22.5 -53.5h-126q19 92 68.5 150t128.5 58q39 0 70 -13t57.5 -29.5t50.5 -29.5t49 -13q26 0 41.5 19.5t27.5 61.5h123q-19 -97 -70.5 -152.5t-123.5 -55.5z" />
    <glyph glyph-name="Ograve" unicode="&#xd2;" horiz-adv-x="1566" 
d="M699 -20q-169 0 -295 72t-195.5 206.5t-69.5 321.5q0 177 55 343.5t159 298.5t250 210t327 78q169 0 294 -72t194.5 -206t69.5 -321q0 -178 -55 -344.5t-158.5 -299t-249 -210t-326.5 -77.5zM706 156q140 0 251 64t188.5 172t118 241.5t40.5 272.5q0 140 -48.5 235.5
t-134.5 144t-198 48.5q-140 0 -251 -64t-189 -172t-119 -241t-41 -272q0 -140 49 -235.5t135.5 -144.5t198.5 -49zM891 1636l-144 294h201l90 -294h-147z" />
    <glyph glyph-name="Oacute" unicode="&#xd3;" horiz-adv-x="1566" 
d="M699 -20q-169 0 -295 72t-195.5 206.5t-69.5 321.5q0 177 55 343.5t159 298.5t250 210t327 78q169 0 294 -72t194.5 -206t69.5 -321q0 -178 -55 -344.5t-158.5 -299t-249 -210t-326.5 -77.5zM706 156q140 0 251 64t188.5 172t118 241.5t40.5 272.5q0 140 -48.5 235.5
t-134.5 144t-198 48.5q-140 0 -251 -64t-189 -172t-119 -241t-41 -272q0 -140 49 -235.5t135.5 -144.5t198.5 -49zM879 1654l186 276h201l-240 -276h-147z" />
    <glyph glyph-name="Ocircumflex" unicode="&#xd4;" horiz-adv-x="1566" 
d="M699 -20q-169 0 -295 72t-195.5 206.5t-69.5 321.5q0 177 55 343.5t159 298.5t250 210t327 78q169 0 294 -72t194.5 -206t69.5 -321q0 -178 -55 -344.5t-158.5 -299t-249 -210t-326.5 -77.5zM706 156q140 0 251 64t188.5 172t118 241.5t40.5 272.5q0 140 -48.5 235.5
t-134.5 144t-198 48.5q-140 0 -251 -64t-189 -172t-119 -241t-41 -272q0 -140 49 -235.5t135.5 -144.5t198.5 -49zM821 1654h-177l2 9l279 267h171l192 -267l-2 -9h-179l-112 175z" />
    <glyph glyph-name="Otilde" unicode="&#xd5;" horiz-adv-x="1566" 
d="M699 -20q-169 0 -295 72t-195.5 206.5t-69.5 321.5q0 177 55 343.5t159 298.5t250 210t327 78q169 0 294 -72t194.5 -206t69.5 -321q0 -178 -55 -344.5t-158.5 -299t-249 -210t-326.5 -77.5zM706 156q140 0 251 64t188.5 172t118 241.5t40.5 272.5q0 140 -48.5 235.5
t-134.5 144t-198 48.5q-140 0 -251 -64t-189 -172t-119 -241t-41 -272q0 -140 49 -235.5t135.5 -144.5t198.5 -49zM1102 1685q-37 0 -70.5 12.5t-62.5 29t-53 29t-43 12.5q-28 0 -44.5 -25.5t-22.5 -53.5h-126q19 92 68.5 150t128.5 58q39 0 70 -13t57.5 -29.5t50.5 -29.5
t49 -13q26 0 41.5 19.5t27.5 61.5h123q-19 -97 -70.5 -152.5t-123.5 -55.5z" />
    <glyph glyph-name="Odieresis" unicode="&#xd6;" horiz-adv-x="1566" 
d="M699 -20q-169 0 -295 72t-195.5 206.5t-69.5 321.5q0 177 55 343.5t159 298.5t250 210t327 78q169 0 294 -72t194.5 -206t69.5 -321q0 -178 -55 -344.5t-158.5 -299t-249 -210t-326.5 -77.5zM706 156q140 0 251 64t188.5 172t118 241.5t40.5 272.5q0 140 -48.5 235.5
t-134.5 144t-198 48.5q-140 0 -251 -64t-189 -172t-119 -241t-41 -272q0 -140 49 -235.5t135.5 -144.5t198.5 -49zM1179 1673q-49 0 -78 35t-21 84t49 83.5t90 34.5t77.5 -34.5t20.5 -83.5t-48.5 -84t-89.5 -35zM758 1673q-49 0 -78 35t-21 84t49 83.5t90 34.5t77.5 -34.5
t20.5 -83.5t-48.5 -84t-89.5 -35z" />
    <glyph glyph-name="multiply" unicode="&#xd7;" horiz-adv-x="1356" 
d="M961 112l-687 824l125 108l687 -823zM269 116l-107 124l939 802l107 -125z" />
    <glyph glyph-name="Oslash" unicode="&#xd8;" horiz-adv-x="1566" 
d="M699 -20q-169 0 -295 72t-195.5 206.5t-69.5 321.5q0 177 55 343.5t159 298.5t250 210t327 78q169 0 294 -72t194.5 -206t69.5 -321q0 -178 -55 -344.5t-158.5 -299t-249 -210t-326.5 -77.5zM706 156q140 0 251 64t188.5 172t118 241.5t40.5 272.5q0 140 -48.5 235.5
t-134.5 144t-198 48.5q-140 0 -251 -64t-189 -172t-119 -241t-41 -272q0 -140 49 -235.5t135.5 -144.5t198.5 -49zM230 -46l-115 90l1286 1492l114 -91z" />
    <glyph glyph-name="Ugrave" unicode="&#xd9;" horiz-adv-x="1523" 
d="M677 -24q-179 0 -301 70.5t-175.5 192.5t-28.5 275l162 976h190l-161 -974q-18 -109 15 -191t111 -127.5t195 -45.5q123 0 221 49t161.5 134t81.5 194l159 961h190l-163 -989q-25 -154 -115.5 -272.5t-229.5 -185.5t-312 -67zM869 1636l-144 294h201l90 -294h-147z" />
    <glyph glyph-name="Uacute" unicode="&#xda;" horiz-adv-x="1523" 
d="M677 -24q-179 0 -301 70.5t-175.5 192.5t-28.5 275l162 976h190l-161 -974q-18 -109 15 -191t111 -127.5t195 -45.5q123 0 221 49t161.5 134t81.5 194l159 961h190l-163 -989q-25 -154 -115.5 -272.5t-229.5 -185.5t-312 -67zM857 1654l186 276h201l-240 -276h-147z" />
    <glyph glyph-name="Ucircumflex" unicode="&#xdb;" horiz-adv-x="1523" 
d="M677 -24q-179 0 -301 70.5t-175.5 192.5t-28.5 275l162 976h190l-161 -974q-18 -109 15 -191t111 -127.5t195 -45.5q123 0 221 49t161.5 134t81.5 194l159 961h190l-163 -989q-25 -154 -115.5 -272.5t-229.5 -185.5t-312 -67zM799 1654h-177l2 9l279 267h171l192 -267
l-2 -9h-179l-112 175z" />
    <glyph glyph-name="Udieresis" unicode="&#xdc;" horiz-adv-x="1523" 
d="M677 -24q-179 0 -301 70.5t-175.5 192.5t-28.5 275l162 976h190l-161 -974q-18 -109 15 -191t111 -127.5t195 -45.5q123 0 221 49t161.5 134t81.5 194l159 961h190l-163 -989q-25 -154 -115.5 -272.5t-229.5 -185.5t-312 -67zM1157 1673q-49 0 -78 35t-21 84t49 83.5
t90 34.5t77.5 -34.5t20.5 -83.5t-48.5 -84t-89.5 -35zM736 1673q-49 0 -78 35t-21 84t49 83.5t90 34.5t77.5 -34.5t20.5 -83.5t-48.5 -84t-89.5 -35z" />
    <glyph glyph-name="Yacute" unicode="&#xdd;" horiz-adv-x="1390" 
d="M507 0l101 610l-402 880h206l215 -481q36 -81 62.5 -154.5t49.5 -185.5h-76q60 114 111 188.5t111 151.5l374 481h233l-694 -880l-101 -610h-190zM790 1654l186 276h201l-240 -276h-147z" />
    <glyph glyph-name="Thorn" unicode="&#xde;" horiz-adv-x="1302" 
d="M322 1490h192l-248 -1490h-190zM359 1185l384 -1q161 0 261.5 -57.5t142.5 -153t25 -210.5q-17 -118 -89.5 -218t-193 -160t-284.5 -60h-385l27 166h385q104 0 179 31.5t120.5 90.5t58.5 140q14 82 -13 141t-92.5 91.5t-168.5 32.5h-384z" />
    <glyph glyph-name="germandbls" unicode="&#xdf;" horiz-adv-x="1262" 
d="M87 0l184 1107q21 124 90.5 214t176 139.5t235.5 49.5q125 0 217.5 -46t136.5 -132.5t24 -207.5q-21 -127 -100.5 -213t-189.5 -122l-2 -14q141 -14 215 -113t47 -255q-20 -118 -90 -210t-177 -144.5t-238 -52.5h-165l29 167h164q77 0 139 31t103 85.5t53 126.5
q20 113 -43.5 187t-197.5 74h-129l28 170h91q73 0 131 36.5t96 95.5t49 124q17 103 -39 174.5t-175 71.5q-109 0 -194 -65.5t-103 -173.5l-184 -1104h-182z" />
    <glyph glyph-name="agrave" unicode="&#xe0;" horiz-adv-x="1257" 
d="M481 -24q-139 0 -234 71.5t-133.5 202t-9.5 307.5q30 178 112 306.5t201 198.5t258 70q108 0 166 -35.5t84.5 -81t40.5 -76.5h15l29 179h181l-185 -1118h-175l28 173h-21q-25 -33 -68 -79.5t-113 -82t-176 -35.5zM537 137q102 0 180.5 54t130.5 149t72 219
q21 124 0.5 216.5t-82 144t-163.5 51.5q-107 0 -187.5 -55.5t-131 -148.5t-69.5 -208q-19 -117 1 -213t82 -152.5t167 -56.5zM673 1264l-144 294h201l90 -294h-147z" />
    <glyph glyph-name="aacute" unicode="&#xe1;" horiz-adv-x="1257" 
d="M481 -24q-139 0 -234 71.5t-133.5 202t-9.5 307.5q30 178 112 306.5t201 198.5t258 70q108 0 166 -35.5t84.5 -81t40.5 -76.5h15l29 179h181l-185 -1118h-175l28 173h-21q-25 -33 -68 -79.5t-113 -82t-176 -35.5zM537 137q102 0 180.5 54t130.5 149t72 219
q21 124 0.5 216.5t-82 144t-163.5 51.5q-107 0 -187.5 -55.5t-131 -148.5t-69.5 -208q-19 -117 1 -213t82 -152.5t167 -56.5zM661 1282l186 276h201l-240 -276h-147z" />
    <glyph glyph-name="acircumflex" unicode="&#xe2;" horiz-adv-x="1257" 
d="M481 -24q-139 0 -234 71.5t-133.5 202t-9.5 307.5q30 178 112 306.5t201 198.5t258 70q108 0 166 -35.5t84.5 -81t40.5 -76.5h15l29 179h181l-185 -1118h-175l28 173h-21q-25 -33 -68 -79.5t-113 -82t-176 -35.5zM537 137q102 0 180.5 54t130.5 149t72 219
q21 124 0.5 216.5t-82 144t-163.5 51.5q-107 0 -187.5 -55.5t-131 -148.5t-69.5 -208q-19 -117 1 -213t82 -152.5t167 -56.5zM603 1282h-177l2 9l279 267h171l192 -267l-2 -9h-179l-112 175z" />
    <glyph glyph-name="atilde" unicode="&#xe3;" horiz-adv-x="1257" 
d="M481 -24q-139 0 -234 71.5t-133.5 202t-9.5 307.5q30 178 112 306.5t201 198.5t258 70q108 0 166 -35.5t84.5 -81t40.5 -76.5h15l29 179h181l-185 -1118h-175l28 173h-21q-25 -33 -68 -79.5t-113 -82t-176 -35.5zM537 137q102 0 180.5 54t130.5 149t72 219
q21 124 0.5 216.5t-82 144t-163.5 51.5q-107 0 -187.5 -55.5t-131 -148.5t-69.5 -208q-19 -117 1 -213t82 -152.5t167 -56.5zM884 1313q-37 0 -70.5 12.5t-62.5 29t-53 29t-43 12.5q-28 0 -44.5 -25.5t-22.5 -53.5h-126q19 92 68.5 150t128.5 58q39 0 70 -13t57.5 -29.5
t50.5 -29.5t49 -13q26 0 41.5 19.5t27.5 61.5h123q-19 -97 -70.5 -152.5t-123.5 -55.5z" />
    <glyph glyph-name="adieresis" unicode="&#xe4;" horiz-adv-x="1257" 
d="M481 -24q-139 0 -234 71.5t-133.5 202t-9.5 307.5q30 178 112 306.5t201 198.5t258 70q108 0 166 -35.5t84.5 -81t40.5 -76.5h15l29 179h181l-185 -1118h-175l28 173h-21q-25 -33 -68 -79.5t-113 -82t-176 -35.5zM537 137q102 0 180.5 54t130.5 149t72 219
q21 124 0.5 216.5t-82 144t-163.5 51.5q-107 0 -187.5 -55.5t-131 -148.5t-69.5 -208q-19 -117 1 -213t82 -152.5t167 -56.5zM961 1301q-49 0 -78 35t-21 84t49 83.5t90 34.5t77.5 -34.5t20.5 -83.5t-48.5 -84t-89.5 -35zM540 1301q-49 0 -78 35t-21 84t49 83.5t90 34.5
t77.5 -34.5t20.5 -83.5t-48.5 -84t-89.5 -35z" />
    <glyph glyph-name="aring" unicode="&#xe5;" horiz-adv-x="1257" 
d="M481 -24q-139 0 -234 71.5t-133.5 202t-9.5 307.5q30 178 112 306.5t201 198.5t258 70q108 0 166 -35.5t84.5 -81t40.5 -76.5h15l29 179h181l-185 -1118h-175l28 173h-21q-25 -33 -68 -79.5t-113 -82t-176 -35.5zM537 137q102 0 180.5 54t130.5 149t72 219
q21 124 0.5 216.5t-82 144t-163.5 51.5q-107 0 -187.5 -55.5t-131 -148.5t-69.5 -208q-19 -117 1 -213t82 -152.5t167 -56.5zM732 1189q-73 0 -127 34t-80 91.5t-15 126.5q12 70 57 126.5t110.5 90.5t137.5 34q73 0 127 -34t80 -90.5t14 -126.5q-11 -69 -56 -126.5
t-110 -91.5t-138 -34zM753 1315q53 0 95.5 37t50.5 90t-23.5 88.5t-81.5 35.5q-52 0 -94.5 -36t-51.5 -88t21.5 -89.5t83.5 -37.5z" />
    <glyph glyph-name="ae" unicode="&#xe6;" horiz-adv-x="1859" 
d="M391 -16q-173 0 -262.5 92.5t-63.5 247.5q13 77 59 145.5t139 111.5t246 43q54 0 102.5 0.5t105 0.5h133.5l-12 -138q-78 0 -161 -1t-156 -1q-110 0 -187 -40t-91 -125q-15 -89 31.5 -134.5t147.5 -45.5q105 0 176.5 38.5t112.5 99.5t53 128l67 359q21 113 -26.5 166.5
t-178.5 53.5q-70 0 -127.5 -22.5t-95.5 -63.5t-53 -98l-182 2q21 101 87.5 177t167.5 118.5t225 42.5q125 0 210.5 -44.5t123.5 -124.5t20 -186l-88 -532l-17 -1q-40 -78 -109 -138.5t-167.5 -95.5t-229.5 -35zM1215 -24q-138 0 -234 53.5t-146 154.5t-50 241q0 149 46 279
t128 228.5t190.5 154t234.5 55.5q108 0 188 -37.5t124 -106t44 -161.5q0 -94 -48.5 -160.5t-150.5 -108.5t-261 -61.5t-381 -19.5l24 136q183 0 306 10.5t195.5 35.5t104 67t31.5 105q0 64 -53.5 102.5t-140.5 38.5q-93 0 -175 -47.5t-138.5 -129t-73.5 -182.5
q-11 -67 -17 -105t-8 -59t-2 -38q0 -138 70.5 -212t203.5 -74q108 0 191.5 47t125.5 126l167 -45q-62 -133 -195 -210t-300 -77z" />
    <glyph glyph-name="ccedilla" unicode="&#xe7;" horiz-adv-x="1171" 
d="M528 -24q-135 0 -232 56.5t-149.5 159.5t-52.5 241q0 133 41.5 258t119.5 224.5t189.5 158t252.5 58.5q83 0 153.5 -21.5t124 -62.5t87.5 -99t45 -131l-176 -39q-5 43 -23 78t-48 60.5t-71.5 39.5t-95.5 14q-102 0 -180 -48t-131.5 -127t-80.5 -173.5t-27 -187.5
q0 -83 26.5 -151t83.5 -107.5t148 -39.5q58 0 109.5 16t94 44.5t74.5 67t51 83.5l166 -58q-34 -74 -86 -132t-117 -98.5t-140 -62t-156 -21.5zM340 -418l17 105h118q55 0 79 14.5t30 50.5t-12 51t-75 15h-82l68 230h95l-8 -48l-14 -86q95 -4 135 -41.5t27 -117.5
q-14 -89 -75 -131t-184 -42h-119z" />
    <glyph glyph-name="egrave" unicode="&#xe8;" horiz-adv-x="1179" 
d="M535 -24q-138 0 -236.5 54t-151.5 155t-53 242q0 147 47 276.5t131 228t194.5 154.5t237.5 56q108 0 188 -37.5t124 -106t44 -161.5q0 -94 -48.5 -160.5t-150.5 -108.5t-261.5 -61.5t-380.5 -19.5l24 136q183 0 306 10.5t195.5 35.5t104 67t31.5 105q0 64 -53.5 102.5
t-140.5 38.5q-113 0 -192.5 -54.5t-129.5 -140t-73.5 -181t-23.5 -178.5q0 -82 27 -148.5t88.5 -105.5t163.5 -39q107 0 190.5 46.5t126.5 126.5l167 -47q-62 -132 -195.5 -208.5t-299.5 -76.5zM658 1264l-144 294h201l90 -294h-147z" />
    <glyph glyph-name="eacute" unicode="&#xe9;" horiz-adv-x="1179" 
d="M535 -24q-138 0 -236.5 54t-151.5 155t-53 242q0 147 47 276.5t131 228t194.5 154.5t237.5 56q108 0 188 -37.5t124 -106t44 -161.5q0 -94 -48.5 -160.5t-150.5 -108.5t-261.5 -61.5t-380.5 -19.5l24 136q183 0 306 10.5t195.5 35.5t104 67t31.5 105q0 64 -53.5 102.5
t-140.5 38.5q-113 0 -192.5 -54.5t-129.5 -140t-73.5 -181t-23.5 -178.5q0 -82 27 -148.5t88.5 -105.5t163.5 -39q107 0 190.5 46.5t126.5 126.5l167 -47q-62 -132 -195.5 -208.5t-299.5 -76.5zM646 1282l186 276h201l-240 -276h-147z" />
    <glyph glyph-name="ecircumflex" unicode="&#xea;" horiz-adv-x="1179" 
d="M535 -24q-138 0 -236.5 54t-151.5 155t-53 242q0 147 47 276.5t131 228t194.5 154.5t237.5 56q108 0 188 -37.5t124 -106t44 -161.5q0 -94 -48.5 -160.5t-150.5 -108.5t-261.5 -61.5t-380.5 -19.5l24 136q183 0 306 10.5t195.5 35.5t104 67t31.5 105q0 64 -53.5 102.5
t-140.5 38.5q-113 0 -192.5 -54.5t-129.5 -140t-73.5 -181t-23.5 -178.5q0 -82 27 -148.5t88.5 -105.5t163.5 -39q107 0 190.5 46.5t126.5 126.5l167 -47q-62 -132 -195.5 -208.5t-299.5 -76.5zM588 1282h-177l2 9l279 267h171l192 -267l-2 -9h-179l-112 175z" />
    <glyph glyph-name="edieresis" unicode="&#xeb;" horiz-adv-x="1179" 
d="M535 -24q-138 0 -236.5 54t-151.5 155t-53 242q0 147 47 276.5t131 228t194.5 154.5t237.5 56q108 0 188 -37.5t124 -106t44 -161.5q0 -94 -48.5 -160.5t-150.5 -108.5t-261.5 -61.5t-380.5 -19.5l24 136q183 0 306 10.5t195.5 35.5t104 67t31.5 105q0 64 -53.5 102.5
t-140.5 38.5q-113 0 -192.5 -54.5t-129.5 -140t-73.5 -181t-23.5 -178.5q0 -82 27 -148.5t88.5 -105.5t163.5 -39q107 0 190.5 46.5t126.5 126.5l167 -47q-62 -132 -195.5 -208.5t-299.5 -76.5zM946 1301q-49 0 -78 35t-21 84t49 83.5t90 34.5t77.5 -34.5t20.5 -83.5
t-48.5 -84t-89.5 -35zM525 1301q-49 0 -78 35t-21 84t49 83.5t90 34.5t77.5 -34.5t20.5 -83.5t-48.5 -84t-89.5 -35z" />
    <glyph glyph-name="igrave" unicode="&#xec;" horiz-adv-x="497" 
d="M66 0l185 1118h180l-185 -1118h-180zM295 1264l-144 294h201l90 -294h-147z" />
    <glyph glyph-name="iacute" unicode="&#xed;" horiz-adv-x="497" 
d="M66 0l185 1118h180l-185 -1118h-180zM283 1282l186 276h201l-240 -276h-147z" />
    <glyph glyph-name="icircumflex" unicode="&#xee;" horiz-adv-x="497" 
d="M66 0l185 1118h180l-185 -1118h-180zM225 1282h-177l2 9l279 267h171l192 -267l-2 -9h-179l-112 175z" />
    <glyph glyph-name="idieresis" unicode="&#xef;" horiz-adv-x="497" 
d="M66 0l185 1118h180l-185 -1118h-180zM583 1301q-49 0 -78 35t-21 84t49 83.5t90 34.5t77.5 -34.5t20.5 -83.5t-48.5 -84t-89.5 -35zM162 1301q-49 0 -78 35t-21 84t49 83.5t90 34.5t77.5 -34.5t20.5 -83.5t-48.5 -84t-89.5 -35z" />
    <glyph glyph-name="eth" unicode="&#xf0;" horiz-adv-x="1192" 
d="M1109 1415l-653 -292l-28 110l651 292zM499 -24q-150 0 -249 69t-139 190t-15 276q26 158 105.5 279t192 189t236.5 68q84 0 142 -28.5t94.5 -71.5t54.5 -86h14q-18 92 -66.5 197t-142.5 208.5t-250 189.5l93 125q113 -60 218.5 -155.5t184 -225t112 -291.5t3.5 -355
q-29 -184 -112 -313t-205.5 -197t-270.5 -68zM529 136q104 0 182.5 49t128 132.5t65.5 184.5q16 96 -2 187t-77.5 150.5t-170.5 59.5q-106 0 -185 -54.5t-127.5 -142.5t-65.5 -190q-16 -98 2.5 -184t79 -139t170.5 -53z" />
    <glyph glyph-name="ntilde" unicode="&#xf1;" horiz-adv-x="1211" 
d="M356 664l-111 -664h-180l186 1118h173l-44 -271l-26 6q75 152 177 215.5t227 63.5q116 0 196 -48t113.5 -143t9.5 -237l-117 -704h-180l117 701q22 131 -32 200t-167 69q-82 0 -154 -36.5t-122 -105t-66 -164.5zM862 1313q-37 0 -70.5 12.5t-62.5 29t-53 29t-43 12.5
q-28 0 -44.5 -25.5t-22.5 -53.5h-126q19 92 68.5 150t128.5 58q39 0 70 -13t57.5 -29.5t50.5 -29.5t49 -13q26 0 41.5 19.5t27.5 61.5h123q-19 -97 -70.5 -152.5t-123.5 -55.5z" />
    <glyph glyph-name="ograve" unicode="&#xf2;" horiz-adv-x="1229" 
d="M528 -24q-135 0 -232 56.5t-149.5 159.5t-52.5 241q0 133 41.5 258t120 224.5t190 158t251.5 58.5q135 0 233 -56t150.5 -159t52.5 -243q0 -135 -42 -260t-121.5 -224t-191 -156.5t-250.5 -57.5zM532 137q103 0 181.5 48t131.5 126.5t80 172.5t27 186q0 85 -27 153
t-84 108t-149 40q-102 0 -180 -48t-131 -127t-80 -173.5t-27 -187.5q0 -126 61 -212t197 -86zM659 1264l-144 294h201l90 -294h-147z" />
    <glyph glyph-name="oacute" unicode="&#xf3;" horiz-adv-x="1229" 
d="M528 -24q-135 0 -232 56.5t-149.5 159.5t-52.5 241q0 133 41.5 258t120 224.5t190 158t251.5 58.5q135 0 233 -56t150.5 -159t52.5 -243q0 -135 -42 -260t-121.5 -224t-191 -156.5t-250.5 -57.5zM532 137q103 0 181.5 48t131.5 126.5t80 172.5t27 186q0 85 -27 153
t-84 108t-149 40q-102 0 -180 -48t-131 -127t-80 -173.5t-27 -187.5q0 -126 61 -212t197 -86zM647 1282l186 276h201l-240 -276h-147z" />
    <glyph glyph-name="ocircumflex" unicode="&#xf4;" horiz-adv-x="1229" 
d="M528 -24q-135 0 -232 56.5t-149.5 159.5t-52.5 241q0 133 41.5 258t120 224.5t190 158t251.5 58.5q135 0 233 -56t150.5 -159t52.5 -243q0 -135 -42 -260t-121.5 -224t-191 -156.5t-250.5 -57.5zM532 137q103 0 181.5 48t131.5 126.5t80 172.5t27 186q0 85 -27 153
t-84 108t-149 40q-102 0 -180 -48t-131 -127t-80 -173.5t-27 -187.5q0 -126 61 -212t197 -86zM589 1282h-177l2 9l279 267h171l192 -267l-2 -9h-179l-112 175z" />
    <glyph glyph-name="otilde" unicode="&#xf5;" horiz-adv-x="1229" 
d="M528 -24q-135 0 -232 56.5t-149.5 159.5t-52.5 241q0 133 41.5 258t120 224.5t190 158t251.5 58.5q135 0 233 -56t150.5 -159t52.5 -243q0 -135 -42 -260t-121.5 -224t-191 -156.5t-250.5 -57.5zM532 137q103 0 181.5 48t131.5 126.5t80 172.5t27 186q0 85 -27 153
t-84 108t-149 40q-102 0 -180 -48t-131 -127t-80 -173.5t-27 -187.5q0 -126 61 -212t197 -86zM870 1313q-37 0 -70.5 12.5t-62.5 29t-53 29t-43 12.5q-28 0 -44.5 -25.5t-22.5 -53.5h-126q19 92 68.5 150t128.5 58q39 0 70 -13t57.5 -29.5t50.5 -29.5t49 -13q26 0 41.5 19.5
t27.5 61.5h123q-19 -97 -70.5 -152.5t-123.5 -55.5z" />
    <glyph glyph-name="odieresis" unicode="&#xf6;" horiz-adv-x="1229" 
d="M528 -24q-135 0 -232 56.5t-149.5 159.5t-52.5 241q0 133 41.5 258t120 224.5t190 158t251.5 58.5q135 0 233 -56t150.5 -159t52.5 -243q0 -135 -42 -260t-121.5 -224t-191 -156.5t-250.5 -57.5zM532 137q103 0 181.5 48t131.5 126.5t80 172.5t27 186q0 85 -27 153
t-84 108t-149 40q-102 0 -180 -48t-131 -127t-80 -173.5t-27 -187.5q0 -126 61 -212t197 -86zM947 1301q-49 0 -78 35t-21 84t49 83.5t90 34.5t77.5 -34.5t20.5 -83.5t-48.5 -84t-89.5 -35zM526 1301q-49 0 -78 35t-21 84t49 83.5t90 34.5t77.5 -34.5t20.5 -83.5t-48.5 -84
t-89.5 -35z" />
    <glyph glyph-name="divide" unicode="&#xf7;" horiz-adv-x="1356" 
d="M1165 668l-27 -170h-938l27 170h938zM609 72q-62 0 -95 43t-26 100q4 34 25 61.5t52.5 43.5t65.5 16q53 0 89 -39t29 -101q-6 -55 -49.5 -89.5t-90.5 -34.5zM734 830q-39 0 -69 19t-45 51.5t-9 72.5q8 51 51 86.5t96 35.5q54 0 90 -41.5t26 -101.5q-8 -51 -49 -86.5
t-91 -35.5z" />
    <glyph glyph-name="oslash" unicode="&#xf8;" horiz-adv-x="1229" 
d="M528 -24q-135 0 -232 56.5t-149.5 159.5t-52.5 241q0 133 41.5 258t120 224.5t190 158t251.5 58.5q135 0 233 -56t150.5 -159t52.5 -243q0 -135 -42 -260t-121.5 -224t-191 -156.5t-250.5 -57.5zM532 137q103 0 181.5 48t131.5 126.5t80 172.5t27 186q0 85 -27 153
t-84 108t-149 40q-102 0 -180 -48t-131 -127t-80 -173.5t-27 -187.5q0 -126 61 -212t197 -86zM90 -45l-92 90l1139 1118l92 -90z" />
    <glyph glyph-name="ugrave" unicode="&#xf9;" horiz-adv-x="1212" 
d="M443 -14q-112 0 -189.5 46t-110 140t-9.5 236l117 710h180l-114 -695q-21 -128 33.5 -201.5t172.5 -73.5q79 0 148.5 34.5t118.5 101.5t65 164l110 670h181l-185 -1118h-174l45 271h24q-77 -157 -183 -221t-230 -64zM651 1264l-144 294h201l90 -294h-147z" />
    <glyph glyph-name="uacute" unicode="&#xfa;" horiz-adv-x="1212" 
d="M443 -14q-112 0 -189.5 46t-110 140t-9.5 236l117 710h180l-114 -695q-21 -128 33.5 -201.5t172.5 -73.5q79 0 148.5 34.5t118.5 101.5t65 164l110 670h181l-185 -1118h-174l45 271h24q-77 -157 -183 -221t-230 -64zM639 1282l186 276h201l-240 -276h-147z" />
    <glyph glyph-name="ucircumflex" unicode="&#xfb;" horiz-adv-x="1212" 
d="M443 -14q-112 0 -189.5 46t-110 140t-9.5 236l117 710h180l-114 -695q-21 -128 33.5 -201.5t172.5 -73.5q79 0 148.5 34.5t118.5 101.5t65 164l110 670h181l-185 -1118h-174l45 271h24q-77 -157 -183 -221t-230 -64zM581 1282h-177l2 9l279 267h171l192 -267l-2 -9h-179
l-112 175z" />
    <glyph glyph-name="udieresis" unicode="&#xfc;" horiz-adv-x="1212" 
d="M443 -14q-112 0 -189.5 46t-110 140t-9.5 236l117 710h180l-114 -695q-21 -128 33.5 -201.5t172.5 -73.5q79 0 148.5 34.5t118.5 101.5t65 164l110 670h181l-185 -1118h-174l45 271h24q-77 -157 -183 -221t-230 -64zM939 1301q-49 0 -78 35t-21 84t49 83.5t90 34.5
t77.5 -34.5t20.5 -83.5t-48.5 -84t-89.5 -35zM518 1301q-49 0 -78 35t-21 84t49 83.5t90 34.5t77.5 -34.5t20.5 -83.5t-48.5 -84t-89.5 -35z" />
    <glyph glyph-name="yacute" unicode="&#xfd;" horiz-adv-x="1151" 
d="M-19 -405l72 156l17 -4q55 -13 101.5 -6.5t88 44t81.5 116.5l47 93l-241 1124h188l129 -663q20 -103 29.5 -205.5t22.5 -198.5h-66q45 96 88 198.5t98 205.5l349 663h205l-704 -1285q-48 -88 -105.5 -145.5t-125 -85.5t-147.5 -28q-44 0 -78.5 7t-48.5 14zM609 1282
l186 276h201l-240 -276h-147z" />
    <glyph glyph-name="thorn" unicode="&#xfe;" horiz-adv-x="1254" 
d="M580 -24q-105 0 -163 35.5t-86 82t-43 79.5h-14l-98 -591h-180l316 1908h180l-91 -551h14q25 31 66.5 76.5t111.5 81t178 35.5q139 0 234 -69.5t134.5 -198t10.5 -306.5q-29 -180 -112 -310.5t-201.5 -201t-256.5 -70.5zM580 137q105 0 184.5 56.5t131.5 152t71 213.5
q19 115 -0.5 208.5t-80.5 148.5t-168 55q-102 0 -180.5 -51.5t-129.5 -144t-72 -216.5q-20 -123 0 -218.5t81 -149.5t163 -54z" />
    <glyph glyph-name="ydieresis" unicode="&#xff;" horiz-adv-x="1151" 
d="M-19 -405l72 156l17 -4q55 -13 101.5 -6.5t88 44t81.5 116.5l47 93l-241 1124h188l129 -663q20 -103 29.5 -205.5t22.5 -198.5h-66q45 96 88 198.5t98 205.5l349 663h205l-704 -1285q-48 -88 -105.5 -145.5t-125 -85.5t-147.5 -28q-44 0 -78.5 7t-48.5 14zM909 1301
q-49 0 -78 35t-21 84t49 83.5t90 34.5t77.5 -34.5t20.5 -83.5t-48.5 -84t-89.5 -35zM488 1301q-49 0 -78 35t-21 84t49 83.5t90 34.5t77.5 -34.5t20.5 -83.5t-48.5 -84t-89.5 -35z" />
    <glyph glyph-name="dotlessi" unicode="&#x131;" horiz-adv-x="497" 
d="M66 0l185 1118h180l-185 -1118h-180z" />
    <glyph glyph-name="OE" unicode="&#x152;" horiz-adv-x="1956" 
d="M684 0q-196 0 -328.5 93.5t-186.5 261t-17 389.5q37 225 147 392.5t273 260.5t358 93h202l-26 -160h-202q-143 0 -263.5 -73t-203 -204.5t-111.5 -308.5q-29 -174 9.5 -305.5t135.5 -205t241 -73.5h202l-30 -160h-200zM811 0l247 1490h908l-28 -167h-718l-80 -487h669
l-28 -167h-670l-83 -502h727l-27 -167h-917z" />
    <glyph glyph-name="oe" unicode="&#x153;" horiz-adv-x="2019" 
d="M528 -24q-135 0 -232 56.5t-149.5 159.5t-52.5 241q0 133 41.5 258t120 224.5t190 158t251.5 58.5q135 0 233 -56t150.5 -159t52.5 -243q0 -135 -42 -260t-121.5 -224t-191 -156.5t-250.5 -57.5zM532 137q103 0 181.5 48t131.5 126.5t80 172.5t27 186q0 85 -27 153
t-84 108t-149 40q-102 0 -180 -48t-131 -127t-80 -173.5t-27 -187.5q0 -126 61 -212t197 -86zM1375 -24q-138 0 -236.5 54t-151.5 155t-53 242q0 147 47 276.5t131 228t194.5 154.5t237.5 56q108 0 188 -37.5t124 -106t44 -161.5q0 -94 -48.5 -160.5t-150.5 -108.5
t-261.5 -61.5t-380.5 -19.5l24 136q183 0 306 10.5t195.5 35.5t104 67t31.5 105q0 64 -53.5 102.5t-140.5 38.5q-113 0 -192.5 -54.5t-129.5 -140t-73.5 -181t-23.5 -178.5q0 -82 27 -148.5t88.5 -105.5t163.5 -39q107 0 190.5 46.5t126.5 126.5l167 -47
q-62 -132 -195.5 -208.5t-299.5 -76.5z" />
    <glyph glyph-name="uni02BB" unicode="&#x2bb;" horiz-adv-x="549" 
d="M194 987l32 185q12 67 46 138.5t86 138t116 114.5l105 -77q-59 -71 -96.5 -147t-53.5 -165l-33 -187h-202z" />
    <glyph glyph-name="quoteright" unicode="&#x2bc;" horiz-adv-x="615" 
d="M221 923l182 567h206l-250 -567h-138z" />
    <glyph glyph-name="quoteright" unicode="&#x2019;" horiz-adv-x="615" 
d="M221 923l182 567h206l-250 -567h-138z" />
    <glyph glyph-name="circumflex" unicode="&#x2c6;" horiz-adv-x="847" 
d="M399 1282h-177l2 9l279 267h171l192 -267l-2 -9h-179l-112 175z" />
    <glyph glyph-name="ring" unicode="&#x2da;" horiz-adv-x="610" 
d="M410 1189q-73 0 -127 34t-80 91.5t-15 126.5q12 70 57 126.5t110.5 90.5t137.5 34q73 0 127 -34t80 -90.5t14 -126.5q-11 -69 -56 -126.5t-110 -91.5t-138 -34zM431 1315q53 0 95.5 37t50.5 90t-23.5 88.5t-81.5 35.5q-52 0 -94.5 -36t-51.5 -88t21.5 -89.5t83.5 -37.5z
" />
    <glyph glyph-name="tilde" unicode="&#x2dc;" horiz-adv-x="1035" 
d="M774 1313q-37 0 -70.5 12.5t-62.5 29t-53 29t-43 12.5q-28 0 -44.5 -25.5t-22.5 -53.5h-126q19 92 68.5 150t128.5 58q39 0 70 -13t57.5 -29.5t50.5 -29.5t49 -13q26 0 41.5 19.5t27.5 61.5h123q-19 -97 -70.5 -152.5t-123.5 -55.5z" />
    <glyph glyph-name="gravecomb" unicode="&#x300;" horiz-adv-x="0" 
d="M459 1264l-144 294h201l90 -294h-147z" />
    <glyph glyph-name="acutecomb" unicode="&#x301;" horiz-adv-x="0" 
d="M160 1282l186 276h201l-240 -276h-147z" />
    <glyph glyph-name="tildecomb" unicode="&#x303;" horiz-adv-x="0" 
d="M774 1313q-37 0 -70.5 12.5t-62.5 29t-53 29t-43 12.5q-28 0 -44.5 -25.5t-22.5 -53.5h-126q19 92 68.5 150t128.5 58q39 0 70 -13t57.5 -29.5t50.5 -29.5t49 -13q26 0 41.5 19.5t27.5 61.5h123q-19 -97 -70.5 -152.5t-123.5 -55.5z" />
    <glyph glyph-name="uni0304" unicode="&#x304;" horiz-adv-x="0" 
d="M921 1491l-24 -142h-554l24 142h554z" />
    <glyph glyph-name="uni0308" unicode="&#x308;" horiz-adv-x="0" 
d="M939 1301q-49 0 -78 35t-21 84t49 83.5t90 34.5t77.5 -34.5t20.5 -83.5t-48.5 -84t-89.5 -35zM518 1301q-49 0 -78 35t-21 84t49 83.5t90 34.5t77.5 -34.5t20.5 -83.5t-48.5 -84t-89.5 -35z" />
    <glyph glyph-name="hookabovecomb" unicode="&#x309;" horiz-adv-x="0" 
d="M442 1264h-135l93 137q14 21 9.5 30t-24.5 9h-139l19 118h139q60 0 97.5 -16t51 -44.5t3.5 -66t-45 -81.5z" />
    <glyph glyph-name="dotbelow" unicode="&#x323;" horiz-adv-x="495" 
d="M85 -421q-51 0 -82 35t-23 84q8 50 51 84.5t94 34.5q52 0 83 -34.5t23 -84.5q-8 -49 -51 -84t-95 -35z" />
    <glyph glyph-name="uni2002" unicode="&#x2002;" horiz-adv-x="1024" 
 />
    <glyph glyph-name="uni2009" unicode="&#x2009;" horiz-adv-x="372" 
 />
    <glyph glyph-name="uni200B" unicode="&#x200b;" horiz-adv-x="0" 
 />
    <glyph glyph-name="endash" unicode="&#x2013;" horiz-adv-x="1026" 
d="M1052 719l-28 -166h-1024l28 166h1024z" />
    <glyph glyph-name="emdash" unicode="&#x2014;" horiz-adv-x="2050" 
d="M2076 719l-28 -166h-2048l28 166h2048z" />
    <glyph glyph-name="quoteleft" unicode="&#x2018;" horiz-adv-x="615" 
d="M221 923l250 567h138l-182 -567h-206z" />
    <glyph glyph-name="quotesinglbase" unicode="&#x201a;" horiz-adv-x="615" 
d="M9 -358l182 567h206l-250 -567h-138z" />
    <glyph glyph-name="quotedblleft" unicode="&#x201c;" horiz-adv-x="983" 
d="M221 923l250 567h138l-182 -567h-206zM589 923l250 567h138l-182 -567h-206z" />
    <glyph glyph-name="quotedblright" unicode="&#x201d;" horiz-adv-x="983" 
d="M221 923l182 567h206l-250 -567h-138zM589 923l182 567h206l-250 -567h-138z" />
    <glyph glyph-name="quotedblbase" unicode="&#x201e;" horiz-adv-x="983" 
d="M9 -359l182 567h206l-250 -567h-138zM377 -359l182 567h206l-250 -567h-138z" />
    <glyph glyph-name="bullet" unicode="&#x2022;" horiz-adv-x="1152" 
d="M539 274q-91 0 -159 45.5t-99.5 121.5t-16.5 166q15 88 69 157t131 109.5t161 40.5q90 0 157.5 -46t100 -121.5t17.5 -165.5q-14 -87 -67.5 -156.5t-130.5 -110t-163 -40.5z" />
    <glyph glyph-name="ellipsis" unicode="&#x2026;" horiz-adv-x="1767" 
d="M210 -13q-58 0 -94.5 43t-26.5 104q9 53 51.5 87.5t91.5 34.5q61 0 95.5 -43t26.5 -100q-7 -52 -49 -89t-95 -37zM799 -13q-58 0 -94.5 43t-26.5 104q9 53 51.5 87.5t91.5 34.5q61 0 95.5 -43t26.5 -100q-7 -52 -49 -89t-95 -37zM1388 -13q-58 0 -94.5 43t-26.5 104
q9 53 51.5 87.5t91.5 34.5q61 0 95.5 -43t26.5 -100q-7 -52 -49 -89t-95 -37z" />
    <glyph glyph-name="prime" unicode="&#x2032;" horiz-adv-x="457" 
d="M168 951l141 539h202l-211 -539h-132z" />
    <glyph glyph-name="doubleprime" unicode="&#x2033;" horiz-adv-x="907" 
d="M168 951l141 539h202l-211 -539h-132zM618 951l141 539h202l-211 -539h-132z" />
    <glyph glyph-name="guilsinglleft" unicode="&#x2039;" horiz-adv-x="787" 
d="M432 144l-323 472l479 472h206l-472 -472l316 -472h-206z" />
    <glyph glyph-name="guilsinglright" unicode="&#x203a;" horiz-adv-x="788" 
d="M12 144l472 472l-316 472h206l323 -472l-479 -472h-206z" />
    <glyph glyph-name="fraction" unicode="&#x2044;" horiz-adv-x="393" 
d="M-493 0l1271 1490h169l-1271 -1490h-169z" />
    <glyph glyph-name="four.sups" unicode="&#x2074;" horiz-adv-x="942" 
d="M179 1032l22 134l502 544h120l-32 -193h-75l-335 -340l-1 -8h569l-23 -137h-747zM618 898l29 175l14 59l96 578h162l-134 -812h-167z" />
    <glyph glyph-name="Euro" unicode="&#x20ac;" horiz-adv-x="1366" 
d="M1136 963l-90 -145h-950l77 145h963zM961 672l-91 -147h-824l77 147h838zM1374 1357l-97 -159q-38 41 -84 71.5t-100 47.5t-117 17q-121 0 -229 -67t-186 -198t-110 -325q-32 -192 2.5 -323t120.5 -198t207 -67q64 0 123 16.5t113 45t102 64.5l48 -157
q-89 -73 -197.5 -109t-218.5 -36q-179 0 -302 92.5t-173 264t-11 407.5q38 236 144.5 408t260.5 265t333 93q115 0 209.5 -39t161.5 -114z" />
    <glyph glyph-name="trademark" unicode="&#x2122;" horiz-adv-x="1252" 
d="M917 954l-146 536h98l98 -391l227 391h98l-324 -536h-51zM661 954l90 536h96l-88 -536h-98zM1126 954l90 536h96l-88 -536h-98zM310 954l82 488h95l-82 -488h-95zM222 1406l14 84h421l-12 -84h-423z" />
    <glyph glyph-name="arrowup" unicode="&#x2191;" horiz-adv-x="1708" 
d="M252 862l760 652l544 -652l-136 -116l-175 211q-42 52 -87.5 117t-86.5 130.5t-72 116.5l27 -28q2 -41 2.5 -82.5t-2 -83t-9.5 -83.5l-173 -1044h-166l173 1044q7 42 18 83.5t25.5 83t29.5 82.5l37 28q-36 -39 -81 -85.5t-94 -96.5t-98.5 -96.5t-94.5 -85.5l-245 -211z
" />
    <glyph glyph-name="arrowdown" unicode="&#x2193;" horiz-adv-x="1708" 
d="M1518 628l-760 -652l-544 652l136 116l175 -211q43 -51 88 -116.5t86.5 -130.5t71.5 -117l-27 28q-1 42 -2 83.5t1.5 83t9.5 82.5l173 1044h166l-173 -1044q-7 -41 -18 -82.5t-25 -83t-30 -83.5l-37 -28q36 39 81 85.5t94 96.5t98.5 96.5t94.5 85.5l245 211z" />
    <glyph glyph-name="minus" unicode="&#x2212;" horiz-adv-x="1356" 
d="M1166 669l-29 -172h-937l27 172h939z" />
    <glyph glyph-name="uni200D" unicode="&#xfeff;" horiz-adv-x="0" 
 />
    <glyph glyph-name="Amacron" horiz-adv-x="1413" 
d="M-41 0l788 1490h220l301 -1490h-192l-169 884q-13 71 -33 199t-43 318h36q-81 -181 -141.5 -308t-102.5 -209l-454 -884h-210zM300 416l27 166h765l-27 -166h-765zM1200 1863l-24 -142h-554l24 142h554z" />
    <glyph glyph-name="uni01DE" horiz-adv-x="1413" 
d="M-41 0l788 1490h220l301 -1490h-192l-169 884q-13 71 -33 199t-43 318h36q-81 -181 -141.5 -308t-102.5 -209l-454 -884h-210zM300 416l27 166h765l-27 -166h-765zM1102 1645q-49 0 -78 35t-21 84t49 83.5t90 34.5t77.5 -34.5t20.5 -83.5t-48.5 -84t-89.5 -35zM681 1645
q-49 0 -78 35t-21 84t49 83.5t90 34.5t77.5 -34.5t20.5 -83.5t-48.5 -84t-89.5 -35zM1273 2153l-24 -128h-554l24 128h554z" />
    <glyph glyph-name="uni1EA0" horiz-adv-x="1413" 
d="M-41 0l788 1490h220l301 -1490h-192l-169 884q-13 71 -33 199t-43 318h36q-81 -181 -141.5 -308t-102.5 -209l-454 -884h-210zM300 416l27 166h765l-27 -166h-765zM547 -421q-51 0 -82 35t-23 84q8 50 51 84.5t94 34.5q52 0 83 -34.5t23 -84.5q-8 -49 -51 -84t-95 -35z
" />
    <glyph glyph-name="uni1EA2" horiz-adv-x="1413" 
d="M-41 0l788 1490h220l301 -1490h-192l-169 884q-13 71 -33 199t-43 318h36q-81 -181 -141.5 -308t-102.5 -209l-454 -884h-210zM300 416l27 166h765l-27 -166h-765zM943 1636h-135l93 137q14 21 9.5 30t-24.5 9h-139l19 118h139q60 0 97.5 -16t51 -44.5t3.5 -66t-45 -81.5
z" />
    <glyph glyph-name="uni01E2" horiz-adv-x="2036" 
d="M-41 0l963 1490h1122l-28 -167h-716l-81 -493h669l-28 -168h-669l-82 -495h727l-28 -167h-917l219 1319h-108l-834 -1319h-209zM371 416l27 166h686l-27 -166h-686zM1820 1863l-24 -142h-554l24 142h554z" />
    <glyph glyph-name="AEacute" horiz-adv-x="2036" 
d="M-41 0l963 1490h1122l-28 -167h-716l-81 -493h669l-28 -168h-669l-82 -495h727l-28 -167h-917l219 1319h-108l-834 -1319h-209zM371 416l27 166h686l-27 -166h-686zM1421 1654l186 276h201l-240 -276h-147z" />
    <glyph glyph-name="uni1E04" horiz-adv-x="1340" 
d="M87 0l247 1490h522q156 0 249.5 -54.5t130 -146t18.5 -202.5q-14 -91 -58.5 -153t-107.5 -99.5t-134 -56.5v-10q70 -4 132.5 -49.5t95.5 -129t14 -201.5q-18 -112 -83 -199.5t-182 -138t-292 -50.5h-552zM305 167h345q177 0 264 73.5t103 173.5q12 74 -16.5 133t-91 94
t-154.5 35h-365zM416 836h323q79 0 150 33t121 92.5t63 139.5q16 93 -37.5 157.5t-199.5 64.5h-339zM492 -421q-51 0 -82 35t-23 84q8 50 51 84.5t94 34.5q52 0 83 -34.5t23 -84.5q-8 -49 -51 -84t-95 -35z" />
    <glyph glyph-name="Cacute" horiz-adv-x="1495" 
d="M698 -20q-169 0 -295 72t-195 206.5t-69 321.5q0 176 55 342.5t158 299t249 210.5t328 78q115 0 211.5 -33t168 -96t111 -153.5t40.5 -206.5h-190q-3 76 -30.5 134t-74.5 98t-109 60.5t-134 20.5q-140 0 -251 -64t-188.5 -172t-118.5 -241.5t-41 -271.5q0 -140 49 -236
t135 -144.5t198 -48.5q76 0 148.5 20.5t136 60.5t112.5 98t77 134h191q-39 -114 -106 -204t-156.5 -154t-193.5 -97.5t-216 -33.5zM878 1654l186 276h201l-240 -276h-147z" />
    <glyph glyph-name="uni1E0C" horiz-adv-x="1477" 
d="M585 0h-393l27 168h348q183 0 314.5 70t212 200.5t109.5 309.5q30 180 -7.5 308.5t-142 197t-276.5 68.5h-374l28 168h363q218 0 364 -89.5t207 -256t22 -398.5q-39 -235 -142.5 -401.5t-269 -255.5t-390.5 -89zM524 1490l-247 -1490h-190l247 1490h190zM469 -421
q-51 0 -82 35t-23 84q8 50 51 84.5t94 34.5q52 0 83 -34.5t23 -84.5q-8 -49 -51 -84t-95 -35z" />
    <glyph glyph-name="Emacron" horiz-adv-x="1232" 
d="M87 0l247 1490h908l-28 -167h-718l-80 -487h669l-28 -167h-670l-83 -502h727l-27 -167h-917zM1133 1863l-24 -142h-554l24 142h554z" />
    <glyph glyph-name="uni1E14" horiz-adv-x="1232" 
d="M87 0l247 1490h908l-28 -167h-718l-80 -487h669l-28 -167h-670l-83 -502h727l-27 -167h-917zM1129 1835l-24 -142h-554l24 142h554zM810 1987l-147 276h201l93 -276h-147z" />
    <glyph glyph-name="uni1E16" horiz-adv-x="1232" 
d="M87 0l247 1490h908l-28 -167h-718l-80 -487h669l-28 -167h-670l-83 -502h727l-27 -167h-917zM1129 1835l-24 -142h-554l24 142h554zM806 1987l186 276h201l-240 -276h-147z" />
    <glyph glyph-name="uni1EB8" horiz-adv-x="1232" 
d="M87 0l247 1490h908l-28 -167h-718l-80 -487h669l-28 -167h-670l-83 -502h727l-27 -167h-917zM480 -421q-51 0 -82 35t-23 84q8 50 51 84.5t94 34.5q52 0 83 -34.5t23 -84.5q-8 -49 -51 -84t-95 -35z" />
    <glyph glyph-name="uni1EBA" horiz-adv-x="1232" 
d="M87 0l247 1490h908l-28 -167h-718l-80 -487h669l-28 -167h-670l-83 -502h727l-27 -167h-917zM876 1636h-135l93 137q14 21 9.5 30t-24.5 9h-139l19 118h139q60 0 97.5 -16t51 -44.5t3.5 -66t-45 -81.5z" />
    <glyph glyph-name="uni1EBC" horiz-adv-x="1232" 
d="M87 0l247 1490h908l-28 -167h-718l-80 -487h669l-28 -167h-670l-83 -502h727l-27 -167h-917zM957 1685q-37 0 -70.5 12.5t-62.5 29t-53 29t-43 12.5q-28 0 -44.5 -25.5t-22.5 -53.5h-126q19 92 68.5 150t128.5 58q39 0 70 -13t57.5 -29.5t50.5 -29.5t49 -13
q26 0 41.5 19.5t27.5 61.5h123q-19 -97 -70.5 -152.5t-123.5 -55.5z" />
    <glyph glyph-name="uni01F4" horiz-adv-x="1527" 
d="M704 -20q-175 0 -301.5 72t-195 205.5t-68.5 318.5q0 177 54 344t156 300t247.5 211.5t327.5 78.5q120 0 219 -35.5t170.5 -100t111 -154t41.5 -197.5h-196q-11 72 -38.5 129t-71.5 98t-105 62.5t-138 21.5q-138 0 -247.5 -64t-187 -172t-118.5 -241t-41 -271
q0 -211 108 -320.5t280 -109.5q129 0 236.5 55t179.5 155t94 234l53 -17h-443l28 166h572l-28 -169q-23 -138 -85 -248.5t-155 -189t-210 -120.5t-249 -42zM872 1654l186 276h201l-240 -276h-147z" />
    <glyph glyph-name="uni1E20" horiz-adv-x="1527" 
d="M704 -20q-175 0 -301.5 72t-195 205.5t-68.5 318.5q0 177 54 344t156 300t247.5 211.5t327.5 78.5q120 0 219 -35.5t170.5 -100t111 -154t41.5 -197.5h-196q-11 72 -38.5 129t-71.5 98t-105 62.5t-138 21.5q-138 0 -247.5 -64t-187 -172t-118.5 -241t-41 -271
q0 -211 108 -320.5t280 -109.5q129 0 236.5 55t179.5 155t94 234l53 -17h-443l28 166h572l-28 -169q-23 -138 -85 -248.5t-155 -189t-210 -120.5t-249 -42zM1271 1863l-24 -142h-554l24 142h554z" />
    <glyph glyph-name="uni1E24" horiz-adv-x="1522" 
d="M87 0l247 1490h190l-107 -644h782l107 644h190l-247 -1490h-190l113 678h-783l-112 -678h-190zM601 -421q-51 0 -82 35t-23 84q8 50 51 84.5t94 34.5q52 0 83 -34.5t23 -84.5q-8 -49 -51 -84t-95 -35z" />
    <glyph glyph-name="uni1E26" horiz-adv-x="1522" 
d="M87 0l247 1490h190l-107 -644h782l107 644h190l-247 -1490h-190l113 678h-783l-112 -678h-190zM1155 1673q-49 0 -78 35t-21 84t49 83.5t90 34.5t77.5 -34.5t20.5 -83.5t-48.5 -84t-89.5 -35zM734 1673q-49 0 -78 35t-21 84t49 83.5t90 34.5t77.5 -34.5t20.5 -83.5
t-48.5 -84t-89.5 -35z" />
    <glyph glyph-name="uni1E2E" horiz-adv-x="550" 
d="M524 1490l-247 -1490h-190l247 1490h190zM671 1645q-49 0 -78 35t-21 84t49 83.5t90 34.5t77.5 -34.5t20.5 -83.5t-48.5 -84t-89.5 -35zM250 1645q-49 0 -78 35t-21 84t49 83.5t90 34.5t77.5 -34.5t20.5 -83.5t-48.5 -84t-89.5 -35zM439 1987l186 276h201l-240 -276h-147
z" />
    <glyph glyph-name="Itilde" horiz-adv-x="550" 
d="M524 1490l-247 -1490h-190l247 1490h190zM593 1685q-37 0 -70.5 12.5t-62.5 29t-53 29t-43 12.5q-28 0 -44.5 -25.5t-22.5 -53.5h-126q19 92 68.5 150t128.5 58q39 0 70 -13t57.5 -29.5t50.5 -29.5t49 -13q26 0 41.5 19.5t27.5 61.5h123q-19 -97 -70.5 -152.5
t-123.5 -55.5z" />
    <glyph glyph-name="Imacron" horiz-adv-x="550" 
d="M524 1490l-247 -1490h-190l247 1490h190zM769 1863l-24 -142h-554l24 142h554z" />
    <glyph glyph-name="uni1EC8" horiz-adv-x="550" 
d="M524 1490l-247 -1490h-190l247 1490h190zM512 1636h-135l93 137q14 21 9.5 30t-24.5 9h-139l19 118h139q60 0 97.5 -16t51 -44.5t3.5 -66t-45 -81.5z" />
    <glyph glyph-name="uni1ECA" horiz-adv-x="550" 
d="M524 1490l-247 -1490h-190l247 1490h190zM116 -421q-51 0 -82 35t-23 84q8 50 51 84.5t94 34.5q52 0 83 -34.5t23 -84.5q-8 -49 -51 -84t-95 -35z" />
    <glyph glyph-name="uni1E30" horiz-adv-x="1376" 
d="M288 426l24 203q63 70 124.5 134t124.5 125t128 121l525 481h258l-749 -682l-11 1zM87 0l247 1490h191l-85 -510l-57 -321l-12 -93l-93 -566h-191zM1017 0l-412 758l125 148l496 -906h-209zM799 1654l186 276h201l-240 -276h-147z" />
    <glyph glyph-name="uni1E32" horiz-adv-x="1376" 
d="M288 426l24 203q63 70 124.5 134t124.5 125t128 121l525 481h258l-749 -682l-11 1zM87 0l247 1490h191l-85 -510l-57 -321l-12 -93l-93 -566h-191zM1017 0l-412 758l125 148l496 -906h-209zM545 -421q-51 0 -82 35t-23 84q8 50 51 84.5t94 34.5q52 0 83 -34.5t23 -84.5
q-8 -49 -51 -84t-95 -35z" />
    <glyph glyph-name="Lacute" horiz-adv-x="1158" 
d="M87 0l247 1490h190l-219 -1322h690l-28 -168h-880zM370 1654l186 276h201l-240 -276h-147z" />
    <glyph glyph-name="uni1E36" horiz-adv-x="1158" 
d="M87 0l247 1490h190l-219 -1322h690l-28 -168h-880zM460 -421q-51 0 -82 35t-23 84q8 50 51 84.5t94 34.5q52 0 83 -34.5t23 -84.5q-8 -49 -51 -84t-95 -35z" />
    <glyph glyph-name="uni1E3E" horiz-adv-x="1850" 
d="M87 0l247 1490h270l211 -940q8 -34 16.5 -84.5t17 -108.5t16 -115t12.5 -104h-42q23 50 50 108t54.5 115.5t52 106.5t42.5 82l519 940h271l-247 -1490h-187l140 851q8 50 19 112t23.5 128t25 130.5t22.5 120.5h16q-33 -70 -68.5 -142t-69 -138t-62 -120.5t-48.5 -90.5
l-474 -851h-165l-197 851q-10 46 -24.5 123.5t-31 173.5t-34.5 194h19q-8 -60 -17.5 -126t-19.5 -131.5t-19 -125.5t-17 -108l-140 -851h-181zM1016 1654l186 276h201l-240 -276h-147z" />
    <glyph glyph-name="uni1E42" horiz-adv-x="1850" 
d="M87 0l247 1490h270l211 -940q8 -34 16.5 -84.5t17 -108.5t16 -115t12.5 -104h-42q23 50 50 108t54.5 115.5t52 106.5t42.5 82l519 940h271l-247 -1490h-187l140 851q8 50 19 112t23.5 128t25 130.5t22.5 120.5h16q-33 -70 -68.5 -142t-69 -138t-62 -120.5t-48.5 -90.5
l-474 -851h-165l-197 851q-10 46 -24.5 123.5t-31 173.5t-34.5 194h19q-8 -60 -17.5 -126t-19.5 -131.5t-19 -125.5t-17 -108l-140 -851h-181zM762 -421q-51 0 -82 35t-23 84q8 50 51 84.5t94 34.5q52 0 83 -34.5t23 -84.5q-8 -49 -51 -84t-95 -35z" />
    <glyph glyph-name="Nacute" horiz-adv-x="1543" 
d="M87 0l247 1490h218l448 -953q14 -30 38.5 -86.5t53 -132t54.5 -163.5h-21q5 86 14 163.5t19 143.5t18 114l151 914h190l-247 -1490h-219l-400 848q-25 54 -51.5 115.5t-61 148.5t-86.5 217h28q-15 -121 -26.5 -214t-20 -159t-15.5 -106l-140 -850h-191zM867 1654l186 276
h201l-240 -276h-147z" />
    <glyph glyph-name="uni01F8" horiz-adv-x="1543" 
d="M87 0l247 1490h218l448 -953q14 -30 38.5 -86.5t53 -132t54.5 -163.5h-21q5 86 14 163.5t19 143.5t18 114l151 914h190l-247 -1490h-219l-400 848q-25 54 -51.5 115.5t-61 148.5t-86.5 217h28q-15 -121 -26.5 -214t-20 -159t-15.5 -106l-140 -850h-191zM879 1636
l-144 294h201l90 -294h-147z" />
    <glyph glyph-name="uni1E46" horiz-adv-x="1543" 
d="M87 0l247 1490h218l448 -953q14 -30 38.5 -86.5t53 -132t54.5 -163.5h-21q5 86 14 163.5t19 143.5t18 114l151 914h190l-247 -1490h-219l-400 848q-25 54 -51.5 115.5t-61 148.5t-86.5 217h28q-15 -121 -26.5 -214t-20 -159t-15.5 -106l-140 -850h-191zM613 -421
q-51 0 -82 35t-23 84q8 50 51 84.5t94 34.5q52 0 83 -34.5t23 -84.5q-8 -49 -51 -84t-95 -35z" />
    <glyph glyph-name="Omacron" horiz-adv-x="1566" 
d="M699 -20q-169 0 -295 72t-195.5 206.5t-69.5 321.5q0 177 55 343.5t159 298.5t250 210t327 78q169 0 294 -72t194.5 -206t69.5 -321q0 -178 -55 -344.5t-158.5 -299t-249 -210t-326.5 -77.5zM706 156q140 0 251 64t188.5 172t118 241.5t40.5 272.5q0 140 -48.5 235.5
t-134.5 144t-198 48.5q-140 0 -251 -64t-189 -172t-119 -241t-41 -272q0 -140 49 -235.5t135.5 -144.5t198.5 -49zM1278 1863l-24 -142h-554l24 142h554z" />
    <glyph glyph-name="uni022A" horiz-adv-x="1566" 
d="M699 -20q-169 0 -295 72t-195.5 206.5t-69.5 321.5q0 177 55 343.5t159 298.5t250 210t327 78q169 0 294 -72t194.5 -206t69.5 -321q0 -178 -55 -344.5t-158.5 -299t-249 -210t-326.5 -77.5zM706 156q140 0 251 64t188.5 172t118 241.5t40.5 272.5q0 140 -48.5 235.5
t-134.5 144t-198 48.5q-140 0 -251 -64t-189 -172t-119 -241t-41 -272q0 -140 49 -235.5t135.5 -144.5t198.5 -49zM1180 1645q-49 0 -78 35t-21 84t49 83.5t90 34.5t77.5 -34.5t20.5 -83.5t-48.5 -84t-89.5 -35zM759 1645q-49 0 -78 35t-21 84t49 83.5t90 34.5t77.5 -34.5
t20.5 -83.5t-48.5 -84t-89.5 -35zM1351 2153l-24 -128h-554l24 128h554z" />
    <glyph glyph-name="uni022C" horiz-adv-x="1566" 
d="M699 -20q-169 0 -295 72t-195.5 206.5t-69.5 321.5q0 177 55 343.5t159 298.5t250 210t327 78q169 0 294 -72t194.5 -206t69.5 -321q0 -178 -55 -344.5t-158.5 -299t-249 -210t-326.5 -77.5zM706 156q140 0 251 64t188.5 172t118 241.5t40.5 272.5q0 140 -48.5 235.5
t-134.5 144t-198 48.5q-140 0 -251 -64t-189 -172t-119 -241t-41 -272q0 -140 49 -235.5t135.5 -144.5t198.5 -49zM1103 1658q-37 0 -70.5 12.5t-62.5 29t-53 29t-43 12.5q-28 0 -44.5 -25.5t-22.5 -53.5h-126q19 92 68.5 150t128.5 58q39 0 70 -13t57.5 -29.5t50.5 -29.5
t49 -13q26 0 41.5 19.5t27.5 61.5h123q-19 -97 -70.5 -152.5t-123.5 -55.5zM1351 2153l-24 -128h-554l24 128h554z" />
    <glyph glyph-name="uni1E4C" horiz-adv-x="1566" 
d="M699 -20q-169 0 -295 72t-195.5 206.5t-69.5 321.5q0 177 55 343.5t159 298.5t250 210t327 78q169 0 294 -72t194.5 -206t69.5 -321q0 -178 -55 -344.5t-158.5 -299t-249 -210t-326.5 -77.5zM706 156q140 0 251 64t188.5 172t118 241.5t40.5 272.5q0 140 -48.5 235.5
t-134.5 144t-198 48.5q-140 0 -251 -64t-189 -172t-119 -241t-41 -272q0 -140 49 -235.5t135.5 -144.5t198.5 -49zM1103 1658q-37 0 -70.5 12.5t-62.5 29t-53 29t-43 12.5q-28 0 -44.5 -25.5t-22.5 -53.5h-126q19 92 68.5 150t128.5 58q39 0 70 -13t57.5 -29.5t50.5 -29.5
t49 -13q26 0 41.5 19.5t27.5 61.5h123q-19 -97 -70.5 -152.5t-123.5 -55.5zM940 1987l186 276h201l-240 -276h-147z" />
    <glyph glyph-name="uni1E4E" horiz-adv-x="1566" 
d="M699 -20q-169 0 -295 72t-195.5 206.5t-69.5 321.5q0 177 55 343.5t159 298.5t250 210t327 78q169 0 294 -72t194.5 -206t69.5 -321q0 -178 -55 -344.5t-158.5 -299t-249 -210t-326.5 -77.5zM706 156q140 0 251 64t188.5 172t118 241.5t40.5 272.5q0 140 -48.5 235.5
t-134.5 144t-198 48.5q-140 0 -251 -64t-189 -172t-119 -241t-41 -272q0 -140 49 -235.5t135.5 -144.5t198.5 -49zM1103 1658q-37 0 -70.5 12.5t-62.5 29t-53 29t-43 12.5q-28 0 -44.5 -25.5t-22.5 -53.5h-126q19 92 68.5 150t128.5 58q39 0 70 -13t57.5 -29.5t50.5 -29.5
t49 -13q26 0 41.5 19.5t27.5 61.5h123q-19 -97 -70.5 -152.5t-123.5 -55.5zM1234 1970q-49 0 -78 35t-21 84t49 83.5t90 34.5t77.5 -34.5t20.5 -83.5t-48.5 -84t-89.5 -35zM813 1970q-49 0 -78 35t-21 84t49 83.5t90 34.5t77.5 -34.5t20.5 -83.5t-48.5 -84t-89.5 -35z" />
    <glyph glyph-name="uni1E50" horiz-adv-x="1566" 
d="M699 -20q-169 0 -295 72t-195.5 206.5t-69.5 321.5q0 177 55 343.5t159 298.5t250 210t327 78q169 0 294 -72t194.5 -206t69.5 -321q0 -178 -55 -344.5t-158.5 -299t-249 -210t-326.5 -77.5zM706 156q140 0 251 64t188.5 172t118 241.5t40.5 272.5q0 140 -48.5 235.5
t-134.5 144t-198 48.5q-140 0 -251 -64t-189 -172t-119 -241t-41 -272q0 -140 49 -235.5t135.5 -144.5t198.5 -49zM1274 1835l-24 -142h-554l24 142h554zM955 1987l-147 276h201l93 -276h-147z" />
    <glyph glyph-name="uni1E52" horiz-adv-x="1566" 
d="M699 -20q-169 0 -295 72t-195.5 206.5t-69.5 321.5q0 177 55 343.5t159 298.5t250 210t327 78q169 0 294 -72t194.5 -206t69.5 -321q0 -178 -55 -344.5t-158.5 -299t-249 -210t-326.5 -77.5zM706 156q140 0 251 64t188.5 172t118 241.5t40.5 272.5q0 140 -48.5 235.5
t-134.5 144t-198 48.5q-140 0 -251 -64t-189 -172t-119 -241t-41 -272q0 -140 49 -235.5t135.5 -144.5t198.5 -49zM1274 1835l-24 -142h-554l24 142h554zM951 1987l186 276h201l-240 -276h-147z" />
    <glyph glyph-name="uni1ECC" horiz-adv-x="1566" 
d="M699 -20q-169 0 -295 72t-195.5 206.5t-69.5 321.5q0 177 55 343.5t159 298.5t250 210t327 78q169 0 294 -72t194.5 -206t69.5 -321q0 -178 -55 -344.5t-158.5 -299t-249 -210t-326.5 -77.5zM706 156q140 0 251 64t188.5 172t118 241.5t40.5 272.5q0 140 -48.5 235.5
t-134.5 144t-198 48.5q-140 0 -251 -64t-189 -172t-119 -241t-41 -272q0 -140 49 -235.5t135.5 -144.5t198.5 -49zM625 -421q-51 0 -82 35t-23 84q8 50 51 84.5t94 34.5q52 0 83 -34.5t23 -84.5q-8 -49 -51 -84t-95 -35z" />
    <glyph glyph-name="uni1ECE" horiz-adv-x="1566" 
d="M699 -20q-169 0 -295 72t-195.5 206.5t-69.5 321.5q0 177 55 343.5t159 298.5t250 210t327 78q169 0 294 -72t194.5 -206t69.5 -321q0 -178 -55 -344.5t-158.5 -299t-249 -210t-326.5 -77.5zM706 156q140 0 251 64t188.5 172t118 241.5t40.5 272.5q0 140 -48.5 235.5
t-134.5 144t-198 48.5q-140 0 -251 -64t-189 -172t-119 -241t-41 -272q0 -140 49 -235.5t135.5 -144.5t198.5 -49zM1021 1636h-135l93 137q14 21 9.5 30t-24.5 9h-139l19 118h139q60 0 97.5 -16t51 -44.5t3.5 -66t-45 -81.5z" />
    <glyph glyph-name="Oslashacute" horiz-adv-x="1566" 
d="M699 -20q-169 0 -295 72t-195.5 206.5t-69.5 321.5q0 177 55 343.5t159 298.5t250 210t327 78q169 0 294 -72t194.5 -206t69.5 -321q0 -178 -55 -344.5t-158.5 -299t-249 -210t-326.5 -77.5zM706 156q140 0 251 64t188.5 172t118 241.5t40.5 272.5q0 140 -48.5 235.5
t-134.5 144t-198 48.5q-140 0 -251 -64t-189 -172t-119 -241t-41 -272q0 -140 49 -235.5t135.5 -144.5t198.5 -49zM230 -46l-115 90l1286 1492l114 -91zM879 1654l186 276h201l-240 -276h-147z" />
    <glyph glyph-name="uni1E54" horiz-adv-x="1308" 
d="M87 0l247 1490h510q173 0 275 -62.5t139.5 -169.5t15.5 -240q-21 -133 -93.5 -241.5t-195.5 -173t-297 -64.5h-361l28 167h351q121 0 199.5 41.5t122 112.5t57.5 157q14 87 -7 156t-86.5 109.5t-185.5 40.5h-310l-219 -1323h-190zM747 1654l186 276h201l-240 -276h-147z
" />
    <glyph glyph-name="Racute" horiz-adv-x="1318" 
d="M87 0l247 1490h510q176 0 278.5 -60t139 -164t14.5 -236t-93 -234t-193 -160t-296 -58h-405l28 169h395q119 0 197 34.5t121 98.5t57 150q23 139 -43 216t-238 77h-310l-219 -1323h-190zM943 0l-249 671h214l255 -671h-220zM746 1654l186 276h201l-240 -276h-147z" />
    <glyph glyph-name="uni1E5A" horiz-adv-x="1318" 
d="M87 0l247 1490h510q176 0 278.5 -60t139 -164t14.5 -236t-93 -234t-193 -160t-296 -58h-405l28 169h395q119 0 197 34.5t121 98.5t57 150q23 139 -43 216t-238 77h-310l-219 -1323h-190zM943 0l-249 671h214l255 -671h-220zM518 -421q-51 0 -82 35t-23 84q8 50 51 84.5
t94 34.5q52 0 83 -34.5t23 -84.5q-8 -49 -51 -84t-95 -35z" />
    <glyph glyph-name="Sacute" horiz-adv-x="1312" 
d="M575 -26q-160 0 -274 51.5t-170 145.5t-44 219h195q-6 -84 34 -138.5t111.5 -81t159.5 -26.5q101 0 187 33t143 92.5t70 139.5q12 72 -20.5 116.5t-94.5 73.5t-140 52l-172 51q-160 47 -250.5 139t-65.5 248q20 126 99.5 221t200.5 147.5t266 52.5t253.5 -51.5t164 -141
t40.5 -203.5h-185q5 108 -76 168t-215 60q-97 0 -174 -31t-126 -85.5t-61 -123.5q-13 -78 26.5 -126t102 -74.5t115.5 -42.5l142 -41q56 -16 123.5 -43.5t126.5 -73.5t90 -118t14 -177q-20 -122 -95.5 -220t-201.5 -155t-299 -57zM750 1654l186 276h201l-240 -276h-147z" />
    <glyph glyph-name="uni1E62" horiz-adv-x="1312" 
d="M575 -26q-160 0 -274 51.5t-170 145.5t-44 219h195q-6 -84 34 -138.5t111.5 -81t159.5 -26.5q101 0 187 33t143 92.5t70 139.5q12 72 -20.5 116.5t-94.5 73.5t-140 52l-172 51q-160 47 -250.5 139t-65.5 248q20 126 99.5 221t200.5 147.5t266 52.5t253.5 -51.5t164 -141
t40.5 -203.5h-185q5 108 -76 168t-215 60q-97 0 -174 -31t-126 -85.5t-61 -123.5q-13 -78 26.5 -126t102 -74.5t115.5 -42.5l142 -41q56 -16 123.5 -43.5t126.5 -73.5t90 -118t14 -177q-20 -122 -95.5 -220t-201.5 -155t-299 -57zM497 -421q-51 0 -82 35t-23 84
q8 50 51 84.5t94 34.5q52 0 83 -34.5t23 -84.5q-8 -49 -51 -84t-95 -35z" />
    <glyph glyph-name="uni1E6C" horiz-adv-x="1324" 
d="M226 1323l28 167h1126l-28 -167h-467l-219 -1323h-190l219 1323h-469zM505 -421q-51 0 -82 35t-23 84q8 50 51 84.5t94 34.5q52 0 83 -34.5t23 -84.5q-8 -49 -51 -84t-95 -35z" />
    <glyph glyph-name="Utilde" horiz-adv-x="1523" 
d="M677 -24q-179 0 -301 70.5t-175.5 192.5t-28.5 275l162 976h190l-161 -974q-18 -109 15 -191t111 -127.5t195 -45.5q123 0 221 49t161.5 134t81.5 194l159 961h190l-163 -989q-25 -154 -115.5 -272.5t-229.5 -185.5t-312 -67zM1080 1685q-37 0 -70.5 12.5t-62.5 29
t-53 29t-43 12.5q-28 0 -44.5 -25.5t-22.5 -53.5h-126q19 92 68.5 150t128.5 58q39 0 70 -13t57.5 -29.5t50.5 -29.5t49 -13q26 0 41.5 19.5t27.5 61.5h123q-19 -97 -70.5 -152.5t-123.5 -55.5z" />
    <glyph glyph-name="Umacron" horiz-adv-x="1523" 
d="M677 -24q-179 0 -301 70.5t-175.5 192.5t-28.5 275l162 976h190l-161 -974q-18 -109 15 -191t111 -127.5t195 -45.5q123 0 221 49t161.5 134t81.5 194l159 961h190l-163 -989q-25 -154 -115.5 -272.5t-229.5 -185.5t-312 -67zM1256 1863l-24 -142h-554l24 142h554z" />
    <glyph glyph-name="uni01D5" horiz-adv-x="1523" 
d="M677 -24q-179 0 -301 70.5t-175.5 192.5t-28.5 275l162 976h190l-161 -974q-18 -109 15 -191t111 -127.5t195 -45.5q123 0 221 49t161.5 134t81.5 194l159 961h190l-163 -989q-25 -154 -115.5 -272.5t-229.5 -185.5t-312 -67zM1158 1645q-49 0 -78 35t-21 84t49 83.5
t90 34.5t77.5 -34.5t20.5 -83.5t-48.5 -84t-89.5 -35zM737 1645q-49 0 -78 35t-21 84t49 83.5t90 34.5t77.5 -34.5t20.5 -83.5t-48.5 -84t-89.5 -35zM1329 2153l-24 -128h-554l24 128h554z" />
    <glyph glyph-name="uni01D7" horiz-adv-x="1523" 
d="M677 -24q-179 0 -301 70.5t-175.5 192.5t-28.5 275l162 976h190l-161 -974q-18 -109 15 -191t111 -127.5t195 -45.5q123 0 221 49t161.5 134t81.5 194l159 961h190l-163 -989q-25 -154 -115.5 -272.5t-229.5 -185.5t-312 -67zM1158 1645q-49 0 -78 35t-21 84t49 83.5
t90 34.5t77.5 -34.5t20.5 -83.5t-48.5 -84t-89.5 -35zM737 1645q-49 0 -78 35t-21 84t49 83.5t90 34.5t77.5 -34.5t20.5 -83.5t-48.5 -84t-89.5 -35zM926 1987l186 276h201l-240 -276h-147z" />
    <glyph glyph-name="uni01DB" horiz-adv-x="1523" 
d="M677 -24q-179 0 -301 70.5t-175.5 192.5t-28.5 275l162 976h190l-161 -974q-18 -109 15 -191t111 -127.5t195 -45.5q123 0 221 49t161.5 134t81.5 194l159 961h190l-163 -989q-25 -154 -115.5 -272.5t-229.5 -185.5t-312 -67zM1158 1645q-49 0 -78 35t-21 84t49 83.5
t90 34.5t77.5 -34.5t20.5 -83.5t-48.5 -84t-89.5 -35zM737 1645q-49 0 -78 35t-21 84t49 83.5t90 34.5t77.5 -34.5t20.5 -83.5t-48.5 -84t-89.5 -35zM920 1987l-147 276h201l93 -276h-147z" />
    <glyph glyph-name="uni1E78" horiz-adv-x="1523" 
d="M677 -24q-179 0 -301 70.5t-175.5 192.5t-28.5 275l162 976h190l-161 -974q-18 -109 15 -191t111 -127.5t195 -45.5q123 0 221 49t161.5 134t81.5 194l159 961h190l-163 -989q-25 -154 -115.5 -272.5t-229.5 -185.5t-312 -67zM1081 1658q-37 0 -70.5 12.5t-62.5 29
t-53 29t-43 12.5q-28 0 -44.5 -25.5t-22.5 -53.5h-126q19 92 68.5 150t128.5 58q39 0 70 -13t57.5 -29.5t50.5 -29.5t49 -13q26 0 41.5 19.5t27.5 61.5h123q-19 -97 -70.5 -152.5t-123.5 -55.5zM918 1987l186 276h201l-240 -276h-147z" />
    <glyph glyph-name="uni1E7A" horiz-adv-x="1523" 
d="M677 -24q-179 0 -301 70.5t-175.5 192.5t-28.5 275l162 976h190l-161 -974q-18 -109 15 -191t111 -127.5t195 -45.5q123 0 221 49t161.5 134t81.5 194l159 961h190l-163 -989q-25 -154 -115.5 -272.5t-229.5 -185.5t-312 -67zM1252 1835l-24 -142h-554l24 142h554z
M1212 1970q-49 0 -78 35t-21 84t49 83.5t90 34.5t77.5 -34.5t20.5 -83.5t-48.5 -84t-89.5 -35zM791 1970q-49 0 -78 35t-21 84t49 83.5t90 34.5t77.5 -34.5t20.5 -83.5t-48.5 -84t-89.5 -35z" />
    <glyph glyph-name="uni1EE4" horiz-adv-x="1523" 
d="M677 -24q-179 0 -301 70.5t-175.5 192.5t-28.5 275l162 976h190l-161 -974q-18 -109 15 -191t111 -127.5t195 -45.5q123 0 221 49t161.5 134t81.5 194l159 961h190l-163 -989q-25 -154 -115.5 -272.5t-229.5 -185.5t-312 -67zM603 -421q-51 0 -82 35t-23 84q8 50 51 84.5
t94 34.5q52 0 83 -34.5t23 -84.5q-8 -49 -51 -84t-95 -35z" />
    <glyph glyph-name="uni1EE6" horiz-adv-x="1523" 
d="M677 -24q-179 0 -301 70.5t-175.5 192.5t-28.5 275l162 976h190l-161 -974q-18 -109 15 -191t111 -127.5t195 -45.5q123 0 221 49t161.5 134t81.5 194l159 961h190l-163 -989q-25 -154 -115.5 -272.5t-229.5 -185.5t-312 -67zM999 1636h-135l93 137q14 21 9.5 30t-24.5 9
h-139l19 118h139q60 0 97.5 -16t51 -44.5t3.5 -66t-45 -81.5z" />
    <glyph glyph-name="uni1E7C" horiz-adv-x="1413" 
d="M507 0l-301 1490h200l169 -884q17 -90 35 -210.5t41 -305.5h-36q81 182 141.5 308t102.5 208l454 884h202l-789 -1490h-219zM1024 1685q-37 0 -70.5 12.5t-62.5 29t-53 29t-43 12.5q-28 0 -44.5 -25.5t-22.5 -53.5h-126q19 92 68.5 150t128.5 58q39 0 70 -13t57.5 -29.5
t50.5 -29.5t49 -13q26 0 41.5 19.5t27.5 61.5h123q-19 -97 -70.5 -152.5t-123.5 -55.5z" />
    <glyph glyph-name="uni1E7E" horiz-adv-x="1413" 
d="M507 0l-301 1490h200l169 -884q17 -90 35 -210.5t41 -305.5h-36q81 182 141.5 308t102.5 208l454 884h202l-789 -1490h-219zM547 -421q-51 0 -82 35t-23 84q8 50 51 84.5t94 34.5q52 0 83 -34.5t23 -84.5q-8 -49 -51 -84t-95 -35z" />
    <glyph glyph-name="Wgrave" horiz-adv-x="2018" 
d="M365 0l-159 1490h194l84 -914q7 -73 11.5 -148.5t8 -153t4.5 -159.5h-24q28 82 57 159.5t59.5 153t61.5 148.5l393 914h216l88 -914q7 -73 12.5 -148.5t9.5 -153t6 -159.5h-27q28 82 57.5 159.5t59.5 153t61 148.5l386 914h196l-655 -1490h-221l-99 944
q-10 93 -14.5 199.5t-3.5 251.5h39q-44 -137 -83.5 -243.5t-83.5 -207.5l-412 -944h-222zM1116 1636l-144 294h201l90 -294h-147z" />
    <glyph glyph-name="Wacute" horiz-adv-x="2018" 
d="M365 0l-159 1490h194l84 -914q7 -73 11.5 -148.5t8 -153t4.5 -159.5h-24q28 82 57 159.5t59.5 153t61.5 148.5l393 914h216l88 -914q7 -73 12.5 -148.5t9.5 -153t6 -159.5h-27q28 82 57.5 159.5t59.5 153t61 148.5l386 914h196l-655 -1490h-221l-99 944
q-10 93 -14.5 199.5t-3.5 251.5h39q-44 -137 -83.5 -243.5t-83.5 -207.5l-412 -944h-222zM1104 1654l186 276h201l-240 -276h-147z" />
    <glyph glyph-name="Wdieresis" horiz-adv-x="2018" 
d="M365 0l-159 1490h194l84 -914q7 -73 11.5 -148.5t8 -153t4.5 -159.5h-24q28 82 57 159.5t59.5 153t61.5 148.5l393 914h216l88 -914q7 -73 12.5 -148.5t9.5 -153t6 -159.5h-27q28 82 57.5 159.5t59.5 153t61 148.5l386 914h196l-655 -1490h-221l-99 944
q-10 93 -14.5 199.5t-3.5 251.5h39q-44 -137 -83.5 -243.5t-83.5 -207.5l-412 -944h-222zM1404 1673q-49 0 -78 35t-21 84t49 83.5t90 34.5t77.5 -34.5t20.5 -83.5t-48.5 -84t-89.5 -35zM983 1673q-49 0 -78 35t-21 84t49 83.5t90 34.5t77.5 -34.5t20.5 -83.5t-48.5 -84
t-89.5 -35z" />
    <glyph glyph-name="uni1E88" horiz-adv-x="2018" 
d="M365 0l-159 1490h194l84 -914q7 -73 11.5 -148.5t8 -153t4.5 -159.5h-24q28 82 57 159.5t59.5 153t61.5 148.5l393 914h216l88 -914q7 -73 12.5 -148.5t9.5 -153t6 -159.5h-27q28 82 57.5 159.5t59.5 153t61 148.5l386 914h196l-655 -1490h-221l-99 944
q-10 93 -14.5 199.5t-3.5 251.5h39q-44 -137 -83.5 -243.5t-83.5 -207.5l-412 -944h-222zM850 -421q-51 0 -82 35t-23 84q8 50 51 84.5t94 34.5q52 0 83 -34.5t23 -84.5q-8 -49 -51 -84t-95 -35z" />
    <glyph glyph-name="uni1E8C" horiz-adv-x="1397" 
d="M-36 0l720 833l-23 -141l-417 798h211l162 -316q36 -69 58.5 -117t40.5 -94t39 -111h-33q43 64 77 110.5t73 95t98 116.5l272 316h224l-681 -790l23 140l439 -840h-211l-198 378q-32 62 -53.5 106.5t-39 89t-38.5 106.5h40q-40 -61 -73 -106t-70 -89.5t-90 -106.5
l-326 -378h-224zM1093 1673q-49 0 -78 35t-21 84t49 83.5t90 34.5t77.5 -34.5t20.5 -83.5t-48.5 -84t-89.5 -35zM672 1673q-49 0 -78 35t-21 84t49 83.5t90 34.5t77.5 -34.5t20.5 -83.5t-48.5 -84t-89.5 -35z" />
    <glyph glyph-name="Ydieresis" horiz-adv-x="1390" 
d="M507 0l101 610l-402 880h206l215 -481q36 -81 62.5 -154.5t49.5 -185.5h-76q60 114 111 188.5t111 151.5l374 481h233l-694 -880l-101 -610h-190zM1090 1673q-49 0 -78 35t-21 84t49 83.5t90 34.5t77.5 -34.5t20.5 -83.5t-48.5 -84t-89.5 -35zM669 1673q-49 0 -78 35
t-21 84t49 83.5t90 34.5t77.5 -34.5t20.5 -83.5t-48.5 -84t-89.5 -35z" />
    <glyph glyph-name="uni0232" horiz-adv-x="1390" 
d="M507 0l101 610l-402 880h206l215 -481q36 -81 62.5 -154.5t49.5 -185.5h-76q60 114 111 188.5t111 151.5l374 481h233l-694 -880l-101 -610h-190zM1189 1863l-24 -142h-554l24 142h554z" />
    <glyph glyph-name="Ygrave" horiz-adv-x="1390" 
d="M507 0l101 610l-402 880h206l215 -481q36 -81 62.5 -154.5t49.5 -185.5h-76q60 114 111 188.5t111 151.5l374 481h233l-694 -880l-101 -610h-190zM802 1636l-144 294h201l90 -294h-147z" />
    <glyph glyph-name="uni1EF4" horiz-adv-x="1390" 
d="M507 0l101 610l-402 880h206l215 -481q36 -81 62.5 -154.5t49.5 -185.5h-76q60 114 111 188.5t111 151.5l374 481h233l-694 -880l-101 -610h-190zM536 -421q-51 0 -82 35t-23 84q8 50 51 84.5t94 34.5q52 0 83 -34.5t23 -84.5q-8 -49 -51 -84t-95 -35z" />
    <glyph glyph-name="uni1EF6" horiz-adv-x="1390" 
d="M507 0l101 610l-402 880h206l215 -481q36 -81 62.5 -154.5t49.5 -185.5h-76q60 114 111 188.5t111 151.5l374 481h233l-694 -880l-101 -610h-190zM932 1636h-135l93 137q14 21 9.5 30t-24.5 9h-139l19 118h139q60 0 97.5 -16t51 -44.5t3.5 -66t-45 -81.5z" />
    <glyph glyph-name="uni1EF8" horiz-adv-x="1390" 
d="M507 0l101 610l-402 880h206l215 -481q36 -81 62.5 -154.5t49.5 -185.5h-76q60 114 111 188.5t111 151.5l374 481h233l-694 -880l-101 -610h-190zM1013 1685q-37 0 -70.5 12.5t-62.5 29t-53 29t-43 12.5q-28 0 -44.5 -25.5t-22.5 -53.5h-126q19 92 68.5 150t128.5 58
q39 0 70 -13t57.5 -29.5t50.5 -29.5t49 -13q26 0 41.5 19.5t27.5 61.5h123q-19 -97 -70.5 -152.5t-123.5 -55.5z" />
    <glyph glyph-name="Zacute" horiz-adv-x="1290" 
d="M38 0l23 134l995 1189h-807l28 167h1037l-23 -136l-996 -1187h807l-28 -167h-1036zM741 1654l186 276h201l-240 -276h-147z" />
    <glyph glyph-name="uni1E92" horiz-adv-x="1290" 
d="M38 0l23 134l995 1189h-807l28 167h1037l-23 -136l-996 -1187h807l-28 -167h-1036zM481 -421q-51 0 -82 35t-23 84q8 50 51 84.5t94 34.5q52 0 83 -34.5t23 -84.5q-8 -49 -51 -84t-95 -35z" />
    <glyph glyph-name="uni1EA1" horiz-adv-x="1257" 
d="M481 -24q-139 0 -234 71.5t-133.5 202t-9.5 307.5q30 178 112 306.5t201 198.5t258 70q108 0 166 -35.5t84.5 -81t40.5 -76.5h15l29 179h181l-185 -1118h-175l28 173h-21q-25 -33 -68 -79.5t-113 -82t-176 -35.5zM537 137q102 0 180.5 54t130.5 149t72 219
q21 124 0.5 216.5t-82 144t-163.5 51.5q-107 0 -187.5 -55.5t-131 -148.5t-69.5 -208q-19 -117 1 -213t82 -152.5t167 -56.5zM462 -421q-51 0 -82 35t-23 84q8 50 51 84.5t94 34.5q52 0 83 -34.5t23 -84.5q-8 -49 -51 -84t-95 -35z" />
    <glyph glyph-name="uni1EA3" horiz-adv-x="1257" 
d="M481 -24q-139 0 -234 71.5t-133.5 202t-9.5 307.5q30 178 112 306.5t201 198.5t258 70q108 0 166 -35.5t84.5 -81t40.5 -76.5h15l29 179h181l-185 -1118h-175l28 173h-21q-25 -33 -68 -79.5t-113 -82t-176 -35.5zM537 137q102 0 180.5 54t130.5 149t72 219
q21 124 0.5 216.5t-82 144t-163.5 51.5q-107 0 -187.5 -55.5t-131 -148.5t-69.5 -208q-19 -117 1 -213t82 -152.5t167 -56.5zM803 1264h-135l93 137q14 21 9.5 30t-24.5 9h-139l19 118h139q60 0 97.5 -16t51 -44.5t3.5 -66t-45 -81.5z" />
    <glyph glyph-name="amacron" horiz-adv-x="1257" 
d="M481 -24q-139 0 -234 71.5t-133.5 202t-9.5 307.5q30 178 112 306.5t201 198.5t258 70q108 0 166 -35.5t84.5 -81t40.5 -76.5h15l29 179h181l-185 -1118h-175l28 173h-21q-25 -33 -68 -79.5t-113 -82t-176 -35.5zM537 137q102 0 180.5 54t130.5 149t72 219
q21 124 0.5 216.5t-82 144t-163.5 51.5q-107 0 -187.5 -55.5t-131 -148.5t-69.5 -208q-19 -117 1 -213t82 -152.5t167 -56.5zM1060 1491l-24 -142h-554l24 142h554z" />
    <glyph glyph-name="uni01E3" horiz-adv-x="1859" 
d="M391 -16q-173 0 -262.5 92.5t-63.5 247.5q13 77 59 145.5t139 111.5t246 43q54 0 102.5 0.5t105 0.5h133.5l-12 -138q-78 0 -161 -1t-156 -1q-110 0 -187 -40t-91 -125q-15 -89 31.5 -134.5t147.5 -45.5q105 0 176.5 38.5t112.5 99.5t53 128l67 359q21 113 -26.5 166.5
t-178.5 53.5q-70 0 -127.5 -22.5t-95.5 -63.5t-53 -98l-182 2q21 101 87.5 177t167.5 118.5t225 42.5q125 0 210.5 -44.5t123.5 -124.5t20 -186l-88 -532l-17 -1q-40 -78 -109 -138.5t-167.5 -95.5t-229.5 -35zM1215 -24q-138 0 -234 53.5t-146 154.5t-50 241q0 149 46 279
t128 228.5t190.5 154t234.5 55.5q108 0 188 -37.5t124 -106t44 -161.5q0 -94 -48.5 -160.5t-150.5 -108.5t-261 -61.5t-381 -19.5l24 136q183 0 306 10.5t195.5 35.5t104 67t31.5 105q0 64 -53.5 102.5t-140.5 38.5q-93 0 -175 -47.5t-138.5 -129t-73.5 -182.5
q-11 -67 -17 -105t-8 -59t-2 -38q0 -138 70.5 -212t203.5 -74q108 0 191.5 47t125.5 126l167 -45q-62 -133 -195 -210t-300 -77zM1329 1491l-24 -142h-554l24 142h554z" />
    <glyph glyph-name="aeacute" horiz-adv-x="1859" 
d="M391 -16q-173 0 -262.5 92.5t-63.5 247.5q13 77 59 145.5t139 111.5t246 43q54 0 102.5 0.5t105 0.5h133.5l-12 -138q-78 0 -161 -1t-156 -1q-110 0 -187 -40t-91 -125q-15 -89 31.5 -134.5t147.5 -45.5q105 0 176.5 38.5t112.5 99.5t53 128l67 359q21 113 -26.5 166.5
t-178.5 53.5q-70 0 -127.5 -22.5t-95.5 -63.5t-53 -98l-182 2q21 101 87.5 177t167.5 118.5t225 42.5q125 0 210.5 -44.5t123.5 -124.5t20 -186l-88 -532l-17 -1q-40 -78 -109 -138.5t-167.5 -95.5t-229.5 -35zM1215 -24q-138 0 -234 53.5t-146 154.5t-50 241q0 149 46 279
t128 228.5t190.5 154t234.5 55.5q108 0 188 -37.5t124 -106t44 -161.5q0 -94 -48.5 -160.5t-150.5 -108.5t-261 -61.5t-381 -19.5l24 136q183 0 306 10.5t195.5 35.5t104 67t31.5 105q0 64 -53.5 102.5t-140.5 38.5q-93 0 -175 -47.5t-138.5 -129t-73.5 -182.5
q-11 -67 -17 -105t-8 -59t-2 -38q0 -138 70.5 -212t203.5 -74q108 0 191.5 47t125.5 126l167 -45q-62 -133 -195 -210t-300 -77zM930 1282l186 276h201l-240 -276h-147z" />
    <glyph glyph-name="uni1E05" horiz-adv-x="1255" 
d="M592 -24q-108 0 -169 35.5t-91 82t-45 79.5h-18l-30 -173h-174l247 1490h180l-92 -551h15q26 32 66 77.5t106.5 80.5t171.5 35q123 0 213 -54t139 -154t49 -239q0 -130 -38.5 -256.5t-111.5 -228.5t-178.5 -163t-239.5 -61zM568 137q100 0 176.5 49t129 129.5t79 176
t26.5 188.5q0 128 -60.5 209.5t-189.5 81.5q-101 0 -177 -47.5t-126.5 -126.5t-76 -175t-25.5 -193q0 -133 61 -212.5t183 -79.5zM511 -421q-51 0 -82 35t-23 84q8 50 51 84.5t94 34.5q52 0 83 -34.5t23 -84.5q-8 -49 -51 -84t-95 -35z" />
    <glyph glyph-name="cacute" horiz-adv-x="1171" 
d="M528 -24q-135 0 -232 56.5t-149.5 159.5t-52.5 241q0 133 41.5 258t119.5 224.5t189.5 158t252.5 58.5q83 0 153.5 -21.5t124 -62.5t87.5 -99t45 -131l-176 -39q-5 43 -23 78t-48 60.5t-71.5 39.5t-95.5 14q-102 0 -180 -48t-131.5 -127t-80.5 -173.5t-27 -187.5
q0 -83 26.5 -151t83.5 -107.5t148 -39.5q58 0 109.5 16t94 44.5t74.5 67t51 83.5l166 -58q-34 -74 -86 -132t-117 -98.5t-140 -62t-156 -21.5zM647 1282l186 276h201l-240 -276h-147z" />
    <glyph glyph-name="uni1E0D" horiz-adv-x="1255" 
d="M492 -24q-183 0 -290.5 120.5t-107.5 328.5q0 132 38.5 258t112 227.5t179 161.5t239.5 60q111 0 171.5 -36.5t89 -83.5t42.5 -78h12l92 556h181l-247 -1490h-175l30 173h-19q-24 -35 -65.5 -81.5t-110 -81t-172.5 -34.5zM524 137q101 0 177 49t127 130t77 178t26 192
q0 131 -61 208t-186 77q-100 0 -176 -47.5t-127.5 -126t-78 -173t-26.5 -189.5q0 -130 60.5 -214t187.5 -84zM428 -421q-51 0 -82 35t-23 84q8 50 51 84.5t94 34.5q52 0 83 -34.5t23 -84.5q-8 -49 -51 -84t-95 -35z" />
    <glyph glyph-name="emacron" horiz-adv-x="1179" 
d="M535 -24q-138 0 -236.5 54t-151.5 155t-53 242q0 147 47 276.5t131 228t194.5 154.5t237.5 56q108 0 188 -37.5t124 -106t44 -161.5q0 -94 -48.5 -160.5t-150.5 -108.5t-261.5 -61.5t-380.5 -19.5l24 136q183 0 306 10.5t195.5 35.5t104 67t31.5 105q0 64 -53.5 102.5
t-140.5 38.5q-113 0 -192.5 -54.5t-129.5 -140t-73.5 -181t-23.5 -178.5q0 -82 27 -148.5t88.5 -105.5t163.5 -39q107 0 190.5 46.5t126.5 126.5l167 -47q-62 -132 -195.5 -208.5t-299.5 -76.5zM1045 1491l-24 -142h-554l24 142h554z" />
    <glyph glyph-name="uni1EB9" horiz-adv-x="1179" 
d="M535 -24q-138 0 -236.5 54t-151.5 155t-53 242q0 147 47 276.5t131 228t194.5 154.5t237.5 56q108 0 188 -37.5t124 -106t44 -161.5q0 -94 -48.5 -160.5t-150.5 -108.5t-261.5 -61.5t-380.5 -19.5l24 136q183 0 306 10.5t195.5 35.5t104 67t31.5 105q0 64 -53.5 102.5
t-140.5 38.5q-113 0 -192.5 -54.5t-129.5 -140t-73.5 -181t-23.5 -178.5q0 -82 27 -148.5t88.5 -105.5t163.5 -39q107 0 190.5 46.5t126.5 126.5l167 -47q-62 -132 -195.5 -208.5t-299.5 -76.5zM455 -421q-51 0 -82 35t-23 84q8 50 51 84.5t94 34.5q52 0 83 -34.5t23 -84.5
q-8 -49 -51 -84t-95 -35z" />
    <glyph glyph-name="uni1EBB" horiz-adv-x="1179" 
d="M535 -24q-138 0 -236.5 54t-151.5 155t-53 242q0 147 47 276.5t131 228t194.5 154.5t237.5 56q108 0 188 -37.5t124 -106t44 -161.5q0 -94 -48.5 -160.5t-150.5 -108.5t-261.5 -61.5t-380.5 -19.5l24 136q183 0 306 10.5t195.5 35.5t104 67t31.5 105q0 64 -53.5 102.5
t-140.5 38.5q-113 0 -192.5 -54.5t-129.5 -140t-73.5 -181t-23.5 -178.5q0 -82 27 -148.5t88.5 -105.5t163.5 -39q107 0 190.5 46.5t126.5 126.5l167 -47q-62 -132 -195.5 -208.5t-299.5 -76.5zM788 1264h-135l93 137q14 21 9.5 30t-24.5 9h-139l19 118h139q60 0 97.5 -16
t51 -44.5t3.5 -66t-45 -81.5z" />
    <glyph glyph-name="uni1EBD" horiz-adv-x="1179" 
d="M535 -24q-138 0 -236.5 54t-151.5 155t-53 242q0 147 47 276.5t131 228t194.5 154.5t237.5 56q108 0 188 -37.5t124 -106t44 -161.5q0 -94 -48.5 -160.5t-150.5 -108.5t-261.5 -61.5t-380.5 -19.5l24 136q183 0 306 10.5t195.5 35.5t104 67t31.5 105q0 64 -53.5 102.5
t-140.5 38.5q-113 0 -192.5 -54.5t-129.5 -140t-73.5 -181t-23.5 -178.5q0 -82 27 -148.5t88.5 -105.5t163.5 -39q107 0 190.5 46.5t126.5 126.5l167 -47q-62 -132 -195.5 -208.5t-299.5 -76.5zM869 1313q-37 0 -70.5 12.5t-62.5 29t-53 29t-43 12.5q-28 0 -44.5 -25.5
t-22.5 -53.5h-126q19 92 68.5 150t128.5 58q39 0 70 -13t57.5 -29.5t50.5 -29.5t49 -13q26 0 41.5 19.5t27.5 61.5h123q-19 -97 -70.5 -152.5t-123.5 -55.5z" />
    <glyph glyph-name="uni01F5" horiz-adv-x="1256" 
d="M456 -442q-129 0 -216 33.5t-139 87t-76 112.5l155 84q17 -30 45 -67.5t83 -65t152 -27.5q138 0 239 67.5t124 204.5l37 218l-16 -4q-25 -33 -66 -76t-108 -75t-172 -32q-119 0 -209.5 49.5t-141.5 144.5t-51 231q0 128 39 250.5t113 221.5t179 158t237 59q83 0 137 -22
t86.5 -55t50 -66t27.5 -55l21 5l30 179h175l-192 -1153q-24 -144 -102 -233.5t-192.5 -131.5t-248.5 -42zM531 178q103 0 178.5 45t125 119.5t73.5 165t24 182.5q0 128 -61 204.5t-186 76.5q-97 0 -173 -45t-128.5 -120.5t-79.5 -167.5t-27 -185q0 -125 63 -200t191 -75z
M639 1282l186 276h201l-240 -276h-147z" />
    <glyph glyph-name="uni1E21" horiz-adv-x="1256" 
d="M456 -442q-129 0 -216 33.5t-139 87t-76 112.5l155 84q17 -30 45 -67.5t83 -65t152 -27.5q138 0 239 67.5t124 204.5l37 218l-16 -4q-25 -33 -66 -76t-108 -75t-172 -32q-119 0 -209.5 49.5t-141.5 144.5t-51 231q0 128 39 250.5t113 221.5t179 158t237 59q83 0 137 -22
t86.5 -55t50 -66t27.5 -55l21 5l30 179h175l-192 -1153q-24 -144 -102 -233.5t-192.5 -131.5t-248.5 -42zM531 178q103 0 178.5 45t125 119.5t73.5 165t24 182.5q0 128 -61 204.5t-186 76.5q-97 0 -173 -45t-128.5 -120.5t-79.5 -167.5t-27 -185q0 -125 63 -200t191 -75z
M1038 1491l-24 -142h-554l24 142h554z" />
    <glyph glyph-name="uni1E25" horiz-adv-x="1211" 
d="M356 670l-111 -670h-180l247 1490h180l-107 -643h-31q52 105 114.5 167.5t135.5 90t156 27.5q113 0 193 -46.5t114.5 -140t10.5 -235.5l-118 -710h-181l116 695q22 131 -35 203t-173 72q-79 0 -148.5 -35t-118 -101.5t-64.5 -163.5zM446 -421q-51 0 -82 35t-23 84
q8 50 51 84.5t94 34.5q52 0 83 -34.5t23 -84.5q-8 -49 -51 -84t-95 -35z" />
    <glyph glyph-name="uni1E27" horiz-adv-x="1211" 
d="M356 670l-111 -670h-180l247 1490h180l-107 -643h-31q52 105 114.5 167.5t135.5 90t156 27.5q113 0 193 -46.5t114.5 -140t10.5 -235.5l-118 -710h-181l116 695q22 131 -35 203t-173 72q-79 0 -148.5 -35t-118 -101.5t-64.5 -163.5zM643 1673q-49 0 -78 35t-21 84
t49 83.5t90 34.5t77.5 -34.5t20.5 -83.5t-48.5 -84t-89.5 -35zM222 1673q-49 0 -78 35t-21 84t49 83.5t90 34.5t77.5 -34.5t20.5 -83.5t-48.5 -84t-89.5 -35z" />
    <glyph glyph-name="itilde" horiz-adv-x="497" 
d="M66 0l185 1118h180l-185 -1118h-180zM506 1313q-37 0 -70.5 12.5t-62.5 29t-53 29t-43 12.5q-28 0 -44.5 -25.5t-22.5 -53.5h-126q19 92 68.5 150t128.5 58q39 0 70 -13t57.5 -29.5t50.5 -29.5t49 -13q26 0 41.5 19.5t27.5 61.5h123q-19 -97 -70.5 -152.5t-123.5 -55.5z
" />
    <glyph glyph-name="imacron" horiz-adv-x="497" 
d="M66 0l185 1118h180l-185 -1118h-180zM682 1491l-24 -142h-554l24 142h554z" />
    <glyph glyph-name="uni1EC9" horiz-adv-x="497" 
d="M66 0l185 1118h180l-185 -1118h-180zM425 1264h-135l93 137q14 21 9.5 30t-24.5 9h-139l19 118h139q60 0 97.5 -16t51 -44.5t3.5 -66t-45 -81.5z" />
    <glyph glyph-name="uni1ECB" horiz-adv-x="497" 
d="M66 0l185 1118h180l-185 -1118h-180zM372 1301q-51 0 -82 35t-23 84q8 50 51 84.5t94 34.5q52 0 83 -34.5t23 -84.5q-8 -49 -51 -84t-95 -35zM91 -421q-51 0 -82 35t-23 84q8 50 51 84.5t94 34.5q52 0 83 -34.5t23 -84.5q-8 -49 -51 -84t-95 -35z" />
    <glyph glyph-name="uni1ECB.ccmp" horiz-adv-x="497" 
d="M66 0l185 1118h180l-185 -1118h-180zM91 -421q-51 0 -82 35t-23 84q8 50 51 84.5t94 34.5q52 0 83 -34.5t23 -84.5q-8 -49 -51 -84t-95 -35z" />
    <glyph glyph-name="uni0237" horiz-adv-x="496" 
d="M250 1118h181l-199 -1198q-17 -106 -66 -181.5t-128.5 -116t-188.5 -40.5h-36l27 166h33q77 0 121.5 44t57.5 128z" />
    <glyph glyph-name="uni1E31" horiz-adv-x="1125" 
d="M301 402l37 223h33l559 493h223l-605 -531h-20zM65 0l247 1490h180l-247 -1490h-180zM772 0l-338 547l150 127l419 -674h-231zM343 1654l186 276h201l-240 -276h-147z" />
    <glyph glyph-name="uni1E33" horiz-adv-x="1125" 
d="M301 402l37 223h33l559 493h223l-605 -531h-20zM65 0l247 1490h180l-247 -1490h-180zM772 0l-338 547l150 127l419 -674h-231zM422 -421q-51 0 -82 35t-23 84q8 50 51 84.5t94 34.5q52 0 83 -34.5t23 -84.5q-8 -49 -51 -84t-95 -35z" />
    <glyph glyph-name="ldot" horiz-adv-x="736" 
d="M492 1490l-247 -1490h-180l247 1490h180zM619 610q-58 0 -94.5 43t-26.5 104q9 53 51.5 87.5t91.5 34.5q61 0 95.5 -43t26.5 -100q-7 -52 -49 -89t-95 -37z" />
    <glyph glyph-name="lacute" horiz-adv-x="496" 
d="M492 1490l-247 -1490h-180l247 1490h180zM343 1654l186 276h201l-240 -276h-147z" />
    <glyph glyph-name="uni1E37" horiz-adv-x="496" 
d="M492 1490l-247 -1490h-180l247 1490h180zM88 -421q-51 0 -82 35t-23 84q8 50 51 84.5t94 34.5q52 0 83 -34.5t23 -84.5q-8 -49 -51 -84t-95 -35z" />
    <glyph glyph-name="uni1E3F" horiz-adv-x="1794" 
d="M65 0l186 1118h175l-40 -250l-15 5q38 92 96.5 150.5t127 86.5t137.5 28q86 0 143 -37t85.5 -99.5t30.5 -141.5l-22 12q34 83 95 142.5t140 91.5t165 32q100 0 175 -43.5t110 -130t13 -216.5l-124 -748h-180l126 756q14 81 -8.5 129t-68 68.5t-101.5 20.5
q-80 0 -143 -33.5t-102.5 -90t-51.5 -126.5l-120 -724h-180l128 773q16 95 -35 148t-139 53q-68 0 -133 -31.5t-112 -93.5t-62 -152l-116 -697h-180zM930 1282l186 276h201l-240 -276h-147z" />
    <glyph glyph-name="uni1E43" horiz-adv-x="1794" 
d="M65 0l186 1118h175l-40 -250l-15 5q38 92 96.5 150.5t127 86.5t137.5 28q86 0 143 -37t85.5 -99.5t30.5 -141.5l-22 12q34 83 95 142.5t140 91.5t165 32q100 0 175 -43.5t110 -130t13 -216.5l-124 -748h-180l126 756q14 81 -8.5 129t-68 68.5t-101.5 20.5
q-80 0 -143 -33.5t-102.5 -90t-51.5 -126.5l-120 -724h-180l128 773q16 95 -35 148t-139 53q-68 0 -133 -31.5t-112 -93.5t-62 -152l-116 -697h-180zM737 -421q-51 0 -82 35t-23 84q8 50 51 84.5t94 34.5q52 0 83 -34.5t23 -84.5q-8 -49 -51 -84t-95 -35z" />
    <glyph glyph-name="nacute" horiz-adv-x="1211" 
d="M356 664l-111 -664h-180l186 1118h173l-44 -271l-26 6q75 152 177 215.5t227 63.5q116 0 196 -48t113.5 -143t9.5 -237l-117 -704h-180l117 701q22 131 -32 200t-167 69q-82 0 -154 -36.5t-122 -105t-66 -164.5zM639 1282l186 276h201l-240 -276h-147z" />
    <glyph glyph-name="uni01F9" horiz-adv-x="1211" 
d="M356 664l-111 -664h-180l186 1118h173l-44 -271l-26 6q75 152 177 215.5t227 63.5q116 0 196 -48t113.5 -143t9.5 -237l-117 -704h-180l117 701q22 131 -32 200t-167 69q-82 0 -154 -36.5t-122 -105t-66 -164.5zM651 1264l-144 294h201l90 -294h-147z" />
    <glyph glyph-name="uni1E47" horiz-adv-x="1211" 
d="M356 664l-111 -664h-180l186 1118h173l-44 -271l-26 6q75 152 177 215.5t227 63.5q116 0 196 -48t113.5 -143t9.5 -237l-117 -704h-180l117 701q22 131 -32 200t-167 69q-82 0 -154 -36.5t-122 -105t-66 -164.5zM446 -421q-51 0 -82 35t-23 84q8 50 51 84.5t94 34.5
q52 0 83 -34.5t23 -84.5q-8 -49 -51 -84t-95 -35z" />
    <glyph glyph-name="omacron" horiz-adv-x="1229" 
d="M528 -24q-135 0 -232 56.5t-149.5 159.5t-52.5 241q0 133 41.5 258t120 224.5t190 158t251.5 58.5q135 0 233 -56t150.5 -159t52.5 -243q0 -135 -42 -260t-121.5 -224t-191 -156.5t-250.5 -57.5zM532 137q103 0 181.5 48t131.5 126.5t80 172.5t27 186q0 85 -27 153
t-84 108t-149 40q-102 0 -180 -48t-131 -127t-80 -173.5t-27 -187.5q0 -126 61 -212t197 -86zM1046 1491l-24 -142h-554l24 142h554z" />
    <glyph glyph-name="uni1ECD" horiz-adv-x="1229" 
d="M528 -24q-135 0 -232 56.5t-149.5 159.5t-52.5 241q0 133 41.5 258t120 224.5t190 158t251.5 58.5q135 0 233 -56t150.5 -159t52.5 -243q0 -135 -42 -260t-121.5 -224t-191 -156.5t-250.5 -57.5zM532 137q103 0 181.5 48t131.5 126.5t80 172.5t27 186q0 85 -27 153
t-84 108t-149 40q-102 0 -180 -48t-131 -127t-80 -173.5t-27 -187.5q0 -126 61 -212t197 -86zM454 -421q-51 0 -82 35t-23 84q8 50 51 84.5t94 34.5q52 0 83 -34.5t23 -84.5q-8 -49 -51 -84t-95 -35z" />
    <glyph glyph-name="uni1ECF" horiz-adv-x="1229" 
d="M528 -24q-135 0 -232 56.5t-149.5 159.5t-52.5 241q0 133 41.5 258t120 224.5t190 158t251.5 58.5q135 0 233 -56t150.5 -159t52.5 -243q0 -135 -42 -260t-121.5 -224t-191 -156.5t-250.5 -57.5zM532 137q103 0 181.5 48t131.5 126.5t80 172.5t27 186q0 85 -27 153
t-84 108t-149 40q-102 0 -180 -48t-131 -127t-80 -173.5t-27 -187.5q0 -126 61 -212t197 -86zM789 1264h-135l93 137q14 21 9.5 30t-24.5 9h-139l19 118h139q60 0 97.5 -16t51 -44.5t3.5 -66t-45 -81.5z" />
    <glyph glyph-name="oslashacute" horiz-adv-x="1229" 
d="M528 -24q-135 0 -232 56.5t-149.5 159.5t-52.5 241q0 133 41.5 258t120 224.5t190 158t251.5 58.5q135 0 233 -56t150.5 -159t52.5 -243q0 -135 -42 -260t-121.5 -224t-191 -156.5t-250.5 -57.5zM532 137q103 0 181.5 48t131.5 126.5t80 172.5t27 186q0 85 -27 153
t-84 108t-149 40q-102 0 -180 -48t-131 -127t-80 -173.5t-27 -187.5q0 -126 61 -212t197 -86zM90 -45l-92 90l1139 1118l92 -90zM647 1282l186 276h201l-240 -276h-147z" />
    <glyph glyph-name="uni1E55" horiz-adv-x="1255" 
d="M-4 -418l255 1536h174l-30 -179h9q24 34 66.5 79.5t112.5 79.5t176 34q123 0 213 -54t139 -154t49 -239q0 -130 -38.5 -256.5t-111.5 -228.5t-178.5 -163t-239.5 -61q-109 0 -169.5 37.5t-89 85.5t-41.5 79h-17l-99 -596h-180zM568 137q100 0 176.5 49t129 129.5t79 176
t26.5 188.5q0 128 -60.5 209.5t-189.5 81.5q-101 0 -177 -47.5t-126.5 -126.5t-76 -175t-25.5 -193q0 -133 61 -212.5t183 -79.5zM698 1282l186 276h201l-240 -276h-147z" />
    <glyph glyph-name="racute" horiz-adv-x="772" 
d="M66 0l185 1118h174l-28 -172h12q44 85 132.5 136.5t188.5 51.5q20 0 47 -1t43 -2l-30 -181q-12 2 -42.5 6t-63.5 4q-80 0 -149 -33.5t-114.5 -92t-58.5 -134.5l-116 -700h-180zM461 1282l186 276h201l-240 -276h-147z" />
    <glyph glyph-name="uni1E5B" horiz-adv-x="772" 
d="M66 0l185 1118h174l-28 -172h12q44 85 132.5 136.5t188.5 51.5q20 0 47 -1t43 -2l-30 -181q-12 2 -42.5 6t-63.5 4q-80 0 -149 -33.5t-114.5 -92t-58.5 -134.5l-116 -700h-180zM89 -421q-51 0 -82 35t-23 84q8 50 51 84.5t94 34.5q52 0 83 -34.5t23 -84.5q-8 -49 -51 -84
t-95 -35z" />
    <glyph glyph-name="sacute" horiz-adv-x="1080" 
d="M451 -24q-112 0 -195.5 32t-133 93t-59.5 149q-1 7 -1.5 13.5t-0.5 13.5l174 29q8 -92 65 -132t154 -40q81 0 145 25t104 66t48 90q8 53 -24 88.5t-111 54.5l-179 44q-146 36 -209.5 115t-43.5 201q16 93 80 164t161.5 110.5t213.5 39.5q161 0 245.5 -65.5t111.5 -167.5
q3 -10 5.5 -20.5t3.5 -21.5l-165 -30q-13 60 -56.5 106t-147.5 46q-69 0 -128 -23t-97.5 -62t-46.5 -89q-10 -58 27 -92t131 -57l162 -40q146 -36 209 -115t43 -198q-12 -71 -53 -131t-105.5 -104t-147.5 -68t-179 -24zM576 1282l186 276h201l-240 -276h-147z" />
    <glyph glyph-name="uni1E63" horiz-adv-x="1080" 
d="M451 -24q-112 0 -195.5 32t-133 93t-59.5 149q-1 7 -1.5 13.5t-0.5 13.5l174 29q8 -92 65 -132t154 -40q81 0 145 25t104 66t48 90q8 53 -24 88.5t-111 54.5l-179 44q-146 36 -209.5 115t-43.5 201q16 93 80 164t161.5 110.5t213.5 39.5q161 0 245.5 -65.5t111.5 -167.5
q3 -10 5.5 -20.5t3.5 -21.5l-165 -30q-13 60 -56.5 106t-147.5 46q-69 0 -128 -23t-97.5 -62t-46.5 -89q-10 -58 27 -92t131 -57l162 -40q146 -36 209 -115t43 -198q-12 -71 -53 -131t-105.5 -104t-147.5 -68t-179 -24zM383 -421q-51 0 -82 35t-23 84q8 50 51 84.5t94 34.5
q52 0 83 -34.5t23 -84.5q-8 -49 -51 -84t-95 -35z" />
    <glyph glyph-name="uni1E6D" horiz-adv-x="672" 
d="M691 1118l-25 -154h-578l25 154h578zM326 1384h180l-181 -1094q-13 -77 13 -110.5t95 -33.5q17 0 44 4t50 8l11 -152q-27 -9 -63 -14.5t-73 -5.5q-147 0 -214.5 77t-45.5 213zM219 -421q-51 0 -82 35t-23 84q8 50 51 84.5t94 34.5q52 0 83 -34.5t23 -84.5q-8 -49 -51 -84
t-95 -35z" />
    <glyph glyph-name="uni1E97" horiz-adv-x="672" 
d="M691 1118l-25 -154h-578l25 154h578zM326 1384h180l-181 -1094q-13 -77 13 -110.5t95 -33.5q17 0 44 4t50 8l11 -152q-27 -9 -63 -14.5t-73 -5.5q-147 0 -214.5 77t-45.5 213zM657 1567q-49 0 -78 35t-21 84t49 83.5t90 34.5t77.5 -34.5t20.5 -83.5t-48.5 -84t-89.5 -35z
M236 1567q-49 0 -78 35t-21 84t49 83.5t90 34.5t77.5 -34.5t20.5 -83.5t-48.5 -84t-89.5 -35z" />
    <glyph glyph-name="utilde" horiz-adv-x="1212" 
d="M443 -14q-112 0 -189.5 46t-110 140t-9.5 236l117 710h180l-114 -695q-21 -128 33.5 -201.5t172.5 -73.5q79 0 148.5 34.5t118.5 101.5t65 164l110 670h181l-185 -1118h-174l45 271h24q-77 -157 -183 -221t-230 -64zM862 1313q-37 0 -70.5 12.5t-62.5 29t-53 29t-43 12.5
q-28 0 -44.5 -25.5t-22.5 -53.5h-126q19 92 68.5 150t128.5 58q39 0 70 -13t57.5 -29.5t50.5 -29.5t49 -13q26 0 41.5 19.5t27.5 61.5h123q-19 -97 -70.5 -152.5t-123.5 -55.5z" />
    <glyph glyph-name="umacron" horiz-adv-x="1212" 
d="M443 -14q-112 0 -189.5 46t-110 140t-9.5 236l117 710h180l-114 -695q-21 -128 33.5 -201.5t172.5 -73.5q79 0 148.5 34.5t118.5 101.5t65 164l110 670h181l-185 -1118h-174l45 271h24q-77 -157 -183 -221t-230 -64zM1038 1491l-24 -142h-554l24 142h554z" />
    <glyph glyph-name="uni1EE5" horiz-adv-x="1212" 
d="M443 -14q-112 0 -189.5 46t-110 140t-9.5 236l117 710h180l-114 -695q-21 -128 33.5 -201.5t172.5 -73.5q79 0 148.5 34.5t118.5 101.5t65 164l110 670h181l-185 -1118h-174l45 271h24q-77 -157 -183 -221t-230 -64zM448 -421q-51 0 -82 35t-23 84q8 50 51 84.5t94 34.5
q52 0 83 -34.5t23 -84.5q-8 -49 -51 -84t-95 -35z" />
    <glyph glyph-name="uni1EE7" horiz-adv-x="1212" 
d="M443 -14q-112 0 -189.5 46t-110 140t-9.5 236l117 710h180l-114 -695q-21 -128 33.5 -201.5t172.5 -73.5q79 0 148.5 34.5t118.5 101.5t65 164l110 670h181l-185 -1118h-174l45 271h24q-77 -157 -183 -221t-230 -64zM781 1264h-135l93 137q14 21 9.5 30t-24.5 9h-139
l19 118h139q60 0 97.5 -16t51 -44.5t3.5 -66t-45 -81.5z" />
    <glyph glyph-name="uni1E7D" horiz-adv-x="1151" 
d="M389 0l-242 1118h188l129 -663q20 -103 30 -205.5t23 -198.5h-66q45 96 88 198t98 206l348 663h205l-612 -1118h-189zM832 1313q-37 0 -70.5 12.5t-62.5 29t-53 29t-43 12.5q-28 0 -44.5 -25.5t-22.5 -53.5h-126q19 92 68.5 150t128.5 58q39 0 70 -13t57.5 -29.5
t50.5 -29.5t49 -13q26 0 41.5 19.5t27.5 61.5h123q-19 -97 -70.5 -152.5t-123.5 -55.5z" />
    <glyph glyph-name="uni1E7F" horiz-adv-x="1151" 
d="M389 0l-242 1118h188l129 -663q20 -103 30 -205.5t23 -198.5h-66q45 96 88 198t98 206l348 663h205l-612 -1118h-189zM417 -421q-51 0 -82 35t-23 84q8 50 51 84.5t94 34.5q52 0 83 -34.5t23 -84.5q-8 -49 -51 -84t-95 -35z" />
    <glyph glyph-name="wdieresis" horiz-adv-x="1676" 
d="M317 0l-154 1118h191l55 -488q11 -100 22 -226t17 -287h-31q55 153 106.5 279.5t98.5 233.5l215 488h192l51 -488q11 -100 20.5 -226t14.5 -287h-32q56 154 108 279.5t100 233.5l217 488h191l-524 -1118h-179l-61 506q-8 71 -16 150t-14.5 165.5t-12.5 176.5h39
q-35 -89 -70.5 -174.5t-69.5 -165.5t-67 -153l-228 -505h-179zM1172 1301q-49 0 -78 35t-21 84t49 83.5t90 34.5t77.5 -34.5t20.5 -83.5t-48.5 -84t-89.5 -35zM751 1301q-49 0 -78 35t-21 84t49 83.5t90 34.5t77.5 -34.5t20.5 -83.5t-48.5 -84t-89.5 -35z" />
    <glyph glyph-name="wgrave" horiz-adv-x="1676" 
d="M317 0l-154 1118h191l55 -488q11 -100 22 -226t17 -287h-31q55 153 106.5 279.5t98.5 233.5l215 488h192l51 -488q11 -100 20.5 -226t14.5 -287h-32q56 154 108 279.5t100 233.5l217 488h191l-524 -1118h-179l-61 506q-8 71 -16 150t-14.5 165.5t-12.5 176.5h39
q-35 -89 -70.5 -174.5t-69.5 -165.5t-67 -153l-228 -505h-179zM884 1264l-144 294h201l90 -294h-147z" />
    <glyph glyph-name="wacute" horiz-adv-x="1676" 
d="M317 0l-154 1118h191l55 -488q11 -100 22 -226t17 -287h-31q55 153 106.5 279.5t98.5 233.5l215 488h192l51 -488q11 -100 20.5 -226t14.5 -287h-32q56 154 108 279.5t100 233.5l217 488h191l-524 -1118h-179l-61 506q-8 71 -16 150t-14.5 165.5t-12.5 176.5h39
q-35 -89 -70.5 -174.5t-69.5 -165.5t-67 -153l-228 -505h-179zM872 1282l186 276h201l-240 -276h-147z" />
    <glyph glyph-name="uni1E89" horiz-adv-x="1676" 
d="M317 0l-154 1118h191l55 -488q11 -100 22 -226t17 -287h-31q55 153 106.5 279.5t98.5 233.5l215 488h192l51 -488q11 -100 20.5 -226t14.5 -287h-32q56 154 108 279.5t100 233.5l217 488h191l-524 -1118h-179l-61 506q-8 71 -16 150t-14.5 165.5t-12.5 176.5h39
q-35 -89 -70.5 -174.5t-69.5 -165.5t-67 -153l-228 -505h-179zM680 -421q-51 0 -82 35t-23 84q8 50 51 84.5t94 34.5q52 0 83 -34.5t23 -84.5q-8 -49 -51 -84t-95 -35z" />
    <glyph glyph-name="uni1E8D" horiz-adv-x="1118" 
d="M-28 0l548 643l-24 -138l-316 613h202l104 -217q41 -84 67.5 -157t57.5 -141h-94q54 68 102 141t116 157l178 217h214l-521 -621l21 133l333 -630h-204l-123 251q-40 82 -66 152.5t-57 135.5h95q-52 -65 -98.5 -135.5t-114.5 -152.5l-207 -251h-213zM892 1301
q-49 0 -78 35t-21 84t49 83.5t90 34.5t77.5 -34.5t20.5 -83.5t-48.5 -84t-89.5 -35zM471 1301q-49 0 -78 35t-21 84t49 83.5t90 34.5t77.5 -34.5t20.5 -83.5t-48.5 -84t-89.5 -35z" />
    <glyph glyph-name="uni0233" horiz-adv-x="1151" 
d="M-19 -405l72 156l17 -4q55 -13 101.5 -6.5t88 44t81.5 116.5l47 93l-241 1124h188l129 -663q20 -103 29.5 -205.5t22.5 -198.5h-66q45 96 88 198.5t98 205.5l349 663h205l-704 -1285q-48 -88 -105.5 -145.5t-125 -85.5t-147.5 -28q-44 0 -78.5 7t-48.5 14zM1008 1491
l-24 -142h-554l24 142h554z" />
    <glyph glyph-name="ygrave" horiz-adv-x="1151" 
d="M-19 -405l72 156l17 -4q55 -13 101.5 -6.5t88 44t81.5 116.5l47 93l-241 1124h188l129 -663q20 -103 29.5 -205.5t22.5 -198.5h-66q45 96 88 198.5t98 205.5l349 663h205l-704 -1285q-48 -88 -105.5 -145.5t-125 -85.5t-147.5 -28q-44 0 -78.5 7t-48.5 14zM621 1264
l-144 294h201l90 -294h-147z" />
    <glyph glyph-name="uni1EF5" horiz-adv-x="1151" 
d="M-19 -405l72 156l17 -4q55 -13 101.5 -6.5t88 44t81.5 116.5l47 93l-241 1124h188l129 -663q20 -103 29.5 -205.5t22.5 -198.5h-66q45 96 88 198.5t98 205.5l349 663h205l-704 -1285q-48 -88 -105.5 -145.5t-125 -85.5t-147.5 -28q-44 0 -78.5 7t-48.5 14zM698 -421
q-51 0 -82 35t-23 84q8 50 51 84.5t94 34.5q52 0 83 -34.5t23 -84.5q-8 -49 -51 -84t-95 -35z" />
    <glyph glyph-name="uni1EF7" horiz-adv-x="1151" 
d="M-19 -405l72 156l17 -4q55 -13 101.5 -6.5t88 44t81.5 116.5l47 93l-241 1124h188l129 -663q20 -103 29.5 -205.5t22.5 -198.5h-66q45 96 88 198.5t98 205.5l349 663h205l-704 -1285q-48 -88 -105.5 -145.5t-125 -85.5t-147.5 -28q-44 0 -78.5 7t-48.5 14zM751 1264h-135
l93 137q14 21 9.5 30t-24.5 9h-139l19 118h139q60 0 97.5 -16t51 -44.5t3.5 -66t-45 -81.5z" />
    <glyph glyph-name="uni1EF9" horiz-adv-x="1151" 
d="M-19 -405l72 156l17 -4q55 -13 101.5 -6.5t88 44t81.5 116.5l47 93l-241 1124h188l129 -663q20 -103 29.5 -205.5t22.5 -198.5h-66q45 96 88 198.5t98 205.5l349 663h205l-704 -1285q-48 -88 -105.5 -145.5t-125 -85.5t-147.5 -28q-44 0 -78.5 7t-48.5 14zM832 1313
q-37 0 -70.5 12.5t-62.5 29t-53 29t-43 12.5q-28 0 -44.5 -25.5t-22.5 -53.5h-126q19 92 68.5 150t128.5 58q39 0 70 -13t57.5 -29.5t50.5 -29.5t49 -13q26 0 41.5 19.5t27.5 61.5h123q-19 -97 -70.5 -152.5t-123.5 -55.5z" />
    <glyph glyph-name="zacute" horiz-adv-x="1131" 
d="M33 0l23 134l752 806l2 11h-599l27 167h839l-24 -143l-732 -797l-2 -11h620l-27 -167h-879zM588 1282l186 276h201l-240 -276h-147z" />
    <glyph glyph-name="uni1E93" horiz-adv-x="1131" 
d="M33 0l23 134l752 806l2 11h-599l27 167h839l-24 -143l-732 -797l-2 -11h620l-27 -167h-879zM390 -421q-51 0 -82 35t-23 84q8 50 51 84.5t94 34.5q52 0 83 -34.5t23 -84.5q-8 -49 -51 -84t-95 -35z" />
    <glyph glyph-name="zero.tf" 
d="M579 -20q-139 0 -234 62t-144 181t-49 288q0 116 22 251t70 267t125 241t186.5 174.5t254.5 65.5q138 0 233.5 -63t144.5 -182.5t49 -289.5q0 -113 -21.5 -246.5t-68.5 -265.5t-123.5 -241.5t-186.5 -175.5t-258 -66zM585 146q105 0 183.5 58t133.5 152t89.5 206
t50 221.5t15.5 196.5q0 176 -63.5 270.5t-188.5 94.5q-105 0 -183.5 -58t-133.5 -152t-89.5 -206t-50 -221.5t-15.5 -196.5q0 -176 64 -270.5t188 -94.5z" />
    <glyph glyph-name="one.tf" 
d="M133 0l26 160h921l-26 -160h-921zM967 1490l-247 -1490h-186l218 1314h-10l-405 -267l34 204l364 239h232z" />
    <glyph glyph-name="two.tf" 
d="M96 0l23 137l583 537q99 91 166 160t104.5 130.5t48.5 130.5q13 79 -12 134.5t-79.5 85.5t-132.5 30q-84 0 -156 -34.5t-120.5 -96.5t-62.5 -147h-181q22 132 97.5 231.5t187.5 155.5t245 56q134 0 229 -56t139.5 -150.5t24.5 -211.5q-10 -61 -36.5 -119.5t-75 -122.5
t-126 -143t-190.5 -181l-384 -347l-2 -12h686l-27 -167h-949z" />
    <glyph glyph-name="three.tf" 
d="M573 -20q-145 0 -252.5 49.5t-161.5 139t-39 207.5h192q-6 -71 28 -122.5t99 -79t149 -27.5q93 0 171.5 32t130.5 90.5t65 136.5q14 81 -16.5 143t-102 97t-182.5 35h-121l28 165h121q86 0 157 31t118 87.5t60 134.5q13 75 -10.5 130t-78 85.5t-135.5 30.5
q-77 0 -148.5 -27.5t-122 -79t-65.5 -123.5h-183q24 118 103 206.5t194 138.5t245 50q138 0 231 -55.5t134.5 -146.5t23.5 -197q-21 -127 -102.5 -215t-200.5 -122l-2 -12q94 -15 153 -64.5t82 -125t7 -168.5q-20 -123 -101 -218.5t-202.5 -150.5t-265.5 -55z" />
    <glyph glyph-name="four.tf" 
d="M80 303l25 155l823 1032h116l-39 -238h-78l-615 -770l-2 -12h882l-27 -167h-1085zM731 0l57 349l13 73l177 1068h181l-247 -1490h-181z" />
    <glyph glyph-name="five.tf" 
d="M551 -20q-131 0 -226.5 51.5t-143 141t-33.5 203.5h184q-7 -98 57.5 -163.5t179.5 -65.5q89 0 168.5 41.5t135 116t70.5 171.5q16 98 -12.5 172.5t-92.5 117t-155 42.5q-67 0 -146 -21.5t-130 -56.5l-174 22l211 738h784l-28 -167h-624l-124 -435h8q52 38 126 62.5
t151 24.5q136 0 232.5 -64.5t140 -177.5t18.5 -259q-24 -142 -106.5 -254t-205 -176t-265.5 -64z" />
    <glyph glyph-name="six.tf" 
d="M594 -20q-93 0 -183 34t-156 114t-92 217t8 343q33 197 93.5 350t146 258t193 159.5t233.5 54.5t220.5 -50t147 -139t50.5 -206h-186q-9 102 -66.5 164.5t-169.5 62.5q-114 0 -209 -67t-162 -193.5t-97 -305.5h12q53 65 113 109t128 66.5t142 22.5q129 0 228.5 -63.5
t148.5 -175t25 -255.5q-23 -140 -100.5 -253.5t-197 -180t-270.5 -66.5zM596 147q89 0 170.5 44t138.5 119.5t73 168.5q16 91 -10 166t-87.5 119.5t-152.5 44.5q-68 0 -132.5 -27t-118 -73.5t-89 -106t-46.5 -125.5q-14 -87 12.5 -162.5t88.5 -121.5t153 -46z" />
    <glyph glyph-name="seven.tf" 
d="M182 0l879 1311l2 12h-753l28 167h963l-30 -177l-878 -1313h-211z" />
    <glyph glyph-name="eight.tf" 
d="M575 -20q-151 0 -260 53.5t-160 147.5t-31 216q16 95 67.5 175t126 133.5t158.5 68.5l1 8q-103 28 -151.5 120.5t-29.5 210.5q19 116 91.5 205.5t182.5 140.5t241 51q130 0 226.5 -51.5t143.5 -140.5t28 -203q-13 -80 -54 -149t-101.5 -117t-134.5 -67l-1 -8
q78 -15 135 -69t83.5 -134.5t9.5 -176.5q-21 -121 -100 -214.5t-200.5 -146.5t-270.5 -53zM585 145q97 0 177 32t132 91t65 140q13 82 -16.5 145t-94 99.5t-157.5 36.5q-91 0 -171.5 -35t-136 -98t-70.5 -147q-14 -78 12.5 -137.5t92 -93t167.5 -33.5zM702 848
q80 0 148.5 32t114.5 89.5t58 132.5t-11.5 129.5t-77.5 84.5t-134 30t-148.5 -29.5t-114.5 -84t-59 -131.5q-13 -76 10.5 -133t78.5 -88.5t135 -31.5z" />
    <glyph glyph-name="nine.tf" 
d="M553 -20q-126 0 -222 50t-148.5 140t-50.5 209h188q8 -101 64 -166t171 -65q113 0 208.5 66.5t163 193.5t97.5 308h-12q-51 -62 -113.5 -107t-132.5 -68.5t-146 -23.5q-130 0 -228 64t-144.5 176t-22.5 255q23 134 98.5 248.5t196.5 183.5t277 66q94 -1 183 -36t154 -115
t90.5 -216t-8.5 -340q-33 -196 -93 -349t-144.5 -259t-191.5 -160.5t-234 -54.5zM667 683q66 0 129 26t115 71.5t87.5 105t47.5 126.5q15 86 -13.5 161.5t-93 122.5t-157.5 47q-88 0 -167.5 -44t-134.5 -119.5t-70 -170.5q-14 -88 13 -162.5t89.5 -119t154.5 -44.5z" />
    <glyph glyph-name="comma.tf" horiz-adv-x="550" 
d="M-43 -359l182 567h206l-250 -567h-138z" />
    <glyph glyph-name="period.tf" horiz-adv-x="550" 
d="M194 -13q-58 0 -94.5 43t-26.5 104q9 53 51.5 87.5t91.5 34.5q61 0 95.5 -43t26.5 -100q-7 -52 -49 -89t-95 -37z" />
    <glyph glyph-name="colon.tf" horiz-adv-x="550" 
d="M195 -13q-58 0 -94.5 43t-26.5 104q9 53 51.5 87.5t91.5 34.5q61 0 95.5 -43t26.5 -100q-7 -52 -49 -89t-95 -37zM328 796q-58 0 -94.5 43t-26.5 104q9 53 51.5 87.5t91.5 34.5q61 0 95.5 -43t26.5 -100q-7 -52 -49 -89t-95 -37z" />
    <glyph glyph-name="colon.case.tf" horiz-adv-x="550" 
d="M226 176q-58 0 -94.5 43t-26.5 104q9 53 51.5 87.5t91.5 34.5q61 0 95.5 -43t26.5 -100q-7 -52 -49 -89t-95 -37zM359 985q-58 0 -94.5 43t-26.5 104q9 53 51.5 87.5t91.5 34.5q61 0 95.5 -43t26.5 -100q-7 -52 -49 -89t-95 -37z" />
    <glyph glyph-name="semicolon.tf" horiz-adv-x="550" 
d="M-43 -359l182 567h206l-250 -567h-138zM351 796q-58 0 -94.5 43t-26.5 104q9 53 51.5 87.5t91.5 34.5q61 0 95.5 -43t26.5 -100q-7 -52 -49 -89t-95 -37z" />
    <glyph glyph-name="parenleft.tf" horiz-adv-x="800" 
d="M265 608q27 162 89.5 340.5t148.5 344t181 288.5h175q-104 -159 -188.5 -328.5t-141.5 -334.5t-81 -309q-22 -132 -18 -268.5t34 -288.5t87 -331h-175q-93 221 -120 446t9 441z" />
    <glyph glyph-name="parenright.tf" horiz-adv-x="799" 
d="M-29 -280q115 176 195.5 327t130 289t71.5 271q24 146 21.5 310.5t-30.5 334t-80 328.5h176q54 -123 84.5 -288.5t34 -344t-23.5 -341.5q-36 -217 -137.5 -442.5t-265.5 -443.5h-176z" />
    <glyph glyph-name="braceleft.tf" horiz-adv-x="800" 
d="M98 646l15 95q123 0 180 50.5t76 168.5l38 230q17 102 49.5 176t85.5 121.5t130.5 70.5t185.5 23l-25 -151q-127 1 -183.5 -58.5t-77.5 -184.5l-48 -286q-9 -56 -31.5 -102.5t-69 -81t-125 -53t-200.5 -18.5zM550 -279q-106 0 -176.5 22.5t-108 69.5t-46 121.5t8.5 177.5
l38 228q20 117 -19.5 168.5t-162.5 52.5l16 95q120 0 192.5 -19t107.5 -53t42.5 -81t-1.5 -104l-47 -284q-21 -127 17 -186t165 -59zM84 560l30 182h180l-31 -182h-179z" />
    <glyph glyph-name="braceright.tf" horiz-adv-x="800" 
d="M730 646q-122 0 -195 18.5t-107.5 53t-41.5 81t2 102.5l48 286q21 125 -16.5 184.5t-165.5 58.5l25 151q108 0 178.5 -23t107.5 -70.5t45.5 -121.5t-8.5 -176l-38 -230q-19 -118 20 -168.5t161 -50.5zM-29 -279l25 149q127 0 184 59t78 186l47 284q9 57 32 104t69.5 81
t125 53t199.5 19l-15 -95q-124 -1 -180 -53t-75 -168l-37 -228q-16 -102 -48.5 -175.5t-85.5 -121.5t-131.5 -71t-187.5 -23zM716 561l-179 -1l30 182l178 -1z" />
    <glyph glyph-name="bracketleft.tf" horiz-adv-x="800" 
d="M153 -279l308 1860h398l-25 -153h-226l-258 -1554h226l-25 -153h-398z" />
    <glyph glyph-name="bracketright.tf" horiz-adv-x="801" 
d="M-28 -279l25 153h226l258 1554h-226l25 153h398l-308 -1860h-398z" />
    <glyph glyph-name="parenleft.case.tf" horiz-adv-x="800" 
d="M281 702q27 162 89.5 340.5t148.5 344t181 288.5h175q-104 -159 -188.5 -328.5t-141.5 -334.5t-81 -309q-22 -132 -18 -268.5t34 -288.5t87 -331h-175q-93 221 -120 446t9 441z" />
    <glyph glyph-name="parenright.case.tf" horiz-adv-x="799" 
d="M-13 -186q115 176 195.5 327t130 289t71.5 271q24 146 21.5 310.5t-30.5 334t-80 328.5h176q54 -123 84.5 -288.5t34 -344t-23.5 -341.5q-36 -217 -137.5 -442.5t-265.5 -443.5h-176z" />
    <glyph glyph-name="braceleft.case.tf" horiz-adv-x="800" 
d="M114 740l15 95q123 0 180 50.5t76 168.5l38 230q17 102 49.5 176t85.5 121.5t130.5 70.5t185.5 23l-25 -151q-127 1 -183.5 -58.5t-77.5 -184.5l-48 -286q-9 -56 -31.5 -102.5t-69 -81t-125 -53t-200.5 -18.5zM566 -185q-106 0 -176.5 22.5t-108 69.5t-46 121.5
t8.5 177.5l38 228q20 117 -19.5 168.5t-162.5 52.5l16 95q120 0 192.5 -19t107.5 -53t42.5 -81t-1.5 -104l-47 -284q-21 -127 17 -186t165 -59zM100 654l30 182h180l-31 -182h-179z" />
    <glyph glyph-name="braceright.case.tf" horiz-adv-x="800" 
d="M746 740q-122 0 -195 18.5t-107.5 53t-41.5 81t2 102.5l48 286q21 125 -16.5 184.5t-165.5 58.5l25 151q108 0 178.5 -23t107.5 -70.5t45.5 -121.5t-8.5 -176l-38 -230q-19 -118 20 -168.5t161 -50.5zM-13 -185l25 149q127 0 184 59t78 186l47 284q9 57 32 104t69.5 81
t125 53t199.5 19l-15 -95q-124 -1 -180 -53t-75 -168l-37 -228q-16 -102 -48.5 -175.5t-85.5 -121.5t-131.5 -71t-187.5 -23zM732 655l-179 -1l30 182l178 -1z" />
    <glyph glyph-name="bracketleft.case.tf" horiz-adv-x="800" 
d="M169 -185l308 1860h398l-25 -153h-226l-258 -1554h226l-25 -153h-398z" />
    <glyph glyph-name="bracketright.case.tf" horiz-adv-x="801" 
d="M-12 -185l25 153h226l258 1554h-226l25 153h398l-308 -1860h-398z" />
    <glyph glyph-name="hyphen.tf" 
d="M1016 719l-28 -166h-654l28 166h654z" />
    <glyph glyph-name="hyphen.case.tf" 
d="M1034 826l-28 -166h-654l28 166h654z" />
    <glyph glyph-name="less.tf" 
d="M185 520l22 126l1020 476l-30 -196l-773 -341l4 12l-2 -28l-6 10l663 -341l-33 -194z" />
    <glyph glyph-name="greater.tf" 
d="M1127 520l-1020 -476l33 194l770 341l-4 -10l2 28l6 -12l-659 341l29 196l865 -476z" />
    <glyph glyph-name="equal.tf" 
d="M240 717l27 166h904l-27 -166h-904zM167 283l27 166h904l-27 -166h-904z" />
    <glyph glyph-name="plus.tf" 
d="M503 100l160 966h169l-160 -966h-169zM171 497l28 172h965l-28 -172h-965z" />
    <glyph glyph-name="minus.tf" 
d="M1152 669l-29 -172h-937l27 172h939z" />
    <glyph glyph-name="multiply.tf" 
d="M944 112l-687 824l125 108l687 -823zM252 116l-107 124l939 802l107 -125z" />
    <glyph glyph-name="divide.tf" 
d="M1151 668l-27 -170h-938l27 170h938zM595 72q-62 0 -95 43t-26 100q4 34 25 61.5t52.5 43.5t65.5 16q53 0 89 -39t29 -101q-6 -55 -49.5 -89.5t-90.5 -34.5zM720 830q-39 0 -69 19t-45 51.5t-9 72.5q8 51 51 86.5t96 35.5q54 0 90 -41.5t26 -101.5q-8 -51 -49 -86.5
t-91 -35.5z" />
    <glyph glyph-name="plusminus.tf" 
d="M111 69l27 168h943l-27 -168h-943zM209 658l27 168h943l-27 -168h-943zM547 364l124 757h171l-125 -757h-170z" />
    <glyph glyph-name="asciitilde.tf" 
d="M134 439q19 123 71 198t123 109t147 34q74 0 130 -31.5t126 -101.5q46 -46 77 -65t69 -19q63 0 106.5 45t56.5 132h162q-17 -121 -68.5 -194.5t-122.5 -107t-148 -33.5q-75 0 -130 33.5t-123 100.5q-46 46 -79 61.5t-72 15.5q-58 0 -102 -40.5t-59 -136.5h-164z" />
    <glyph glyph-name="asterisk.tf" 
d="M604 652l68 317l-295 -171l-50 126l302 146l-258 146l92 128l242 -171l39 317h144l-64 -317l291 171l54 -128l-304 -146l260 -146l-93 -126l-241 171l-43 -317h-144z" />
    <glyph glyph-name="less.case.tf" 
d="M212 683l22 126l1020 476l-30 -196l-773 -341l4 12l-2 -28l-6 10l663 -341l-33 -194z" />
    <glyph glyph-name="greater.case.tf" 
d="M1154 683l-1020 -476l33 194l770 341l-4 -10l2 28l6 -12l-659 341l29 196l865 -476z" />
    <glyph glyph-name="equal.case.tf" 
d="M267 880l27 166h904l-27 -166h-904zM194 446l27 166h904l-27 -166h-904z" />
    <glyph glyph-name="plus.case.tf" 
d="M530 263l160 966h169l-160 -966h-169zM198 660l28 172h965l-28 -172h-965z" />
    <glyph glyph-name="minus.case.tf" 
d="M1179 832l-29 -172h-937l27 172h939z" />
    <glyph glyph-name="multiply.case.tf" 
d="M971 275l-687 824l125 108l687 -823zM279 279l-107 124l939 802l107 -125z" />
    <glyph glyph-name="divide.case.tf" 
d="M1178 831l-27 -170h-938l27 170h938zM622 235q-62 0 -95 43t-26 100q4 34 25 61.5t52.5 43.5t65.5 16q53 0 89 -39t29 -101q-6 -55 -49.5 -89.5t-90.5 -34.5zM747 993q-39 0 -69 19t-45 51.5t-9 72.5q8 51 51 86.5t96 35.5q54 0 90 -41.5t26 -101.5q-8 -51 -49 -86.5
t-91 -35.5z" />
    <glyph glyph-name="plusminus.case.tf" 
d="M136 220l27 168h943l-27 -168h-943zM234 809l27 168h943l-27 -168h-943zM572 515l124 757h171l-125 -757h-170z" />
    <glyph glyph-name="asciitilde.case.tf" 
d="M160 595q19 123 71 198t123 109t147 34q74 0 130 -31.5t126 -101.5q46 -46 77 -65t69 -19q63 0 106.5 45t56.5 132h162q-17 -121 -68.5 -194.5t-122.5 -107t-148 -33.5q-75 0 -130 33.5t-123 100.5q-46 46 -79 61.5t-72 15.5q-58 0 -102 -40.5t-59 -136.5h-164z" />
    <glyph glyph-name="asterisk.case.tf" 
d="M536 255l83 441l51 -21l-415 -242l-55 137l433 204l-9 -58l-365 208l104 136l330 -245l-58 -21l62 441h158l-84 -441l-53 21l413 245l58 -136l-433 -208l10 58l365 -204l-101 -137l-334 242l58 21l-61 -441h-157z" />
    <glyph glyph-name="space.tf" horiz-adv-x="550" 
 />
    <glyph glyph-name="uni00A0.tf" horiz-adv-x="550" 
 />
    <glyph glyph-name="parenleft.case" horiz-adv-x="747" 
d="M242 702q27 162 89.5 340.5t148.5 344t181 288.5h175q-104 -159 -188.5 -328.5t-141.5 -334.5t-81 -309q-22 -132 -18 -268.5t34 -288.5t87 -331h-175q-93 221 -120 446t9 441z" />
    <glyph glyph-name="parenright.case" horiz-adv-x="746" 
d="M-27 -186q115 176 195.5 327t130 289t71.5 271q24 146 21.5 310.5t-30.5 334t-80 328.5h176q54 -123 84.5 -288.5t34 -344t-23.5 -341.5q-36 -217 -137.5 -442.5t-265.5 -443.5h-176z" />
    <glyph glyph-name="bracketleft.case" horiz-adv-x="747" 
d="M103 -185l308 1860h398l-25 -153h-226l-258 -1554h226l-25 -153h-398z" />
    <glyph glyph-name="bracketright.case" horiz-adv-x="748" 
d="M1 -185l25 153h226l258 1554h-226l25 153h398l-308 -1860h-398z" />
    <glyph glyph-name="braceleft.case" horiz-adv-x="875" 
d="M176 740l15 95q123 0 180 50.5t76 168.5l38 230q17 102 49.5 176t85.5 121.5t130.5 70.5t185.5 23l-25 -151q-127 1 -183.5 -58.5t-77.5 -184.5l-48 -286q-9 -56 -31.5 -102.5t-69 -81t-125 -53t-200.5 -18.5zM628 -185q-106 0 -176.5 22.5t-108 69.5t-46 121.5
t8.5 177.5l38 228q20 117 -19.5 168.5t-162.5 52.5l16 95q120 0 192.5 -19t107.5 -53t42.5 -81t-1.5 -104l-47 -284q-21 -127 17 -186t165 -59zM162 654l30 182h180l-31 -182h-179z" />
    <glyph glyph-name="braceright.case" horiz-adv-x="874" 
d="M759 740q-122 0 -195 18.5t-107.5 53t-41.5 81t2 102.5l48 286q21 125 -16.5 184.5t-165.5 58.5l25 151q108 0 178.5 -23t107.5 -70.5t45.5 -121.5t-8.5 -176l-38 -230q-19 -118 20 -168.5t161 -50.5zM0 -185l25 149q127 0 184 59t78 186l47 284q9 57 32 104t69.5 81
t125 53t199.5 19l-15 -95q-124 -1 -180 -53t-75 -168l-37 -228q-16 -102 -48.5 -175.5t-85.5 -121.5t-131.5 -71t-187.5 -23zM745 655l-179 -1l30 182l178 -1z" />
    <glyph glyph-name="at.case" horiz-adv-x="1975" 
d="M938 -171q-223 0 -387 61t-265.5 178.5t-135.5 289t2 391.5q35 214 121.5 383t219.5 287.5t308 180.5t387 62q206 0 353 -66.5t236 -180t121 -255.5t7 -294q-17 -105 -44.5 -213t-75 -198.5t-124.5 -145.5t-194 -55q-75 0 -129 20.5t-82.5 58.5t-27.5 89h-8
q-36 -62 -114 -111.5t-194 -49.5q-132 0 -213 65t-110 177.5t-6 253.5q22 136 91.5 242t171.5 167.5t221 61.5q98 0 160 -35.5t81 -71.5h10l14 83h159l-110 -659q-10 -58 13 -104t89 -46q73 0 121.5 50t81.5 154.5t60 267.5q21 125 -1.5 241.5t-91 209t-187 147t-291.5 54.5
q-171 0 -315 -52.5t-255 -153t-184 -245t-103 -327.5t-5.5 -325.5t103 -240.5t211 -149t318.5 -51q79 0 160 15t146.5 33t96.5 28l19 -140q-48 -19 -119.5 -38t-152 -31.5t-157.5 -12.5zM936 414q97 0 163.5 39t107 117.5t59.5 196.5q20 118 1.5 185.5t-72.5 96t-143 28.5
q-81 0 -146.5 -42t-108.5 -112.5t-57 -156.5q-15 -94 -3 -174.5t60 -129t139 -48.5z" />
    <glyph glyph-name="hyphen.case" horiz-adv-x="944" 
d="M844 826l-28 -166h-654l28 166h654z" />
    <glyph glyph-name="endash.case" horiz-adv-x="1026" 
d="M1070 826l-28 -166h-1024l28 166h1024z" />
    <glyph glyph-name="emdash.case" horiz-adv-x="2050" 
d="M2094 826l-28 -166h-2048l28 166h2048z" />
    <glyph glyph-name="bullet.case" horiz-adv-x="1152" 
d="M564 425q-91 0 -159 45.5t-99.5 121.5t-16.5 166q15 88 69 157t131 109.5t161 40.5q90 0 157.5 -46t100 -121.5t17.5 -165.5q-14 -87 -67.5 -156.5t-130.5 -110t-163 -40.5z" />
    <glyph glyph-name="colon.case" horiz-adv-x="590" 
d="M248 208q-58 0 -94.5 43t-26.5 104q9 53 51.5 87.5t91.5 34.5q61 0 95.5 -43t26.5 -100q-7 -52 -49 -89t-95 -37zM381 1017q-58 0 -94.5 43t-26.5 104q9 53 51.5 87.5t91.5 34.5q61 0 95.5 -43t26.5 -100q-7 -52 -49 -89t-95 -37z" />
    <glyph glyph-name="less.case" horiz-adv-x="1356" 
d="M195 683l22 126l1020 476l-30 -196l-773 -341l4 12l-2 -28l-6 10l663 -341l-33 -194z" />
    <glyph glyph-name="greater.case" horiz-adv-x="1356" 
d="M1200 683l-1020 -476l33 194l770 341l-4 -10l2 28l6 -12l-659 341l29 196l865 -476z" />
    <glyph glyph-name="equal.case" horiz-adv-x="1356" 
d="M282 880l27 166h904l-27 -166h-904zM209 446l27 166h904l-27 -166h-904z" />
    <glyph glyph-name="plus.case" horiz-adv-x="1356" 
d="M544 263l160 966h169l-160 -966h-169zM212 660l28 172h965l-28 -172h-965z" />
    <glyph glyph-name="minus.case" horiz-adv-x="1356" 
d="M1193 832l-29 -172h-937l27 172h939z" />
    <glyph glyph-name="multiply.case" horiz-adv-x="1356" 
d="M989 280l-687 824l125 108l687 -823zM297 284l-107 124l939 802l107 -125z" />
    <glyph glyph-name="divide.case" horiz-adv-x="1356" 
d="M1192 831l-27 -170h-938l27 170h938zM636 235q-62 0 -95 43t-26 100q4 34 25 61.5t52.5 43.5t65.5 16q53 0 89 -39t29 -101q-6 -55 -49.5 -89.5t-90.5 -34.5zM761 993q-39 0 -69 19t-45 51.5t-9 72.5q8 51 51 86.5t96 35.5q54 0 90 -41.5t26 -101.5q-8 -51 -49 -86.5
t-91 -35.5z" />
    <glyph glyph-name="plusminus.case" horiz-adv-x="1356" 
d="M151 220l27 168h943l-27 -168h-943zM249 809l27 168h943l-27 -168h-943zM587 515l124 757h171l-125 -757h-170z" />
    <glyph glyph-name="asciitilde.case" horiz-adv-x="1356" 
d="M173 591q19 123 71 198t123 109t147 34q74 0 130 -31.5t126 -101.5q46 -46 77 -65t69 -19q63 0 106.5 45t56.5 132h162q-17 -121 -68.5 -194.5t-122.5 -107t-148 -33.5q-75 0 -130 33.5t-123 100.5q-46 46 -79 61.5t-72 15.5q-58 0 -102 -40.5t-59 -136.5h-164z" />
    <glyph glyph-name="asterisk.case" horiz-adv-x="1322" 
d="M533 255l83 441l51 -21l-415 -242l-55 137l433 204l-9 -58l-365 208l104 136l330 -245l-58 -21l62 441h158l-84 -441l-53 21l413 245l58 -136l-433 -208l10 58l365 -204l-101 -137l-334 242l58 21l-61 -441h-157z" />
    <glyph glyph-name="i.numr" horiz-adv-x="405" 
d="M130 744l130 792h159l-130 -792h-159zM358 1637q-40 0 -62 29t-15 64q8 35 39.5 60t68.5 25q32 0 55.5 -24t18.5 -62q-5 -37 -36 -64.5t-69 -27.5z" />
    <glyph glyph-name="n.numr" horiz-adv-x="891" 
d="M367 1238l-82 -494h-159l132 792h153l-21 -128h7q35 62 99.5 99t146.5 37q113 0 172 -73.5t38 -199.5l-88 -527h-159l84 500q13 76 -22.5 121t-107.5 45q-71 0 -125 -45.5t-68 -126.5z" />
    <glyph glyph-name="zero.dnom" horiz-adv-x="791" 
d="M300 -9q-151 0 -218 107t-34 307q32 196 133.5 306t255.5 110q150 0 217 -107.5t34 -307.5q-22 -133 -75 -226t-132.5 -141t-180.5 -48zM321 121q77 0 127.5 74.5t72.5 210.5q23 140 -4 213.5t-101 73.5q-75 0 -126.5 -73.5t-74.5 -212.5t3.5 -212.5t102.5 -73.5z" />
    <glyph glyph-name="one.dnom" horiz-adv-x="530" 
d="M472 812l-134 -812h-157l114 683h-9l-201 -134l23 140l185 123h179z" />
    <glyph glyph-name="two.dnom" horiz-adv-x="759" 
d="M5 0l18 109l329 282q50 43 80.5 76t46.5 62t20 59q8 54 -24 83.5t-84 29.5q-56 0 -97.5 -31t-50.5 -81h-149q18 107 101 169.5t204 62.5q126 0 198 -65t53 -163q-5 -27 -19 -57t-43.5 -68.5t-82 -92.5t-135.5 -129l-122 -111l-2 -9h352l-21 -126h-572z" />
    <glyph glyph-name="three.dnom" horiz-adv-x="768" 
d="M294 -9q-78 0 -142.5 25t-100 72.5t-26.5 112.5h160q-3 -32 35.5 -55.5t93.5 -23.5q58 0 102 31.5t54 83.5q11 56 -27.5 88.5t-109.5 32.5h-65l18 113h66q60 0 106 33t53 85q7 47 -20.5 77t-81.5 30q-55 0 -99.5 -27t-52.5 -71h-150q12 67 58.5 117t115 78t146.5 28
q122 0 188 -66.5t49 -164.5q-11 -67 -62 -112t-124 -57l-1 -8q92 -13 132 -61t26 -126q-18 -104 -113 -169.5t-228 -65.5z" />
    <glyph glyph-name="four.dnom" horiz-adv-x="785" 
d="M11 126l20 122l428 564h112l-31 -187h-70l-276 -363l-1 -10h464l-21 -126h-625zM370 0l27 164l15 53l98 595h144l-135 -812h-149z" />
    <glyph glyph-name="five.dnom" horiz-adv-x="763" 
d="M296 -10q-81 0 -140.5 29.5t-87.5 80.5t-17 114h153q-7 -46 22 -74.5t82 -28.5q62 0 115 42t63 113q11 71 -25.5 110.5t-98.5 39.5q-28 0 -62.5 -11.5t-60.5 -28.5l-130 46l113 390h465l-21 -127h-345l-68 -238h6q22 31 70 54t106 23q103 0 162 -73.5t40 -184.5
q-20 -120 -114.5 -198t-226.5 -78z" />
    <glyph glyph-name="six.dnom" horiz-adv-x="764" 
d="M306 -9q-53 0 -107.5 17t-96.5 60t-60 119.5t2 196.5q22 130 75.5 228t132.5 153.5t177 55.5q80 0 137.5 -32.5t87.5 -86.5t26 -120h-157q-1 47 -29 72t-75 25q-80 0 -136.5 -76.5t-79.5 -215.5h8q33 62 96 99t133 37q98 0 157.5 -72.5t40.5 -181.5q-14 -81 -59.5 -144
t-115.5 -98.5t-157 -35.5zM310 111q60 0 112.5 43t63.5 110q11 63 -20 107.5t-97 44.5q-42 0 -80.5 -21t-64.5 -56.5t-30 -77.5q-6 -63 23 -106.5t93 -43.5z" />
    <glyph glyph-name="seven.dnom" horiz-adv-x="696" 
d="M24 0l456 681l1 7h-395l21 124h563l-22 -128l-459 -684h-165z" />
    <glyph glyph-name="eight.dnom" horiz-adv-x="779" 
d="M304 -9q-87 0 -156 30t-105 81.5t-26 114.5q12 73 74.5 130t141.5 70v8q-61 14 -97 65t-23 120q17 89 103 150t204 61q80 0 141.5 -29t94 -77t22.5 -107q-11 -69 -63.5 -119t-117.5 -64l-1 -7q73 -13 117.5 -71.5t30.5 -132.5q-11 -60 -58 -111t-119.5 -81.5
t-162.5 -30.5zM309 102q65 0 115 37t58 95q8 53 -27 89t-100 36q-61 0 -111.5 -36.5t-59.5 -92.5q-8 -52 25 -90t100 -38zM370 468q58 0 102 37t51 86t-24.5 81t-85.5 32q-55 0 -98.5 -32t-52.5 -82q-9 -49 21.5 -85.5t86.5 -36.5z" />
    <glyph glyph-name="nine.dnom" horiz-adv-x="764" 
d="M286 -12q-78 0 -137 32.5t-91 88t-28 123.5h157q2 -47 30.5 -74t75.5 -27q79 0 134.5 77.5t78.5 217.5h-7q-33 -62 -101.5 -100t-139.5 -38q-99 0 -152.5 70.5t-35.5 181.5q14 86 64 151.5t125.5 101t166.5 30.5q48 -3 98 -22t88.5 -62.5t54.5 -119.5t-3 -192
q-21 -131 -73.5 -230t-129.5 -154t-175 -55zM344 395q40 0 78 21t63.5 57t29.5 82q5 59 -26 102.5t-95 43.5t-113.5 -46t-58.5 -111q-8 -60 24.5 -104.5t97.5 -44.5z" />
    <glyph glyph-name="plus.dnom" horiz-adv-x="793" 
d="M261 128l92 552h128l-92 -552h-128zM85 343l20 121h551l-20 -121h-551z" />
    <glyph glyph-name="minus.dnom" horiz-adv-x="782" 
d="M650 468l-21 -132h-549l21 132h549z" />
    <glyph glyph-name="equal.dnom" horiz-adv-x="794" 
d="M119 466l21 127h526l-21 -127h-526zM76 206l21 128h526l-21 -128h-526z" />
    <glyph glyph-name="parenleft.dnom" horiz-adv-x="491" 
d="M107 403q15 87 51 187t85.5 193.5t104.5 160.5h146q-87 -135 -148 -279.5t-81 -261.5q-12 -67 -9 -137t20.5 -153.5t48.5 -191.5h-146q-54 118 -73 240.5t1 241.5z" />
    <glyph glyph-name="parenright.dnom" horiz-adv-x="492" 
d="M-45 -79q70 112 115 196.5t70 153t35 132.5q20 117 5.5 261.5t-56.5 279.5h146q33 -66 52 -159.5t22.5 -193.5t-11.5 -188q-19 -117 -78 -239.5t-154 -242.5h-146z" />
    <glyph glyph-name="period.dnom" horiz-adv-x="471" 
d="M149 -10q-46 0 -75.5 34t-21.5 83q7 42 41 70t74 28q48 0 76 -34.5t21 -80.5q-6 -41 -39 -70.5t-76 -29.5z" />
    <glyph glyph-name="comma.dnom" horiz-adv-x="471" 
d="M-37 -287l145 453h165l-200 -453h-110z" />
    <glyph glyph-name="zero.numr" horiz-adv-x="791" 
d="M412 669q-151 0 -218 107t-34 307q32 196 133.5 306t255.5 110q150 0 217 -107.5t34 -307.5q-22 -133 -75 -226t-132.5 -141t-180.5 -48zM433 799q77 0 127.5 74.5t72.5 210.5q23 140 -4 213.5t-101 73.5q-75 0 -126.5 -73.5t-74.5 -212.5t3.5 -212.5t102.5 -73.5z" />
    <glyph glyph-name="one.numr" horiz-adv-x="530" 
d="M584 1490l-134 -812h-157l114 683h-9l-201 -134l23 140l185 123h179z" />
    <glyph glyph-name="two.numr" horiz-adv-x="759" 
d="M117 678l18 109l329 282q50 43 80.5 76t46.5 62t20 59q8 54 -24 83.5t-84 29.5q-56 0 -97.5 -31t-50.5 -81h-149q18 107 101 169.5t204 62.5q126 0 198 -65t53 -163q-5 -27 -19 -57t-43.5 -68.5t-82 -92.5t-135.5 -129l-122 -111l-2 -9h352l-21 -126h-572z" />
    <glyph glyph-name="three.numr" horiz-adv-x="768" 
d="M406 669q-78 0 -142.5 25t-100 72.5t-26.5 112.5h160q-3 -32 35.5 -55.5t93.5 -23.5q58 0 102 31.5t54 83.5q11 56 -27.5 88.5t-109.5 32.5h-65l18 113h66q60 0 106 33t53 85q7 47 -20.5 77t-81.5 30q-55 0 -99.5 -27t-52.5 -71h-150q12 67 58.5 117t115 78t146.5 28
q122 0 188 -66.5t49 -164.5q-11 -67 -62 -112t-124 -57l-1 -8q92 -13 132 -61t26 -126q-18 -104 -113 -169.5t-228 -65.5z" />
    <glyph glyph-name="four.numr" horiz-adv-x="785" 
d="M123 804l20 122l428 564h112l-31 -187h-70l-276 -363l-1 -10h464l-21 -126h-625zM482 678l27 164l15 53l98 595h144l-135 -812h-149z" />
    <glyph glyph-name="five.numr" horiz-adv-x="763" 
d="M408 668q-81 0 -140.5 29.5t-87.5 80.5t-17 114h153q-7 -46 22 -74.5t82 -28.5q62 0 115 42t63 113q11 71 -25.5 110.5t-98.5 39.5q-28 0 -62.5 -11.5t-60.5 -28.5l-130 46l113 390h465l-21 -127h-345l-68 -238h6q22 31 70 54t106 23q103 0 162 -73.5t40 -184.5
q-20 -120 -114.5 -198t-226.5 -78z" />
    <glyph glyph-name="six.numr" horiz-adv-x="764" 
d="M418 669q-53 0 -107.5 17t-96.5 60t-60 119.5t2 196.5q22 130 75.5 228t132.5 153.5t177 55.5q80 0 137.5 -32.5t87.5 -86.5t26 -120h-157q-1 47 -29 72t-75 25q-80 0 -136.5 -76.5t-79.5 -215.5h8q33 62 96 99t133 37q98 0 157.5 -72.5t40.5 -181.5q-14 -81 -59.5 -144
t-115.5 -98.5t-157 -35.5zM422 789q60 0 112.5 43t63.5 110q11 63 -20 107.5t-97 44.5q-42 0 -80.5 -21t-64.5 -56.5t-30 -77.5q-6 -63 23 -106.5t93 -43.5z" />
    <glyph glyph-name="seven.numr" horiz-adv-x="696" 
d="M136 678l456 681l1 7h-395l21 124h563l-22 -128l-459 -684h-165z" />
    <glyph glyph-name="eight.numr" horiz-adv-x="779" 
d="M416 669q-87 0 -156 30t-105 81.5t-26 114.5q12 73 74.5 130t141.5 70v8q-61 14 -97 65t-23 120q17 89 103 150t204 61q80 0 141.5 -29t94 -77t22.5 -107q-11 -69 -63.5 -119t-117.5 -64l-1 -7q73 -13 117.5 -71.5t30.5 -132.5q-11 -60 -58 -111t-119.5 -81.5
t-162.5 -30.5zM421 780q65 0 115 37t58 95q8 53 -27 89t-100 36q-61 0 -111.5 -36.5t-59.5 -92.5q-8 -52 25 -90t100 -38zM482 1146q58 0 102 37t51 86t-24.5 81t-85.5 32q-55 0 -98.5 -32t-52.5 -82q-9 -49 21.5 -85.5t86.5 -36.5z" />
    <glyph glyph-name="nine.numr" horiz-adv-x="764" 
d="M398 666q-78 0 -137 32.5t-91 88t-28 123.5h157q2 -47 30.5 -74t75.5 -27q79 0 134.5 77.5t78.5 217.5h-7q-33 -62 -101.5 -100t-139.5 -38q-99 0 -152.5 70.5t-35.5 181.5q14 86 64 151.5t125.5 101t166.5 30.5q48 -3 98 -22t88.5 -62.5t54.5 -119.5t-3 -192
q-21 -131 -73.5 -230t-129.5 -154t-175 -55zM456 1073q40 0 78 21t63.5 57t29.5 82q5 59 -26 102.5t-95 43.5t-113.5 -46t-58.5 -111q-8 -60 24.5 -104.5t97.5 -44.5z" />
    <glyph glyph-name="plus.numr" horiz-adv-x="793" 
d="M373 806l92 552h128l-92 -552h-128zM197 1021l20 121h551l-20 -121h-551z" />
    <glyph glyph-name="minus.numr" horiz-adv-x="782" 
d="M762 1146l-21 -132h-549l21 132h549z" />
    <glyph glyph-name="equal.numr" horiz-adv-x="794" 
d="M231 1144l21 127h526l-21 -127h-526zM188 884l21 128h526l-21 -128h-526z" />
    <glyph glyph-name="parenleft.numr" horiz-adv-x="491" 
d="M219 1081q15 87 51 187t85.5 193.5t104.5 160.5h146q-87 -135 -148 -279.5t-81 -261.5q-12 -67 -9 -137t20.5 -153.5t48.5 -191.5h-146q-54 118 -73 240.5t1 241.5z" />
    <glyph glyph-name="parenright.numr" horiz-adv-x="492" 
d="M67 599q70 112 115 196.5t70 153t35 132.5q20 117 5.5 261.5t-56.5 279.5h146q33 -66 52 -159.5t22.5 -193.5t-11.5 -188q-19 -117 -78 -239.5t-154 -242.5h-146z" />
    <glyph glyph-name="period.numr" horiz-adv-x="471" 
d="M257 640q-46 0 -75.5 34t-21.5 83q7 42 41 70t74 28q48 0 76 -34.5t21 -80.5q-6 -41 -39 -70.5t-76 -29.5z" />
    <glyph glyph-name="comma.numr" horiz-adv-x="471" 
d="M76 395l145 453h165l-200 -453h-110z" />
    <glyph glyph-name="arrowleft" horiz-adv-x="1954" 
d="M761 0l-544 652l760 652l97 -116l-246 -210q-45 -38 -99 -79.5t-110 -83t-109.5 -78.5t-96.5 -66l33 32q43 9 86 16t85.5 11.5t83.5 4.5h1026l-28 -166h-1026q-41 0 -82 4.5t-81 12t-81 15.5l-22 32q34 -29 74.5 -66t83.5 -78.5t83 -83t72 -79.5l176 -210z" />
    <glyph glyph-name="uni27F5" horiz-adv-x="2746" 
d="M761 0l-544 652l760 652l97 -116l-246 -210q-45 -38 -99 -79.5t-110 -83t-109.5 -78.5t-96.5 -66l33 32q43 9 86 16t85.5 11.5t83.5 4.5h1818l-28 -166h-1818q-41 0 -82 4.5t-81 12t-81 15.5l-22 32q34 -29 74.5 -66t83.5 -78.5t83 -83t72 -79.5l176 -210z" />
    <glyph glyph-name="leftLongArrow2" horiz-adv-x="5493" 
d="M766 -6l-549 658l768 657l105 -125l-524 -449h4700l-29 -166h-4737l393 -471z" />
    <glyph glyph-name="uni27F8" horiz-adv-x="2746" 
d="M766 -6l-549 658l768 657l105 -125l-645 -551l448 -535zM545 393l-139 166h2083l-27 -166h-1917zM437 743l193 166h1918l-27 -166h-2084z" />
    <glyph glyph-name="arrowright" horiz-adv-x="1954" 
d="M1008 0l-97 116l246 210q45 38 99 79.5t110 83t109.5 78.5t96.5 66l-34 -32q-42 -8 -85 -15.5t-85 -12t-84 -4.5h-1026l28 166h1026q42 0 82.5 -4.5t80.5 -11.5t80 -16l23 -32q-45 39 -101.5 91.5t-112.5 108.5t-99 107l-176 210l135 116l544 -652z" />
    <glyph glyph-name="uni27F6" horiz-adv-x="2746" 
d="M1800 0l-97 116l246 210q45 38 99 79.5t110 83t109.5 78.5t96.5 66l-34 -32q-42 -8 -85 -15.5t-85 -12t-84 -4.5h-1818l28 166h1818q42 0 82.5 -4.5t80.5 -11.5t80 -16l23 -32q-45 39 -101.5 91.5t-112.5 108.5t-99 107l-176 210l135 116l544 -652z" />
    <glyph glyph-name="rightLongArrow2" horiz-adv-x="5493" 
d="M4544 -2l-108 124l524 447h-4702l29 166h4737l-388 465l125 106l546 -654z" />
    <glyph glyph-name="arrowdblright" horiz-adv-x="1954" 
d="M1002 -5l-106 125l645 550l-447 534l125 106l549 -658zM229 393l27 166h1293l-192 -166h-1128zM286 743l27 166h1143l135 -166h-1305z" />
    <glyph glyph-name="uni27F9" horiz-adv-x="2746" 
d="M1794 -5l-106 125l643 550l-445 534l125 106l549 -658zM229 393l27 166h2085l-192 -166h-1920zM286 743l27 166h1933l137 -166h-2097z" />
    <glyph glyph-name="arrowboth" horiz-adv-x="2746" 
d="M761 0l-544 652l760 652l97 -116l-246 -210q-45 -38 -99 -79.5t-110 -83t-109.5 -78.5t-96.5 -66l33 32q43 9 86 16t85.5 11.5t83.5 4.5h1402q42 0 82.5 -4.5t80.5 -11.5t80 -16l23 -32q-45 39 -101.5 91.5t-112.5 108.5t-99 107l-176 210l135 116l544 -652l-760 -652
l-97 116l246 210q45 38 99 79.5t110 83t109.5 78.5t96.5 66l-34 -32q-42 -8 -85 -15.5t-85 -12t-84 -4.5h-1402q-41 0 -82 4.5t-81 12t-81 15.5l-22 32q34 -29 74.5 -66t83.5 -78.5t83 -83t72 -79.5l176 -210z" />
    <glyph glyph-name="uni27F7" horiz-adv-x="3584" 
d="M761 0l-544 652l760 652l97 -116l-246 -210q-45 -38 -99 -79.5t-110 -83t-109.5 -78.5t-96.5 -66l33 32q43 9 86 16t85.5 11.5t83.5 4.5h2240q42 0 82.5 -4.5t80.5 -11.5t80 -16l23 -32q-45 39 -101.5 91.5t-112.5 108.5t-99 107l-176 210l135 116l544 -652l-760 -652
l-97 116l246 210q45 38 99 79.5t110 83t109.5 78.5t96.5 66l-34 -32q-42 -8 -85 -15.5t-85 -12t-84 -4.5h-2240q-41 0 -82 4.5t-81 12t-81 15.5l-22 32q34 -29 74.5 -66t83.5 -78.5t83 -83t72 -79.5l176 -210z" />
    <glyph glyph-name="arrowdblboth" horiz-adv-x="2746" 
d="M1795 -5l-105 125l643 550l-446 534l125 106l549 -658zM766 -6l-549 658l768 657l105 -125l-645 -551l448 -535zM545 393l-139 166h1931l-193 -166h-1599zM437 743l193 166h1600l139 -166h-1932z" />
    <glyph glyph-name="uni27FA" horiz-adv-x="3584" 
d="M2633 -5l-105 125l643 550l-446 534l125 106l549 -658zM766 -6l-549 658l768 657l105 -125l-645 -551l448 -535zM545 393l-139 166h2769l-193 -166h-2437zM437 743l193 166h2438l139 -166h-2770z" />
    <glyph glyph-name="arrowleft.case" horiz-adv-x="1954" 
d="M776 93l-544 652l760 652l97 -116l-246 -210q-45 -38 -99 -79.5t-110 -83t-109.5 -78.5t-96.5 -66l33 32q43 9 86 16t85.5 11.5t83.5 4.5h1026l-28 -166h-1026q-41 0 -82 4.5t-81 12t-81 15.5l-22 32q34 -29 74.5 -66t83.5 -78.5t83 -83t72 -79.5l176 -210z" />
    <glyph glyph-name="uni27F5.case" horiz-adv-x="2746" 
d="M776 93l-544 652l760 652l97 -116l-246 -210q-45 -38 -99 -79.5t-110 -83t-109.5 -78.5t-96.5 -66l33 32q43 9 86 16t85.5 11.5t83.5 4.5h1818l-28 -166h-1818q-41 0 -82 4.5t-81 12t-81 15.5l-22 32q34 -29 74.5 -66t83.5 -78.5t83 -83t72 -79.5l176 -210z" />
    <glyph glyph-name="leftLongArrow2.case" horiz-adv-x="5493" 
d="M781 87l-549 658l768 657l105 -125l-524 -449h4700l-29 -166h-4737l393 -471z" />
    <glyph glyph-name="uni27F8.case" horiz-adv-x="2746" 
d="M781 87l-549 658l768 657l105 -125l-645 -551l448 -535zM560 486l-139 166h2083l-27 -166h-1917zM452 836l193 166h1918l-27 -166h-2084z" />
    <glyph glyph-name="arrowright.case" horiz-adv-x="1954" 
d="M1023 93l-97 116l246 210q45 38 99 79.5t110 83t109.5 78.5t96.5 66l-34 -32q-42 -8 -85 -15.5t-85 -12t-84 -4.5h-1026l28 166h1026q42 0 82.5 -4.5t80.5 -11.5t80 -16l23 -32q-45 39 -101.5 91.5t-112.5 108.5t-99 107l-176 210l135 116l544 -652z" />
    <glyph glyph-name="uni27F6.case" horiz-adv-x="2746" 
d="M1815 93l-97 116l246 210q45 38 99 79.5t110 83t109.5 78.5t96.5 66l-34 -32q-42 -8 -85 -15.5t-85 -12t-84 -4.5h-1818l28 166h1818q42 0 82.5 -4.5t80.5 -11.5t80 -16l23 -32q-45 39 -101.5 91.5t-112.5 108.5t-99 107l-176 210l135 116l544 -652z" />
    <glyph glyph-name="rightLongArrow2.case" horiz-adv-x="5493" 
d="M4559 91l-108 124l524 447h-4702l29 166h4737l-388 465l125 106l546 -654z" />
    <glyph glyph-name="arrowdblright.case" horiz-adv-x="1954" 
d="M1017 88l-106 125l645 550l-447 534l125 106l549 -658zM244 486l27 166h1293l-192 -166h-1128zM301 836l27 166h1143l135 -166h-1305z" />
    <glyph glyph-name="uni27F9.case" horiz-adv-x="2746" 
d="M1809 88l-106 125l643 550l-445 534l125 106l549 -658zM244 486l27 166h2085l-192 -166h-1920zM301 836l27 166h1933l137 -166h-2097z" />
    <glyph glyph-name="arrowboth.case" horiz-adv-x="2746" 
d="M776 93l-544 652l760 652l97 -116l-246 -210q-45 -38 -99 -79.5t-110 -83t-109.5 -78.5t-96.5 -66l33 32q43 9 86 16t85.5 11.5t83.5 4.5h1402q42 0 82.5 -4.5t80.5 -11.5t80 -16l23 -32q-45 39 -101.5 91.5t-112.5 108.5t-99 107l-176 210l135 116l544 -652l-760 -652
l-97 116l246 210q45 38 99 79.5t110 83t109.5 78.5t96.5 66l-34 -32q-42 -8 -85 -15.5t-85 -12t-84 -4.5h-1402q-41 0 -82 4.5t-81 12t-81 15.5l-22 32q34 -29 74.5 -66t83.5 -78.5t83 -83t72 -79.5l176 -210z" />
    <glyph glyph-name="uni27F7.case" horiz-adv-x="3584" 
d="M776 93l-544 652l760 652l97 -116l-246 -210q-45 -38 -99 -79.5t-110 -83t-109.5 -78.5t-96.5 -66l33 32q43 9 86 16t85.5 11.5t83.5 4.5h2240q42 0 82.5 -4.5t80.5 -11.5t80 -16l23 -32q-45 39 -101.5 91.5t-112.5 108.5t-99 107l-176 210l135 116l544 -652l-760 -652
l-97 116l246 210q45 38 99 79.5t110 83t109.5 78.5t96.5 66l-34 -32q-42 -8 -85 -15.5t-85 -12t-84 -4.5h-2240q-41 0 -82 4.5t-81 12t-81 15.5l-22 32q34 -29 74.5 -66t83.5 -78.5t83 -83t72 -79.5l176 -210z" />
    <glyph glyph-name="arrowdblboth.case" horiz-adv-x="2746" 
d="M1810 88l-105 125l643 550l-446 534l125 106l549 -658zM781 87l-549 658l768 657l105 -125l-645 -551l448 -535zM560 486l-139 166h1931l-193 -166h-1599zM452 836l193 166h1600l139 -166h-1932z" />
    <glyph glyph-name="uni27FA.case" horiz-adv-x="3584" 
d="M2648 88l-105 125l643 550l-446 534l125 106l549 -658zM781 87l-549 658l768 657l105 -125l-645 -551l448 -535zM560 486l-139 166h2769l-193 -166h-2437zM452 836l193 166h2438l139 -166h-2770z" />
    <glyph glyph-name="Ldot" horiz-adv-x="1152" 
d="M87 0l247 1490h190l-219 -1322h690l-28 -168h-880zM746 733q-51 0 -82 35t-23 84q8 50 51 84.5t94 34.5q52 0 83 -34.5t23 -84.5q-8 -49 -51 -84t-95 -35z" />
    <glyph glyph-name="uni0307" horiz-adv-x="0" 
d="M370 1301q-51 0 -82 35t-23 84q8 50 51 84.5t94 34.5q52 0 83 -34.5t23 -84.5q-8 -49 -51 -84t-95 -35z" />
    <glyph glyph-name="uni0302" horiz-adv-x="0" 
d="M399 1282h-177l2 9l279 267h171l192 -267l-2 -9h-179l-112 175z" />
    <glyph glyph-name="uni030A" horiz-adv-x="0" 
d="M410 1189q-73 0 -127 34t-80 91.5t-15 126.5q12 70 57 126.5t110.5 90.5t137.5 34q73 0 127 -34t80 -90.5t14 -126.5q-11 -69 -56 -126.5t-110 -91.5t-138 -34zM431 1315q53 0 95.5 37t50.5 90t-23.5 88.5t-81.5 35.5q-52 0 -94.5 -36t-51.5 -88t21.5 -89.5t83.5 -37.5z
" />
    <glyph glyph-name="uni0327" horiz-adv-x="0" 
d="M-7 -418l17 105h118q55 0 79 14.5t30 50.5t-12 51t-75 15h-82l68 230h95l-8 -48l-14 -86q95 -4 135 -41.5t27 -117.5q-14 -89 -75 -131t-184 -42h-119z" />
    <glyph glyph-name="uni1DC4" horiz-adv-x="0" 
d="M916 1463l-24 -142h-554l24 142h554zM593 1615l186 276h201l-240 -276h-147z" />
    <glyph glyph-name="_part.Oslash" horiz-adv-x="1180" 
d="M36 -46l-115 90l1286 1492l114 -91z" />
    <glyph glyph-name="_part.oslash" horiz-adv-x="1226" 
d="M89 -45l-92 90l1139 1118l92 -90z" />
    <glyph glyph-name="uni2071.ccmp" horiz-adv-x="363" 
d="M411 1363l-134 -801h-187l134 801h187z" />
    <glyph glyph-name="dieresisacutecomb.lc" horiz-adv-x="1200" 
d="M934 1273q-49 0 -78 35t-21 84t49 83.5t90 34.5t77.5 -34.5t20.5 -83.5t-48.5 -84t-89.5 -35zM513 1273q-49 0 -78 35t-21 84t49 83.5t90 34.5t77.5 -34.5t20.5 -83.5t-48.5 -84t-89.5 -35zM702 1615l186 276h201l-240 -276h-147z" />
    <glyph glyph-name="dieresismacroncomb.lc" horiz-adv-x="1211" 
d="M934 1273q-49 0 -78 35t-21 84t49 83.5t90 34.5t77.5 -34.5t20.5 -83.5t-48.5 -84t-89.5 -35zM513 1273q-49 0 -78 35t-21 84t49 83.5t90 34.5t77.5 -34.5t20.5 -83.5t-48.5 -84t-89.5 -35zM1105 1781l-24 -128h-554l24 128h554z" />
    <glyph glyph-name="dieresisgravecomb.lc" horiz-adv-x="1200" 
d="M934 1273q-49 0 -78 35t-21 84t49 83.5t90 34.5t77.5 -34.5t20.5 -83.5t-48.5 -84t-89.5 -35zM513 1273q-49 0 -78 35t-21 84t49 83.5t90 34.5t77.5 -34.5t20.5 -83.5t-48.5 -84t-89.5 -35zM696 1615l-147 276h201l93 -276h-147z" />
    <glyph glyph-name="macrondieresiscomb.lc" horiz-adv-x="979" 
d="M916 1463l-24 -142h-554l24 142h554zM876 1598q-49 0 -78 35t-21 84t49 83.5t90 34.5t77.5 -34.5t20.5 -83.5t-48.5 -84t-89.5 -35zM455 1598q-49 0 -78 35t-21 84t49 83.5t90 34.5t77.5 -34.5t20.5 -83.5t-48.5 -84t-89.5 -35z" />
    <glyph glyph-name="tildeacute.lc" horiz-adv-x="1024" 
d="M769 1286q-37 0 -70.5 12.5t-62.5 29t-53 29t-43 12.5q-28 0 -44.5 -25.5t-22.5 -53.5h-126q19 92 68.5 150t128.5 58q39 0 70 -13t57.5 -29.5t50.5 -29.5t49 -13q26 0 41.5 19.5t27.5 61.5h123q-19 -97 -70.5 -152.5t-123.5 -55.5zM606 1615l186 276h201l-240 -276h-147
z" />
    <glyph glyph-name="uni030A.uc" horiz-adv-x="0" 
d="M478 1541q-76 0 -132.5 36t-83 96t-14.5 131q11 66 53 120t104.5 86t133.5 32q77 0 133 -35.5t83 -95t15 -130.5q-11 -68 -54 -122.5t-105.5 -86t-132.5 -31.5zM488 1667q50 0 93 35t53 87q10 53 -20 90.5t-84 37.5q-52 0 -94.5 -36t-51.5 -88t21 -89t83 -37z" />
    <glyph glyph-name="uni1DC6.lc" horiz-adv-x="0" 
d="M916 1463l-24 -142h-554l24 142h554zM597 1615l-147 276h201l93 -276h-147z" />
    <glyph glyph-name="tildedieresiscomb.lc" horiz-adv-x="1024" 
d="M769 1286q-37 0 -70.5 12.5t-62.5 29t-53 29t-43 12.5q-28 0 -44.5 -25.5t-22.5 -53.5h-126q19 92 68.5 150t128.5 58q39 0 70 -13t57.5 -29.5t50.5 -29.5t49 -13q26 0 41.5 19.5t27.5 61.5h123q-19 -97 -70.5 -152.5t-123.5 -55.5zM900 1598q-49 0 -78 35t-21 84
t49 83.5t90 34.5t77.5 -34.5t20.5 -83.5t-48.5 -84t-89.5 -35zM479 1598q-49 0 -78 35t-21 84t49 83.5t90 34.5t77.5 -34.5t20.5 -83.5t-48.5 -84t-89.5 -35z" />
    <glyph glyph-name="tildemacroncomb.lc" horiz-adv-x="1038" 
d="M769 1286q-37 0 -70.5 12.5t-62.5 29t-53 29t-43 12.5q-28 0 -44.5 -25.5t-22.5 -53.5h-126q19 92 68.5 150t128.5 58q39 0 70 -13t57.5 -29.5t50.5 -29.5t49 -13q26 0 41.5 19.5t27.5 61.5h123q-19 -97 -70.5 -152.5t-123.5 -55.5zM1017 1781l-24 -128h-554l24 128h554z
" />
    <glyph glyph-name="crossbar_short.uc" horiz-adv-x="874" 
d="M69 668l25 154h773l-25 -154h-773z" />
    </font>
</defs>
</svg>
