<?xml version="1.0" standalone="no"?>
<!DOCTYPE svg PUBLIC "-//W3C//DTD SVG 1.1//EN" "http://www.w3.org/Graphics/SVG/1.1/DTD/svg11.dtd" >
<svg xmlns="http://www.w3.org/2000/svg" xmlns:xlink="http://www.w3.org/1999/xlink" version="1.1">
<metadata>
Created by FontForge 20200511 at Fri May 24 18:06:22 2024
 By convertio
Copyright 2016 The Inter Project Authors (https://github.com/rsms/inter)
</metadata>
<defs>
<font id="Inter-Italic" horiz-adv-x="0" >
  <font-face 
    font-family="Inter"
    font-weight="400"
    font-style="italic"
    font-stretch="normal"
    units-per-em="2048"
    panose-1="2 0 5 3 0 0 0 2 0 4"
    ascent="1638"
    descent="-410"
    cap-height="1490"
    bbox="-1524 -448 2756 1930"
    underline-thickness="140"
    underline-position="-418"
    slope="-9.3988"
    unicode-range="U+0020-A69F"
  />
<missing-glyph horiz-adv-x="1344" 
d="M855 -416h-688l376 2272h688zM388 -192l-10 -64h320l10 64h-215l236 127l11 65h-320l-11 -64h216zM473 320l-42 -256h320l42 256h-320zM697 128h-192l21 128h192zM537 704l-43 -256h320l43 256h-192l-22 -128h64l11 64h64l-21 -128h-192l32 192h-64zM558 832l-11 -64h320
l37 224h-64l-26 -160h-256zM579 960l-11 -64h192l27 160h128l10 64h-320l-10 -64h128l-16 -96h-128zM755 1248h-64l15 96h64zM653 1408l-37 -224h320l11 64h-128l26 160h-192zM674 1536l-10 -64h320l10 64h-144l16 96h144l11 64h-320l-11 -64h112l-16 -96h-112z" />
    <glyph glyph-name=".notdef" horiz-adv-x="1344" 
d="M855 -416h-688l376 2272h688zM388 -192l-10 -64h320l10 64h-215l236 127l11 65h-320l-11 -64h216zM473 320l-42 -256h320l42 256h-320zM697 128h-192l21 128h192zM537 704l-43 -256h320l43 256h-192l-22 -128h64l11 64h64l-21 -128h-192l32 192h-64zM558 832l-11 -64h320
l37 224h-64l-26 -160h-256zM579 960l-11 -64h192l27 160h128l10 64h-320l-10 -64h128l-16 -96h-128zM755 1248h-64l15 96h64zM653 1408l-37 -224h320l11 64h-128l26 160h-192zM674 1536l-10 -64h320l10 64h-144l16 96h144l11 64h-320l-11 -64h112l-16 -96h-112z" />
    <glyph glyph-name=".null" horiz-adv-x="1200" 
 />
    <glyph glyph-name=".null" horiz-adv-x="1200" 
 />
    <glyph glyph-name="nonmarkingreturn" horiz-adv-x="682" 
 />
    <glyph glyph-name="space" unicode=" " horiz-adv-x="576" 
 />
    <glyph glyph-name="A" unicode="A" horiz-adv-x="1413" 
d="M-41 0l788 1490h220l301 -1490h-192l-169 884q-13 71 -33 199t-43 318h36q-81 -181 -141.5 -308t-102.5 -209l-454 -884h-210zM300 416l27 166h765l-27 -166h-765z" />
    <glyph glyph-name="uni00A0" unicode="&#xa0;" horiz-adv-x="576" 
 />
    <glyph glyph-name="Adieresis" unicode="&#xc4;" horiz-adv-x="1413" 
d="M-41 0l788 1490h220l301 -1490h-192l-169 884q-13 71 -33 199t-43 318h36q-81 -181 -141.5 -308t-102.5 -209l-454 -884h-210zM300 416l27 166h765l-27 -166h-765zM1101 1673q-49 0 -78 35t-21 84t49 83.5t90 34.5t77.5 -34.5t20.5 -83.5t-48.5 -84t-89.5 -35zM680 1673
q-49 0 -78 35t-21 84t49 83.5t90 34.5t77.5 -34.5t20.5 -83.5t-48.5 -84t-89.5 -35z" />
    <glyph glyph-name="uni0460" unicode="&#x460;" horiz-adv-x="1836" 
d="M154 402l180 1088h190l-180 -1088q-21 -127 36 -188.5t143 -61.5q102 0 178 61.5t97 188.5l180 1088h190l-180 -1088q-21 -127 30 -188.5t145 -61.5t175 61.5t102 188.5l180 1088h190l-180 -1088q-23 -142 -95.5 -235.5t-176.5 -140t-223 -46.5q-100 0 -174.5 35
t-114.5 108q-70 -75 -161 -109t-190 -34q-118 0 -203.5 46.5t-123 140t-14.5 235.5z" />
    <glyph glyph-name="uni0461" unicode="&#x461;" horiz-adv-x="1653" 
d="M410 -20q-103 0 -173 48t-100 132.5t-12 193.5l126 764h181l-127 -763q-16 -94 28 -151.5t138 -57.5t156 57.5t78 151.5l127 763h179l-126 -763q-16 -95 27.5 -152t135.5 -57t154.5 57t78.5 152l126 763h181l-127 -764q-18 -108 -75.5 -192.5t-142.5 -133t-188 -48.5
q-110 0 -179.5 49.5t-97 134t-10.5 190.5h54q-18 -106 -74 -191t-142 -134t-196 -49z" />
    <glyph glyph-name="uni0462" unicode="&#x462;" horiz-adv-x="1329" 
d="M375 902h405q155 0 258.5 -54t148 -153.5t22.5 -234.5q-23 -141 -99 -244.5t-195.5 -159.5t-274.5 -56h-553l247 1490h190l-220 -1325h355q96 0 172 36t125.5 102t64.5 155q15 87 -11 149t-89 95t-159 33h-414zM32 1102l25 154h813l-25 -154h-813z" />
    <glyph glyph-name="uni0463" unicode="&#x463;" horiz-adv-x="1262" 
d="M89 972l24 146h775l-24 -146h-775zM367 1118l62 372h170l-62 -372h-170zM454 717h321q133 0 216.5 -46t117 -126t16.5 -183q-17 -102 -78.5 -184t-160.5 -130t-230 -48h-473l185 1118h180l-158 -952h293q102 0 174 53.5t85 134.5q14 86 -40 141t-155 55h-322z" />
    <glyph glyph-name="uni0464" unicode="&#x464;" horiz-adv-x="1958" 
d="M1387 840l-27 -166h-1018l27 166h1018zM1922 1024l-189 -3q-4 76 -32.5 134t-76.5 98t-112 60.5t-138 20.5q-133 0 -251.5 -67.5t-203 -199t-116.5 -323.5q-31 -190 10 -321.5t137 -199t229 -67.5q73 0 143 20t132 59.5t110.5 98t78.5 135.5l189 -3q-41 -115 -110 -205.5
t-159.5 -153t-195.5 -95t-217 -32.5q-191 0 -324.5 92.5t-190 264t-17.5 407.5q38 236 151 407.5t277.5 265t355.5 93.5q114 0 208.5 -33.5t163.5 -96.5t107.5 -153t40.5 -203zM524 1490l-246 -1490h-190l246 1490h190z" />
    <glyph glyph-name="uni0465" unicode="&#x465;" horiz-adv-x="1601" 
d="M1186 640l-28 -162h-878l27 162h879zM431 1118l-185 -1118h-180l185 1118h180zM961 -24q-158 0 -260 74.5t-142 205.5t-12 299q29 169 113 299t210.5 204t279.5 74q119 0 207.5 -44t136 -124t43.5 -188h-181q-4 52 -30.5 96.5t-76.5 71.5t-124 27q-97 0 -179.5 -51
t-139 -144t-77.5 -220q-20 -127 5 -221t90 -146t164 -52q66 0 124 23.5t102 67t69 104.5h181q-31 -102 -102 -182.5t-173 -127t-228 -46.5z" />
    <glyph glyph-name="uni0466" unicode="&#x466;" horiz-adv-x="1413" 
d="M799 559l-93 -559h-186l93 559h186zM-41 0l788 1490h220l301 -1490h-200l-169 884q-13 71 -33 198t-44 319h37q-81 -181 -141.5 -308t-102.5 -209l-454 -884h-202zM310 478l27 162h765l-28 -162h-764z" />
    <glyph glyph-name="uni0467" unicode="&#x467;" horiz-adv-x="1169" 
d="M827 0l-169 787l-48 331h157l255 -1118h-195zM406 0l41 245q12 72 -14 106t-93 37l26 155q65 0 119 -26t75 -105q47 79 110 105t128 26l-26 -155q-45 -2 -76.5 -17.5t-50.5 -46.5t-27 -79l-41 -245h-171zM-39 0l623 1118h155l-160 -331l-426 -787h-192z" />
    <glyph glyph-name="uni0468" unicode="&#x468;" horiz-adv-x="1919" 
d="M524 1490l-247 -1490h-190l247 1490h190zM1305 559l-93 -559h-185l93 559h185zM465 0l789 1490h219l301 -1490h-200l-169 884q-13 71 -33 199t-43 318h36q-81 -181 -141.5 -308t-102.5 -209l-454 -884h-202zM267 478l26 162h1315l-27 -162h-1314z" />
    <glyph glyph-name="uni0469" unicode="&#x469;" horiz-adv-x="1590" 
d="M1247 0l-169 787l-48 331h157l256 -1118h-196zM66 0l185 1118h182l-185 -1118h-182zM230 388l25 155h504l-25 -155h-504zM826 0l41 245q12 72 -14 106t-93 37l26 155q65 0 119 -26t75 -105q47 79 110 105t128 26l-26 -155q-44 -2 -75.5 -17t-51 -46t-27.5 -80l-40 -245
h-172zM381 0l623 1118h156l-161 -331l-426 -787h-192z" />
    <glyph glyph-name="uni046A" unicode="&#x46a;" horiz-adv-x="1747" 
d="M65 0l61 366q24 144 95 244.5t184.5 153t265.5 52.5h489q150 0 246.5 -51.5t135 -151.5t14.5 -247l-60 -366h-190l61 368q23 136 -38.5 209t-196.5 73h-487q-135 0 -220.5 -73t-108.5 -209l-61 -368h-190zM686 0l129 779h188l-129 -779h-188zM811 621l-392 869h222
l318 -793l-41 -76h-107zM848 621l-7 84l578 785h217l-678 -869h-110zM534 1326l27 164h918l-27 -164h-918z" />
    <glyph glyph-name="uni046B" unicode="&#x46b;" horiz-adv-x="1424" 
d="M4 0l27 162q41 243 177.5 344t349.5 101h324q212 0 314.5 -101t63.5 -344l-26 -162h-180l27 162q18 108 -5.5 168.5t-80.5 85.5t-140 25h-324q-84 0 -149.5 -25t-109.5 -85.5t-62 -168.5l-27 -162h-179zM530 0l95 577h179l-95 -577h-179zM588 451l-294 667h210l253 -631
l-27 -36h-142zM670 451l-10 42l454 625h217l-524 -667h-137zM427 955l26 163h752l-27 -163h-751z" />
    <glyph glyph-name="uni046C" unicode="&#x46c;" horiz-adv-x="2345" 
d="M664 0l60 366q24 147 96 247t186 151.5t264 51.5h489q152 0 248.5 -52.5t134 -153t13.5 -244.5l-61 -366h-189l60 368q23 138 -39 210t-195 72h-488q-133 0 -219.5 -72t-109.5 -210l-60 -368h-190zM87 0l247 1490h190l-247 -1490h-190zM340 650l27 166h945l-27 -166h-945
zM1285 0l129 779h188l-129 -779h-188zM1410 621l-392 869h222l318 -793l-41 -76h-107zM1447 621l-7 84l578 785h216l-678 -869h-109zM1133 1326l27 164h918l-27 -164h-918z" />
    <glyph glyph-name="uni046D" unicode="&#x46d;" horiz-adv-x="1965" 
d="M545 0l24 144q20 119 72.5 200t121 132t138 78t125 37t80.5 10l318 4q141 2 235 -41.5t132 -141.5t11 -260l-27 -162h-179l27 162q18 108 -5.5 168.5t-80.5 85.5t-140 25h-325q-83 0 -149 -24.5t-110 -85t-62 -169.5l-26 -162h-180zM66 0l185 1118h180l-185 -1118h-180z
M248 441l27 166h863l-26 -160zM1071 0l95 577h179l-95 -577h-179zM1129 451l-293 667h210l252 -631l-26 -36h-143zM1212 451l-10 42l454 625h216l-524 -667h-136zM968 955l27 163h751l-26 -163h-752z" />
    <glyph glyph-name="uni046E" unicode="&#x46e;" horiz-adv-x="1119" 
d="M338 1490h300q141 0 242 -47t149 -133.5t27 -205.5q-20 -115 -96.5 -201.5t-196 -134t-267.5 -47.5h-147l20 126h145q158 0 235.5 70t94.5 169q20 112 -38 174.5t-195 62.5h-302zM363 799h144q251 0 370 -100t89 -289q-21 -135 -99 -231.5t-195 -147.5t-257 -51h-51
q-73 0 -111 -30t-47 -83q-8 -50 12 -85t53 -58t63 -38l-103 -134q-63 28 -118 72.5t-84 109.5t-16 152q21 136 127.5 198.5t258.5 62.5h42q83 0 149.5 31.5t111 91.5t57.5 146q20 129 -50.5 196.5t-223.5 67.5h-143zM655 1909l144 -172l205 172h147v-12l-318 -273h-104
l-224 273l2 12h148z" />
    <glyph glyph-name="uni046F" unicode="&#x46f;" horiz-adv-x="1069" 
d="M292 -418q-112 0 -188 35t-109.5 100t-18.5 154t69 154t139.5 100t194.5 35h74q107 0 171.5 41.5t77.5 117.5q13 77 -38 118.5t-158 41.5h-252l27 160h236q107 0 171 41.5t77 118.5t-38 118t-157 41h-360l26 160h360q121 0 202.5 -37t118.5 -105t21 -161
q-15 -94 -76.5 -152.5t-154.5 -85t-205 -26.5h-236l8 48h252q112 0 195.5 -32.5t124 -96.5t24.5 -159q-15 -95 -74.5 -165t-153.5 -108t-215 -38h-74q-89 0 -143 -33.5t-64 -95.5t34.5 -95.5t137.5 -33.5h46l-26 -160h-46zM533 1558l115 -175l171 175h179l-2 -9l-281 -267
h-171l-190 267l2 9h177z" />
    <glyph glyph-name="uni0470" unicode="&#x470;" horiz-adv-x="1803" 
d="M1593 1490h184l-64 -385q-37 -222 -134 -371t-254.5 -224t-376.5 -75h-134q-160 0 -276 40.5t-185 123.5t-90.5 209t7.5 297l65 385h184l-63 -374q-32 -190 -4 -304.5t123 -165.5t264 -51h136q170 0 281 51t176.5 165.5t97.5 304.5zM964 1490h183l-247 -1490h-183z" />
    <glyph glyph-name="uni0471" unicode="&#x471;" horiz-adv-x="1594" 
d="M612 -20q-173 0 -284.5 69t-154 204t-10.5 332l88 533h180l-88 -533q-25 -154 2.5 -252.5t102.5 -145t190 -46.5h180q115 0 205.5 46.5t151 145t85.5 252.5l88 533h180l-88 -533q-32 -194 -118 -329t-220 -205.5t-310 -70.5h-180zM546 -418l298 1802h180l-298 -1802h-180
z" />
    <glyph glyph-name="uni0472" unicode="&#x472;" horiz-adv-x="1566" 
d="M1320 824v-160h-1024v160h1024zM699 -20q-169 0 -295 72t-195.5 206.5t-69.5 321.5q0 177 55 343.5t159 298.5t250 210t327 78q169 0 294 -72t194.5 -206t69.5 -321q0 -178 -55 -344.5t-158.5 -299t-249 -210t-326.5 -77.5zM706 156q140 0 251 64t188.5 172t118 241.5
t40.5 272.5q0 140 -48.5 235.5t-134.5 144t-198 48.5q-140 0 -251 -64t-189 -172t-119 -241t-41 -272q0 -140 49 -235.5t135.5 -144.5t198.5 -49z" />
    <glyph glyph-name="uni0473" unicode="&#x473;" horiz-adv-x="1229" 
d="M528 -24q-135 0 -232 56.5t-149.5 159.5t-52.5 241q0 133 41.5 258t120 224.5t190 158t251.5 58.5q135 0 233 -56t150.5 -159t52.5 -243q0 -135 -42 -260t-121.5 -224t-191 -156.5t-250.5 -57.5zM532 137q103 0 181.5 48t131.5 126.5t80 172.5t27 186q0 85 -27 153
t-84 108t-149 40q-102 0 -180 -48t-131 -127t-80 -173.5t-27 -187.5q0 -126 61 -212t197 -86zM244 424l-68 61q48 50 96 93t98 69t104 26q68 0 119.5 -23.5t94.5 -47t84 -23.5q59 0 106 26.5t99 88.5l72 -55q-48 -57 -95 -100t-97 -67t-108 -24q-68 0 -119.5 23.5t-94 47
t-84.5 23.5q-46 0 -97 -28t-110 -90z" />
    <glyph glyph-name="uni0474" unicode="&#x474;" horiz-adv-x="1442" 
d="M1144 1209q74 144 149.5 222.5t193.5 78.5h60l-29 -174h-23q-61 0 -90 -38t-68 -112l-630 -1186h-202l-299 1490h194l230 -1245h17z" />
    <glyph glyph-name="uni0475" unicode="&#x475;" horiz-adv-x="1215" 
d="M372 0l-225 1118h197l155 -885h12l345 679q52 102 131 154t191 52h75l-26 -159h-72q-40 0 -70 -17.5t-53 -59.5l-471 -882h-189z" />
    <glyph glyph-name="uni0476" unicode="&#x476;" horiz-adv-x="1442" 
d="M1144 1209q74 144 149.5 222.5t193.5 78.5h60l-29 -174h-23q-61 0 -90 -38t-68 -112l-630 -1186h-202l-299 1490h194l230 -1245h17zM990 1636l-120 294h200l68 -294h-148zM663 1636l-172 294h201l119 -294h-148z" />
    <glyph glyph-name="uni0477" unicode="&#x477;" horiz-adv-x="1215" 
d="M372 0l-225 1118h197l155 -885h12l345 679q52 102 131 154t191 52h75l-26 -159h-72q-40 0 -70 -17.5t-53 -59.5l-471 -882h-189zM767 1264l-120 294h200l68 -294h-148zM440 1264l-172 294h201l119 -294h-148z" />
    <glyph glyph-name="uni0478" unicode="&#x478;" horiz-adv-x="2717" 
d="M699 -20q-169 0 -295 72t-195.5 206.5t-69.5 321.5q0 177 55 343.5t159 298.5t250 210t327 78q169 0 294 -72t194.5 -206t69.5 -321q0 -178 -55 -344.5t-158.5 -299t-249 -210t-326.5 -77.5zM706 156q140 0 251 64t188.5 172t118 241.5t40.5 272.5q0 140 -48.5 235.5
t-134.5 144t-198 48.5q-140 0 -251 -64t-189 -172t-119 -241t-41 -272q0 -140 49 -235.5t135.5 -144.5t198.5 -49zM1547 -405l72 156l17 -4q55 -13 101.5 -6.5t88 44t81.5 116.5l47 93l-241 1124h188l129 -663q20 -103 29.5 -205.5t22.5 -198.5h-66q45 96 88 198.5t98 205.5
l349 663h205l-704 -1285q-48 -88 -105.5 -145.5t-125 -85.5t-147.5 -28q-44 0 -78.5 7t-48.5 14z" />
    <glyph glyph-name="uni0479" unicode="&#x479;" horiz-adv-x="2340" 
d="M528 -24q-135 0 -232 56.5t-149.5 159.5t-52.5 241q0 133 41.5 258t120 224.5t190 158t251.5 58.5q135 0 233 -56t150.5 -159t52.5 -243q0 -135 -42 -260t-121.5 -224t-191 -156.5t-250.5 -57.5zM532 137q103 0 181.5 48t131.5 126.5t80 172.5t27 186q0 85 -27 153
t-84 108t-149 40q-102 0 -180 -48t-131 -127t-80 -173.5t-27 -187.5q0 -126 61 -212t197 -86zM1170 -405l72 156l17 -4q55 -13 101.5 -6.5t88 44t81.5 116.5l47 93l-241 1124h188l129 -663q20 -103 29.5 -205.5t22.5 -198.5h-66q45 96 88 198.5t98 205.5l349 663h205
l-704 -1285q-48 -88 -105.5 -145.5t-125 -85.5t-147.5 -28q-44 0 -78.5 7t-48.5 14z" />
    <glyph glyph-name="uni0480" unicode="&#x480;" horiz-adv-x="1453" 
d="M647 137q-121 0 -221 47.5t-168 137.5t-94 217t1 287q36 213 143 367.5t263.5 237.5t337.5 83q108 0 199 -30t158.5 -87.5t105 -141t38.5 -190.5h-191q-4 89 -50 150.5t-121 93t-167 31.5q-126 0 -236.5 -59.5t-188 -173.5t-105.5 -280q-28 -168 12 -283t131.5 -174
t216.5 -59q91 0 176 31.5t151.5 92t100.5 148.5h76q-15 -92 -65.5 -172.5t-127.5 -142t-173 -96.5t-202 -35zM1043 0l105 583h181l-96 -583h-190z" />
    <glyph glyph-name="uni0481" unicode="&#x481;" horiz-adv-x="1157" 
d="M650 137l-83 -496h-179l83 496h179zM517 -24q-157 0 -259 74t-142 204t-13 297q28 170 112.5 301t211 205.5t279.5 74.5q120 0 208.5 -44t136 -124t43.5 -188h-181q-4 53 -31 97.5t-77 71t-123 26.5q-97 0 -179 -50.5t-138.5 -142.5t-77.5 -218q-21 -128 4 -223.5
t90 -147.5t164 -52z" />
    <glyph glyph-name="uni0482" unicode="&#x482;" horiz-adv-x="1294" 
d="M857 808l-266 -360l263 -172l-93 -128l-266 172l-233 -320h-174l291 398l-259 172l90 128l265 -172l262 362l-263 168l97 130l262 -170l239 326h172l-294 -406l266 -170l-96 -126z" />
    <glyph glyph-name="uni0483" unicode="&#x483;" 
d="M-88 1312h-546l-20 -126h-178l38 240h547l18 108h175z" />
    <glyph glyph-name="uni0484" unicode="&#x484;" 
d="M-770 1438h40q81 0 148.5 18t126.5 41t115 41t115 18q115 0 168.5 -54t33.5 -160l-7 -38h-137l3 16q10 52 -15 77t-74 25q-43 0 -93.5 -18t-110.5 -41t-132.5 -41t-160.5 -18h-44z" />
    <glyph glyph-name="uni0485" unicode="&#x485;" 
d="M-381 1301l-131 201l20 124h191l-27 -142l41 -115z" />
    <glyph glyph-name="uni0486" unicode="&#x486;" 
d="M-200 1502l-202 -201l-70 68l80 115l20 142h193z" />
    <glyph glyph-name="uni0487" unicode="&#x487;" 
d="M-167 1438h161l-24 -134h-175q-51 0 -87.5 18t-71 41t-81.5 41t-119 18q-44 0 -89 -24t-59 -78l-4 -16h-136l7 38q18 98 102 156t214 58q79 0 131 -18t89.5 -41.5t70 -41t71.5 -17.5z" />
    <glyph glyph-name="uni0488" unicode="&#x488;" 
d="M-534 1268h-112q15 81 80.5 133.5t163.5 52.5q97 0 145 -52.5t34 -133.5h-113q7 40 -10.5 70t-69.5 30q-55 0 -83 -31t-35 -69zM17 990h-112q13 83 76.5 135.5t161.5 52.5q99 0 148 -52.5t35 -135.5h-112q6 41 -12 70.5t-73 29.5q-52 0 -78.5 -29.5t-33.5 -70.5zM120 488
h-115q14 81 80 133.5t163 52.5q98 0 146 -52.5t34 -133.5h-112q6 39 -10 69.5t-72 30.5q-50 0 -78.5 -30t-35.5 -70zM-165 -32h-114q15 81 80.5 135.5t163.5 54.5q97 0 145.5 -53.5t33.5 -136.5h-110q6 39 -12 70.5t-71 31.5q-52 0 -81 -31.5t-35 -70.5zM-790 -318h-112
q13 83 79 136.5t161 53.5q100 0 148 -53.5t35 -136.5h-115q6 40 -10.5 71t-71.5 31q-52 0 -79.5 -32t-34.5 -70zM-1149 990h-116q14 83 79 135.5t163 52.5t147.5 -52.5t36.5 -135.5h-114q7 41 -11.5 70.5t-72.5 29.5q-52 0 -78 -29.5t-34 -70.5zM-1410 488h-114
q13 81 79 133.5t163 52.5q98 0 146 -52.5t35 -133.5h-114q7 40 -10 70t-72 30q-52 0 -79.5 -31t-33.5 -69zM-1331 -32h-115q16 81 81 135.5t162 54.5q96 0 145.5 -53.5t34.5 -136.5h-114q7 39 -9.5 70.5t-70.5 31.5q-53 0 -80.5 -32.5t-33.5 -69.5z" />
    <glyph glyph-name="uni0489" unicode="&#x489;" 
d="M-564 1126l-10 14l178 338h96l-128 -352h-136zM-65 904l-78 100v14l351 154l54 -70zM344 422l-335 70l24 140l16 10l313 -122zM-111 -238l-150 300l114 98h18l95 -326zM-832 -414l128 352h138l10 -14l-180 -338h-96zM-1344 -148l-60 66l329 202l80 -100l-4 -14z
M-1183 422l-313 122l18 98l335 -68l-22 -140zM-1015 862l-90 328l74 66l150 -298l-116 -96h-18z" />
    <glyph glyph-name="uni048A" unicode="&#x48a;" horiz-adv-x="1543" 
d="M1270 0h-190l141 850q7 39 20.5 107.5t33 162.5t43.5 209h34q-93 -128 -156 -214.5t-110 -148.5t-92 -118l-681 -848h-226l247 1490h191l-152 -914q-8 -51 -20 -117t-29 -142.5t-40 -161.5h-27q52 83 104 157t96 132t72 93l764 953h224zM953 1647q-81 0 -140.5 38
t-87 102t-14.5 143h132q-11 -69 26 -112t106 -43q46 0 85 19.5t65.5 54.5t33.5 81h132q-13 -79 -62.5 -143.5t-121.5 -102t-154 -37.5zM1093 -320l148 320h-65l27 166h294l-225 -486h-179z" />
    <glyph glyph-name="uni048B" unicode="&#x48b;" horiz-adv-x="1212" 
d="M961 0h-181l134 806h-13l-664 -806h-171l185 1118h180l-133 -809h12l666 809h170zM723 1275q-81 0 -140.5 38t-87 102t-14.5 143h132q-11 -69 26 -112t106 -43q46 0 85 19.5t65.5 54.5t33.5 81h132q-13 -79 -62.5 -143.5t-121.5 -102t-154 -37.5zM778 -320l148 320h-65
l27 166h294l-225 -486h-179z" />
    <glyph glyph-name="uni048C" unicode="&#x48c;" horiz-adv-x="1329" 
d="M375 902h405q155 0 258.5 -54t148 -153.5t22.5 -234.5q-23 -141 -99 -244.5t-195.5 -159.5t-274.5 -56h-553l247 1490h190l-220 -1325h355q96 0 172 36t125.5 102t64.5 155q15 87 -11 149t-89 95t-159 33h-414zM32 1102l25 154h813l-25 -154h-813z" />
    <glyph glyph-name="uni048D" unicode="&#x48d;" horiz-adv-x="1262" 
d="M89 972l24 146h775l-24 -146h-775zM367 1118l44 266h170l-44 -266h-170zM454 717h321q133 0 216.5 -46t117 -126t16.5 -183q-17 -102 -78.5 -184t-160.5 -130t-230 -48h-473l185 1118h180l-158 -952h293q102 0 174 53.5t85 134.5q14 86 -40 141t-155 55h-322z" />
    <glyph glyph-name="uni048E" unicode="&#x48e;" horiz-adv-x="1298" 
d="M870 958l262 -464l-140 -86l-262 464zM87 0l247 1490h510q173 0 275 -62.5t139.5 -169.5t15.5 -240q-21 -133 -93.5 -241.5t-195.5 -173t-297 -64.5h-361l28 167h351q121 0 199.5 41.5t122 112.5t57.5 157q14 87 -7 156t-86.5 109.5t-185.5 40.5h-310l-219 -1323h-190z
" />
    <glyph glyph-name="uni048F" unicode="&#x48f;" horiz-adv-x="1248" 
d="M760 390l276 -376l-134 -110l-276 376zM-4 -418l255 1536h174l-30 -179h9q24 34 66.5 79.5t112.5 79.5t176 34q123 0 213 -54t139 -154t49 -239q0 -130 -38.5 -256.5t-111.5 -228.5t-178.5 -163t-239.5 -61q-109 0 -169.5 37.5t-89 85.5t-41.5 79h-17l-99 -596h-180z
M568 137q100 0 176.5 49t129 129.5t79 176t26.5 188.5q0 128 -60.5 209.5t-189.5 81.5q-101 0 -177 -47.5t-126.5 -126.5t-76 -175t-25.5 -193q0 -133 61 -212.5t183 -79.5z" />
    <glyph glyph-name="uni0492" unicode="&#x492;" horiz-adv-x="1185" 
d="M1241 1490l-28 -167h-717l-219 -1323h-190l247 1490h907zM11 668l25 154h813l-25 -154h-813z" />
    <glyph glyph-name="uni0493" unicode="&#x493;" horiz-adv-x="895" 
d="M945 1118l-27 -166h-514l-158 -952h-180l185 1118h694zM-3 489l23 138h646l-23 -138h-646z" />
    <glyph glyph-name="uni0494" unicode="&#x494;" horiz-adv-x="1336" 
d="M1241 1490l-28 -167h-717l-219 -1323h-190l247 1490h907zM490 -89l28 176h107q153 0 259.5 86t131.5 236q26 155 -52 244.5t-230 89.5q-157 0 -263.5 -95t-133.5 -259h-89q29 176 97 294t174 177.5t247 59.5q155 0 262.5 -65t155.5 -180t23 -264t-111 -261.5t-215 -175.5
t-284 -63h-107z" />
    <glyph glyph-name="uni0495" unicode="&#x495;" horiz-adv-x="1109" 
d="M317 -322l26 160h80q91 0 163 39.5t119.5 114.5t65.5 183q16 93 -3.5 157.5t-71 97.5t-131.5 33t-142 -33t-102.5 -97.5t-56.5 -157.5h-26q21 126 69.5 227.5t126.5 161t189 59.5q108 0 187.5 -58t116 -159t14.5 -231q-24 -144 -102 -256.5t-193 -176.5t-249 -64h-80z
M945 1118l-27 -166h-514l-158 -952h-180l185 1118h694z" />
    <glyph glyph-name="uni0496" unicode="&#x496;" horiz-adv-x="2006" 
d="M1232 1490l-247 -1490h-190l247 1490h190zM-36 0l609 777l-324 713h231l274 -662h551l491 662h230l-562 -715l352 -775h-218l-289 660h-619l-511 -660h-215zM1666 -320l53 320h-75l27 166h256l-81 -486h-180z" />
    <glyph glyph-name="uni0497" unicode="&#x497;" horiz-adv-x="1699" 
d="M-28 0l544 569l-353 549h213l289 -475h89l79 475h180l-79 -475h87l445 475h215l-533 -549l353 -569h-217l-293 477h-85l-78 -477h-180l78 477h-85l-451 -477h-218zM1350 -320l53 320h-75l27 166h256l-81 -486h-180z" />
    <glyph glyph-name="uni0498" unicode="&#x498;" horiz-adv-x="1264" 
d="M548 -20q-145 0 -252.5 49.5t-161.5 139t-39 207.5h192q-6 -71 28 -122.5t99 -79t149 -27.5q93 0 171.5 32t130.5 90.5t65 136.5q14 81 -16.5 143t-102 97t-182.5 35h-121l28 165h121q86 0 157 31t118 87.5t60 134.5q13 75 -10.5 130t-78 85.5t-135.5 30.5
q-77 0 -148.5 -27.5t-122 -79t-65.5 -123.5h-183q24 118 103 206.5t194 138.5t245 50q138 0 231 -55.5t134.5 -146.5t23.5 -197q-21 -127 -102.5 -215t-200.5 -122l-2 -12q94 -15 153 -64.5t82 -125t7 -168.5q-20 -123 -101 -218.5t-202.5 -150.5t-265.5 -55zM389 -418
l17 105h118q55 0 79 14.5t30 50.5t-12 51t-75 15h-82l68 230h95l-8 -48l-14 -86q95 -4 135 -41.5t27 -117.5q-14 -89 -75 -131t-184 -42h-119z" />
    <glyph glyph-name="uni0499" unicode="&#x499;" horiz-adv-x="1011" 
d="M409 -13q-110 0 -197 35.5t-132 100t-33 152.5h184q-6 -57 54 -96t150 -39q66 0 120.5 23.5t90.5 64.5t44 93q14 83 -46.5 133t-173.5 50h-73l21 134h73q98 0 168.5 49.5t82.5 128.5q11 74 -33.5 120.5t-129.5 46.5q-84 0 -155.5 -42t-85.5 -111h-175q17 90 81.5 157.5
t159.5 105t201 37.5q110 0 185.5 -41t109.5 -111t19 -158q-17 -100 -89.5 -161.5t-164.5 -78.5l-1 -8q123 -20 177.5 -89.5t36.5 -175.5q-16 -94 -82 -166t-166.5 -113t-220.5 -41zM232 -418l17 105h118q55 0 79 14.5t30 50.5t-12 51t-75 15h-82l68 230h95l-8 -48l-14 -86
q95 -4 135 -41.5t27 -117.5q-14 -89 -75 -131t-184 -42h-119z" />
    <glyph glyph-name="uni049A" unicode="&#x49a;" horiz-adv-x="1416" 
d="M87 0l247 1490h190l-107 -649h208l594 649h230l-675 -722l452 -768h-228l-392 676h-218l-111 -676h-190zM1080 -320l53 320h-75l27 166h256l-81 -486h-180z" />
    <glyph glyph-name="uni049B" unicode="&#x49b;" horiz-adv-x="1152" 
d="M66 0l185 1118h180l-79 -484h111l478 484h228l-535 -541l356 -577h-228l-284 468h-154l-78 -468h-180zM826 -320l53 320h-75l27 166h256l-81 -486h-180z" />
    <glyph glyph-name="uni049C" unicode="&#x49c;" horiz-adv-x="1366" 
d="M576 1075h161l-109 -665h-161zM88 0l246 1490h190l-110 -666h348l453 666h220l-513 -743l294 -747h-215l-257 643h-359l-107 -643h-190z" />
    <glyph glyph-name="uni049D" unicode="&#x49d;" horiz-adv-x="1201" 
d="M66 0l185 1118h180l-79 -484h302l394 484h210l-449 -541l270 -577h-210l-210 468h-335l-78 -468h-180zM489 836h160l-95 -572h-160z" />
    <glyph glyph-name="uni04A0" unicode="&#x4a0;" horiz-adv-x="1721" 
d="M769 1490l-27 -160h-514l27 160h514zM432 0l247 1490h190l-107 -649h208l594 649h230l-675 -722l452 -768h-228l-392 676h-218l-111 -676h-190z" />
    <glyph glyph-name="uni04A1" unicode="&#x4a1;" horiz-adv-x="1287" 
d="M89 972l24 146h400l-24 -146h-400zM241 0l185 1118h180l-79 -484h111l478 484h228l-535 -541l356 -577h-228l-284 468h-154l-78 -468h-180z" />
    <glyph glyph-name="uni04A2" unicode="&#x4a2;" horiz-adv-x="1552" 
d="M87 0l247 1490h190l-107 -644h782l107 644h190l-247 -1490h-190l113 678h-783l-112 -678h-190zM1162 -320l53 320h-75l27 166h256l-81 -486h-180z" />
    <glyph glyph-name="uni04A3" unicode="&#x4a3;" horiz-adv-x="1236" 
d="M925 657l-28 -166h-613l28 166h613zM431 1118l-185 -1118h-180l185 1118h180zM1140 1118l-185 -1118h-180l185 1118h180zM868 -320l53 320h-75l27 166h256l-81 -486h-180z" />
    <glyph glyph-name="uni04A4" unicode="&#x4a4;" horiz-adv-x="2018" 
d="M2074 1490l-26 -160h-634l-102 160h762zM87 0l247 1490h190l-107 -644h782l107 644h190l-247 -1490h-190l113 678h-783l-112 -678h-190z" />
    <glyph glyph-name="uni04A5" unicode="&#x4a5;" horiz-adv-x="1387" 
d="M1031 972l24 146h392l-24 -146h-392zM925 657l-28 -166h-613l28 166h613zM431 1118l-185 -1118h-180l185 1118h180zM1140 1118l-185 -1118h-180l185 1118h180z" />
    <glyph glyph-name="uni04A6" unicode="&#x4a6;" horiz-adv-x="2270" 
d="M1495 1490l-246 -1490h-190l219 1323h-782l-219 -1323h-190l247 1490h1161zM1424 -89l28 176h107q153 0 259.5 86t131.5 236q26 155 -52 244.5t-230 89.5q-157 0 -263.5 -95t-133.5 -259h-89q29 176 97 294t174 177.5t247 59.5q155 0 262.5 -65t155.5 -180t23 -264
t-111 -261.5t-215 -175.5t-284 -63h-107z" />
    <glyph glyph-name="uni04A7" unicode="&#x4a7;" horiz-adv-x="1887" 
d="M1256 -286l-27 156q94 23 161 67t106.5 104t50.5 131q17 98 -21 168.5t-114 109t-174 38.5h-278l26 160h278q155 1 266 -56.5t162.5 -164.5t26.5 -255q-9 -56 -41.5 -126.5t-90 -139.5t-140 -121t-191.5 -71zM1139 1118l-185 -1118h-180l158 952h-527l-158 -952h-181
l185 1118h888z" />
    <glyph glyph-name="uni04A8" unicode="&#x4a8;" horiz-adv-x="2017" 
d="M1535 -21q-134 0 -250.5 38t-181.5 103q-96 73 -157.5 175t-83.5 225t0 257q28 164 110.5 287t205 191.5t267.5 68.5q146 0 245.5 -67.5t142.5 -186t17 -272.5q-26 -159 -104.5 -289t-192.5 -228.5t-249.5 -165.5t-277 -101t-273.5 -34q-224 0 -371.5 93.5t-207.5 265.5
t-22 405q29 177 102 319t178.5 241.5t235.5 152.5t273 53l-29 -176q-134 0 -253.5 -68t-204.5 -199t-117 -322q-30 -184 13 -316t153 -202.5t280 -70.5q150 0 296.5 49.5t270 137.5t206 204.5t104.5 250.5q18 107 -7 185.5t-85.5 121.5t-152.5 43q-91 0 -166 -44t-126 -126
t-70 -196q-19 -113 3.5 -223.5t84.5 -200.5t159 -144q46 -40 110 -53.5t155 -13.5q52 0 110.5 11t128.5 39l30 -154q-40 -17 -86.5 -32t-99.5 -23.5t-113 -8.5z" />
    <glyph glyph-name="uni04A9" unicode="&#x4a9;" horiz-adv-x="1596" 
d="M600 -24q-188 0 -309 68.5t-169.5 197.5t-18.5 310q29 176 115 306t213 202t279 72l-26 -161q-111 0 -193.5 -58t-134 -153.5t-70.5 -207.5q-21 -130 10.5 -223t115 -143t218.5 -50q83 0 182.5 21.5t193.5 70t162.5 128.5t87.5 198q13 79 -5 138.5t-63.5 93.5t-113.5 34
q-66 0 -122.5 -33.5t-94.5 -94t-51 -142.5q-17 -106 12.5 -183.5t89 -128t132.5 -77.5q47 -24 96 -29.5t89 -5.5q58 0 111 13t101 34l30 -137q-70 -31 -138 -41.5t-132 -10.5q-104 0 -201.5 26.5t-175.5 73.5q-110 68 -166 189t-30 280q21 125 89 221.5t169 151.5t219 55
q121 0 203.5 -56t118 -152t15.5 -217q-18 -114 -75 -206t-142 -162t-188 -117t-214 -71t-219 -24z" />
    <glyph glyph-name="uni04AA" unicode="&#x4aa;" horiz-adv-x="1495" 
d="M698 -20q-169 0 -295 72t-195 206.5t-69 321.5q0 176 55 342.5t158 299t249 210.5t328 78q115 0 211.5 -33t168 -96t111 -153.5t40.5 -206.5h-190q-3 76 -30.5 134t-74.5 98t-109 60.5t-134 20.5q-140 0 -251 -64t-188.5 -172t-118.5 -241.5t-41 -271.5q0 -140 49 -236
t135 -144.5t198 -48.5q76 0 148.5 20.5t136 60.5t112.5 98t77 134h191q-39 -114 -106 -204t-156.5 -154t-193.5 -97.5t-216 -33.5zM507 -429l17 105h118q55 0 79 14.5t30 50.5t-12 51t-75 15h-82l68 230h95l-8 -48l-14 -86q95 -4 135 -41.5t27 -117.5q-14 -89 -75 -131
t-184 -42h-119z" />
    <glyph glyph-name="uni04AB" unicode="&#x4ab;" horiz-adv-x="1171" 
d="M528 -24q-135 0 -232 56.5t-149.5 159.5t-52.5 241q0 133 41.5 258t119.5 224.5t189.5 158t252.5 58.5q83 0 153.5 -21.5t124 -62.5t87.5 -99t45 -131l-176 -39q-5 43 -23 78t-48 60.5t-71.5 39.5t-95.5 14q-102 0 -180 -48t-131.5 -127t-80.5 -173.5t-27 -187.5
q0 -83 26.5 -151t83.5 -107.5t148 -39.5q58 0 109.5 16t94 44.5t74.5 67t51 83.5l166 -58q-34 -74 -86 -132t-117 -98.5t-140 -62t-156 -21.5zM340 -418l17 105h118q55 0 79 14.5t30 50.5t-12 51t-75 15h-82l68 230h95l-8 -48l-14 -86q95 -4 135 -41.5t27 -117.5
q-14 -89 -75 -131t-184 -42h-119z" />
    <glyph glyph-name="uni04AC" unicode="&#x4ac;" horiz-adv-x="1324" 
d="M226 1323l28 167h1126l-28 -167h-467l-219 -1323h-190l219 1323h-469zM579 -320l53 320h-75l27 166h256l-81 -486h-180z" />
    <glyph glyph-name="uni04AD" unicode="&#x4ad;" horiz-adv-x="955" 
d="M296 0l158 952h-368l27 166h914l-27 -166h-366l-158 -952h-180zM389 -320l53 320h-75l27 166h256l-81 -486h-180z" />
    <glyph glyph-name="uni04AE" unicode="&#x4ae;" horiz-adv-x="1390" 
d="M507 0l101 610l-402 880h206l215 -481q36 -81 62.5 -154.5t49.5 -185.5h-76q60 114 111 188.5t111 151.5l374 481h233l-694 -880l-101 -610h-190z" />
    <glyph glyph-name="uni04AF" unicode="&#x4af;" horiz-adv-x="1151" 
d="M392 -20l-245 1138h197l128 -663q20 -103 30 -205.5t23 -198.5h-66q45 96 88 198.5t98 205.5l348 663h197l-623 -1138h-175zM324 -418l70 426h180l-70 -426h-180z" />
    <glyph glyph-name="uni04B2" unicode="&#x4b2;" horiz-adv-x="1437" 
d="M-36 0l720 833l-23 -141l-417 798h211l162 -316q36 -69 58.5 -117t40.5 -94t39 -111h-33q43 64 77 110.5t73 95t98 116.5l272 316h224l-681 -790l23 140l439 -840h-211l-198 378q-32 62 -53.5 106.5t-39 89t-38.5 106.5h40q-40 -61 -73 -106t-70 -89.5t-90 -106.5
l-326 -378h-224zM1088 -320l53 320h-75l27 166h256l-81 -486h-180z" />
    <glyph glyph-name="uni04B3" unicode="&#x4b3;" horiz-adv-x="1158" 
d="M-28 0l548 643l-24 -138l-316 613h202l104 -217q41 -84 67.5 -157t57.5 -141h-94q54 68 102 141t116 157l178 217h214l-521 -621l21 133l333 -630h-204l-123 251q-40 82 -66 152.5t-57 135.5h95q-52 -65 -98.5 -135.5t-114.5 -152.5l-207 -251h-213zM825 -320l53 320h-75
l27 166h256l-81 -486h-180z" />
    <glyph glyph-name="uni04B4" unicode="&#x4b4;" horiz-adv-x="1878" 
d="M228 1330l27 160h1118l-27 -160h-1118zM1597 0h-1119l247 1490h190l-220 -1323h739l220 1323h190zM1510 -320l53 320h-75l27 166h256l-81 -486h-180z" />
    <glyph glyph-name="uni04B5" unicode="&#x4b5;" horiz-adv-x="1351" 
d="M821 1118l-26 -160h-708l26 160h708zM194 0l185 1118h180l-158 -952h527l158 952h181l-185 -1118h-888zM995 -320l53 320h-75l27 166h256l-81 -486h-180z" />
    <glyph glyph-name="uni04B6" unicode="&#x4b6;" horiz-adv-x="1464" 
d="M655 556q-151 0 -255 49t-148 154t-16 273l76 458h190l-76 -457q-18 -108 13.5 -176t101.5 -100t167 -32q126 0 243 42t222 110l-31 -186q-104 -59 -224 -97t-263 -38zM971 0l247 1490h190l-247 -1490h-190zM1074 -320l53 320h-75l27 166h256l-81 -486h-180z" />
    <glyph glyph-name="uni04B7" unicode="&#x4b7;" horiz-adv-x="1215" 
d="M549 350q-194 0 -292.5 102.5t-64.5 307.5l59 358h181l-60 -358q-21 -125 39 -184.5t166 -59.5q108 0 198.5 20t184.5 51l-28 -166q-61 -21 -121.5 -37t-124.5 -25t-137 -9zM753 0l185 1118h181l-185 -1118h-181zM847 -320l53 320h-75l27 166h256l-81 -486h-180z" />
    <glyph glyph-name="uni04B8" unicode="&#x4b8;" horiz-adv-x="1434" 
d="M655 556q-151 0 -255 49t-148 154t-16 273l76 458h190l-76 -457q-18 -108 13.5 -176t101.5 -100t167 -32q126 0 243 42t222 110l-31 -186q-104 -59 -224 -97t-263 -38zM971 0l247 1490h190l-247 -1490h-190zM584 315l107 646h162l-107 -646h-162z" />
    <glyph glyph-name="uni04B9" unicode="&#x4b9;" horiz-adv-x="1185" 
d="M549 350q-194 0 -292.5 102.5t-64.5 307.5l59 358h181l-60 -358q-21 -125 39 -184.5t166 -59.5q108 0 198.5 20t184.5 51l-28 -166q-61 -21 -121.5 -37t-124.5 -25t-137 -9zM753 0l185 1118h181l-185 -1118h-181zM439 113l107 646h162l-107 -646h-162z" />
    <glyph glyph-name="uni04BA" unicode="&#x4ba;" horiz-adv-x="1434" 
d="M841 934q152 0 255.5 -49t147.5 -153.5t16 -273.5l-76 -458h-190l76 457q18 108 -13.5 176t-101 100t-167.5 32q-126 0 -243 -42t-222 -110l31 186q104 59 224.5 97t262.5 38zM525 1490l-247 -1490h-190l247 1490h190z" />
    <glyph glyph-name="uni04BB" unicode="&#x4bb;" horiz-adv-x="1211" 
d="M356 670l-111 -670h-180l247 1490h180l-107 -643h-31q52 105 114.5 167.5t135.5 90t156 27.5q113 0 193 -46.5t114.5 -140t10.5 -235.5l-118 -710h-181l116 695q22 131 -35 203t-173 72q-79 0 -148.5 -35t-118 -101.5t-64.5 -163.5z" />
    <glyph glyph-name="uni04BC" unicode="&#x4bc;" horiz-adv-x="1718" 
d="M873 -20q-190 0 -323 93t-189 264.5t-17 409.5q29 176 100.5 317t176.5 240.5t236 152.5t281 53q193 0 315 -87t169 -241.5t13 -357.5l-27 -163h-1134l27 166h1005l-58 -11q25 150 -3.5 267t-112 184t-223.5 67q-136 0 -256.5 -67t-206 -197.5t-117.5 -321.5t9 -323
t137 -200.5t228 -68.5q78 0 147.5 21t128.5 61.5t107 98t83 130.5h196q-38 -108 -106.5 -197.5t-159.5 -154t-199 -100t-227 -35.5zM102 1057h177l-12 -77q-11 -70 -8 -102.5t31.5 -41t92.5 -8.5h44l-28 -166h-45q-157 0 -223 81t-39 251z" />
    <glyph glyph-name="uni04BD" unicode="&#x4bd;" horiz-adv-x="1419" 
d="M346 491q-181 0 -257 100.5t-48 266.5h158q-16 -98 23 -165.5t148 -67.5zM775 -24q-138 0 -236.5 54t-151.5 155t-53 242q0 147 47 276.5t131 228t194.5 154.5t237.5 56q108 0 188 -37.5t124 -106t44 -161.5q0 -94 -48.5 -160.5t-150.5 -108.5t-261.5 -61.5t-380.5 -19.5
l24 136q183 0 306 10.5t195.5 35.5t104 67t31.5 105q0 64 -53.5 102.5t-140.5 38.5q-113 0 -192.5 -54.5t-129.5 -140t-73.5 -181t-23.5 -178.5q0 -82 27 -148.5t88.5 -105.5t163.5 -39q107 0 190.5 46.5t126.5 126.5l167 -47q-62 -132 -195.5 -208.5t-299.5 -76.5z" />
    <glyph glyph-name="uni04BE" unicode="&#x4be;" horiz-adv-x="1718" 
d="M873 -20q-190 0 -323 93t-189 264.5t-17 409.5q29 176 100.5 317t176.5 240.5t236 152.5t281 53q193 0 315 -87t169 -241.5t13 -357.5l-27 -163h-1134l27 166h1005l-58 -11q25 150 -3.5 267t-112 184t-223.5 67q-136 0 -256.5 -67t-206 -197.5t-117.5 -321.5t9 -323
t137 -200.5t228 -68.5q78 0 147.5 21t128.5 61.5t107 98t83 130.5h196q-38 -108 -106.5 -197.5t-159.5 -154t-199 -100t-227 -35.5zM102 1057h177l-12 -77q-11 -70 -8 -102.5t31.5 -41t92.5 -8.5h44l-28 -166h-45q-157 0 -223 81t-39 251zM725 -320l64 384h180l-64 -384
h-180z" />
    <glyph glyph-name="uni04BF" unicode="&#x4bf;" horiz-adv-x="1419" 
d="M346 491q-181 0 -257 100.5t-48 266.5h158q-16 -98 23 -165.5t148 -67.5zM775 -24q-138 0 -236.5 54t-151.5 155t-53 242q0 147 47 276.5t131 228t194.5 154.5t237.5 56q108 0 188 -37.5t124 -106t44 -161.5q0 -94 -48.5 -160.5t-150.5 -108.5t-261.5 -61.5t-380.5 -19.5
l24 136q183 0 306 10.5t195.5 35.5t104 67t31.5 105q0 64 -53.5 102.5t-140.5 38.5q-113 0 -192.5 -54.5t-129.5 -140t-73.5 -181t-23.5 -178.5q0 -82 27 -148.5t88.5 -105.5t163.5 -39q107 0 190.5 46.5t126.5 126.5l167 -47q-62 -132 -195.5 -208.5t-299.5 -76.5z
M576 -418l17 105h118q55 0 79 14.5t30 50.5t-12 51t-75 15h-82l68 230h95l-8 -48l-14 -86q95 -4 135 -41.5t27 -117.5q-14 -89 -75 -131t-184 -42h-119z" />
    <glyph glyph-name="uni04C0" unicode="&#x4c0;" horiz-adv-x="550" 
d="M524 1490l-247 -1490h-190l247 1490h190z" />
    <glyph glyph-name="uni04C1" unicode="&#x4c1;" horiz-adv-x="1966" 
d="M1232 1490l-247 -1490h-190l247 1490h190zM-36 0l609 777l-324 713h231l274 -662h551l491 662h230l-562 -715l352 -775h-218l-289 660h-619l-511 -660h-215zM1162 1647q-81 0 -140.5 38t-87 102t-14.5 143h132q-11 -69 26 -112t106 -43q46 0 85 19.5t65.5 54.5t33.5 81
h132q-13 -79 -62.5 -143.5t-121.5 -102t-154 -37.5z" />
    <glyph glyph-name="uni04C2" unicode="&#x4c2;" horiz-adv-x="1659" 
d="M-28 0l544 569l-353 549h213l289 -475h89l79 475h180l-79 -475h87l445 475h215l-533 -549l353 -569h-217l-293 477h-85l-78 -477h-180l78 477h-85l-451 -477h-218zM947 1275q-81 0 -140.5 38t-87 102t-14.5 143h132q-11 -69 26 -112t106 -43q46 0 85 19.5t65.5 54.5
t33.5 81h132q-13 -79 -62.5 -143.5t-121.5 -102t-154 -37.5z" />
    <glyph glyph-name="uni04C3" unicode="&#x4c3;" horiz-adv-x="1398" 
d="M465 672l26 164h215q281 0 417.5 -155.5t89.5 -430.5q-29 -171 -108 -294.5t-199.5 -189.5t-274.5 -66l25 166q141 -1 239 101.5t129 283.5q33 194 -58 307.5t-287 113.5h-214zM88 0l246 1490h189l-105 -649h165l616 649h237l-805 -818h-241l-113 -672h-189z" />
    <glyph glyph-name="uni04C4" unicode="&#x4c4;" horiz-adv-x="1203" 
d="M267 468l26 158h281q119 0 211.5 -32.5t154.5 -92.5t87.5 -142t8.5 -181q-18 -110 -82.5 -202t-161 -154t-212.5 -82l-26 147q78 19 143 60.5t108 100.5t54 132q20 128 -67.5 208t-243.5 80h-281zM66 0l185 1118h180l-79 -484h111l475 484h231l-643 -650h-202l-78 -468
h-180z" />
    <glyph glyph-name="uni04C5" unicode="&#x4c5;" horiz-adv-x="1535" 
d="M8 0l27 167h40q71 0 118.5 29t83.5 108t73 227l239 959h920l-247 -1490h-190l219 1323h-558l-199 -808q-33 -132 -72 -229.5t-93 -160.5t-128.5 -94t-177.5 -31h-55zM1079 -320l148 320h-65l27 166h294l-225 -486h-179z" />
    <glyph glyph-name="uni04C6" unicode="&#x4c6;" horiz-adv-x="1179" 
d="M-72 0l27 166h40q50 0 86.5 20t65.5 69.5t55 138t54 226.5l103 498h754l-185 -1118h-181l158 952h-402l-83 -395q-39 -188 -93 -311.5t-135 -184.5t-203 -61h-61zM745 -320l148 320h-65l27 166h294l-225 -486h-179z" />
    <glyph glyph-name="uni04C7" unicode="&#x4c7;" horiz-adv-x="1522" 
d="M785 -418l26 159q16 -3 31.5 -4t26.5 -1q86 0 120.5 25.5t42.5 75.5l48 291h190l-50 -299q-21 -125 -106.5 -190.5t-226.5 -65.5q-33 0 -60.5 2.5t-41.5 6.5zM87 0l247 1490h190l-107 -644h782l107 644h190l-247 -1490h-190l113 678h-783l-112 -678h-190z" />
    <glyph glyph-name="uni04C8" unicode="&#x4c8;" horiz-adv-x="1206" 
d="M593 -427q-33 0 -60.5 2.5t-41.5 6.5l25 150q14 -2 30 -3t28 -1q87 0 125.5 25.5t46.5 75.5l29 171h180l-29 -171q-22 -128 -109 -192t-224 -64zM925 657l-28 -166h-613l28 166h613zM431 1118l-185 -1118h-180l185 1118h180zM1140 1118l-185 -1118h-180l185 1118h180z
" />
    <glyph glyph-name="uni04C9" unicode="&#x4c9;" horiz-adv-x="1522" 
d="M87 0l247 1490h190l-107 -644h782l107 644h190l-247 -1490h-190l113 678h-783l-112 -678h-190zM1066 -320l148 320h-65l27 166h294l-225 -486h-179z" />
    <glyph glyph-name="uni04CA" unicode="&#x4ca;" horiz-adv-x="1206" 
d="M925 657l-28 -166h-613l28 166h613zM431 1118l-185 -1118h-180l185 1118h180zM1140 1118l-185 -1118h-180l185 1118h180zM772 -320l148 320h-65l27 166h294l-225 -486h-179z" />
    <glyph glyph-name="uni04CB" unicode="&#x4cb;" horiz-adv-x="1464" 
d="M655 556q-151 0 -255 49t-148 154t-16 273l76 458h190l-76 -457q-18 -108 13.5 -176t101.5 -100t167 -32q126 0 243 42t222 110l-31 -186q-104 -59 -224 -97t-263 -38zM971 0l247 1490h190l-247 -1490h-190zM1074 -320l53 320h-75l27 166h256l-81 -486h-180z" />
    <glyph glyph-name="uni04CC" unicode="&#x4cc;" horiz-adv-x="1215" 
d="M549 350q-194 0 -292.5 102.5t-64.5 307.5l59 358h181l-60 -358q-21 -125 39 -184.5t166 -59.5q108 0 198.5 20t184.5 51l-28 -166q-61 -21 -121.5 -37t-124.5 -25t-137 -9zM753 0l185 1118h181l-185 -1118h-181zM847 -320l53 320h-75l27 166h256l-81 -486h-180z" />
    <glyph glyph-name="uni04CD" unicode="&#x4cd;" horiz-adv-x="1850" 
d="M87 0l247 1490h270l211 -940q8 -34 16.5 -84.5t17 -108.5t16 -115t12.5 -104h-42q23 50 50 108t54.5 115.5t52 106.5t42.5 82l519 940h271l-247 -1490h-187l140 851q8 50 19 112t23.5 128t25 130.5t22.5 120.5h16q-33 -70 -68.5 -142t-69 -138t-62 -120.5t-48.5 -90.5
l-474 -851h-165l-197 851q-10 46 -24.5 123.5t-31 173.5t-34.5 194h19q-8 -60 -17.5 -126t-19.5 -131.5t-19 -125.5t-17 -108l-140 -851h-181zM1390 -320l148 320h-65l27 166h294l-225 -486h-179z" />
    <glyph glyph-name="uni04CE" unicode="&#x4ce;" horiz-adv-x="1578" 
d="M66 0l185 1118h265l152 -618q15 -59 24.5 -111t15.5 -99t10.5 -90.5t7.5 -85.5h-30q18 45 36.5 89t40 90.5t47.5 97.5t59 109l353 618h280l-185 -1118h-181l97 584q9 54 19.5 113t21 119.5t21.5 119.5t21 113h20q-37 -88 -70 -160t-71 -144t-90 -161l-341 -584h-158
l-150 584q-22 88 -36.5 159t-23.5 143.5t-18 162.5h24q-9 -59 -17 -117t-16.5 -115.5t-17.5 -115.5t-19 -117l-97 -584h-179zM1144 -320l148 320h-65l27 166h294l-225 -486h-179z" />
    <glyph glyph-name="uni04CF" unicode="&#x4cf;" horiz-adv-x="496" 
d="M492 1490l-247 -1490h-180l247 1490h180z" />
    <glyph glyph-name="uni04D0" unicode="&#x4d0;" horiz-adv-x="1413" 
d="M-41 0l788 1490h220l301 -1490h-192l-169 884q-13 71 -33 199t-43 318h36q-81 -181 -141.5 -308t-102.5 -209l-454 -884h-210zM300 416l27 166h765l-27 -166h-765zM885 1647q-81 0 -140.5 38t-87 102t-14.5 143h132q-11 -69 26 -112t106 -43q46 0 85 19.5t65.5 54.5
t33.5 81h132q-13 -79 -62.5 -143.5t-121.5 -102t-154 -37.5z" />
    <glyph glyph-name="uni04D1" unicode="&#x4d1;" horiz-adv-x="1257" 
d="M481 -24q-139 0 -234 71.5t-133.5 202t-9.5 307.5q30 178 112 306.5t201 198.5t258 70q108 0 166 -35.5t84.5 -81t40.5 -76.5h15l29 179h181l-185 -1118h-175l28 173h-21q-25 -33 -68 -79.5t-113 -82t-176 -35.5zM537 137q102 0 180.5 54t130.5 149t72 219
q21 124 0.5 216.5t-82 144t-163.5 51.5q-107 0 -187.5 -55.5t-131 -148.5t-69.5 -208q-19 -117 1 -213t82 -152.5t167 -56.5zM745 1275q-81 0 -140.5 38t-87 102t-14.5 143h132q-11 -69 26 -112t106 -43q46 0 85 19.5t65.5 54.5t33.5 81h132q-13 -79 -62.5 -143.5
t-121.5 -102t-154 -37.5z" />
    <glyph glyph-name="uni04D2" unicode="&#x4d2;" horiz-adv-x="1413" 
d="M-41 0l788 1490h220l301 -1490h-192l-169 884q-13 71 -33 199t-43 318h36q-81 -181 -141.5 -308t-102.5 -209l-454 -884h-210zM300 416l27 166h765l-27 -166h-765zM1101 1673q-49 0 -78 35t-21 84t49 83.5t90 34.5t77.5 -34.5t20.5 -83.5t-48.5 -84t-89.5 -35zM680 1673
q-49 0 -78 35t-21 84t49 83.5t90 34.5t77.5 -34.5t20.5 -83.5t-48.5 -84t-89.5 -35z" />
    <glyph glyph-name="uni04D3" unicode="&#x4d3;" horiz-adv-x="1257" 
d="M481 -24q-139 0 -234 71.5t-133.5 202t-9.5 307.5q30 178 112 306.5t201 198.5t258 70q108 0 166 -35.5t84.5 -81t40.5 -76.5h15l29 179h181l-185 -1118h-175l28 173h-21q-25 -33 -68 -79.5t-113 -82t-176 -35.5zM537 137q102 0 180.5 54t130.5 149t72 219
q21 124 0.5 216.5t-82 144t-163.5 51.5q-107 0 -187.5 -55.5t-131 -148.5t-69.5 -208q-19 -117 1 -213t82 -152.5t167 -56.5zM961 1301q-49 0 -78 35t-21 84t49 83.5t90 34.5t77.5 -34.5t20.5 -83.5t-48.5 -84t-89.5 -35zM540 1301q-49 0 -78 35t-21 84t49 83.5t90 34.5
t77.5 -34.5t20.5 -83.5t-48.5 -84t-89.5 -35z" />
    <glyph glyph-name="uni04D4" unicode="&#x4d4;" horiz-adv-x="2036" 
d="M-41 0l963 1490h1122l-28 -167h-716l-81 -493h669l-28 -168h-669l-82 -495h727l-28 -167h-917l219 1319h-108l-834 -1319h-209zM371 416l27 166h686l-27 -166h-686z" />
    <glyph glyph-name="uni04D5" unicode="&#x4d5;" horiz-adv-x="1859" 
d="M391 -16q-173 0 -262.5 92.5t-63.5 247.5q13 77 59 145.5t139 111.5t246 43q54 0 102.5 0.5t105 0.5h133.5l-12 -138q-78 0 -161 -1t-156 -1q-110 0 -187 -40t-91 -125q-15 -89 31.5 -134.5t147.5 -45.5q105 0 176.5 38.5t112.5 99.5t53 128l67 359q21 113 -26.5 166.5
t-178.5 53.5q-70 0 -127.5 -22.5t-95.5 -63.5t-53 -98l-182 2q21 101 87.5 177t167.5 118.5t225 42.5q125 0 210.5 -44.5t123.5 -124.5t20 -186l-88 -532l-17 -1q-40 -78 -109 -138.5t-167.5 -95.5t-229.5 -35zM1215 -24q-138 0 -234 53.5t-146 154.5t-50 241q0 149 46 279
t128 228.5t190.5 154t234.5 55.5q108 0 188 -37.5t124 -106t44 -161.5q0 -94 -48.5 -160.5t-150.5 -108.5t-261 -61.5t-381 -19.5l24 136q183 0 306 10.5t195.5 35.5t104 67t31.5 105q0 64 -53.5 102.5t-140.5 38.5q-93 0 -175 -47.5t-138.5 -129t-73.5 -182.5
q-11 -67 -17 -105t-8 -59t-2 -38q0 -138 70.5 -212t203.5 -74q108 0 191.5 47t125.5 126l167 -45q-62 -133 -195 -210t-300 -77z" />
    <glyph glyph-name="uni04D6" unicode="&#x4d6;" horiz-adv-x="1232" 
d="M87 0l247 1490h908l-28 -167h-718l-80 -487h669l-28 -167h-670l-83 -502h727l-27 -167h-917zM818 1647q-81 0 -140.5 38t-87 102t-14.5 143h132q-11 -69 26 -112t106 -43q46 0 85 19.5t65.5 54.5t33.5 81h132q-13 -79 -62.5 -143.5t-121.5 -102t-154 -37.5z" />
    <glyph glyph-name="uni04D7" unicode="&#x4d7;" horiz-adv-x="1179" 
d="M535 -24q-138 0 -236.5 54t-151.5 155t-53 242q0 147 47 276.5t131 228t194.5 154.5t237.5 56q108 0 188 -37.5t124 -106t44 -161.5q0 -94 -48.5 -160.5t-150.5 -108.5t-261.5 -61.5t-380.5 -19.5l24 136q183 0 306 10.5t195.5 35.5t104 67t31.5 105q0 64 -53.5 102.5
t-140.5 38.5q-113 0 -192.5 -54.5t-129.5 -140t-73.5 -181t-23.5 -178.5q0 -82 27 -148.5t88.5 -105.5t163.5 -39q107 0 190.5 46.5t126.5 126.5l167 -47q-62 -132 -195.5 -208.5t-299.5 -76.5zM730 1275q-81 0 -140.5 38t-87 102t-14.5 143h132q-11 -69 26 -112t106 -43
q46 0 85 19.5t65.5 54.5t33.5 81h132q-13 -79 -62.5 -143.5t-121.5 -102t-154 -37.5z" />
    <glyph glyph-name="uni04D8" unicode="&#x4d8;" horiz-adv-x="1525" 
d="M641 -20q-193 0 -315 87.5t-168 242t-13 356.5l27 163h1134l-28 -166h-1005l58 11q-25 -150 3.5 -267t112 -184t223.5 -67q137 0 257.5 67.5t206 199t116.5 321.5q32 191 -9.5 322.5t-136.5 199.5t-227 68q-80 0 -150.5 -22t-129.5 -63t-106 -98t-82 -128h-196
q38 108 106.5 197.5t160 154t200 100t226.5 35.5q191 0 323.5 -92.5t188.5 -264t17 -408.5q-29 -178 -100.5 -319.5t-177 -241t-236.5 -152t-280 -52.5z" />
    <glyph glyph-name="uni04D9" unicode="&#x4d9;" horiz-adv-x="1179" 
d="M644 1142q138 0 237 -54t151.5 -154.5t52.5 -242.5q0 -147 -47 -276.5t-131 -228t-194.5 -154.5t-237.5 -56q-108 0 -188 37.5t-124 106t-44 161.5q0 94 48.5 160.5t150.5 108.5t261.5 61.5t380.5 19.5l-24 -136q-183 0 -306 -10.5t-195.5 -35.5t-104 -67t-31.5 -105
q0 -64 53.5 -102.5t140.5 -38.5q113 0 192.5 54.5t129.5 140t73.5 181t23.5 178.5q0 82 -27 148.5t-88 105.5t-164 39q-106 0 -190 -46.5t-127 -126.5l-167 47q62 132 195.5 208.5t299.5 76.5z" />
    <glyph glyph-name="uni04DA" unicode="&#x4da;" horiz-adv-x="1525" 
d="M641 -20q-193 0 -315 87.5t-168 242t-13 356.5l27 163h1134l-28 -166h-1005l58 11q-25 -150 3.5 -267t112 -184t223.5 -67q137 0 257.5 67.5t206 199t116.5 321.5q32 191 -9.5 322.5t-136.5 199.5t-227 68q-80 0 -150.5 -22t-129.5 -63t-106 -98t-82 -128h-196
q38 108 106.5 197.5t160 154t200 100t226.5 35.5q191 0 323.5 -92.5t188.5 -264t17 -408.5q-29 -178 -100.5 -319.5t-177 -241t-236.5 -152t-280 -52.5zM1145 1673q-49 0 -78 35t-21 84t49 83.5t90 34.5t77.5 -34.5t20.5 -83.5t-48.5 -84t-89.5 -35zM724 1673q-49 0 -78 35
t-21 84t49 83.5t90 34.5t77.5 -34.5t20.5 -83.5t-48.5 -84t-89.5 -35z" />
    <glyph glyph-name="uni04DB" unicode="&#x4db;" horiz-adv-x="1179" 
d="M644 1142q138 0 237 -54t151.5 -154.5t52.5 -242.5q0 -147 -47 -276.5t-131 -228t-194.5 -154.5t-237.5 -56q-108 0 -188 37.5t-124 106t-44 161.5q0 94 48.5 160.5t150.5 108.5t261.5 61.5t380.5 19.5l-24 -136q-183 0 -306 -10.5t-195.5 -35.5t-104 -67t-31.5 -105
q0 -64 53.5 -102.5t140.5 -38.5q113 0 192.5 54.5t129.5 140t73.5 181t23.5 178.5q0 82 -27 148.5t-88 105.5t-164 39q-106 0 -190 -46.5t-127 -126.5l-167 47q62 132 195.5 208.5t299.5 76.5zM913 1301q-49 0 -78 35t-21 84t49 83.5t90 34.5t77.5 -34.5t20.5 -83.5
t-48.5 -84t-89.5 -35zM492 1301q-49 0 -78 35t-21 84t49 83.5t90 34.5t77.5 -34.5t20.5 -83.5t-48.5 -84t-89.5 -35z" />
    <glyph glyph-name="uni04DC" unicode="&#x4dc;" horiz-adv-x="1966" 
d="M1232 1490l-247 -1490h-190l247 1490h190zM-36 0l609 777l-324 713h231l274 -662h551l491 662h230l-562 -715l352 -775h-218l-289 660h-619l-511 -660h-215zM1378 1673q-49 0 -78 35t-21 84t49 83.5t90 34.5t77.5 -34.5t20.5 -83.5t-48.5 -84t-89.5 -35zM957 1673
q-49 0 -78 35t-21 84t49 83.5t90 34.5t77.5 -34.5t20.5 -83.5t-48.5 -84t-89.5 -35z" />
    <glyph glyph-name="uni04DD" unicode="&#x4dd;" horiz-adv-x="1659" 
d="M-28 0l544 569l-353 549h213l289 -475h89l79 475h180l-79 -475h87l445 475h215l-533 -549l353 -569h-217l-293 477h-85l-78 -477h-180l78 477h-85l-451 -477h-218zM1163 1301q-49 0 -78 35t-21 84t49 83.5t90 34.5t77.5 -34.5t20.5 -83.5t-48.5 -84t-89.5 -35zM742 1301
q-49 0 -78 35t-21 84t49 83.5t90 34.5t77.5 -34.5t20.5 -83.5t-48.5 -84t-89.5 -35z" />
    <glyph glyph-name="uni04DE" unicode="&#x4de;" horiz-adv-x="1264" 
d="M548 -20q-145 0 -252.5 49.5t-161.5 139t-39 207.5h192q-6 -71 28 -122.5t99 -79t149 -27.5q93 0 171.5 32t130.5 90.5t65 136.5q14 81 -16.5 143t-102 97t-182.5 35h-121l28 165h121q86 0 157 31t118 87.5t60 134.5q13 75 -10.5 130t-78 85.5t-135.5 30.5
q-77 0 -148.5 -27.5t-122 -79t-65.5 -123.5h-183q24 118 103 206.5t194 138.5t245 50q138 0 231 -55.5t134.5 -146.5t23.5 -197q-21 -127 -102.5 -215t-200.5 -122l-2 -12q94 -15 153 -64.5t82 -125t7 -168.5q-20 -123 -101 -218.5t-202.5 -150.5t-265.5 -55zM1029 1673
q-49 0 -78 35t-21 84t49 83.5t90 34.5t77.5 -34.5t20.5 -83.5t-48.5 -84t-89.5 -35zM608 1673q-49 0 -78 35t-21 84t49 83.5t90 34.5t77.5 -34.5t20.5 -83.5t-48.5 -84t-89.5 -35z" />
    <glyph glyph-name="uni04DF" unicode="&#x4df;" horiz-adv-x="1011" 
d="M409 -13q-110 0 -197 35.5t-132 100t-33 152.5h184q-6 -57 54 -96t150 -39q66 0 120.5 23.5t90.5 64.5t44 93q14 83 -46.5 133t-173.5 50h-73l21 134h73q98 0 168.5 49.5t82.5 128.5q11 74 -33.5 120.5t-129.5 46.5q-84 0 -155.5 -42t-85.5 -111h-175q17 90 81.5 157.5
t159.5 105t201 37.5q110 0 185.5 -41t109.5 -111t19 -158q-17 -100 -89.5 -161.5t-164.5 -78.5l-1 -8q123 -20 177.5 -89.5t36.5 -175.5q-16 -94 -82 -166t-166.5 -113t-220.5 -41zM838 1301q-49 0 -78 35t-21 84t49 83.5t90 34.5t77.5 -34.5t20.5 -83.5t-48.5 -84
t-89.5 -35zM417 1301q-49 0 -78 35t-21 84t49 83.5t90 34.5t77.5 -34.5t20.5 -83.5t-48.5 -84t-89.5 -35z" />
    <glyph glyph-name="uni04E0" unicode="&#x4e0;" horiz-adv-x="1269" 
d="M554 -20q-135 0 -243.5 47t-168 136t-47.5 213h194q-4 -74 29 -125.5t96 -77.5t147 -26q90 0 169.5 30t135 90.5t70.5 151.5q14 80 -8 148.5t-93 111t-207 42.5h-148l25 151l449 439l2 12h-631l29 167h891l-24 -139l-559 -541l4 31q164 17 273.5 -37.5t158 -156
t27.5 -228.5q-21 -126 -98.5 -225.5t-199 -156.5t-273.5 -57z" />
    <glyph glyph-name="uni04E1" unicode="&#x4e1;" horiz-adv-x="1269" 
d="M492 -392q-135 0 -243.5 47t-168 136t-47.5 213h194q-4 -74 29 -125.5t96 -77.5t147 -26q90 0 169.5 30t135 90.5t70.5 151.5q14 80 -8 148.5t-93 111t-207 42.5h-148l25 151l449 439l2 12h-631l29 167h891l-24 -139l-559 -541l4 31q164 17 273.5 -37.5t158 -156
t27.5 -228.5q-21 -126 -98.5 -225.5t-199 -156.5t-273.5 -57z" />
    <glyph glyph-name="uni04E2" unicode="&#x4e2;" horiz-adv-x="1543" 
d="M1270 0h-190l141 850q7 39 20.5 107.5t33 162.5t43.5 209h34q-93 -128 -156 -214.5t-110 -148.5t-92 -118l-681 -848h-226l247 1490h191l-152 -914q-8 -51 -20 -117t-29 -142.5t-40 -161.5h-27q52 83 104 157t96 132t72 93l764 953h224zM1268 1863l-24 -142h-554l24 142
h554z" />
    <glyph glyph-name="uni04E3" unicode="&#x4e3;" horiz-adv-x="1212" 
d="M961 0h-181l134 806h-13l-664 -806h-171l185 1118h180l-133 -809h12l666 809h170zM1038 1491l-24 -142h-554l24 142h554z" />
    <glyph glyph-name="uni04E4" unicode="&#x4e4;" horiz-adv-x="1543" 
d="M1270 0h-190l141 850q7 39 20.5 107.5t33 162.5t43.5 209h34q-93 -128 -156 -214.5t-110 -148.5t-92 -118l-681 -848h-226l247 1490h191l-152 -914q-8 -51 -20 -117t-29 -142.5t-40 -161.5h-27q52 83 104 157t96 132t72 93l764 953h224zM1169 1673q-49 0 -78 35t-21 84
t49 83.5t90 34.5t77.5 -34.5t20.5 -83.5t-48.5 -84t-89.5 -35zM748 1673q-49 0 -78 35t-21 84t49 83.5t90 34.5t77.5 -34.5t20.5 -83.5t-48.5 -84t-89.5 -35z" />
    <glyph glyph-name="uni04E5" unicode="&#x4e5;" horiz-adv-x="1212" 
d="M961 0h-181l134 806h-13l-664 -806h-171l185 1118h180l-133 -809h12l666 809h170zM939 1301q-49 0 -78 35t-21 84t49 83.5t90 34.5t77.5 -34.5t20.5 -83.5t-48.5 -84t-89.5 -35zM518 1301q-49 0 -78 35t-21 84t49 83.5t90 34.5t77.5 -34.5t20.5 -83.5t-48.5 -84
t-89.5 -35z" />
    <glyph glyph-name="uni04E6" unicode="&#x4e6;" horiz-adv-x="1566" 
d="M699 -20q-169 0 -295 72t-195.5 206.5t-69.5 321.5q0 177 55 343.5t159 298.5t250 210t327 78q169 0 294 -72t194.5 -206t69.5 -321q0 -178 -55 -344.5t-158.5 -299t-249 -210t-326.5 -77.5zM706 156q140 0 251 64t188.5 172t118 241.5t40.5 272.5q0 140 -48.5 235.5
t-134.5 144t-198 48.5q-140 0 -251 -64t-189 -172t-119 -241t-41 -272q0 -140 49 -235.5t135.5 -144.5t198.5 -49zM1179 1673q-49 0 -78 35t-21 84t49 83.5t90 34.5t77.5 -34.5t20.5 -83.5t-48.5 -84t-89.5 -35zM758 1673q-49 0 -78 35t-21 84t49 83.5t90 34.5t77.5 -34.5
t20.5 -83.5t-48.5 -84t-89.5 -35z" />
    <glyph glyph-name="uni04E7" unicode="&#x4e7;" horiz-adv-x="1229" 
d="M528 -24q-135 0 -232 56.5t-149.5 159.5t-52.5 241q0 133 41.5 258t120 224.5t190 158t251.5 58.5q135 0 233 -56t150.5 -159t52.5 -243q0 -135 -42 -260t-121.5 -224t-191 -156.5t-250.5 -57.5zM532 137q103 0 181.5 48t131.5 126.5t80 172.5t27 186q0 85 -27 153
t-84 108t-149 40q-102 0 -180 -48t-131 -127t-80 -173.5t-27 -187.5q0 -126 61 -212t197 -86zM947 1301q-49 0 -78 35t-21 84t49 83.5t90 34.5t77.5 -34.5t20.5 -83.5t-48.5 -84t-89.5 -35zM526 1301q-49 0 -78 35t-21 84t49 83.5t90 34.5t77.5 -34.5t20.5 -83.5t-48.5 -84
t-89.5 -35z" />
    <glyph glyph-name="uni04E8" unicode="&#x4e8;" horiz-adv-x="1566" 
d="M1320 824v-160h-1024v160h1024zM699 -20q-169 0 -295 72t-195.5 206.5t-69.5 321.5q0 177 55 343.5t159 298.5t250 210t327 78q169 0 294 -72t194.5 -206t69.5 -321q0 -178 -55 -344.5t-158.5 -299t-249 -210t-326.5 -77.5zM706 156q140 0 251 64t188.5 172t118 241.5
t40.5 272.5q0 140 -48.5 235.5t-134.5 144t-198 48.5q-140 0 -251 -64t-189 -172t-119 -241t-41 -272q0 -140 49 -235.5t135.5 -144.5t198.5 -49z" />
    <glyph glyph-name="uni04E9" unicode="&#x4e9;" horiz-adv-x="1229" 
d="M528 -24q-135 0 -232 56.5t-149.5 159.5t-52.5 241q0 133 41.5 258t120 224.5t190 158t251.5 58.5q135 0 233 -56t150.5 -159t52.5 -243q0 -135 -42 -260t-121.5 -224t-191 -156.5t-250.5 -57.5zM532 137q103 0 181.5 48t131.5 126.5t80 172.5t27 186q0 85 -27 153
t-84 108t-149 40q-102 0 -180 -48t-131 -127t-80 -173.5t-27 -187.5q0 -126 61 -212t197 -86zM244 424l-68 61q48 50 96 93t98 69t104 26q68 0 119.5 -23.5t94.5 -47t84 -23.5q59 0 106 26.5t99 88.5l72 -55q-48 -57 -95 -100t-97 -67t-108 -24q-68 0 -119.5 23.5t-94 47
t-84.5 23.5q-46 0 -97 -28t-110 -90z" />
    <glyph glyph-name="uni04EA" unicode="&#x4ea;" horiz-adv-x="1566" 
d="M1320 824v-160h-1024v160h1024zM699 -20q-169 0 -295 72t-195.5 206.5t-69.5 321.5q0 177 55 343.5t159 298.5t250 210t327 78q169 0 294 -72t194.5 -206t69.5 -321q0 -178 -55 -344.5t-158.5 -299t-249 -210t-326.5 -77.5zM706 156q140 0 251 64t188.5 172t118 241.5
t40.5 272.5q0 140 -48.5 235.5t-134.5 144t-198 48.5q-140 0 -251 -64t-189 -172t-119 -241t-41 -272q0 -140 49 -235.5t135.5 -144.5t198.5 -49zM1179 1673q-49 0 -78 35t-21 84t49 83.5t90 34.5t77.5 -34.5t20.5 -83.5t-48.5 -84t-89.5 -35zM758 1673q-49 0 -78 35t-21 84
t49 83.5t90 34.5t77.5 -34.5t20.5 -83.5t-48.5 -84t-89.5 -35z" />
    <glyph glyph-name="uni04EB" unicode="&#x4eb;" horiz-adv-x="1229" 
d="M528 -24q-135 0 -232 56.5t-149.5 159.5t-52.5 241q0 133 41.5 258t120 224.5t190 158t251.5 58.5q135 0 233 -56t150.5 -159t52.5 -243q0 -135 -42 -260t-121.5 -224t-191 -156.5t-250.5 -57.5zM532 137q103 0 181.5 48t131.5 126.5t80 172.5t27 186q0 85 -27 153
t-84 108t-149 40q-102 0 -180 -48t-131 -127t-80 -173.5t-27 -187.5q0 -126 61 -212t197 -86zM244 424l-68 61q48 50 96 93t98 69t104 26q68 0 119.5 -23.5t94.5 -47t84 -23.5q59 0 106 26.5t99 88.5l72 -55q-48 -57 -95 -100t-97 -67t-108 -24q-68 0 -119.5 23.5t-94 47
t-84.5 23.5q-46 0 -97 -28t-110 -90zM947 1301q-49 0 -78 35t-21 84t49 83.5t90 34.5t77.5 -34.5t20.5 -83.5t-48.5 -84t-89.5 -35zM526 1301q-49 0 -78 35t-21 84t49 83.5t90 34.5t77.5 -34.5t20.5 -83.5t-48.5 -84t-89.5 -35z" />
    <glyph glyph-name="uni04EC" unicode="&#x4ec;" horiz-adv-x="1493" 
d="M616 -20q-115 0 -210.5 34t-164.5 97.5t-107 154t-39 203.5h190q3 -76 32 -134.5t78 -98.5t113 -60t137 -20q134 0 253 67.5t204 199t116 322.5q32 192 -9.5 323t-138 198.5t-230.5 67.5q-73 0 -143.5 -20t-132.5 -59.5t-110 -98t-77 -135.5h-190q39 116 107.5 206.5
t159.5 153.5t196.5 96t218.5 33q192 0 325.5 -93t190.5 -264.5t18 -406.5q-38 -235 -151.5 -407t-278 -265.5t-357.5 -93.5zM585 677l27 167h692l-28 -167h-691zM1107 1673q-49 0 -78 35t-21 84t49 83.5t90 34.5t77.5 -34.5t20.5 -83.5t-48.5 -84t-89.5 -35zM686 1673
q-49 0 -78 35t-21 84t49 83.5t90 34.5t77.5 -34.5t20.5 -83.5t-48.5 -84t-89.5 -35z" />
    <glyph glyph-name="uni04ED" unicode="&#x4ed;" horiz-adv-x="1168" 
d="M459 -24q-82 0 -151.5 21.5t-122.5 63t-86.5 100t-43.5 133.5l180 49q5 -45 23.5 -83t50.5 -65.5t76.5 -42.5t100.5 -15q112 0 193.5 58t132 152.5t68.5 204.5q19 112 -0.5 207t-81.5 153.5t-174 58.5q-55 0 -103.5 -14.5t-88.5 -41t-70.5 -62.5t-50.5 -79l-165 49
q35 73 87.5 130.5t118.5 97t141.5 60.5t156.5 21q152 0 254.5 -72t145 -202.5t13.5 -305.5q-28 -172 -113.5 -302t-212 -202t-278.5 -72zM896 480h-517l27 162h517zM891 1301q-49 0 -78 35t-21 84t49 83.5t90 34.5t77.5 -34.5t20.5 -83.5t-48.5 -84t-89.5 -35zM470 1301
q-49 0 -78 35t-21 84t49 83.5t90 34.5t77.5 -34.5t20.5 -83.5t-48.5 -84t-89.5 -35z" />
    <glyph glyph-name="uni04EE" unicode="&#x4ee;" horiz-adv-x="1287" 
d="M165 0l27 169h104q70 0 121 22t83 80l38 68l-332 1151h196l123 -444q34 -121 55 -223.5t36.5 -198t32.5 -195.5h-53q52 101 100 196t102 197t123 224l253 444h215l-722 -1244q-41 -71 -90.5 -127t-122.5 -87.5t-188 -31.5h-101zM1126 1863l-24 -142h-554l24 142h554z" />
    <glyph glyph-name="uni04EF" unicode="&#x4ef;" horiz-adv-x="1151" 
d="M-19 -405l72 156l17 -4q55 -13 101.5 -6.5t88 44t81.5 116.5l47 93l-241 1124h188l129 -663q20 -103 29.5 -205.5t22.5 -198.5h-66q45 96 88 198.5t98 205.5l349 663h205l-704 -1285q-48 -88 -105.5 -145.5t-125 -85.5t-147.5 -28q-44 0 -78.5 7t-48.5 14zM1008 1491
l-24 -142h-554l24 142h554z" />
    <glyph glyph-name="uni04F0" unicode="&#x4f0;" horiz-adv-x="1287" 
d="M165 0l27 169h104q70 0 121 22t83 80l38 68l-332 1151h196l123 -444q34 -121 55 -223.5t36.5 -198t32.5 -195.5h-53q52 101 100 196t102 197t123 224l253 444h215l-722 -1244q-41 -71 -90.5 -127t-122.5 -87.5t-188 -31.5h-101zM1027 1673q-49 0 -78 35t-21 84t49 83.5
t90 34.5t77.5 -34.5t20.5 -83.5t-48.5 -84t-89.5 -35zM606 1673q-49 0 -78 35t-21 84t49 83.5t90 34.5t77.5 -34.5t20.5 -83.5t-48.5 -84t-89.5 -35z" />
    <glyph glyph-name="uni04F1" unicode="&#x4f1;" horiz-adv-x="1151" 
d="M-19 -405l72 156l17 -4q55 -13 101.5 -6.5t88 44t81.5 116.5l47 93l-241 1124h188l129 -663q20 -103 29.5 -205.5t22.5 -198.5h-66q45 96 88 198.5t98 205.5l349 663h205l-704 -1285q-48 -88 -105.5 -145.5t-125 -85.5t-147.5 -28q-44 0 -78.5 7t-48.5 14zM909 1301
q-49 0 -78 35t-21 84t49 83.5t90 34.5t77.5 -34.5t20.5 -83.5t-48.5 -84t-89.5 -35zM488 1301q-49 0 -78 35t-21 84t49 83.5t90 34.5t77.5 -34.5t20.5 -83.5t-48.5 -84t-89.5 -35z" />
    <glyph glyph-name="uni04F2" unicode="&#x4f2;" horiz-adv-x="1287" 
d="M165 0l27 169h104q70 0 121 22t83 80l38 68l-332 1151h196l123 -444q34 -121 55 -223.5t36.5 -198t32.5 -195.5h-53q52 101 100 196t102 197t123 224l253 444h215l-722 -1244q-41 -71 -90.5 -127t-122.5 -87.5t-188 -31.5h-101zM639 1636h-147l166 294h200zM967 1636
h-148l217 294h201z" />
    <glyph glyph-name="uni04F3" unicode="&#x4f3;" horiz-adv-x="1151" 
d="M-19 -405l72 156l17 -4q55 -13 101.5 -6.5t88 44t81.5 116.5l47 93l-241 1124h188l129 -663q20 -103 29.5 -205.5t22.5 -198.5h-66q45 96 88 198.5t98 205.5l349 663h205l-704 -1285q-48 -88 -105.5 -145.5t-125 -85.5t-147.5 -28q-44 0 -78.5 7t-48.5 14zM521 1264h-147
l166 294h200zM849 1264h-148l217 294h201z" />
    <glyph glyph-name="uni04F4" unicode="&#x4f4;" horiz-adv-x="1434" 
d="M655 556q-151 0 -255 49t-148 154t-16 273l76 458h190l-76 -457q-18 -108 13.5 -176t101.5 -100t167 -32q126 0 243 42t222 110l-31 -186q-104 -59 -224 -97t-263 -38zM971 0l247 1490h190l-247 -1490h-190zM1101 1673q-49 0 -78 35t-21 84t49 83.5t90 34.5t77.5 -34.5
t20.5 -83.5t-48.5 -84t-89.5 -35zM680 1673q-49 0 -78 35t-21 84t49 83.5t90 34.5t77.5 -34.5t20.5 -83.5t-48.5 -84t-89.5 -35z" />
    <glyph glyph-name="uni04F5" unicode="&#x4f5;" horiz-adv-x="1185" 
d="M549 350q-194 0 -292.5 102.5t-64.5 307.5l59 358h181l-60 -358q-21 -125 39 -184.5t166 -59.5q108 0 198.5 20t184.5 51l-28 -166q-61 -21 -121.5 -37t-124.5 -25t-137 -9zM753 0l185 1118h181l-185 -1118h-181zM927 1301q-49 0 -78 35t-21 84t49 83.5t90 34.5
t77.5 -34.5t20.5 -83.5t-48.5 -84t-89.5 -35zM506 1301q-49 0 -78 35t-21 84t49 83.5t90 34.5t77.5 -34.5t20.5 -83.5t-48.5 -84t-89.5 -35z" />
    <glyph glyph-name="uni04F6" unicode="&#x4f6;" horiz-adv-x="1185" 
d="M1241 1490l-28 -167h-717l-219 -1323h-190l247 1490h907zM190 -320l53 320h-75l27 166h256l-81 -486h-180z" />
    <glyph glyph-name="uni04F7" unicode="&#x4f7;" horiz-adv-x="895" 
d="M945 1118l-27 -166h-514l-158 -952h-180l185 1118h694zM159 -320l53 320h-75l27 166h256l-81 -486h-180z" />
    <glyph glyph-name="uni04F8" unicode="&#x4f8;" horiz-adv-x="1808" 
d="M375 902h405q155 0 258.5 -54t148 -153.5t22.5 -234.5q-23 -141 -99 -244.5t-195.5 -159.5t-274.5 -56h-553l247 1490h190l-220 -1325h355q96 0 172 36t125.5 102t64.5 155q15 87 -11 149t-89 95t-159 33h-414zM1782 1490l-247 -1490h-190l247 1490h190zM1265 1673
q-49 0 -78 35t-21 84t49 83.5t90 34.5t77.5 -34.5t20.5 -83.5t-48.5 -84t-89.5 -35zM844 1673q-49 0 -78 35t-21 84t49 83.5t90 34.5t77.5 -34.5t20.5 -83.5t-48.5 -84t-89.5 -35z" />
    <glyph glyph-name="uni04F9" unicode="&#x4f9;" horiz-adv-x="1509" 
d="M337 717h321q133 0 216.5 -46t117 -126t16.5 -183q-17 -102 -78.5 -184t-160.5 -130t-230 -48h-473l185 1118h180l-158 -952h293q102 0 174 53.5t85 134.5q14 86 -40 141t-155 55h-322zM1078 0l185 1118h180l-185 -1118h-180zM1082 1301q-49 0 -78 35t-21 84t49 83.5
t90 34.5t77.5 -34.5t20.5 -83.5t-48.5 -84t-89.5 -35zM661 1301q-49 0 -78 35t-21 84t49 83.5t90 34.5t77.5 -34.5t20.5 -83.5t-48.5 -84t-89.5 -35z" />
    <glyph glyph-name="uni04FA" unicode="&#x4fa;" horiz-adv-x="1212" 
d="M1268 1490l-28 -167h-717l-219 -1323h-190l247 1490h907zM38 668l25 154h813l-25 -154h-813zM86 -428q-31 0 -59.5 3.5t-51.5 10.5l40 155q26 -4 52 -6t51 -2q61 0 104 38t57 125l17 104h-77l27 164h251l-41 -245q-28 -170 -124.5 -258.5t-245.5 -88.5z" />
    <glyph glyph-name="uni04FB" unicode="&#x4fb;" horiz-adv-x="895" 
d="M945 1118l-27 -166h-514l-158 -952h-180l185 1118h694zM-3 489l23 138h646l-23 -138h-646zM28 -428q-31 0 -59.5 3.5t-51.5 10.5l40 155q26 -4 52 -6t51 -2q61 0 104 38t57 125l17 104h-77l27 164h251l-41 -245q-28 -170 -124.5 -258.5t-245.5 -88.5z" />
    <glyph glyph-name="uni04FC" unicode="&#x4fc;" horiz-adv-x="1437" 
d="M-36 0l720 833l-23 -141l-417 798h211l162 -316q36 -69 58.5 -117t40.5 -94t39 -111h-33q43 64 77 110.5t73 95t98 116.5l272 316h224l-681 -790l23 140l439 -840h-211l-198 378q-32 62 -53.5 106.5t-39 89t-38.5 106.5h40q-40 -61 -73 -106t-70 -89.5t-90 -106.5
l-326 -378h-224zM957 -428q-31 0 -59.5 3.5t-51.5 10.5l40 155q26 -4 52 -6t51 -2q61 0 104 38t57 125l17 104h-77l27 164h251l-41 -245q-28 -170 -124.5 -258.5t-245.5 -88.5z" />
    <glyph glyph-name="uni04FD" unicode="&#x4fd;" horiz-adv-x="1066" 
d="M502 -436q-31 0 -59.5 3.5t-51.5 10.5l42 170q17 -6 51.5 -11t57.5 -5q66 0 107 46.5t55 134.5q6 37 3 66t-16.5 63t-38.5 87l-141 298l-332 -427h-207l444 558l-258 560h207l186 -449l336 449h207l-449 -560l166 -354q47 -99 61 -172t0 -152q-17 -99 -67.5 -170
t-127.5 -108.5t-175 -37.5z" />
    <glyph glyph-name="uni04FE" unicode="&#x4fe;" horiz-adv-x="1397" 
d="M197 699l22 134h1038l-22 -134h-1038zM-36 0l720 833l-23 -141l-417 798h211l162 -316q36 -69 58.5 -117t40.5 -94t39 -111h-33q43 64 77 110.5t73 95t98 116.5l272 316h224l-681 -790l23 140l439 -840h-211l-198 378q-32 62 -53.5 106.5t-39 89t-38.5 106.5h40
q-40 -61 -73 -106t-70 -89.5t-90 -106.5l-326 -378h-224z" />
    <glyph glyph-name="uni04FF" unicode="&#x4ff;" horiz-adv-x="1118" 
d="M103 502l22 134h882l-22 -134h-882zM-28 0l548 643l-24 -138l-316 613h202l104 -217q41 -84 67.5 -157t57.5 -141h-94q54 68 102 141t116 157l178 217h214l-521 -621l21 133l333 -630h-204l-123 251q-40 82 -66 152.5t-57 135.5h95q-52 -65 -98.5 -135.5t-114.5 -152.5
l-207 -251h-213z" />
    <glyph glyph-name="uni052F" unicode="&#x52f;" horiz-adv-x="1209" 
d="M-72 0l27 166h40q50 0 86.5 20t65.5 69.5t55 138t54 226.5l103 498h754l-185 -1118h-181l158 952h-402l-83 -395q-39 -188 -93 -311.5t-135 -184.5t-203 -61h-61zM841 -320l53 320h-75l27 166h256l-81 -486h-180z" />
    <glyph glyph-name="uni20B4" unicode="&#x20b4;" horiz-adv-x="1296" 
d="M783 1343q-129 0 -197.5 -57.5t-83.5 -154.5h-205q18 102 76.5 188t166 138.5t270.5 52.5q133 0 222.5 -38t128.5 -115.5t20 -194.5q-10 -64 -46.5 -125.5t-98.5 -108.5l-164 52q38 41 75 87.5t45 96.5q14 82 -38 130.5t-171 48.5zM1229 825h-1075l27 163h1075zM1179 522
h-1075l26 163h1076zM550 -20q-210 0 -318 89.5t-80 258.5q7 42 26.5 85t51.5 82.5t75 67.5l189 -26q-66 -51 -98.5 -99t-42.5 -107q-14 -85 45.5 -132t180.5 -47q115 0 198.5 47.5t100.5 156.5h205q-21 -129 -94 -212t-185.5 -123.5t-253.5 -40.5z" />
    <glyph glyph-name="uni2DFF" unicode="&#x2dff;" 
d="M-744 1512h407l-14 -103h-409zM-812 1754h134l-90 -552h-134zM-105 1754h148l-298 -352h-62l-10 57zM-533 1754h148l122 -297l-26 -55h-62zM-400 1202l49 302h125l-49 -302h-125zM-436 1754h377l-51 -103h-314zM-543 1202h-125l13 81q18 113 85.5 171.5t202.5 58.5h162
q72 0 125.5 -19.5t78.5 -69.5t11 -141l-12 -81h-125l11 81q11 77 -10.5 101.5t-92.5 24.5h-163q-57 0 -95.5 -18.5t-52.5 -107.5z" />
    <glyph glyph-name="uniA69F" unicode="&#xa69f;" 
d="M-423 1536l-20 -109h-179l20 109h179zM-544 1754l-92 -552h-132l90 552h134zM-279 1186q-121 0 -182 77t-36 201l4 20q17 83 60.5 145t107.5 96.5t139 34.5q55 0 103.5 -20.5t75.5 -62t17 -104.5h-119q2 38 -22.5 58t-71.5 20q-45 0 -76.5 -21t-50.5 -58.5t-29 -87.5
l-4 -20q-10 -52 -3 -90t33 -58t72 -20q48 0 79 22.5t42 71.5h118q-13 -88 -87.5 -146t-169.5 -58zM-430 1426l18 98h246l-18 -98h-246z" />
    <glyph glyph-name="AE" horiz-adv-x="2036" 
d="M-41 0l963 1490h1122l-28 -167h-716l-81 -493h669l-28 -168h-669l-82 -495h727l-28 -167h-917l219 1319h-108l-834 -1319h-209zM371 416l27 166h686l-27 -166h-686z" />
    <glyph glyph-name="C" horiz-adv-x="1495" 
d="M698 -20q-169 0 -295 72t-195 206.5t-69 321.5q0 176 55 342.5t158 299t249 210.5t328 78q115 0 211.5 -33t168 -96t111 -153.5t40.5 -206.5h-190q-3 76 -30.5 134t-74.5 98t-109 60.5t-134 20.5q-140 0 -251 -64t-188.5 -172t-118.5 -241.5t-41 -271.5q0 -140 49 -236
t135 -144.5t198 -48.5q76 0 148.5 20.5t136 60.5t112.5 98t77 134h191q-39 -114 -106 -204t-156.5 -154t-193.5 -97.5t-216 -33.5z" />
    <glyph glyph-name="E" horiz-adv-x="1232" 
d="M87 0l247 1490h908l-28 -167h-718l-80 -487h669l-28 -167h-670l-83 -502h727l-27 -167h-917z" />
    <glyph glyph-name="H" horiz-adv-x="1522" 
d="M87 0l247 1490h190l-107 -644h782l107 644h190l-247 -1490h-190l113 678h-783l-112 -678h-190z" />
    <glyph glyph-name="I" horiz-adv-x="550" 
d="M524 1490l-247 -1490h-190l247 1490h190z" />
    <glyph glyph-name="M" horiz-adv-x="1850" 
d="M87 0l247 1490h270l211 -940q8 -34 16.5 -84.5t17 -108.5t16 -115t12.5 -104h-42q23 50 50 108t54.5 115.5t52 106.5t42.5 82l519 940h271l-247 -1490h-187l140 851q8 50 19 112t23.5 128t25 130.5t22.5 120.5h16q-33 -70 -68.5 -142t-69 -138t-62 -120.5t-48.5 -90.5
l-474 -851h-165l-197 851q-10 46 -24.5 123.5t-31 173.5t-34.5 194h19q-8 -60 -17.5 -126t-19.5 -131.5t-19 -125.5t-17 -108l-140 -851h-181z" />
    <glyph glyph-name="uni0418" horiz-adv-x="1543" 
d="M1270 0h-190l141 850q7 39 20.5 107.5t33 162.5t43.5 209h34q-93 -128 -156 -214.5t-110 -148.5t-92 -118l-681 -848h-226l247 1490h191l-152 -914q-8 -51 -20 -117t-29 -142.5t-40 -161.5h-27q52 83 104 157t96 132t72 93l764 953h224z" />
    <glyph glyph-name="O" horiz-adv-x="1566" 
d="M699 -20q-169 0 -295 72t-195.5 206.5t-69.5 321.5q0 177 55 343.5t159 298.5t250 210t327 78q169 0 294 -72t194.5 -206t69.5 -321q0 -178 -55 -344.5t-158.5 -299t-249 -210t-326.5 -77.5zM706 156q140 0 251 64t188.5 172t118 241.5t40.5 272.5q0 140 -48.5 235.5
t-134.5 144t-198 48.5q-140 0 -251 -64t-189 -172t-119 -241t-41 -272q0 -140 49 -235.5t135.5 -144.5t198.5 -49z" />
    <glyph glyph-name="uni03F4" horiz-adv-x="1566" 
d="M1320 824v-160h-1024v160h1024zM699 -20q-169 0 -295 72t-195.5 206.5t-69.5 321.5q0 177 55 343.5t159 298.5t250 210t327 78q169 0 294 -72t194.5 -206t69.5 -321q0 -178 -55 -344.5t-158.5 -299t-249 -210t-326.5 -77.5zM706 156q140 0 251 64t188.5 172t118 241.5
t40.5 272.5q0 140 -48.5 235.5t-134.5 144t-198 48.5q-140 0 -251 -64t-189 -172t-119 -241t-41 -272q0 -140 49 -235.5t135.5 -144.5t198.5 -49z" />
    <glyph glyph-name="T" horiz-adv-x="1324" 
d="M226 1323l28 167h1126l-28 -167h-467l-219 -1323h-190l219 1323h-469z" />
    <glyph glyph-name="X" horiz-adv-x="1397" 
d="M-36 0l720 833l-23 -141l-417 798h211l162 -316q36 -69 58.5 -117t40.5 -94t39 -111h-33q43 64 77 110.5t73 95t98 116.5l272 316h224l-681 -790l23 140l439 -840h-211l-198 378q-32 62 -53.5 106.5t-39 89t-38.5 106.5h40q-40 -61 -73 -106t-70 -89.5t-90 -106.5
l-326 -378h-224z" />
    <glyph glyph-name="Y" horiz-adv-x="1390" 
d="M507 0l101 610l-402 880h206l215 -481q36 -81 62.5 -154.5t49.5 -185.5h-76q60 114 111 188.5t111 151.5l374 481h233l-694 -880l-101 -610h-190z" />
    <glyph glyph-name="a" horiz-adv-x="1257" 
d="M481 -24q-139 0 -234 71.5t-133.5 202t-9.5 307.5q30 178 112 306.5t201 198.5t258 70q108 0 166 -35.5t84.5 -81t40.5 -76.5h15l29 179h181l-185 -1118h-175l28 173h-21q-25 -33 -68 -79.5t-113 -82t-176 -35.5zM537 137q102 0 180.5 54t130.5 149t72 219
q21 124 0.5 216.5t-82 144t-163.5 51.5q-107 0 -187.5 -55.5t-131 -148.5t-69.5 -208q-19 -117 1 -213t82 -152.5t167 -56.5z" />
    <glyph glyph-name="ae" horiz-adv-x="1859" 
d="M391 -16q-173 0 -262.5 92.5t-63.5 247.5q13 77 59 145.5t139 111.5t246 43q54 0 102.5 0.5t105 0.5h133.5l-12 -138q-78 0 -161 -1t-156 -1q-110 0 -187 -40t-91 -125q-15 -89 31.5 -134.5t147.5 -45.5q105 0 176.5 38.5t112.5 99.5t53 128l67 359q21 113 -26.5 166.5
t-178.5 53.5q-70 0 -127.5 -22.5t-95.5 -63.5t-53 -98l-182 2q21 101 87.5 177t167.5 118.5t225 42.5q125 0 210.5 -44.5t123.5 -124.5t20 -186l-88 -532l-17 -1q-40 -78 -109 -138.5t-167.5 -95.5t-229.5 -35zM1215 -24q-138 0 -234 53.5t-146 154.5t-50 241q0 149 46 279
t128 228.5t190.5 154t234.5 55.5q108 0 188 -37.5t124 -106t44 -161.5q0 -94 -48.5 -160.5t-150.5 -108.5t-261 -61.5t-381 -19.5l24 136q183 0 306 10.5t195.5 35.5t104 67t31.5 105q0 64 -53.5 102.5t-140.5 38.5q-93 0 -175 -47.5t-138.5 -129t-73.5 -182.5
q-11 -67 -17 -105t-8 -59t-2 -38q0 -138 70.5 -212t203.5 -74q108 0 191.5 47t125.5 126l167 -45q-62 -133 -195 -210t-300 -77z" />
    <glyph glyph-name="c" horiz-adv-x="1171" 
d="M528 -24q-135 0 -232 56.5t-149.5 159.5t-52.5 241q0 133 41.5 258t119.5 224.5t189.5 158t252.5 58.5q83 0 153.5 -21.5t124 -62.5t87.5 -99t45 -131l-176 -39q-5 43 -23 78t-48 60.5t-71.5 39.5t-95.5 14q-102 0 -180 -48t-131.5 -127t-80.5 -173.5t-27 -187.5
q0 -83 26.5 -151t83.5 -107.5t148 -39.5q58 0 109.5 16t94 44.5t74.5 67t51 83.5l166 -58q-34 -74 -86 -132t-117 -98.5t-140 -62t-156 -21.5z" />
    <glyph glyph-name="e" horiz-adv-x="1179" 
d="M535 -24q-138 0 -236.5 54t-151.5 155t-53 242q0 147 47 276.5t131 228t194.5 154.5t237.5 56q108 0 188 -37.5t124 -106t44 -161.5q0 -94 -48.5 -160.5t-150.5 -108.5t-261.5 -61.5t-380.5 -19.5l24 136q183 0 306 10.5t195.5 35.5t104 67t31.5 105q0 64 -53.5 102.5
t-140.5 38.5q-113 0 -192.5 -54.5t-129.5 -140t-73.5 -181t-23.5 -178.5q0 -82 27 -148.5t88.5 -105.5t163.5 -39q107 0 190.5 46.5t126.5 126.5l167 -47q-62 -132 -195.5 -208.5t-299.5 -76.5z" />
    <glyph glyph-name="eturn" horiz-adv-x="1179" 
d="M644 1142q138 0 237 -54t151.5 -154.5t52.5 -242.5q0 -147 -47 -276.5t-131 -228t-194.5 -154.5t-237.5 -56q-108 0 -188 37.5t-124 106t-44 161.5q0 94 48.5 160.5t150.5 108.5t261.5 61.5t380.5 19.5l-24 -136q-183 0 -306 -10.5t-195.5 -35.5t-104 -67t-31.5 -105
q0 -64 53.5 -102.5t140.5 -38.5q113 0 192.5 54.5t129.5 140t73.5 181t23.5 178.5q0 82 -27 148.5t-88 105.5t-164 39q-106 0 -190 -46.5t-127 -126.5l-167 47q62 132 195.5 208.5t299.5 76.5z" />
    <glyph glyph-name="h" horiz-adv-x="1211" 
d="M356 670l-111 -670h-180l247 1490h180l-107 -643h-31q52 105 114.5 167.5t135.5 90t156 27.5q113 0 193 -46.5t114.5 -140t10.5 -235.5l-118 -710h-181l116 695q22 131 -35 203t-173 72q-79 0 -148.5 -35t-118 -101.5t-64.5 -163.5z" />
    <glyph glyph-name="dotlessi" horiz-adv-x="497" 
d="M66 0l185 1118h180l-185 -1118h-180z" />
    <glyph glyph-name="l" horiz-adv-x="496" 
d="M492 1490l-247 -1490h-180l247 1490h180z" />
    <glyph glyph-name="o" horiz-adv-x="1229" 
d="M528 -24q-135 0 -232 56.5t-149.5 159.5t-52.5 241q0 133 41.5 258t120 224.5t190 158t251.5 58.5q135 0 233 -56t150.5 -159t52.5 -243q0 -135 -42 -260t-121.5 -224t-191 -156.5t-250.5 -57.5zM532 137q103 0 181.5 48t131.5 126.5t80 172.5t27 186q0 85 -27 153
t-84 108t-149 40q-102 0 -180 -48t-131 -127t-80 -173.5t-27 -187.5q0 -126 61 -212t197 -86z" />
    <glyph glyph-name="x" horiz-adv-x="1118" 
d="M-28 0l548 643l-24 -138l-316 613h202l104 -217q41 -84 67.5 -157t57.5 -141h-94q54 68 102 141t116 157l178 217h214l-521 -621l21 133l333 -630h-204l-123 251q-40 82 -66 152.5t-57 135.5h95q-52 -65 -98.5 -135.5t-114.5 -152.5l-207 -251h-213z" />
    <glyph glyph-name="y" horiz-adv-x="1151" 
d="M-19 -405l72 156l17 -4q55 -13 101.5 -6.5t88 44t81.5 116.5l47 93l-241 1124h188l129 -663q20 -103 29.5 -205.5t22.5 -198.5h-66q45 96 88 198.5t98 205.5l349 663h205l-704 -1285q-48 -88 -105.5 -145.5t-125 -85.5t-147.5 -28q-44 0 -78.5 7t-48.5 14z" />
    <glyph glyph-name="Pi" horiz-adv-x="1522" 
d="M1495 1490l-246 -1490h-190l219 1323h-782l-219 -1323h-190l247 1490h1161z" />
    <glyph glyph-name="Psi" horiz-adv-x="1803" 
d="M1593 1490h184l-64 -385q-37 -222 -134 -371t-254.5 -224t-376.5 -75h-134q-160 0 -276 40.5t-185 123.5t-90.5 209t7.5 297l65 385h184l-63 -374q-32 -190 -4 -304.5t123 -165.5t264 -51h136q170 0 281 51t176.5 165.5t97.5 304.5zM964 1490h183l-247 -1490h-183z" />
    <glyph glyph-name="uni0416" horiz-adv-x="1966" 
d="M1232 1490l-247 -1490h-190l247 1490h190zM-36 0l609 777l-324 713h231l274 -662h551l491 662h230l-562 -715l352 -775h-218l-289 660h-619l-511 -660h-215z" />
    <glyph glyph-name="Kacyr" horiz-adv-x="1376" 
d="M87 0l247 1490h190l-107 -649h208l594 649h230l-675 -722l452 -768h-228l-392 676h-218l-111 -676h-190z" />
    <glyph glyph-name="uni041B" horiz-adv-x="1535" 
d="M8 0l27 167h40q71 0 118.5 29t83.5 108t73 227l239 959h920l-247 -1490h-190l219 1323h-558l-199 -808q-33 -132 -72 -229.5t-93 -160.5t-128.5 -94t-177.5 -31h-55z" />
    <glyph glyph-name="uni0423" horiz-adv-x="1287" 
d="M165 0l27 169h104q70 0 121 22t83 80l38 68l-332 1151h196l123 -444q34 -121 55 -223.5t36.5 -198t32.5 -195.5h-53q52 101 100 196t102 197t123 224l253 444h215l-722 -1244q-41 -71 -90.5 -127t-122.5 -87.5t-188 -31.5h-101z" />
    <glyph glyph-name="uni0427" horiz-adv-x="1434" 
d="M655 556q-151 0 -255 49t-148 154t-16 273l76 458h190l-76 -457q-18 -108 13.5 -176t101.5 -100t167 -32q126 0 243 42t222 110l-31 -186q-104 -59 -224 -97t-263 -38zM971 0l247 1490h190l-247 -1490h-190z" />
    <glyph glyph-name="uni042C" horiz-adv-x="1329" 
d="M375 902h405q155 0 258.5 -54t148 -153.5t22.5 -234.5q-23 -141 -99 -244.5t-195.5 -159.5t-274.5 -56h-553l247 1490h190l-220 -1325h355q96 0 172 36t125.5 102t64.5 155q15 87 -11 149t-89 95t-159 33h-414z" />
    <glyph glyph-name="uni042D" horiz-adv-x="1493" 
d="M616 -20q-115 0 -210.5 34t-164.5 97.5t-107 154t-39 203.5h190q3 -76 32 -134.5t78 -98.5t113 -60t137 -20q134 0 253 67.5t204 199t116 322.5q32 192 -9.5 323t-138 198.5t-230.5 67.5q-73 0 -143.5 -20t-132.5 -59.5t-110 -98t-77 -135.5h-190q39 116 107.5 206.5
t159.5 153.5t196.5 96t218.5 33q192 0 325.5 -93t190.5 -264.5t18 -406.5q-38 -235 -151.5 -407t-278 -265.5t-357.5 -93.5zM585 677l27 167h692l-28 -167h-691z" />
    <glyph glyph-name="gamma" horiz-adv-x="1151" 
d="M392 -20l-245 1138h197l128 -663q20 -103 30 -205.5t23 -198.5h-66q45 96 88 198.5t98 205.5l348 663h197l-623 -1138h-175zM324 -418l70 426h180l-70 -426h-180z" />
    <glyph glyph-name="psi" horiz-adv-x="1594" 
d="M612 -20q-173 0 -284.5 69t-154 204t-10.5 332l88 533h180l-88 -533q-25 -154 2.5 -252.5t102.5 -145t190 -46.5h180q115 0 205.5 46.5t151 145t85.5 252.5l88 533h180l-88 -533q-32 -194 -118 -329t-220 -205.5t-310 -70.5h-180zM546 -418l298 1802h180l-298 -1802h-180
z" />
    <glyph glyph-name="uni0433" horiz-adv-x="895" 
d="M945 1118l-27 -166h-514l-158 -952h-180l185 1118h694z" />
    <glyph glyph-name="uni0436" horiz-adv-x="1659" 
d="M-28 0l544 569l-353 549h213l289 -475h89l79 475h180l-79 -475h87l445 475h215l-533 -549l353 -569h-217l-293 477h-85l-78 -477h-180l78 477h-85l-451 -477h-218z" />
    <glyph glyph-name="uni0437" horiz-adv-x="1011" 
d="M409 -13q-110 0 -197 35.5t-132 100t-33 152.5h184q-6 -57 54 -96t150 -39q66 0 120.5 23.5t90.5 64.5t44 93q14 83 -46.5 133t-173.5 50h-73l21 134h73q98 0 168.5 49.5t82.5 128.5q11 74 -33.5 120.5t-129.5 46.5q-84 0 -155.5 -42t-85.5 -111h-175q17 90 81.5 157.5
t159.5 105t201 37.5q110 0 185.5 -41t109.5 -111t19 -158q-17 -100 -89.5 -161.5t-164.5 -78.5l-1 -8q123 -20 177.5 -89.5t36.5 -175.5q-16 -94 -82 -166t-166.5 -113t-220.5 -41z" />
    <glyph glyph-name="uni0438" horiz-adv-x="1212" 
d="M961 0h-181l134 806h-13l-664 -806h-171l185 1118h180l-133 -809h12l666 809h170z" />
    <glyph glyph-name="uni043A" horiz-adv-x="1112" 
d="M66 0l185 1118h180l-79 -484h111l478 484h228l-535 -541l356 -577h-228l-284 468h-154l-78 -468h-180z" />
    <glyph glyph-name="uni043B" horiz-adv-x="1179" 
d="M-72 0l27 166h40q50 0 86.5 20t65.5 69.5t55 138t54 226.5l103 498h754l-185 -1118h-181l158 952h-402l-83 -395q-39 -188 -93 -311.5t-135 -184.5t-203 -61h-61z" />
    <glyph glyph-name="uni0447" horiz-adv-x="1185" 
d="M549 350q-194 0 -292.5 102.5t-64.5 307.5l59 358h181l-60 -358q-21 -125 39 -184.5t166 -59.5q108 0 198.5 20t184.5 51l-28 -166q-61 -21 -121.5 -37t-124.5 -25t-137 -9zM753 0l185 1118h181l-185 -1118h-181z" />
    <glyph glyph-name="uni044C" horiz-adv-x="1145" 
d="M337 717h321q133 0 216.5 -46t117 -126t16.5 -183q-17 -102 -78.5 -184t-160.5 -130t-230 -48h-473l185 1118h180l-158 -952h293q102 0 174 53.5t85 134.5q14 86 -40 141t-155 55h-322z" />
    <glyph glyph-name="uni044D" horiz-adv-x="1168" 
d="M459 -24q-82 0 -151.5 21.5t-122.5 63t-86.5 100t-43.5 133.5l180 49q5 -45 23.5 -83t50.5 -65.5t76.5 -42.5t100.5 -15q112 0 193.5 58t132 152.5t68.5 204.5q19 112 -0.5 207t-81.5 153.5t-174 58.5q-55 0 -103.5 -14.5t-88.5 -41t-70.5 -62.5t-50.5 -79l-165 49
q35 73 87.5 130.5t118.5 97t141.5 60.5t156.5 21q152 0 254.5 -72t145 -202.5t13.5 -305.5q-28 -172 -113.5 -302t-212 -202t-278.5 -72zM896 480h-517l27 162h517z" />
    <glyph glyph-name="three" horiz-adv-x="1264" 
d="M548 -20q-145 0 -252.5 49.5t-161.5 139t-39 207.5h192q-6 -71 28 -122.5t99 -79t149 -27.5q93 0 171.5 32t130.5 90.5t65 136.5q14 81 -16.5 143t-102 97t-182.5 35h-121l28 165h121q86 0 157 31t118 87.5t60 134.5q13 75 -10.5 130t-78 85.5t-135.5 30.5
q-77 0 -148.5 -27.5t-122 -79t-65.5 -123.5h-183q24 118 103 206.5t194 138.5t245 50q138 0 231 -55.5t134.5 -146.5t23.5 -197q-21 -127 -102.5 -215t-200.5 -122l-2 -12q94 -15 153 -64.5t82 -125t7 -168.5q-20 -123 -101 -218.5t-202.5 -150.5t-265.5 -55z" />
    <glyph glyph-name="three.1" horiz-adv-x="1269" 
d="M554 -20q-135 0 -243.5 47t-168 136t-47.5 213h194q-4 -74 29 -125.5t96 -77.5t147 -26q90 0 169.5 30t135 90.5t70.5 151.5q14 80 -8 148.5t-93 111t-207 42.5h-148l25 151l449 439l2 12h-631l29 167h891l-24 -139l-559 -541l4 31q164 17 273.5 -37.5t158 -156
t27.5 -228.5q-21 -126 -98.5 -225.5t-199 -156.5t-273.5 -57z" />
    <glyph glyph-name="space.tf" horiz-adv-x="550" 
 />
    <glyph glyph-name="uni00A0.tf" horiz-adv-x="550" 
 />
    <glyph glyph-name="hungarumlaut" horiz-adv-x="1017" 
d="M434 1264h-147l166 294h200zM762 1264h-148l217 294h201z" />
    <glyph glyph-name="uni030F" 
d="M814 1264l-120 294h200l68 -294h-148zM487 1264l-172 294h201l119 -294h-148z" />
    <glyph glyph-name="uni0304" 
d="M921 1491l-24 -142h-554l24 142h554z" />
    <glyph glyph-name="h.sc" horiz-adv-x="1206" 
d="M925 657l-28 -166h-613l28 166h613zM431 1118l-185 -1118h-180l185 1118h180zM1140 1118l-185 -1118h-180l185 1118h180z" />
    <glyph glyph-name="m.sc" horiz-adv-x="1578" 
d="M66 0l185 1118h265l152 -618q15 -59 24.5 -111t15.5 -99t10.5 -90.5t7.5 -85.5h-30q18 45 36.5 89t40 90.5t47.5 97.5t59 109l353 618h280l-185 -1118h-181l97 584q9 54 19.5 113t21 119.5t21.5 119.5t21 113h20q-37 -88 -70 -160t-71 -144t-90 -161l-341 -584h-158
l-150 584q-22 88 -36.5 159t-23.5 143.5t-18 162.5h24q-9 -59 -17 -117t-16.5 -115.5t-17.5 -115.5t-19 -117l-97 -584h-179z" />
    <glyph glyph-name="t.sc" horiz-adv-x="955" 
d="M296 0l158 952h-368l27 166h914l-27 -166h-366l-158 -952h-180z" />
    <glyph glyph-name="uni0413" horiz-adv-x="1185" 
d="M1241 1490l-28 -167h-717l-219 -1323h-190l247 1490h907z" />
    <glyph glyph-name="uni0308" 
d="M939 1301q-49 0 -78 35t-21 84t49 83.5t90 34.5t77.5 -34.5t20.5 -83.5t-48.5 -84t-89.5 -35zM518 1301q-49 0 -78 35t-21 84t49 83.5t90 34.5t77.5 -34.5t20.5 -83.5t-48.5 -84t-89.5 -35z" />
    <glyph glyph-name="uni0306" 
d="M506 1275q-81 0 -140.5 38t-87 102t-14.5 143h132q-11 -69 26 -112t106 -43q46 0 85 19.5t65.5 54.5t33.5 81h132q-13 -79 -62.5 -143.5t-121.5 -102t-154 -37.5z" />
    <glyph glyph-name="uni0327" 
d="M-7 -418l17 105h118q55 0 79 14.5t30 50.5t-12 51t-75 15h-82l68 230h95l-8 -48l-14 -86q95 -4 135 -41.5t27 -117.5q-14 -89 -75 -131t-184 -42h-119z" />
    <glyph glyph-name="_part.crossbar_vert" horiz-adv-x="419" 
d="M106 422l107 646h162l-107 -646h-162z" />
    <glyph glyph-name="_part.cyrtail" horiz-adv-x="575" 
d="M15 -320l148 320h-65l27 166h294l-225 -486h-179z" />
    <glyph glyph-name="_part.cyrtic" horiz-adv-x="378" 
d="M-14 -320l53 320h-75l27 166h256l-81 -486h-180z" />
    <glyph glyph-name="_part.cyrtic_center" horiz-adv-x="436" 
d="M-18 -320l64 384h180l-64 -384h-180z" />
    <glyph glyph-name="_part.cyrtic_hook" horiz-adv-x="526" 
d="M0 -428q-31 0 -59.5 3.5t-51.5 10.5l40 155q26 -4 52 -6t51 -2q61 0 104 38t57 125l17 104h-77l27 164h251l-41 -245q-28 -170 -124.5 -258.5t-245.5 -88.5z" />
    <glyph glyph-name="_part.fitacy_bar" horiz-adv-x="1216" 
d="M240 424l-68 61q48 50 96 93t98 69t104 26q68 0 119.5 -23.5t94.5 -47t84 -23.5q59 0 106 26.5t99 88.5l72 -55q-48 -57 -95 -100t-97 -67t-108 -24q-68 0 -119.5 23.5t-94 47t-84.5 23.5q-46 0 -97 -28t-110 -90z" />
    <glyph glyph-name="largerighthook" horiz-adv-x="1083" 
d="M278 -89l28 176h107q153 0 259.5 86t131.5 236q26 155 -52 244.5t-230 89.5q-157 0 -263.5 -95t-133.5 -259h-89q29 176 97 294t174 177.5t247 59.5q155 0 262.5 -65t155.5 -180t23 -264t-111 -261.5t-215 -175.5t-284 -63h-107z" />
    <glyph glyph-name="crossbar" horiz-adv-x="927" 
d="M160 676l23 138h646l-23 -138h-646z" />
    <glyph glyph-name="crossbar.uc" horiz-adv-x="914" 
d="M69 668l25 154h813l-25 -154h-813z" />
    </font>
</defs>
</svg>
