<?xml version="1.0" standalone="no"?>
<!DOCTYPE svg PUBLIC "-//W3C//DTD SVG 1.1//EN" "http://www.w3.org/Graphics/SVG/1.1/DTD/svg11.dtd" >
<svg xmlns="http://www.w3.org/2000/svg" xmlns:xlink="http://www.w3.org/1999/xlink" version="1.1">
<metadata>
Created by FontForge 20200511 at Fri May 24 18:06:22 2024
 By convertio
Copyright 2016 The Inter Project Authors (https://github.com/rsms/inter)
</metadata>
<defs>
<font id="Inter-Italic" horiz-adv-x="1413" >
  <font-face 
    font-family="Inter"
    font-weight="400"
    font-style="italic"
    font-stretch="normal"
    units-per-em="2048"
    panose-1="2 0 5 3 0 0 0 2 0 4"
    ascent="1638"
    descent="-410"
    x-height="1118"
    cap-height="1490"
    bbox="-187 -494 1903 1910"
    underline-thickness="140"
    underline-position="-418"
    slope="-9.3988"
    unicode-range="U+0020-03FF"
  />
<missing-glyph horiz-adv-x="1344" 
d="M855 -416h-688l376 2272h688zM388 -192l-10 -64h320l10 64h-215l236 127l11 65h-320l-11 -64h216zM473 320l-42 -256h320l42 256h-320zM697 128h-192l21 128h192zM537 704l-43 -256h320l43 256h-192l-22 -128h64l11 64h64l-21 -128h-192l32 192h-64zM558 832l-11 -64h320
l37 224h-64l-26 -160h-256zM579 960l-11 -64h192l27 160h128l10 64h-320l-10 -64h128l-16 -96h-128zM755 1248h-64l15 96h64zM653 1408l-37 -224h320l11 64h-128l26 160h-192zM674 1536l-10 -64h320l10 64h-144l16 96h144l11 64h-320l-11 -64h112l-16 -96h-112z" />
    <glyph glyph-name=".notdef" horiz-adv-x="1344" 
d="M855 -416h-688l376 2272h688zM388 -192l-10 -64h320l10 64h-215l236 127l11 65h-320l-11 -64h216zM473 320l-42 -256h320l42 256h-320zM697 128h-192l21 128h192zM537 704l-43 -256h320l43 256h-192l-22 -128h64l11 64h64l-21 -128h-192l32 192h-64zM558 832l-11 -64h320
l37 224h-64l-26 -160h-256zM579 960l-11 -64h192l27 160h128l10 64h-320l-10 -64h128l-16 -96h-128zM755 1248h-64l15 96h64zM653 1408l-37 -224h320l11 64h-128l26 160h-192zM674 1536l-10 -64h320l10 64h-144l16 96h144l11 64h-320l-11 -64h112l-16 -96h-112z" />
    <glyph glyph-name=".null" horiz-adv-x="1200" 
 />
    <glyph glyph-name=".null" horiz-adv-x="1200" 
 />
    <glyph glyph-name="nonmarkingreturn" horiz-adv-x="682" 
 />
    <glyph glyph-name="space" unicode=" " horiz-adv-x="576" 
 />
    <glyph glyph-name="A" unicode="A" 
d="M-41 0l788 1490h220l301 -1490h-192l-169 884q-13 71 -33 199t-43 318h36q-81 -181 -141.5 -308t-102.5 -209l-454 -884h-210zM300 416l27 166h765l-27 -166h-765z" />
    <glyph glyph-name="uni00A0" unicode="&#xa0;" horiz-adv-x="576" 
 />
    <glyph glyph-name="Adieresis" unicode="&#xc4;" 
d="M-41 0l788 1490h220l301 -1490h-192l-169 884q-13 71 -33 199t-43 318h36q-81 -181 -141.5 -308t-102.5 -209l-454 -884h-210zM300 416l27 166h765l-27 -166h-765zM1101 1673q-49 0 -78 35t-21 84t49 83.5t90 34.5t77.5 -34.5t20.5 -83.5t-48.5 -84t-89.5 -35zM680 1673
q-49 0 -78 35t-21 84t49 83.5t90 34.5t77.5 -34.5t20.5 -83.5t-48.5 -84t-89.5 -35z" />
    <glyph glyph-name="numeralgreek" unicode="&#x374;" horiz-adv-x="546" 
d="M344 916l34 574h211l-151 -574h-94z" />
    <glyph glyph-name="numeralgreeksub" unicode="&#x375;" horiz-adv-x="551" 
d="M331 -66l-181 -352h-190l248 352h123z" />
    <glyph glyph-name="uni0376" unicode="&#x376;" horiz-adv-x="1543" 
d="M1270 0h-190l141 850q7 39 20.5 107.5t33 162.5t43.5 209h34q-93 -128 -156 -214.5t-110 -148.5t-92 -118l-681 -848h-226l247 1490h191l-152 -914q-8 -51 -20 -117t-29 -142.5t-40 -161.5h-27q52 83 104 157t96 132t72 93l764 953h224z" />
    <glyph glyph-name="uni037A" unicode="&#x37a;" horiz-adv-x="549" 
d="M148 -494q-83 0 -119 47.5t-21 138.5l31 190h162l-31 -188q-7 -41 2 -59t36 -18q15 0 24 1t20 3l-17 -103q-16 -6 -41 -9t-46 -3z" />
    <glyph glyph-name="uni037B" unicode="&#x37b;" horiz-adv-x="1168" 
d="M459 -24q-82 0 -151.5 21.5t-122.5 63t-86.5 100t-43.5 133.5l180 49q5 -45 23.5 -83t50.5 -65.5t76.5 -42.5t100.5 -15q112 0 193.5 58t132 152.5t68.5 204.5q19 112 -0.5 207t-81.5 153.5t-174 58.5q-55 0 -103.5 -14.5t-88.5 -41t-70.5 -62.5t-50.5 -79l-165 49
q35 73 87.5 130.5t118.5 97t141.5 60.5t156.5 21q152 0 254.5 -72t145 -202.5t13.5 -305.5q-28 -172 -113.5 -302t-212 -202t-278.5 -72z" />
    <glyph glyph-name="uni037C" unicode="&#x37c;" horiz-adv-x="1150" 
d="M593 428q-54 0 -86 38.5t-23 92.5q8 54 53 92.5t99 38.5t86 -38.5t24 -92.5q-9 -54 -54 -92.5t-99 -38.5zM527 -24q-135 0 -232 56.5t-149.5 159.5t-52.5 241q0 133 41.5 258t119.5 224.5t189.5 158t252.5 58.5q83 0 153.5 -21.5t124 -62.5t87.5 -99t45 -131l-176 -39
q-5 43 -23 78t-48 60.5t-71.5 39.5t-95.5 14q-102 0 -180 -48t-131.5 -127t-80.5 -173.5t-27 -187.5q0 -83 26.5 -151t83.5 -107.5t148 -39.5q58 0 109.5 16t94 44.5t74.5 67t51 83.5l166 -58q-34 -74 -86 -132t-117 -98.5t-140 -62t-156 -21.5z" />
    <glyph glyph-name="uni037D" unicode="&#x37d;" horiz-adv-x="1168" 
d="M521 423q-54 0 -86 38.5t-23 92.5t53.5 92.5t98.5 38.5t86.5 -38.5t23.5 -92.5t-54 -92.5t-99 -38.5zM459 -24q-82 0 -151.5 21.5t-122.5 63t-86.5 100t-43.5 133.5l180 49q5 -45 23.5 -83t50.5 -65.5t76.5 -42.5t100.5 -15q112 0 193.5 58t132 152.5t68.5 204.5
q19 112 -0.5 207t-81.5 153.5t-174 58.5q-55 0 -103.5 -14.5t-88.5 -41t-70.5 -62.5t-50.5 -79l-165 49q35 73 87.5 130.5t118.5 97t141.5 60.5t156.5 21q152 0 254.5 -72t145 -202.5t13.5 -305.5q-28 -172 -113.5 -302t-212 -202t-278.5 -72z" />
    <glyph glyph-name="uni037E" unicode="&#x37e;" horiz-adv-x="564" 
d="M-23 -359l182 567h206l-250 -567h-138zM371 796q-58 0 -94.5 43t-26.5 104q9 53 51.5 87.5t91.5 34.5q61 0 95.5 -43t26.5 -100q-7 -52 -49 -89t-95 -37z" />
    <glyph glyph-name="uni037F" unicode="&#x37f;" horiz-adv-x="1169" 
d="M458 -20q-175 0 -281.5 91.5t-106.5 260.5q0 15 1.5 33.5t6 51.5t13.5 89h190q-8 -52 -12.5 -80.5t-5.5 -43t-1 -25.5q0 -102 57.5 -156t157.5 -54q112 0 194.5 70t105.5 209l177 1064h190l-177 -1064q-35 -212 -172.5 -329t-336.5 -117z" />
    <glyph glyph-name="tonos" unicode="&#x384;" horiz-adv-x="554" 
d="M279 1264l83 294h193l-151 -294h-125z" />
    <glyph glyph-name="dieresistonos" unicode="&#x385;" horiz-adv-x="1379" 
d="M1110 1304q-48 0 -76.5 34t-20.5 82t47.5 82t87.5 34t76.5 -34t20.5 -82t-47.5 -82t-87.5 -34zM516 1304q-48 0 -76.5 34t-20.5 82t47.5 82t87.5 34t76.5 -34t20.5 -82t-47.5 -82t-87.5 -34zM775 1489l83 294h193l-151 -294h-125z" />
    <glyph glyph-name="Alphatonos" unicode="&#x386;" 
d="M-41 0l788 1490h220l301 -1490h-192l-169 884q-13 71 -33 199t-43 318h36q-81 -181 -141.5 -308t-102.5 -209l-454 -884h-210zM300 416l27 166h765l-27 -166h-765zM259 1196l83 294h193l-151 -294h-125z" />
    <glyph glyph-name="anoteleia" unicode="&#x387;" horiz-adv-x="589" 
d="M355 861q-58 0 -94.5 43t-26.5 104q9 53 51.5 87.5t91.5 34.5q61 0 95.5 -43t26.5 -100q-7 -52 -49 -89t-95 -37z" />
    <glyph glyph-name="Epsilontonos" unicode="&#x388;" horiz-adv-x="1515" 
d="M370 0l247 1490h908l-28 -167h-718l-80 -487h669l-28 -167h-670l-83 -502h727l-27 -167h-917zM205 1196l83 294h193l-151 -294h-125z" />
    <glyph glyph-name="Etatonos" unicode="&#x389;" horiz-adv-x="1805" 
d="M370 0l247 1490h190l-107 -644h782l107 644h190l-247 -1490h-190l113 678h-783l-112 -678h-190zM205 1196l83 294h193l-151 -294h-125z" />
    <glyph glyph-name="Iotatonos" unicode="&#x38a;" horiz-adv-x="833" 
d="M807 1490l-247 -1490h-190l247 1490h190zM205 1196l83 294h193l-151 -294h-125z" />
    <glyph glyph-name="Omicrontonos" unicode="&#x38c;" horiz-adv-x="1776" 
d="M908 -20q-169 0 -295 72t-195.5 206.5t-69.5 321.5q0 177 55 343.5t159 298.5t250 210t327 78q169 0 294 -72t194.5 -206t69.5 -321q0 -178 -55 -344.5t-158.5 -299t-249 -210t-326.5 -77.5zM915 156q140 0 251 64t188.5 172t118 241.5t40.5 272.5q0 140 -48.5 235.5
t-134.5 144t-198 48.5q-140 0 -251 -64t-189 -172t-119 -241t-41 -272q0 -140 49 -235.5t135.5 -144.5t198.5 -49zM205 1196l83 294h193l-151 -294h-125z" />
    <glyph glyph-name="Upsilontonos" unicode="&#x38e;" horiz-adv-x="1801" 
d="M918 0l101 610l-402 880h206l215 -481q36 -81 62.5 -154.5t49.5 -185.5h-76q60 114 111 188.5t111 151.5l374 481h233l-694 -880l-101 -610h-190zM205 1196l83 294h193l-151 -294h-125z" />
    <glyph glyph-name="Omegatonos" unicode="&#x38f;" horiz-adv-x="1791" 
d="M247 0l26 160h361l13 76q-112 34 -180 116t-90.5 200.5t1.5 260.5q25 153 93 281t170.5 221t231.5 144t275 51t260 -51t189 -144t103.5 -221t3.5 -281q-24 -143 -86.5 -261t-157.5 -200t-217 -116l-13 -76h361l-26 -160h-531l48 292q178 46 293 181.5t149 339.5
q27 165 -11.5 283.5t-134.5 182t-242 63.5t-267 -63.5t-202.5 -182t-108.5 -283.5q-34 -203 35.5 -338.5t232.5 -182.5l-48 -292h-531zM205 1196l83 294h193l-151 -294h-125z" />
    <glyph glyph-name="iotadieresistonos" unicode="&#x390;" horiz-adv-x="565" 
d="M316 -8q-126 0 -177.5 67t-31.5 189l144 870h181l-137 -825q-13 -76 0 -108t70 -32q29 0 44.5 2t28.5 6l11 -152q-22 -6 -57.5 -11.5t-75.5 -5.5zM557 1276q-48 0 -76 34t-21 82q8 48 48 82t88 34t76 -34t20 -82q-7 -48 -47 -82t-88 -34zM179 1276q-48 0 -76 34t-21 82
q8 48 48 82t88 34t76 -34t20 -82q-7 -48 -47 -82t-88 -34zM354 1594l83 294h193l-151 -294h-125z" />
    <glyph glyph-name="Alpha" unicode="&#x391;" 
d="M-41 0l788 1490h220l301 -1490h-192l-169 884q-13 71 -33 199t-43 318h36q-81 -181 -141.5 -308t-102.5 -209l-454 -884h-210zM300 416l27 166h765l-27 -166h-765z" />
    <glyph glyph-name="Beta" unicode="&#x392;" horiz-adv-x="1340" 
d="M87 0l247 1490h522q156 0 249.5 -54.5t130 -146t18.5 -202.5q-14 -91 -58.5 -153t-107.5 -99.5t-134 -56.5v-10q70 -4 132.5 -49.5t95.5 -129t14 -201.5q-18 -112 -83 -199.5t-182 -138t-292 -50.5h-552zM305 167h345q177 0 264 73.5t103 173.5q12 74 -16.5 133t-91 94
t-154.5 35h-365zM416 836h323q79 0 150 33t121 92.5t63 139.5q16 93 -37.5 157.5t-199.5 64.5h-339z" />
    <glyph glyph-name="Gamma" unicode="&#x393;" horiz-adv-x="1185" 
d="M1241 1490l-28 -167h-717l-219 -1323h-190l247 1490h907z" />
    <glyph glyph-name="uni0394" unicode="&#x394;" horiz-adv-x="1395" 
d="M-41 0l792 1490h202l297 -1490h-1291zM245 167h772l-200 1079h-12z" />
    <glyph glyph-name="Epsilon" unicode="&#x395;" horiz-adv-x="1232" 
d="M87 0l247 1490h908l-28 -167h-718l-80 -487h669l-28 -167h-670l-83 -502h727l-27 -167h-917z" />
    <glyph glyph-name="Zeta" unicode="&#x396;" horiz-adv-x="1290" 
d="M38 0l23 134l995 1189h-807l28 167h1037l-23 -136l-996 -1187h807l-28 -167h-1036z" />
    <glyph glyph-name="Eta" unicode="&#x397;" horiz-adv-x="1522" 
d="M87 0l247 1490h190l-107 -644h782l107 644h190l-247 -1490h-190l113 678h-783l-112 -678h-190z" />
    <glyph glyph-name="Theta" unicode="&#x398;" horiz-adv-x="1566" 
d="M1142 825l-26 -160h-628l26 160h628zM700 -20q-169 0 -295 72t-195.5 206.5t-69.5 321.5q0 177 55 343.5t159 298.5t250 210t327 78q169 0 294 -72t194.5 -206t69.5 -321q0 -178 -55 -344.5t-158.5 -299t-249 -210t-326.5 -77.5zM707 156q140 0 251 64t188.5 172
t118 241.5t40.5 272.5q0 140 -48.5 235.5t-134.5 144t-198 48.5q-140 0 -251 -64t-189 -172t-119 -241t-41 -272q0 -140 49 -235.5t135.5 -144.5t198.5 -49z" />
    <glyph glyph-name="IotaGreek" unicode="&#x399;" horiz-adv-x="550" 
d="M524 1490l-247 -1490h-190l247 1490h190z" />
    <glyph glyph-name="Kappa" unicode="&#x39a;" horiz-adv-x="1376" 
d="M288 426l24 203q63 70 124.5 134t124.5 125t128 121l525 481h258l-749 -682l-11 1zM87 0l247 1490h191l-85 -510l-57 -321l-12 -93l-93 -566h-191zM1017 0l-412 758l125 148l496 -906h-209z" />
    <glyph glyph-name="Lambda" unicode="&#x39b;" 
d="M-41 0l788 1490h220l301 -1490h-192l-169 884q-13 71 -33 199t-43 318h36q-81 -181 -141.5 -308t-102.5 -209l-454 -884h-210z" />
    <glyph glyph-name="Mu" unicode="&#x39c;" horiz-adv-x="1850" 
d="M87 0l247 1490h270l211 -940q8 -34 16.5 -84.5t17 -108.5t16 -115t12.5 -104h-42q23 50 50 108t54.5 115.5t52 106.5t42.5 82l519 940h271l-247 -1490h-187l140 851q8 50 19 112t23.5 128t25 130.5t22.5 120.5h16q-33 -70 -68.5 -142t-69 -138t-62 -120.5t-48.5 -90.5
l-474 -851h-165l-197 851q-10 46 -24.5 123.5t-31 173.5t-34.5 194h19q-8 -60 -17.5 -126t-19.5 -131.5t-19 -125.5t-17 -108l-140 -851h-181z" />
    <glyph glyph-name="Nu" unicode="&#x39d;" horiz-adv-x="1543" 
d="M87 0l247 1490h218l448 -953q14 -30 38.5 -86.5t53 -132t54.5 -163.5h-21q5 86 14 163.5t19 143.5t18 114l151 914h190l-247 -1490h-219l-400 848q-25 54 -51.5 115.5t-61 148.5t-86.5 217h28q-15 -121 -26.5 -214t-20 -159t-15.5 -106l-140 -850h-191z" />
    <glyph glyph-name="Xi" unicode="&#x39e;" horiz-adv-x="1345" 
d="M48 0l27 167h1064l-27 -167h-1064zM241 669l28 167h899l-28 -167h-899zM275 1323l28 167h1048l-28 -167h-1048z" />
    <glyph glyph-name="Omicron" unicode="&#x39f;" horiz-adv-x="1566" 
d="M699 -20q-169 0 -295 72t-195.5 206.5t-69.5 321.5q0 177 55 343.5t159 298.5t250 210t327 78q169 0 294 -72t194.5 -206t69.5 -321q0 -178 -55 -344.5t-158.5 -299t-249 -210t-326.5 -77.5zM706 156q140 0 251 64t188.5 172t118 241.5t40.5 272.5q0 140 -48.5 235.5
t-134.5 144t-198 48.5q-140 0 -251 -64t-189 -172t-119 -241t-41 -272q0 -140 49 -235.5t135.5 -144.5t198.5 -49z" />
    <glyph glyph-name="Pi" unicode="&#x3a0;" horiz-adv-x="1522" 
d="M1495 1490l-246 -1490h-190l219 1323h-782l-219 -1323h-190l247 1490h1161z" />
    <glyph glyph-name="Rho" unicode="&#x3a1;" horiz-adv-x="1308" 
d="M87 0l247 1490h510q173 0 275 -62.5t139.5 -169.5t15.5 -240q-21 -133 -93.5 -241.5t-195.5 -173t-297 -64.5h-361l28 167h351q121 0 199.5 41.5t122 112.5t57.5 157q14 87 -7 156t-86.5 109.5t-185.5 40.5h-310l-219 -1323h-190z" />
    <glyph glyph-name="Sigma" unicode="&#x3a3;" 
d="M42 0l27 154l497 443q41 36 79.5 68t73 59.5t64 50t51.5 40.5l-13 -80q-18 19 -50.5 51.5t-71 74t-75.5 87.5l-323 402l22 140h1099l-28 -167h-598q-92 0 -164.5 1.5t-133.5 6.5l-11 35q22 -20 55.5 -52t76 -77.5t89.5 -105.5l262 -331l-10 -67l-375 -337
q-70 -63 -132 -114t-113.5 -90.5t-92.5 -69.5l22 37q71 5 151 6.5t185 1.5h608l-28 -167h-1143z" />
    <glyph glyph-name="Tau" unicode="&#x3a4;" horiz-adv-x="1324" 
d="M226 1323l28 167h1126l-28 -167h-467l-219 -1323h-190l219 1323h-469z" />
    <glyph glyph-name="Upsilon" unicode="&#x3a5;" horiz-adv-x="1390" 
d="M507 0l101 610l-402 880h206l215 -481q36 -81 62.5 -154.5t49.5 -185.5h-76q60 114 111 188.5t111 151.5l374 481h233l-694 -880l-101 -610h-190z" />
    <glyph glyph-name="Phi" unicode="&#x3a6;" horiz-adv-x="1802" 
d="M751 61q-207 0 -353.5 87t-212.5 241t-33 355t150 355.5t292.5 242t383.5 87.5h135q208 0 353.5 -87t211.5 -240t34 -353q-24 -152 -97.5 -278t-184 -218t-249.5 -142t-295 -50h-135zM778 226h136q161 0 288.5 64.5t210 181t108.5 272.5q26 157 -17.5 273.5t-149.5 181.5
t-268 65h-136q-158 0 -286 -63.5t-212 -180t-110 -277.5q-25 -157 19.5 -273.5t151 -180t265.5 -63.5zM706 -65l268 1620h183l-268 -1620h-183z" />
    <glyph glyph-name="Chi" unicode="&#x3a7;" horiz-adv-x="1397" 
d="M-36 0l720 833l-23 -141l-417 798h211l162 -316q36 -69 58.5 -117t40.5 -94t39 -111h-33q43 64 77 110.5t73 95t98 116.5l272 316h224l-681 -790l23 140l439 -840h-211l-198 378q-32 62 -53.5 106.5t-39 89t-38.5 106.5h40q-40 -61 -73 -106t-70 -89.5t-90 -106.5
l-326 -378h-224z" />
    <glyph glyph-name="Psi" unicode="&#x3a8;" horiz-adv-x="1803" 
d="M1593 1490h184l-64 -385q-37 -222 -134 -371t-254.5 -224t-376.5 -75h-134q-160 0 -276 40.5t-185 123.5t-90.5 209t7.5 297l65 385h184l-63 -374q-32 -190 -4 -304.5t123 -165.5t264 -51h136q170 0 281 51t176.5 165.5t97.5 304.5zM964 1490h183l-247 -1490h-183z" />
    <glyph glyph-name="uni03A9" unicode="&#x3a9;" horiz-adv-x="1568" 
d="M32 0l26 160h361l13 76q-112 34 -180 116t-90.5 200.5t1.5 260.5q25 153 93 281t170.5 221t231.5 144t275 51t260 -51t189 -144t103.5 -221t3.5 -281q-24 -143 -86.5 -261t-157.5 -200t-217 -116l-13 -76h361l-26 -160h-531l48 292q178 46 293 181.5t149 339.5
q27 165 -11.5 283.5t-134.5 182t-242 63.5t-267 -63.5t-202.5 -182t-108.5 -283.5q-34 -203 35.5 -338.5t232.5 -182.5l-48 -292h-531z" />
    <glyph glyph-name="Iotadieresis" unicode="&#x3aa;" horiz-adv-x="550" 
d="M524 1490l-247 -1490h-190l247 1490h190zM670 1673q-49 0 -78 35t-21 84t49 83.5t90 34.5t77.5 -34.5t20.5 -83.5t-48.5 -84t-89.5 -35zM249 1673q-49 0 -78 35t-21 84t49 83.5t90 34.5t77.5 -34.5t20.5 -83.5t-48.5 -84t-89.5 -35z" />
    <glyph glyph-name="Upsilondieresis" unicode="&#x3ab;" horiz-adv-x="1390" 
d="M507 0l101 610l-402 880h206l215 -481q36 -81 62.5 -154.5t49.5 -185.5h-76q60 114 111 188.5t111 151.5l374 481h233l-694 -880l-101 -610h-190zM1090 1673q-49 0 -78 35t-21 84t49 83.5t90 34.5t77.5 -34.5t20.5 -83.5t-48.5 -84t-89.5 -35zM669 1673q-49 0 -78 35
t-21 84t49 83.5t90 34.5t77.5 -34.5t20.5 -83.5t-48.5 -84t-89.5 -35z" />
    <glyph glyph-name="alphatonos" unicode="&#x3ac;" horiz-adv-x="1360" 
d="M505 -24q-145 0 -245 74.5t-142.5 205.5t-14.5 299q29 172 112.5 301.5t206 202.5t268.5 73q115 0 188 -42t113.5 -108.5t56 -141t16.5 -139.5h65l-17 -139l76 -562h-170l-44 562q-4 53 -15 122.5t-39.5 135t-85 108.5t-151.5 43q-99 0 -181.5 -51t-139 -145t-77.5 -224
q-20 -126 0.5 -219t80 -144t154.5 -51q93 0 167.5 44t131 110.5t95 138t59.5 126.5l214 562h170l-246 -562l-28 -133h-55q-27 -65 -69 -142t-104 -146.5t-148 -114t-202 -44.5zM668 1264l83 294h193l-151 -294h-125z" />
    <glyph glyph-name="epsilontonos" unicode="&#x3ad;" horiz-adv-x="1099" 
d="M468 -20q-131 0 -227.5 40.5t-144 113t-31.5 168.5q8 45 33.5 94t77.5 91t139 68.5t217 26.5h156l-13 -84h-134q-79 0 -139.5 -24.5t-97.5 -66t-46 -91.5q-14 -79 53.5 -127t191.5 -48q81 0 133.5 21.5t86.5 63t59 101.5l170 -40q-37 -94 -102.5 -163t-160.5 -106.5
t-221 -37.5zM525 536q-125 0 -199.5 23.5t-111 63t-44.5 87t0 95.5q18 104 85.5 177t170.5 111.5t229 38.5q122 0 200 -34.5t119.5 -97t51.5 -147.5l-180 -47q-10 79 -60.5 123t-156.5 44q-112 0 -189 -48t-88 -128q-10 -69 44.5 -108.5t168.5 -39.5h134l-18 -113h-156z
M615 1264l83 294h193l-151 -294h-125z" />
    <glyph glyph-name="etatonos" unicode="&#x3ae;" horiz-adv-x="1212" 
d="M357 670l-111 -670h-180l185 1118h173l-44 -271h-25q52 105 113.5 167.5t134 90t155.5 27.5q113 0 193.5 -46.5t116 -140t11.5 -235.5l-187 -1128h-181l185 1113q22 131 -28.5 203t-166.5 72q-79 0 -152 -35t-124.5 -101.5t-67.5 -163.5zM675 1264l83 294h193l-151 -294
h-125z" />
    <glyph glyph-name="iotatonos" unicode="&#x3af;" horiz-adv-x="565" 
d="M316 -8q-126 0 -177.5 67t-31.5 189l144 870h181l-137 -825q-13 -76 0 -108t70 -32q29 0 44.5 2t28.5 6l11 -152q-22 -6 -57.5 -11.5t-75.5 -5.5zM304 1264l83 294h193l-151 -294h-125z" />
    <glyph glyph-name="upsilondieresistonos" unicode="&#x3b0;" horiz-adv-x="1211" 
d="M510 -20q-141 0 -233 50.5t-128.5 148t-13.5 239.5l116 700h180l-114 -691q-16 -97 4.5 -159.5t75 -93t140.5 -30.5q87 0 151.5 30.5t105.5 93t57 159.5l114 691h180l-115 -700q-23 -140 -91.5 -238t-177 -149t-251.5 -51zM1026 1304q-48 0 -76.5 34t-20.5 82t47.5 82
t87.5 34t76.5 -34t20.5 -82t-47.5 -82t-87.5 -34zM432 1304q-48 0 -76.5 34t-20.5 82t47.5 82t87.5 34t76.5 -34t20.5 -82t-47.5 -82t-87.5 -34zM691 1489l83 294h193l-151 -294h-125z" />
    <glyph glyph-name="alpha" unicode="&#x3b1;" horiz-adv-x="1360" 
d="M505 -24q-145 0 -245 74.5t-142.5 205.5t-14.5 299q29 172 112.5 301.5t206 202.5t268.5 73q115 0 188 -42t113.5 -108.5t56 -141t16.5 -139.5h65l-17 -139l76 -562h-170l-44 562q-4 53 -15 122.5t-39.5 135t-85 108.5t-151.5 43q-99 0 -181.5 -51t-139 -145t-77.5 -224
q-20 -126 0.5 -219t80 -144t154.5 -51q93 0 167.5 44t131 110.5t95 138t59.5 126.5l214 562h170l-246 -562l-28 -133h-55q-27 -65 -69 -142t-104 -146.5t-148 -114t-202 -44.5z" />
    <glyph glyph-name="beta" unicode="&#x3b2;" horiz-adv-x="1221" 
d="M-3 -418l251 1518q20 121 89.5 213.5t176.5 144.5t240 52q127 0 219 -49.5t136 -138t25 -204.5q-18 -113 -84 -185.5t-169.5 -110t-232.5 -45.5l9 53q99 -5 184.5 -29t145.5 -71t87 -121t9 -181q-21 -130 -93.5 -231t-182.5 -159t-245 -58q-83 0 -149.5 26.5t-105.5 85.5
t-42 158h22l-110 -668h-180zM557 148q92 0 165 34t120.5 97.5t61.5 149.5q22 130 -37 205t-181 75h-141l27 163h81q79 0 142.5 28.5t105 82.5t54.5 128q19 107 -41.5 169t-179.5 62q-82 0 -147 -29.5t-106 -82.5t-53 -126l-115 -696q-12 -72 10.5 -131t81 -94t152.5 -35z
" />
    <glyph glyph-name="gamma" unicode="&#x3b3;" horiz-adv-x="1151" 
d="M392 -20l-245 1138h197l128 -663q20 -103 30 -205.5t23 -198.5h-66q45 96 88 198.5t98 205.5l348 663h197l-623 -1138h-175zM324 -418l70 426h180l-70 -426h-180z" />
    <glyph glyph-name="delta" unicode="&#x3b4;" horiz-adv-x="1196" 
d="M502 -24q-147 0 -248.5 60t-144.5 174.5t-17 275.5q27 165 108 277.5t202 170t267 57.5l-2 -12q-79 16 -139 36.5t-99.5 49t-55.5 68.5t-6 95q16 88 87.5 146t197 87t301.5 29h154l-27 -161h-194q-116 0 -189 -13.5t-109 -41t-43 -68.5q-5 -29 6.5 -54t42 -46.5t81 -42
t123.5 -40.5q81 -22 142 -69.5t98 -116t48.5 -156t-5.5 -190.5q-26 -162 -106.5 -277.5t-202 -176.5t-270.5 -61zM529 137q98 0 174.5 39t127 119t68.5 202q26 174 -40 274.5t-209 100.5q-95 0 -172.5 -45t-129.5 -130.5t-73 -207.5q-31 -182 40 -267t214 -85z" />
    <glyph glyph-name="epsilon" unicode="&#x3b5;" horiz-adv-x="1099" 
d="M468 -20q-131 0 -227.5 40.5t-144 113t-31.5 168.5q8 45 33.5 94t77.5 91t139 68.5t217 26.5h156l-13 -84h-134q-79 0 -139.5 -24.5t-97.5 -66t-46 -91.5q-14 -79 53.5 -127t191.5 -48q81 0 133.5 21.5t86.5 63t59 101.5l170 -40q-37 -94 -102.5 -163t-160.5 -106.5
t-221 -37.5zM525 536q-125 0 -199.5 23.5t-111 63t-44.5 87t0 95.5q18 104 85.5 177t170.5 111.5t229 38.5q122 0 200 -34.5t119.5 -97t51.5 -147.5l-180 -47q-10 79 -60.5 123t-156.5 44q-112 0 -189 -48t-88 -128q-10 -69 44.5 -108.5t168.5 -39.5h134l-18 -113h-156z" />
    <glyph glyph-name="zeta" unicode="&#x3b6;" horiz-adv-x="1044" 
d="M633 -287l32 192q6 36 -1.5 57t-31.5 29.5t-68 8.5h-75q-150 0 -248.5 48t-140.5 136.5t-23 208.5q17 102 69.5 185.5t141.5 177t214 224.5l158 166q44 47 85 85t78 69t70 57t61 47l-12 -58q-37 -4 -80.5 -7t-89.5 -5.5t-90 -3.5t-83 -1h-324l27 161h786l-23 -137
l-450 -477q-116 -123 -190.5 -200.5t-113.5 -138t-51 -133.5q-15 -90 17 -144t101 -78.5t165 -24.5h51q143 0 204.5 -59.5t39.5 -188.5l-33 -196h-172z" />
    <glyph glyph-name="eta" unicode="&#x3b7;" horiz-adv-x="1212" 
d="M357 670l-111 -670h-180l185 1118h173l-44 -271h-25q52 105 113.5 167.5t134 90t155.5 27.5q113 0 193.5 -46.5t116 -140t11.5 -235.5l-187 -1128h-181l185 1113q22 131 -28.5 203t-166.5 72q-79 0 -152 -35t-124.5 -101.5t-67.5 -163.5z" />
    <glyph glyph-name="theta" unicode="&#x3b8;" horiz-adv-x="1271" 
d="M538 -24q-157 0 -257.5 90t-135.5 254.5t1 390.5l11 68q36 223 125 388t219.5 256t291.5 91t262.5 -90.5t136 -255.5t-5.5 -389l-12 -68q-40 -229 -131.5 -394t-221 -253t-283.5 -88zM565 137q164 0 272 142.5t150 398.5l22 134q42 256 -18.5 398.5t-224.5 142.5
q-163 0 -271.5 -142.5t-150.5 -398.5l-22 -134q-43 -260 20 -400.5t223 -140.5zM271 670l25 150h769l-25 -150h-769z" />
    <glyph glyph-name="iota" unicode="&#x3b9;" horiz-adv-x="565" 
d="M316 -8q-126 0 -177.5 67t-31.5 189l144 870h181l-137 -825q-13 -76 0 -108t70 -32q29 0 44.5 2t28.5 6l11 -152q-22 -6 -57.5 -11.5t-75.5 -5.5z" />
    <glyph glyph-name="kappa" unicode="&#x3ba;" horiz-adv-x="1077" 
d="M431 1118l-185 -1118h-180l185 1118h180zM1141 1118l-645 -640h-239l26 160h169l470 480h219zM726 0l-327 483l120 143l431 -626h-224z" />
    <glyph glyph-name="lambda" unicode="&#x3bb;" horiz-adv-x="1313" 
d="M-39 0l615 1128l-12 60q-15 77 -43 114.5t-71 44.5t-105 -6l-19 -4l-20 156q17 8 54 14.5t82 6.5q78 0 136 -27t97 -84t58 -148l205 -952q17 -78 46 -116t72 -45t101 6l18 4l20 -155q-15 -7 -51.5 -14t-83.5 -7q-78 0 -136.5 27.5t-96.5 84.5t-57 147l-88 428
q-22 106 -32.5 206.5t-24.5 197.5h66q-45 -96 -87.5 -198t-97.5 -206l-348 -663h-197z" />
    <glyph glyph-name="uni03BC" unicode="&#x3bc;" horiz-adv-x="1202" 
d="M-3 -418l254 1536h180l-112 -678q-17 -106 9 -171.5t82.5 -95.5t130.5 -30q78 0 142.5 31.5t109 97t61.5 168.5l112 678h180l-143 -865q-9 -55 11 -76.5t81 -21.5h29l-26 -155h-36q-137 0 -196.5 63.5t-38.5 187.5l17 101h41q-18 -111 -61 -183t-98.5 -112t-111.5 -56.5
t-101 -16.5t-95.5 16.5t-92 57t-60.5 112t-1 182.5h41l-128 -770h-180z" />
    <glyph glyph-name="nu" unicode="&#x3bd;" horiz-adv-x="1202" 
d="M440 0l-192 894q-9 42 -31 59.5t-69 17.5h-25l25 155h30q107 0 169 -40.5t78 -124.5l99 -506q20 -103 30 -206.5t22 -197.5h-65q45 96 87.5 198.5t97.5 205.5l349 663h196l-612 -1118h-189z" />
    <glyph glyph-name="xi" unicode="&#x3be;" horiz-adv-x="1145" 
d="M697 -287l33 193q6 36 -1.5 56.5t-31 29t-67.5 8.5h-108q-155 0 -259 47.5t-149 136.5t-25 212q21 124 88.5 200.5t160.5 117t191 55t180 14.5l-4 -21q-82 0 -165 10t-149.5 39.5t-100.5 87t-19 151.5q18 113 88 178t166 95t191 36v-5l-406 -17l26 153h796l-23 -144
l-140 -8q-234 -13 -362.5 -74.5t-150.5 -189.5q-19 -110 53 -170.5t217 -60.5h229l-26 -160h-248q-116 0 -202.5 -31t-138.5 -90t-67 -144q-21 -122 54 -191.5t241 -69.5h89q138 0 202.5 -57t42.5 -191l-32 -196h-173z" />
    <glyph glyph-name="omicron" unicode="&#x3bf;" horiz-adv-x="1229" 
d="M528 -24q-135 0 -232 56.5t-149.5 159.5t-52.5 241q0 133 41.5 258t120 224.5t190 158t251.5 58.5q135 0 233 -56t150.5 -159t52.5 -243q0 -135 -42 -260t-121.5 -224t-191 -156.5t-250.5 -57.5zM532 137q103 0 181.5 48t131.5 126.5t80 172.5t27 186q0 85 -27 153
t-84 108t-149 40q-102 0 -180 -48t-131 -127t-80 -173.5t-27 -187.5q0 -126 61 -212t197 -86z" />
    <glyph glyph-name="pi" unicode="&#x3c0;" horiz-adv-x="1241" 
d="M976 -8q-127 0 -178 67t-31 189l135 813h180l-128 -768q-13 -76 0 -108.5t70 -32.5q29 0 44.5 2t28.5 6l11 -151q-22 -6 -57.5 -11.5t-74.5 -5.5zM131 0l176 1061h179l-175 -1061h-180zM110 965l25 153h1153l-25 -153h-1153z" />
    <glyph glyph-name="rho" unicode="&#x3c1;" horiz-adv-x="1254" 
d="M-4 -418l162 976q29 175 111 303.5t205 199.5t274 71q149 0 248.5 -68.5t140.5 -195t14 -300.5q-28 -180 -110 -313t-201 -206t-259 -73q-106 0 -164.5 35.5t-86.5 82t-43 79.5h-14l-97 -591h-180zM580 137q105 0 184.5 56t131.5 152t71 215q19 117 -0.5 210t-80 147
t-166.5 54q-102 0 -181 -51.5t-130.5 -143.5t-72.5 -215q-21 -125 0 -221t82.5 -149.5t161.5 -53.5z" />
    <glyph glyph-name="uni03C2" unicode="&#x3c2;" horiz-adv-x="1165" 
d="M719 -287l27 161q10 59 -23.5 92.5t-102.5 33.5h-99q-152 0 -255.5 66t-147 190t-15.5 296q29 176 114.5 306t212 202t278.5 72q82 0 151 -21t121.5 -61t86 -97.5t43.5 -129.5l-181 -49q-5 43 -23.5 79t-50 62.5t-75 41t-98.5 14.5q-112 0 -194 -59t-132.5 -154
t-69.5 -204q-18 -109 1.5 -199t83 -144t177.5 -54h99q94 0 160 -34t96.5 -96.5t15.5 -150.5l-27 -163h-173z" />
    <glyph glyph-name="sigma" unicode="&#x3c3;" horiz-adv-x="1280" 
d="M517 -24q-153 0 -255.5 72.5t-144.5 202t-14 301.5q29 172 114 299t211 197t278 70h624l-25 -153h-490l-135 -8q-112 0 -193.5 -55.5t-131.5 -147t-69 -201.5q-18 -109 1 -204t82 -153.5t175 -58.5q113 0 195 57.5t133 152.5t69 206q19 112 -1.5 203.5t-84 146
t-175.5 54.5l8 45q113 0 202 -29t147 -88t80 -148.5t2 -211.5q-26 -159 -111 -283t-211.5 -195t-279.5 -71z" />
    <glyph glyph-name="tau" unicode="&#x3c4;" horiz-adv-x="955" 
d="M601 -14q-143 0 -213 75.5t-47 214.5l114 681h-368l26 161h914l-26 -161h-366l-110 -667q-12 -73 11.5 -108.5t95.5 -35.5q17 0 44 4t50 8l11 -152q-27 -9 -63 -14.5t-73 -5.5z" />
    <glyph glyph-name="upsilon" unicode="&#x3c5;" horiz-adv-x="1211" 
d="M510 -20q-141 0 -233 50.5t-128.5 148t-13.5 239.5l116 700h180l-114 -691q-16 -97 4.5 -159.5t75 -93t140.5 -30.5q87 0 151.5 30.5t105.5 93t57 159.5l114 691h180l-115 -700q-23 -140 -91.5 -238t-177 -149t-251.5 -51z" />
    <glyph glyph-name="phi" unicode="&#x3c6;" horiz-adv-x="1476" 
d="M485 -418l201 1216q18 109 65 185t120 115.5t167 39.5q127 0 212.5 -69.5t119.5 -195t6 -292.5q-33 -197 -133.5 -332t-255 -204t-349.5 -69h-25q-186 0 -310 71.5t-176 202t-23 306.5q22 132 83 250t152.5 203t205.5 116l21 -154q-70 -19 -127 -72.5t-95.5 -135.5
t-56.5 -188q-24 -148 9.5 -245t121 -145t223.5 -48h24q150 0 259.5 46.5t177.5 145t94 253.5q19 114 7 203t-55.5 140.5t-120.5 51.5q-43 0 -75 -17.5t-52.5 -51t-28.5 -82.5l-206 -1244h-180z" />
    <glyph glyph-name="chi" unicode="&#x3c7;" horiz-adv-x="1169" 
d="M-88 -418l611 880h83l209 -609q17 -49 32 -71.5t41 -28t75 -5.5h44l-27 -166h-36q-85 0 -138 15t-86 57t-60 122l-136 405l-413 -599h-199zM472 297l-195 546q-20 58 -34.5 82.5t-38 30.5t-73.5 6h-44l28 166h36q83 0 133.5 -16t84 -60.5t63.5 -131.5l138 -392l414 590
h199l-579 -821h-132z" />
    <glyph glyph-name="psi" unicode="&#x3c8;" horiz-adv-x="1594" 
d="M612 -20q-173 0 -284.5 69t-154 204t-10.5 332l88 533h180l-88 -533q-25 -154 2.5 -252.5t102.5 -145t190 -46.5h180q115 0 205.5 46.5t151 145t85.5 252.5l88 533h180l-88 -533q-32 -194 -118 -329t-220 -205.5t-310 -70.5h-180zM546 -418l298 1802h180l-298 -1802h-180
z" />
    <glyph glyph-name="omega" unicode="&#x3c9;" horiz-adv-x="1648" 
d="M420 -16q-118 0 -201.5 57.5t-118 172t-6.5 286.5q26 154 85 275.5t129 208t129 134.5h202q-74 -69 -149 -157.5t-132.5 -202t-81.5 -257.5q-28 -171 17.5 -264t158.5 -93q109 0 177 87t95 247l41 244h175l-41 -244q-27 -160 7.5 -247t146.5 -87q119 0 195 94t104 262
q24 143 4 256.5t-65 203t-98 158.5h202q46 -50 87 -137.5t59 -208.5t-7 -272q-28 -172 -100.5 -286.5t-176 -172t-225.5 -57.5q-98 0 -157 35.5t-86.5 98t-33.5 143.5h33q-32 -84 -82.5 -146.5t-121.5 -96.5t-164 -34z" />
    <glyph glyph-name="iotadieresis" unicode="&#x3ca;" horiz-adv-x="565" 
d="M316 -8q-126 0 -177.5 67t-31.5 189l144 870h181l-137 -825q-13 -76 0 -108t70 -32q29 0 44.5 2t28.5 6l11 -152q-22 -6 -57.5 -11.5t-75.5 -5.5zM583 1301q-49 0 -78 35t-21 84t49 83.5t90 34.5t77.5 -34.5t20.5 -83.5t-48.5 -84t-89.5 -35zM162 1301q-49 0 -78 35
t-21 84t49 83.5t90 34.5t77.5 -34.5t20.5 -83.5t-48.5 -84t-89.5 -35z" />
    <glyph glyph-name="upsilondieresis" unicode="&#x3cb;" horiz-adv-x="1211" 
d="M510 -20q-141 0 -233 50.5t-128.5 148t-13.5 239.5l116 700h180l-114 -691q-16 -97 4.5 -159.5t75 -93t140.5 -30.5q87 0 151.5 30.5t105.5 93t57 159.5l114 691h180l-115 -700q-23 -140 -91.5 -238t-177 -149t-251.5 -51zM939 1301q-49 0 -78 35t-21 84t49 83.5t90 34.5
t77.5 -34.5t20.5 -83.5t-48.5 -84t-89.5 -35zM518 1301q-49 0 -78 35t-21 84t49 83.5t90 34.5t77.5 -34.5t20.5 -83.5t-48.5 -84t-89.5 -35z" />
    <glyph glyph-name="omicrontonos" unicode="&#x3cc;" horiz-adv-x="1229" 
d="M528 -24q-135 0 -232 56.5t-149.5 159.5t-52.5 241q0 133 41.5 258t120 224.5t190 158t251.5 58.5q135 0 233 -56t150.5 -159t52.5 -243q0 -135 -42 -260t-121.5 -224t-191 -156.5t-250.5 -57.5zM532 137q103 0 181.5 48t131.5 126.5t80 172.5t27 186q0 85 -27 153
t-84 108t-149 40q-102 0 -180 -48t-131 -127t-80 -173.5t-27 -187.5q0 -126 61 -212t197 -86zM668 1264l83 294h193l-151 -294h-125z" />
    <glyph glyph-name="upsilontonos" unicode="&#x3cd;" horiz-adv-x="1211" 
d="M510 -20q-141 0 -233 50.5t-128.5 148t-13.5 239.5l116 700h180l-114 -691q-16 -97 4.5 -159.5t75 -93t140.5 -30.5q87 0 151.5 30.5t105.5 93t57 159.5l114 691h180l-115 -700q-23 -140 -91.5 -238t-177 -149t-251.5 -51zM660 1264l83 294h193l-151 -294h-125z" />
    <glyph glyph-name="omegatonos" unicode="&#x3ce;" horiz-adv-x="1648" 
d="M420 -16q-118 0 -201.5 57.5t-118 172t-6.5 286.5q26 154 85 275.5t129 208t129 134.5h202q-74 -69 -149 -157.5t-132.5 -202t-81.5 -257.5q-28 -171 17.5 -264t158.5 -93q109 0 177 87t95 247l41 244h175l-41 -244q-27 -160 7.5 -247t146.5 -87q119 0 195 94t104 262
q24 143 4 256.5t-65 203t-98 158.5h202q46 -50 87 -137.5t59 -208.5t-7 -272q-28 -172 -100.5 -286.5t-176 -172t-225.5 -57.5q-98 0 -157 35.5t-86.5 98t-33.5 143.5h33q-32 -84 -82.5 -146.5t-121.5 -96.5t-164 -34zM879 1264l83 294h193l-151 -294h-125z" />
    <glyph glyph-name="uni03CF" unicode="&#x3cf;" horiz-adv-x="1376" 
d="M288 426l33 203q62 70 123.5 134t124.5 125t129 121l525 481h249l-749 -682l-10 1zM87 0l247 1490h190l-85 -510l-56 -321l-12 -93l-94 -566h-190zM845 -434l-131 106l287 328l-414 758l143 148l496 -906z" />
    <glyph glyph-name="beta1" unicode="&#x3d0;" horiz-adv-x="1302" 
d="M760 939q129 0 220 -53t131 -155.5t15 -250.5q-25 -151 -102 -263.5t-196.5 -174.5t-272.5 -62q-156 0 -251.5 78.5t-126 236t8.5 395.5l12 73q38 231 125 410t221 281t313 102q92 0 159.5 -31.5t100.5 -92t19 -149.5q-10 -66 -54.5 -129t-125.5 -103.5t-201 -40.5
q-69 0 -149 12t-172 55l85 153q77 -32 136 -44.5t104 -12.5q81 0 121.5 33.5t47.5 67.5q8 41 -16 79t-108 38q-85 0 -155 -47t-124 -131t-92 -196t-60 -242q75 74 174.5 119t212.5 45zM694 772q-73 0 -142 -33.5t-119 -99t-66 -162.5q-25 -149 22.5 -240t191.5 -91
q98 0 167 42.5t111.5 118t58.5 173.5q24 143 -31 217.5t-193 74.5z" />
    <glyph glyph-name="uni03D1" unicode="&#x3d1;" horiz-adv-x="1300" 
d="M1196 780l-19 -164q-37 -13 -74.5 -21t-73.5 -12t-69 -4q-176 0 -300 70.5t-182.5 196.5t-40.5 292l2 18q13 113 69.5 192t144.5 120.5t193 41.5q158 0 233.5 -99t46.5 -275l-116 -698q-24 -147 -97 -249.5t-180.5 -155.5t-237.5 -53q-137 0 -230.5 57t-133 160
t-17.5 241l53 326h205l-54 -326q-22 -131 32 -208.5t174 -77.5q106 0 180.5 70.5t98.5 215.5l116 700q17 104 -11 150t-95 46q-59 0 -105.5 -38.5t-60.5 -138.5l-3 -21q-15 -108 17.5 -195t114.5 -137.5t213 -50.5q24 0 49 2t51 5.5t52.5 8.5t54.5 11z" />
    <glyph glyph-name="uni03D2" unicode="&#x3d2;" horiz-adv-x="1377" 
d="M501 0l95 573l-198 683q-10 36 -30.5 52t-54.5 16q-13 0 -28.5 -2.5t-23.5 -7.5l-9 166q37 17 63.5 24.5t63.5 5.5q72 -3 121 -51t80 -162l138 -503l312 515q58 95 115 146t151 51q37 0 71 -4t65 -18l-66 -170q-5 5 -19.5 7.5t-28.5 2.5q-32 0 -57.5 -16t-48.5 -52
l-426 -683l-95 -573h-190z" />
    <glyph glyph-name="uni03D3" unicode="&#x3d3;" horiz-adv-x="1726" 
d="M864 0l95 573l-198 683q-10 36 -30.5 52t-54.5 16q-13 0 -28.5 -2.5t-23.5 -7.5l-9 166q37 17 63.5 24.5t63.5 5.5q72 -3 121 -51t80 -162l138 -503l312 515q58 95 115 146t151 51q37 0 71 -4t65 -18l-66 -170q-5 5 -19.5 7.5t-28.5 2.5q-32 0 -57.5 -16t-48.5 -52
l-426 -683l-95 -573h-190zM205 1196l83 294h193l-151 -294h-125z" />
    <glyph glyph-name="uni03D4" unicode="&#x3d4;" horiz-adv-x="1377" 
d="M501 0l95 573l-198 683q-10 36 -30.5 52t-54.5 16q-13 0 -28.5 -2.5t-23.5 -7.5l-9 166q37 17 63.5 24.5t63.5 5.5q72 -3 121 -51t80 -162l138 -503l312 515q58 95 115 146t151 51q37 0 71 -4t65 -18l-66 -170q-5 5 -19.5 7.5t-28.5 2.5q-32 0 -57.5 -16t-48.5 -52
l-426 -683l-95 -573h-190zM1084 1673q-49 0 -78 35t-21 84t49 83.5t90 34.5t77.5 -34.5t20.5 -83.5t-48.5 -84t-89.5 -35zM663 1673q-49 0 -78 35t-21 84t49 83.5t90 34.5t77.5 -34.5t20.5 -83.5t-48.5 -84t-89.5 -35z" />
    <glyph glyph-name="phigreek" unicode="&#x3d5;" horiz-adv-x="1404" 
d="M517 -24q-152 0 -254.5 72t-145 202t-14.5 302q29 176 114.5 306t212 202t278.5 72h177q152 0 254.5 -71.5t145 -201t14.5 -303.5q-28 -173 -113 -304t-212 -203.5t-280 -72.5h-177zM544 137h177q112 0 193.5 58t132.5 152.5t69 205.5q19 111 -0.5 206.5t-82 153.5
t-174.5 58h-177q-111 0 -193 -58t-133 -152.5t-70 -206.5q-19 -111 0.5 -206t83 -153t174.5 -58zM452 -418l316 1909h177l-316 -1909h-177z" />
    <glyph glyph-name="uni03D6" unicode="&#x3d6;" horiz-adv-x="1676" 
d="M1678 1118l-29 -164h-1498l29 164h1498zM357 1118h203q-89 -118 -142 -212t-80.5 -179t-42.5 -177q-31 -193 12.5 -298.5t147.5 -105.5q95 0 166 85t96 243l43 267h145l-45 -265q-26 -158 -86.5 -269t-151.5 -169t-208 -58q-191 0 -270.5 155t-33.5 433q26 153 88 289.5
t159 260.5zM1297 1118h201q59 -125 75 -261.5t-9 -288.5q-31 -190 -101.5 -321.5t-172 -199t-226.5 -67.5q-118 0 -189.5 59t-94.5 170t3 267l43 265h145l-45 -267q-27 -160 15.5 -244t135.5 -84q71 0 130 47.5t102 138t64 220.5q15 88 15.5 171.5t-20.5 179t-71 215.5z" />
    <glyph glyph-name="uni03D7" unicode="&#x3d7;" horiz-adv-x="1077" 
d="M507 -434l-110 108l355 337l-332 472l100 143l430 -626zM66 0l185 1118h180l-185 -1118h-180zM257 478l27 160h152l470 480h235l-645 -640h-239z" />
    <glyph glyph-name="uni03DC" unicode="&#x3dc;" horiz-adv-x="1216" 
d="M87 0l247 1490h901l-28 -167h-711l-85 -512h711l-27 -167h-711l-107 -644h-190z" />
    <glyph glyph-name="uni03DD" unicode="&#x3dd;" horiz-adv-x="1094" 
d="M-3 -418l254 1536h809l-27 -161h-629l-70 -427h629l-27 -161h-629l-130 -787h-180z" />
    <glyph glyph-name="kappa1" unicode="&#x3f0;" horiz-adv-x="1482" 
d="M150 0l1006 1118h218l-1006 -1118h-218zM268 43l122 739q17 100 -23 139.5t-120 39.5q-14 0 -32.5 -2t-32.5 -5l27 160q24 7 59 12.5t62 5.5q73 0 128.5 -23t91 -68t48 -110t-1.5 -149l-92 -554zM1152 -20q-73 0 -129 23.5t-91 68.5t-47.5 110t1.5 147l94 559l234 187
l-122 -747q-16 -101 24.5 -139t118.5 -38q14 0 32 1.5t33 5.5l-27 -160q-23 -10 -58.5 -14t-62.5 -4z" />
    <glyph glyph-name="rho1" unicode="&#x3f1;" horiz-adv-x="1298" 
d="M890 -474h-170q9 52 -16.5 80.5t-77.5 45.5t-122 32q-107 23 -187 81t-128 154t-59.5 233.5t18.5 320.5l15 90l169 -3l-15 -89q-40 -164 -35 -274t44.5 -178.5t105.5 -106t148 -56.5q69 -16 131.5 -33t108.5 -49t66 -90.5t4 -157.5zM604 58q-111 0 -193 46t-135.5 124
t-78.5 173q-7 28 -17.5 52t-16.5 47.5t-2 47.5l3 20q26 170 106 297t201.5 197t271.5 70q156 0 252 -71.5t132.5 -197.5t12.5 -291l-3 -21q-20 -140 -92 -251.5t-185 -176.5t-256 -65zM594 224q98 0 168 45.5t112 120t54 161.5l3 21q16 112 2 201t-66 141t-151 52
q-98 0 -170 -52t-116 -141t-60 -201l-3 -21q-12 -87 4.5 -161.5t70.5 -120t152 -45.5z" />
    <glyph glyph-name="uni03F2" unicode="&#x3f2;" horiz-adv-x="1171" 
d="M528 -24q-135 0 -232 56.5t-149.5 159.5t-52.5 241q0 133 41.5 258t119.5 224.5t189.5 158t252.5 58.5q83 0 153.5 -21.5t124 -62.5t87.5 -99t45 -131l-176 -39q-5 43 -23 78t-48 60.5t-71.5 39.5t-95.5 14q-102 0 -180 -48t-131.5 -127t-80.5 -173.5t-27 -187.5
q0 -83 26.5 -151t83.5 -107.5t148 -39.5q58 0 109.5 16t94 44.5t74.5 67t51 83.5l166 -58q-34 -74 -86 -132t-117 -98.5t-140 -62t-156 -21.5z" />
    <glyph glyph-name="uni03F3" unicode="&#x3f3;" horiz-adv-x="496" 
d="M250 1118h181l-199 -1198q-17 -106 -66 -181.5t-128.5 -116t-188.5 -40.5h-36l27 166h33q77 0 121.5 44t57.5 128zM371 1301q-51 0 -82 35t-23 84q8 50 51 84.5t94 34.5q52 0 83 -34.5t23 -84.5q-8 -49 -51 -84t-95 -35z" />
    <glyph glyph-name="uni03F4" unicode="&#x3f4;" horiz-adv-x="1566" 
d="M1320 824v-160h-1024v160h1024zM699 -20q-169 0 -295 72t-195.5 206.5t-69.5 321.5q0 177 55 343.5t159 298.5t250 210t327 78q169 0 294 -72t194.5 -206t69.5 -321q0 -178 -55 -344.5t-158.5 -299t-249 -210t-326.5 -77.5zM706 156q140 0 251 64t188.5 172t118 241.5
t40.5 272.5q0 140 -48.5 235.5t-134.5 144t-198 48.5q-140 0 -251 -64t-189 -172t-119 -241t-41 -272q0 -140 49 -235.5t135.5 -144.5t198.5 -49z" />
    <glyph glyph-name="uni03F5" unicode="&#x3f5;" horiz-adv-x="923" 
d="M487 165h306l-29 -166h-306q-167 0 -262 73.5t-126 197t-8 272.5l6 39q23 150 95.5 271.5t193.5 193.5t287 72h307l-29 -166h-304q-109 0 -179 -51t-108.5 -135.5t-53.5 -184.5l-6 -40q-16 -110 -3.5 -195t65 -133t154.5 -48zM681 639l-27 -164h-545l26 164h546z" />
    <glyph glyph-name="uni03F6" unicode="&#x3f6;" horiz-adv-x="923" 
d="M-1 165h304q111 0 181 51t108 132.5t54 172.5l7 40q16 89 5 170.5t-64 133.5t-165 52h-304l27 166h304q168 0 265 -71t130 -189.5t8 -261.5l-7 -40q-25 -143 -97 -261.5t-191.5 -189.5t-287.5 -71h-306zM238 458l27 164h545l-27 -164h-545z" />
    <glyph glyph-name="uni03F9" unicode="&#x3f9;" horiz-adv-x="1495" 
d="M698 -20q-169 0 -295 72t-195 206.5t-69 321.5q0 176 55 342.5t158 299t249 210.5t328 78q115 0 211.5 -33t168 -96t111 -153.5t40.5 -206.5h-190q-3 76 -30.5 134t-74.5 98t-109 60.5t-134 20.5q-140 0 -251 -64t-188.5 -172t-118.5 -241.5t-41 -271.5q0 -140 49 -236
t135 -144.5t198 -48.5q76 0 148.5 20.5t136 60.5t112.5 98t77 134h191q-39 -114 -106 -204t-156.5 -154t-193.5 -97.5t-216 -33.5z" />
    <glyph glyph-name="uni03FA" unicode="&#x3fa;" horiz-adv-x="1850" 
d="M87 0l247 1490h270l211 -940q8 -34 16.5 -84.5t17 -108.5t16 -115t12.5 -104h-42q23 50 50 108t54.5 115.5t52 106.5t42.5 82l519 940h271l-247 -1490h-187l140 851q8 50 19 112t23.5 128t25 130.5t22.5 120.5h16q-33 -70 -68.5 -142t-69 -138t-62 -120.5t-48.5 -90.5
l-474 -851h-165l-197 851q-10 46 -24.5 123.5t-31 173.5t-34.5 194h19q-8 -60 -17.5 -126t-19.5 -131.5t-19 -125.5t-17 -108l-140 -851h-181z" />
    <glyph glyph-name="uni03FC" unicode="&#x3fc;" horiz-adv-x="1254" 
d="M-4 -418l162 976q29 175 111 303.5t205 199.5t274 71q149 0 248.5 -68.5t140.5 -195t14 -300.5q-28 -180 -110 -313t-201 -206t-259 -73q-106 0 -164.5 35.5t-86.5 82t-43 79.5h-14l-97 -591h-180zM580 137q105 0 184.5 56t131.5 152t71 215q19 117 -0.5 210t-80 147
t-166.5 54q-102 0 -181 -51.5t-130.5 -143.5t-72.5 -215q-21 -125 0 -221t82.5 -149.5t161.5 -53.5zM-165 -255l23 138h646l-23 -138h-646z" />
    <glyph glyph-name="uni03FD" unicode="&#x3fd;" horiz-adv-x="1492" 
d="M615 -20q-114 0 -209.5 33.5t-164.5 97.5t-107.5 154t-38.5 204h190q3 -76 32 -134.5t77.5 -98t112.5 -60t137 -20.5q134 0 253 67.5t204 199t116 321.5q32 191 -9.5 322.5t-138 199.5t-230.5 68q-73 0 -143.5 -20t-132.5 -60t-110 -98t-77 -135h-190q39 115 107.5 205.5
t159 154t196.5 96.5t219 33q191 0 325 -93t191 -264.5t18 -408.5q-39 -236 -153 -407.5t-278.5 -264t-355.5 -92.5z" />
    <glyph glyph-name="uni03FE" unicode="&#x3fe;" horiz-adv-x="1495" 
d="M698 -20q-169 0 -295 72t-195 206.5t-69 321.5q0 176 55 342.5t158 299t249 210.5t328 78q115 0 211.5 -33t168 -96t111 -153.5t40.5 -206.5h-190q-3 76 -30.5 134t-74.5 98t-109 60.5t-134 20.5q-140 0 -251 -64t-188.5 -172t-118.5 -241.5t-41 -271.5q0 -140 49 -236
t135 -144.5t198 -48.5q76 0 148.5 20.5t136 60.5t112.5 98t77 134h191q-39 -114 -106 -204t-156.5 -154t-193.5 -97.5t-216 -33.5zM795 610q-58 0 -94.5 43t-26.5 104q9 53 51.5 87.5t91.5 34.5q61 0 95.5 -43t26.5 -100q-7 -52 -49 -89t-95 -37z" />
    <glyph glyph-name="uni03FF" unicode="&#x3ff;" horiz-adv-x="1492" 
d="M615 -20q-114 0 -209.5 33.5t-164.5 97.5t-107.5 154t-38.5 204h190q3 -76 32 -134.5t77.5 -98t112.5 -60t137 -20.5q134 0 253 67.5t204 199t116 321.5q32 191 -9.5 322.5t-138 199.5t-230.5 68q-73 0 -143.5 -20t-132.5 -60t-110 -98t-77 -135h-190q39 115 107.5 205.5
t159 154t196.5 96.5t219 33q191 0 325 -93t191 -264.5t18 -408.5q-39 -236 -153 -407.5t-278.5 -264t-355.5 -92.5zM733 610q-58 0 -94.5 43t-26.5 104q9 53 51.5 87.5t91.5 34.5q61 0 95.5 -43t26.5 -100q-7 -52 -49 -89t-95 -37z" />
    <glyph glyph-name="B" horiz-adv-x="1340" 
d="M87 0l247 1490h522q156 0 249.5 -54.5t130 -146t18.5 -202.5q-14 -91 -58.5 -153t-107.5 -99.5t-134 -56.5v-10q70 -4 132.5 -49.5t95.5 -129t14 -201.5q-18 -112 -83 -199.5t-182 -138t-292 -50.5h-552zM305 167h345q177 0 264 73.5t103 173.5q12 74 -16.5 133t-91 94
t-154.5 35h-365zM416 836h323q79 0 150 33t121 92.5t63 139.5q16 93 -37.5 157.5t-199.5 64.5h-339z" />
    <glyph glyph-name="C" horiz-adv-x="1495" 
d="M698 -20q-169 0 -295 72t-195 206.5t-69 321.5q0 176 55 342.5t158 299t249 210.5t328 78q115 0 211.5 -33t168 -96t111 -153.5t40.5 -206.5h-190q-3 76 -30.5 134t-74.5 98t-109 60.5t-134 20.5q-140 0 -251 -64t-188.5 -172t-118.5 -241.5t-41 -271.5q0 -140 49 -236
t135 -144.5t198 -48.5q76 0 148.5 20.5t136 60.5t112.5 98t77 134h191q-39 -114 -106 -204t-156.5 -154t-193.5 -97.5t-216 -33.5z" />
    <glyph glyph-name="E" horiz-adv-x="1232" 
d="M87 0l247 1490h908l-28 -167h-718l-80 -487h669l-28 -167h-670l-83 -502h727l-27 -167h-917z" />
    <glyph glyph-name="H" horiz-adv-x="1522" 
d="M87 0l247 1490h190l-107 -644h782l107 644h190l-247 -1490h-190l113 678h-783l-112 -678h-190z" />
    <glyph glyph-name="I" horiz-adv-x="550" 
d="M524 1490l-247 -1490h-190l247 1490h190z" />
    <glyph glyph-name="J" horiz-adv-x="1169" 
d="M458 -20q-175 0 -281.5 91.5t-106.5 260.5q0 15 1.5 33.5t6 51.5t13.5 89h190q-8 -52 -12.5 -80.5t-5.5 -43t-1 -25.5q0 -102 57.5 -156t157.5 -54q112 0 194.5 70t105.5 209l177 1064h190l-177 -1064q-35 -212 -172.5 -329t-336.5 -117z" />
    <glyph glyph-name="K" horiz-adv-x="1376" 
d="M288 426l24 203q63 70 124.5 134t124.5 125t128 121l525 481h258l-749 -682l-11 1zM87 0l247 1490h191l-85 -510l-57 -321l-12 -93l-93 -566h-191zM1017 0l-412 758l125 148l496 -906h-209z" />
    <glyph glyph-name="M" horiz-adv-x="1850" 
d="M87 0l247 1490h270l211 -940q8 -34 16.5 -84.5t17 -108.5t16 -115t12.5 -104h-42q23 50 50 108t54.5 115.5t52 106.5t42.5 82l519 940h271l-247 -1490h-187l140 851q8 50 19 112t23.5 128t25 130.5t22.5 120.5h16q-33 -70 -68.5 -142t-69 -138t-62 -120.5t-48.5 -90.5
l-474 -851h-165l-197 851q-10 46 -24.5 123.5t-31 173.5t-34.5 194h19q-8 -60 -17.5 -126t-19.5 -131.5t-19 -125.5t-17 -108l-140 -851h-181z" />
    <glyph glyph-name="N" horiz-adv-x="1543" 
d="M87 0l247 1490h218l448 -953q14 -30 38.5 -86.5t53 -132t54.5 -163.5h-21q5 86 14 163.5t19 143.5t18 114l151 914h190l-247 -1490h-219l-400 848q-25 54 -51.5 115.5t-61 148.5t-86.5 217h28q-15 -121 -26.5 -214t-20 -159t-15.5 -106l-140 -850h-191z" />
    <glyph glyph-name="uni0418" horiz-adv-x="1543" 
d="M1270 0h-190l141 850q7 39 20.5 107.5t33 162.5t43.5 209h34q-93 -128 -156 -214.5t-110 -148.5t-92 -118l-681 -848h-226l247 1490h191l-152 -914q-8 -51 -20 -117t-29 -142.5t-40 -161.5h-27q52 83 104 157t96 132t72 93l764 953h224z" />
    <glyph glyph-name="O" horiz-adv-x="1566" 
d="M699 -20q-169 0 -295 72t-195.5 206.5t-69.5 321.5q0 177 55 343.5t159 298.5t250 210t327 78q169 0 294 -72t194.5 -206t69.5 -321q0 -178 -55 -344.5t-158.5 -299t-249 -210t-326.5 -77.5zM706 156q140 0 251 64t188.5 172t118 241.5t40.5 272.5q0 140 -48.5 235.5
t-134.5 144t-198 48.5q-140 0 -251 -64t-189 -172t-119 -241t-41 -272q0 -140 49 -235.5t135.5 -144.5t198.5 -49z" />
    <glyph glyph-name="P" horiz-adv-x="1308" 
d="M87 0l247 1490h510q173 0 275 -62.5t139.5 -169.5t15.5 -240q-21 -133 -93.5 -241.5t-195.5 -173t-297 -64.5h-361l28 167h351q121 0 199.5 41.5t122 112.5t57.5 157q14 87 -7 156t-86.5 109.5t-185.5 40.5h-310l-219 -1323h-190z" />
    <glyph glyph-name="T" horiz-adv-x="1324" 
d="M226 1323l28 167h1126l-28 -167h-467l-219 -1323h-190l219 1323h-469z" />
    <glyph glyph-name="X" horiz-adv-x="1397" 
d="M-36 0l720 833l-23 -141l-417 798h211l162 -316q36 -69 58.5 -117t40.5 -94t39 -111h-33q43 64 77 110.5t73 95t98 116.5l272 316h224l-681 -790l23 140l439 -840h-211l-198 378q-32 62 -53.5 106.5t-39 89t-38.5 106.5h40q-40 -61 -73 -106t-70 -89.5t-90 -106.5
l-326 -378h-224z" />
    <glyph glyph-name="Y" horiz-adv-x="1390" 
d="M507 0l101 610l-402 880h206l215 -481q36 -81 62.5 -154.5t49.5 -185.5h-76q60 114 111 188.5t111 151.5l374 481h233l-694 -880l-101 -610h-190z" />
    <glyph glyph-name="Z" horiz-adv-x="1290" 
d="M38 0l23 134l995 1189h-807l28 167h1037l-23 -136l-996 -1187h807l-28 -167h-1036z" />
    <glyph glyph-name="c" horiz-adv-x="1171" 
d="M528 -24q-135 0 -232 56.5t-149.5 159.5t-52.5 241q0 133 41.5 258t119.5 224.5t189.5 158t252.5 58.5q83 0 153.5 -21.5t124 -62.5t87.5 -99t45 -131l-176 -39q-5 43 -23 78t-48 60.5t-71.5 39.5t-95.5 14q-102 0 -180 -48t-131.5 -127t-80.5 -173.5t-27 -187.5
q0 -83 26.5 -151t83.5 -107.5t148 -39.5q58 0 109.5 16t94 44.5t74.5 67t51 83.5l166 -58q-34 -74 -86 -132t-117 -98.5t-140 -62t-156 -21.5z" />
    <glyph glyph-name="uni0237" horiz-adv-x="496" 
d="M250 1118h181l-199 -1198q-17 -106 -66 -181.5t-128.5 -116t-188.5 -40.5h-36l27 166h33q77 0 121.5 44t57.5 128z" />
    <glyph glyph-name="o" horiz-adv-x="1229" 
d="M528 -24q-135 0 -232 56.5t-149.5 159.5t-52.5 241q0 133 41.5 258t120 224.5t190 158t251.5 58.5q135 0 233 -56t150.5 -159t52.5 -243q0 -135 -42 -260t-121.5 -224t-191 -156.5t-250.5 -57.5zM532 137q103 0 181.5 48t131.5 126.5t80 172.5t27 186q0 85 -27 153
t-84 108t-149 40q-102 0 -180 -48t-131 -127t-80 -173.5t-27 -187.5q0 -126 61 -212t197 -86z" />
    <glyph glyph-name="uni00B5" horiz-adv-x="1202" 
d="M-3 -418l254 1536h180l-112 -678q-17 -106 9 -171.5t82.5 -95.5t130.5 -30q78 0 142.5 31.5t109 97t61.5 168.5l112 678h180l-143 -865q-9 -55 11 -76.5t81 -21.5h29l-26 -155h-36q-137 0 -196.5 63.5t-38.5 187.5l17 101h41q-18 -111 -61 -183t-98.5 -112t-111.5 -56.5
t-101 -16.5t-95.5 16.5t-92 57t-60.5 112t-1 182.5h41l-128 -770h-180z" />
    <glyph glyph-name="u.1" horiz-adv-x="1211" 
d="M510 -20q-141 0 -233 50.5t-128.5 148t-13.5 239.5l116 700h180l-114 -691q-16 -97 4.5 -159.5t75 -93t140.5 -30.5q87 0 151.5 30.5t105.5 93t57 159.5l114 691h180l-115 -700q-23 -140 -91.5 -238t-177 -149t-251.5 -51z" />
    <glyph glyph-name="space.tf" horiz-adv-x="550" 
 />
    <glyph glyph-name="uni00A0.tf" horiz-adv-x="550" 
 />
    <glyph glyph-name="quoteright" horiz-adv-x="615" 
d="M221 923l182 567h206l-250 -567h-138z" />
    <glyph glyph-name="uni02B9" horiz-adv-x="495" 
d="M262 916l34 574h211l-151 -574h-94z" />
    <glyph glyph-name="period" horiz-adv-x="589" 
d="M210 -13q-58 0 -94.5 43t-26.5 104q9 53 51.5 87.5t91.5 34.5q61 0 95.5 -43t26.5 -100q-7 -52 -49 -89t-95 -37z" />
    <glyph glyph-name="kgreenlandic" horiz-adv-x="1077" 
d="M431 1118l-185 -1118h-180l185 1118h180zM1141 1118l-645 -640h-239l26 160h169l470 480h219zM726 0l-327 483l120 143l431 -626h-224z" />
    <glyph glyph-name="uni1FBE" horiz-adv-x="549" 
d="M148 -494q-83 0 -119 47.5t-21 138.5l31 190h162l-31 -188q-7 -41 2 -59t36 -18q15 0 24 1t20 3l-17 -103q-16 -6 -41 -9t-46 -3z" />
    <glyph glyph-name="uni0308" horiz-adv-x="0" 
d="M939 1301q-49 0 -78 35t-21 84t49 83.5t90 34.5t77.5 -34.5t20.5 -83.5t-48.5 -84t-89.5 -35zM518 1301q-49 0 -78 35t-21 84t49 83.5t90 34.5t77.5 -34.5t20.5 -83.5t-48.5 -84t-89.5 -35z" />
    <glyph glyph-name="uni0307" horiz-adv-x="0" 
d="M370 1301q-51 0 -82 35t-23 84q8 50 51 84.5t94 34.5q52 0 83 -34.5t23 -84.5q-8 -49 -51 -84t-95 -35z" />
    <glyph glyph-name="dieresistonos_narrow" horiz-adv-x="1106" 
d="M836 1276q-48 0 -76 34t-21 82q8 48 48 82t88 34t76 -34t20 -82q-7 -48 -47 -82t-88 -34zM458 1276q-48 0 -76 34t-21 82q8 48 48 82t88 34t76 -34t20 -82q-7 -48 -47 -82t-88 -34zM633 1594l83 294h193l-151 -294h-125z" />
    <glyph glyph-name="tonos.top" horiz-adv-x="554" 
d="M279 1264l83 294h193l-151 -294h-125z" />
    <glyph glyph-name="crossbar" horiz-adv-x="927" 
d="M160 676l23 138h646l-23 -138h-646z" />
    </font>
</defs>
</svg>
