<?xml version="1.0" standalone="no"?>
<!DOCTYPE svg PUBLIC "-//W3C//DTD SVG 1.1//EN" "http://www.w3.org/Graphics/SVG/1.1/DTD/svg11.dtd" >
<svg xmlns="http://www.w3.org/2000/svg" xmlns:xlink="http://www.w3.org/1999/xlink" version="1.1">
<metadata>
Created by FontForge 20200511 at Fri May 24 18:06:21 2024
 By convertio
Copyright 2016 The Inter Project Authors (https://github.com/rsms/inter)
</metadata>
<defs>
<font id="Inter-Regular" horiz-adv-x="1413" >
  <font-face 
    font-family="Inter"
    font-weight="400"
    font-stretch="normal"
    units-per-em="2048"
    panose-1="2 0 5 3 0 0 0 2 0 4"
    ascent="1638"
    descent="-410"
    cap-height="1490"
    bbox="-42 -426 1526 2263"
    underline-thickness="140"
    underline-position="-418"
    unicode-range="U+0020-20AB"
  />
<missing-glyph horiz-adv-x="1344" 
d="M1016 -416h-688v2272h688v-2272zM512 -192v-64h320v64h-215l215 127v65h-320v-64h216zM512 320v-256h320v256h-320zM768 128h-192v128h192v-128zM512 704v-256h320v256h-192v-128h64v64h64v-128h-192v192h-64zM512 832v-64h320v224h-64v-160h-256zM512 960v-64h192v160
h128v64h-320v-64h128v-96h-128zM640 1248h-64v96h64v-96zM512 1408v-224h320v64h-128v160h-192zM512 1536v-64h320v64h-144v96h144v64h-320v-64h112v-96h-112z" />
    <glyph glyph-name=".notdef" horiz-adv-x="1344" 
d="M1016 -416h-688v2272h688v-2272zM512 -192v-64h320v64h-215l215 127v65h-320v-64h216zM512 320v-256h320v256h-320zM768 128h-192v128h192v-128zM512 704v-256h320v256h-192v-128h64v64h64v-128h-192v192h-64zM512 832v-64h320v224h-64v-160h-256zM512 960v-64h192v160
h128v64h-320v-64h128v-96h-128zM640 1248h-64v96h64v-96zM512 1408v-224h320v64h-128v160h-192zM512 1536v-64h320v64h-144v96h144v64h-320v-64h112v-96h-112z" />
    <glyph glyph-name=".null" horiz-adv-x="1200" 
 />
    <glyph glyph-name=".null" horiz-adv-x="1200" 
 />
    <glyph glyph-name="nonmarkingreturn" horiz-adv-x="682" 
 />
    <glyph glyph-name="space" unicode=" " horiz-adv-x="576" 
 />
    <glyph glyph-name="A" unicode="A" 
d="M52 0l541 1490h220l548 -1490h-200l-316 884q-29 82 -67.5 204.5t-93.5 312.5h36q-54 -192 -93.5 -316.5t-65.5 -200.5l-307 -884h-202zM324 416v166h765v-166h-765z" />
    <glyph glyph-name="uni00A0" unicode="&#xa0;" horiz-adv-x="576" 
 />
    <glyph glyph-name="Adieresis" unicode="&#xc4;" 
d="M52 0l541 1490h220l548 -1490h-200l-316 884q-29 82 -67.5 204.5t-93.5 312.5h36q-54 -192 -93.5 -316.5t-65.5 -200.5l-307 -884h-202zM324 416v166h765v-166h-765zM917 1673q-49 0 -84 35t-35 84t35 83.5t84 34.5t83.5 -34.5t34.5 -83.5t-34.5 -84t-83.5 -35zM496 1673
q-49 0 -84 35t-35 84t35 83.5t84 34.5t83.5 -34.5t34.5 -83.5t-34.5 -84t-83.5 -35z" />
    <glyph glyph-name="Abreve" unicode="&#x102;" 
d="M52 0l541 1490h220l548 -1490h-200l-316 884q-29 82 -67.5 204.5t-93.5 312.5h36q-54 -192 -93.5 -316.5t-65.5 -200.5l-307 -884h-202zM324 416v166h765v-166h-765zM706 1647q-81 0 -146.5 37.5t-104.5 102t-39 143.5h132q0 -68 44.5 -111.5t113.5 -43.5t113.5 43.5
t44.5 111.5h132q0 -79 -38.5 -143t-104 -102t-147.5 -38z" />
    <glyph glyph-name="abreve" unicode="&#x103;" horiz-adv-x="1150" 
d="M471 -26q-106 0 -192.5 40t-137.5 117t-51 187q0 96 38 156t101.5 94.5t140.5 51.5t155 27q100 13 163 20t93.5 24t30.5 58v6q0 70 -26 118.5t-78 74.5t-130 26q-80 0 -137 -25t-92.5 -62.5t-53.5 -76.5l-173 57q43 102 116 159.5t161 81.5t174 24q56 0 127.5 -13.5
t138 -53.5t110 -118.5t43.5 -209.5v-737h-177v152h-12q-19 -39 -61 -80.5t-109 -69.5t-162 -28zM502 133q100 0 169 39t105 101.5t36 130.5v155q-11 -13 -48 -23.5t-84.5 -18.5t-92 -13.5t-70.5 -8.5q-65 -8 -121.5 -27.5t-90.5 -57t-34 -101.5q0 -58 30 -97t82 -59t119 -20
zM558 1275q-81 0 -146.5 37.5t-104.5 102t-39 143.5h132q0 -68 44.5 -111.5t113.5 -43.5t113.5 43.5t44.5 111.5h132q0 -79 -38.5 -143t-104 -102t-147.5 -38z" />
    <glyph glyph-name="Dcroat" unicode="&#x110;" horiz-adv-x="1505" 
d="M672 0h-360v168h348q182 0 301.5 69.5t178.5 199.5t59 311q0 179 -58.5 307.5t-174 197.5t-288.5 69h-374v168h387q218 0 372.5 -89t237 -255.5t82.5 -397.5q0 -233 -83 -400.5t-242 -257.5t-386 -90zM397 1490v-1490h-190v1490h190zM20 668v154h773v-154h-773z" />
    <glyph glyph-name="dcroat" unicode="&#x111;" horiz-adv-x="1254" 
d="M577 -24q-139 0 -246 71t-167 201t-60 308q0 177 60.5 306.5t167.5 199.5t246 70q109 0 173 -36t98.5 -81.5t52.5 -75.5h14v551h180v-1490h-174v173h-20q-18 -31 -53.5 -77.5t-100 -83t-171.5 -36.5zM604 137q102 0 172 53.5t106 148.5t36 219t-35.5 216.5t-105.5 144.5
t-173 52q-106 0 -176.5 -55t-105.5 -148.5t-35 -209.5q0 -117 35.5 -212.5t106.5 -152t175 -56.5zM598 1235v138h646v-138h-646z" />
    <glyph glyph-name="Itilde" unicode="&#x128;" horiz-adv-x="550" 
d="M370 1490v-1490h-190v1490h190zM406 1685q-37 0 -72.5 12.5t-67 29t-58 29t-45.5 12.5q-26 0 -38.5 -25t-14.5 -54h-126q3 90 42.5 149t119.5 59q39 0 72 -13t62 -29.5t55.5 -29.5t51.5 -13t38 19t18 62h123q-3 -94 -44.5 -151t-115.5 -57z" />
    <glyph glyph-name="itilde" unicode="&#x129;" horiz-adv-x="496" 
d="M158 0v1118h180v-1118h-180zM380 1313q-37 0 -72.5 12.5t-67 29t-58 29t-45.5 12.5q-26 0 -38.5 -25t-14.5 -54h-126q3 90 42.5 149t119.5 59q39 0 72 -13t62 -29.5t55.5 -29.5t51.5 -13t38 19t18 62h123q-3 -94 -44.5 -151t-115.5 -57z" />
    <glyph glyph-name="Utilde" unicode="&#x168;" horiz-adv-x="1524" 
d="M763 -24q-176 0 -307.5 69t-203.5 189t-72 273v983h190v-968q0 -107 47.5 -190.5t135.5 -131.5t210 -48t209.5 48t134.5 131.5t47 190.5v968h190v-983q0 -153 -72 -273t-202.5 -189t-306.5 -69zM894 1685q-37 0 -72.5 12.5t-67 29t-58 29t-45.5 12.5q-26 0 -38.5 -25
t-14.5 -54h-126q3 90 42.5 149t119.5 59q39 0 72 -13t62 -29.5t55.5 -29.5t51.5 -13t38 19t18 62h123q-3 -94 -44.5 -151t-115.5 -57z" />
    <glyph glyph-name="utilde" unicode="&#x169;" horiz-adv-x="1211" 
d="M537 -14q-113 0 -198.5 46.5t-133 140.5t-47.5 235v710h180v-695q0 -129 68 -202t185 -73q80 0 143.5 35t100.5 102.5t37 162.5v670h181v-1118h-174v271h24q-52 -157 -147.5 -221t-218.5 -64zM736 1313q-37 0 -72.5 12.5t-67 29t-58 29t-45.5 12.5q-26 0 -38.5 -25
t-14.5 -54h-126q3 90 42.5 149t119.5 59q39 0 72 -13t62 -29.5t55.5 -29.5t51.5 -13t38 19t18 62h123q-3 -94 -44.5 -151t-115.5 -57z" />
    <glyph glyph-name="Ohorn" unicode="&#x1a0;" horiz-adv-x="1560" 
d="M780 1386v124q59 0 93.5 -3t73 -7t107.5 -7t196 -3q18 0 18 18v190h170v-182q0 -85 -42 -127.5t-128 -42.5q-39 0 -72.5 6t-81.5 14t-126.5 14t-207.5 6zM784 -20q-191 0 -340.5 92.5t-235.5 264t-86 407.5q0 237 86 408.5t235.5 264.5t340.5 93t340 -93t234.5 -264.5
t85.5 -408.5q0 -236 -85.5 -407.5t-234.5 -264t-340 -92.5zM784 156q133 0 240.5 67.5t171 199t63.5 321.5q0 192 -63.5 323.5t-171 199t-240.5 67.5q-134 0 -242 -68t-171.5 -199.5t-63.5 -322.5q0 -190 63.5 -321t171.5 -199t242 -68z" />
    <glyph glyph-name="ohorn" unicode="&#x1a1;" horiz-adv-x="1222" 
d="M611 1014v118q44 0 86 -2t84.5 -5t85 -5t85.5 -2q34 0 34 34v214h168v-198q0 -77 -42 -115.5t-128 -38.5h-186.5h-186.5zM613 -24q-152 0 -266.5 72t-178.5 202t-64 302q0 175 64 305.5t178.5 202.5t266.5 72q153 0 268 -72t179 -202.5t64 -305.5q0 -172 -64 -302
t-179 -202t-268 -72zM613 137q113 0 186 58t108 152.5t35 204.5q0 111 -35 206.5t-108 154t-186 58.5q-112 0 -184 -58.5t-107 -153.5t-35 -207q0 -110 35 -204.5t107 -152.5t184 -58z" />
    <glyph glyph-name="Uhorn" unicode="&#x1af;" horiz-adv-x="1518" 
d="M1158 1346v144h180q18 0 18 18v190h170v-182q0 -85 -42 -127.5t-128 -42.5h-198zM763 -24q-176 0 -307.5 69t-203.5 189t-72 273v983h190v-968q0 -107 47.5 -190.5t135.5 -131.5t210 -48t209.5 48t134.5 131.5t47 190.5v968h190v-983q0 -153 -72 -273t-202.5 -189
t-306.5 -69z" />
    <glyph glyph-name="uhorn" unicode="&#x1b0;" horiz-adv-x="1269" 
d="M944 998v120h90q34 0 34 34v214h160v-198q0 -85 -42 -127.5t-128 -42.5h-114zM537 -14q-113 0 -198.5 46.5t-133 140.5t-47.5 235v710h180v-695q0 -129 68 -202t185 -73q80 0 143.5 35t100.5 102.5t37 162.5v670h181v-1118h-174v271h24q-52 -157 -147.5 -221t-218.5 -64z
" />
    <glyph glyph-name="gravecomb" unicode="&#x300;" horiz-adv-x="0" 
d="M343 1264l-193 294h201l140 -294h-148z" />
    <glyph glyph-name="acutecomb" unicode="&#x301;" horiz-adv-x="0" 
d="M168 1264l140 294h201l-194 -294h-147z" />
    <glyph glyph-name="tildecomb" unicode="&#x303;" horiz-adv-x="0" 
d="M648 1313q-37 0 -72.5 12.5t-67 29t-58 29t-45.5 12.5q-26 0 -38.5 -25t-14.5 -54h-126q3 90 42.5 149t119.5 59q39 0 72 -13t62 -29.5t55.5 -29.5t51.5 -13t38 19t18 62h123q-3 -94 -44.5 -151t-115.5 -57z" />
    <glyph glyph-name="uni0304" unicode="&#x304;" horiz-adv-x="0" 
d="M766 1491v-142h-554v142h554z" />
    <glyph glyph-name="uni0308" unicode="&#x308;" horiz-adv-x="0" 
d="M816 1301q-49 0 -84 35t-35 84t35 83.5t84 34.5t83.5 -34.5t34.5 -83.5t-34.5 -84t-83.5 -35zM395 1301q-49 0 -84 35t-35 84t35 83.5t84 34.5t83.5 -34.5t34.5 -83.5t-34.5 -84t-83.5 -35z" />
    <glyph glyph-name="hookabovecomb" unicode="&#x309;" horiz-adv-x="0" 
d="M326 1264h-136l71 137q11 20 4.5 29.5t-26.5 9.5h-139v118h139q62 0 101.5 -16.5t57.5 -45t13.5 -66.5t-31.5 -80z" />
    <glyph glyph-name="dotbelow" unicode="&#x323;" horiz-adv-x="495" 
d="M247 -421q-51 0 -88 35t-37 84q0 50 37 84.5t88 34.5q52 0 89 -34.5t37 -84.5q0 -49 -37 -84t-89 -35z" />
    <glyph glyph-name="uni1EA0" unicode="&#x1ea0;" 
d="M52 0l541 1490h220l548 -1490h-200l-316 884q-29 82 -67.5 204.5t-93.5 312.5h36q-54 -192 -93.5 -316.5t-65.5 -200.5l-307 -884h-202zM324 416v166h765v-166h-765zM709 -421q-51 0 -88 35t-37 84q0 50 37 84.5t88 34.5q52 0 89 -34.5t37 -84.5q0 -49 -37 -84t-89 -35z
" />
    <glyph glyph-name="uni1EA1" unicode="&#x1ea1;" horiz-adv-x="1150" 
d="M471 -26q-106 0 -192.5 40t-137.5 117t-51 187q0 96 38 156t101.5 94.5t140.5 51.5t155 27q100 13 163 20t93.5 24t30.5 58v6q0 70 -26 118.5t-78 74.5t-130 26q-80 0 -137 -25t-92.5 -62.5t-53.5 -76.5l-173 57q43 102 116 159.5t161 81.5t174 24q56 0 127.5 -13.5
t138 -53.5t110 -118.5t43.5 -209.5v-737h-177v152h-12q-19 -39 -61 -80.5t-109 -69.5t-162 -28zM502 133q100 0 169 39t105 101.5t36 130.5v155q-11 -13 -48 -23.5t-84.5 -18.5t-92 -13.5t-70.5 -8.5q-65 -8 -121.5 -27.5t-90.5 -57t-34 -101.5q0 -58 30 -97t82 -59t119 -20
zM560 -421q-51 0 -88 35t-37 84q0 50 37 84.5t88 34.5q52 0 89 -34.5t37 -84.5q0 -49 -37 -84t-89 -35z" />
    <glyph glyph-name="uni1EA2" unicode="&#x1ea2;" 
d="M52 0l541 1490h220l548 -1490h-200l-316 884q-29 82 -67.5 204.5t-93.5 312.5h36q-54 -192 -93.5 -316.5t-65.5 -200.5l-307 -884h-202zM324 416v166h765v-166h-765zM765 1636h-136l71 137q11 20 4.5 29.5t-26.5 9.5h-139v118h139q62 0 101.5 -16.5t57.5 -45t13.5 -66.5
t-31.5 -80z" />
    <glyph glyph-name="uni1EA3" unicode="&#x1ea3;" horiz-adv-x="1150" 
d="M471 -26q-106 0 -192.5 40t-137.5 117t-51 187q0 96 38 156t101.5 94.5t140.5 51.5t155 27q100 13 163 20t93.5 24t30.5 58v6q0 70 -26 118.5t-78 74.5t-130 26q-80 0 -137 -25t-92.5 -62.5t-53.5 -76.5l-173 57q43 102 116 159.5t161 81.5t174 24q56 0 127.5 -13.5
t138 -53.5t110 -118.5t43.5 -209.5v-737h-177v152h-12q-19 -39 -61 -80.5t-109 -69.5t-162 -28zM502 133q100 0 169 39t105 101.5t36 130.5v155q-11 -13 -48 -23.5t-84.5 -18.5t-92 -13.5t-70.5 -8.5q-65 -8 -121.5 -27.5t-90.5 -57t-34 -101.5q0 -58 30 -97t82 -59t119 -20
zM617 1264h-136l71 137q11 20 4.5 29.5t-26.5 9.5h-139v118h139q62 0 101.5 -16.5t57.5 -45t13.5 -66.5t-31.5 -80z" />
    <glyph glyph-name="uni1EA4" unicode="&#x1ea4;" 
d="M52 0l541 1490h220l548 -1490h-200l-316 884q-29 82 -67.5 204.5t-93.5 312.5h36q-54 -192 -93.5 -316.5t-65.5 -200.5l-307 -884h-202zM324 416v166h765v-166h-765zM569 1626h-177v9l235 267h171l236 -267v-9h-179l-142 175zM848 1987l140 276h201l-194 -276h-147z" />
    <glyph glyph-name="uni1EA5" unicode="&#x1ea5;" horiz-adv-x="1150" 
d="M471 -26q-106 0 -192.5 40t-137.5 117t-51 187q0 96 38 156t101.5 94.5t140.5 51.5t155 27q100 13 163 20t93.5 24t30.5 58v6q0 70 -26 118.5t-78 74.5t-130 26q-80 0 -137 -25t-92.5 -62.5t-53.5 -76.5l-173 57q43 102 116 159.5t161 81.5t174 24q56 0 127.5 -13.5
t138 -53.5t110 -118.5t43.5 -209.5v-737h-177v152h-12q-19 -39 -61 -80.5t-109 -69.5t-162 -28zM502 133q100 0 169 39t105 101.5t36 130.5v155q-11 -13 -48 -23.5t-84.5 -18.5t-92 -13.5t-70.5 -8.5q-65 -8 -121.5 -27.5t-90.5 -57t-34 -101.5q0 -58 30 -97t82 -59t119 -20
zM421 1254h-177v9l235 267h171l236 -267v-9h-179l-142 175zM700 1615l140 276h201l-194 -276h-147z" />
    <glyph glyph-name="uni1EA6" unicode="&#x1ea6;" 
d="M52 0l541 1490h220l548 -1490h-200l-316 884q-29 82 -67.5 204.5t-93.5 312.5h36q-54 -192 -93.5 -316.5t-65.5 -200.5l-307 -884h-202zM324 416v166h765v-166h-765zM569 1626h-177v9l235 267h171l236 -267v-9h-179l-142 175zM897 1987l-193 276h201l140 -276h-148z" />
    <glyph glyph-name="uni1EA7" unicode="&#x1ea7;" horiz-adv-x="1150" 
d="M471 -26q-106 0 -192.5 40t-137.5 117t-51 187q0 96 38 156t101.5 94.5t140.5 51.5t155 27q100 13 163 20t93.5 24t30.5 58v6q0 70 -26 118.5t-78 74.5t-130 26q-80 0 -137 -25t-92.5 -62.5t-53.5 -76.5l-173 57q43 102 116 159.5t161 81.5t174 24q56 0 127.5 -13.5
t138 -53.5t110 -118.5t43.5 -209.5v-737h-177v152h-12q-19 -39 -61 -80.5t-109 -69.5t-162 -28zM502 133q100 0 169 39t105 101.5t36 130.5v155q-11 -13 -48 -23.5t-84.5 -18.5t-92 -13.5t-70.5 -8.5q-65 -8 -121.5 -27.5t-90.5 -57t-34 -101.5q0 -58 30 -97t82 -59t119 -20
zM421 1254h-177v9l235 267h171l236 -267v-9h-179l-142 175zM749 1615l-193 276h201l140 -276h-148z" />
    <glyph glyph-name="uni1EA8" unicode="&#x1ea8;" 
d="M52 0l541 1490h220l548 -1490h-200l-316 884q-29 82 -67.5 204.5t-93.5 312.5h36q-54 -192 -93.5 -316.5t-65.5 -200.5l-307 -884h-202zM324 416v166h765v-166h-765zM569 1626h-177v9l235 267h171l236 -267v-9h-179l-142 175zM979 1987h-136l63 119q11 21 4.5 30t-26.5 9
h-139v118h139q83 0 127 -29t48 -76t-34 -103z" />
    <glyph glyph-name="uni1EA9" unicode="&#x1ea9;" horiz-adv-x="1150" 
d="M471 -26q-106 0 -192.5 40t-137.5 117t-51 187q0 96 38 156t101.5 94.5t140.5 51.5t155 27q100 13 163 20t93.5 24t30.5 58v6q0 70 -26 118.5t-78 74.5t-130 26q-80 0 -137 -25t-92.5 -62.5t-53.5 -76.5l-173 57q43 102 116 159.5t161 81.5t174 24q56 0 127.5 -13.5
t138 -53.5t110 -118.5t43.5 -209.5v-737h-177v152h-12q-19 -39 -61 -80.5t-109 -69.5t-162 -28zM502 133q100 0 169 39t105 101.5t36 130.5v155q-11 -13 -48 -23.5t-84.5 -18.5t-92 -13.5t-70.5 -8.5q-65 -8 -121.5 -27.5t-90.5 -57t-34 -101.5q0 -58 30 -97t82 -59t119 -20
zM421 1254h-177v9l235 267h171l236 -267v-9h-179l-142 175zM831 1615h-136l63 119q11 21 4.5 30t-26.5 9h-139v118h139q83 0 127 -29t48 -76t-34 -103z" />
    <glyph glyph-name="uni1EAA" unicode="&#x1eaa;" 
d="M52 0l541 1490h220l548 -1490h-200l-316 884q-29 82 -67.5 204.5t-93.5 312.5h36q-54 -192 -93.5 -316.5t-65.5 -200.5l-307 -884h-202zM324 416v166h765v-166h-765zM569 1626h-177v9l235 267h171l236 -267v-9h-179l-142 175zM842 2015q-37 0 -72.5 12.5t-67 29t-58 29
t-45.5 12.5q-26 0 -38.5 -25t-14.5 -54h-126q3 90 42.5 149t119.5 59q39 0 72 -13t62 -29.5t55.5 -29.5t51.5 -13t38 19t18 62h123q-3 -94 -44.5 -151t-115.5 -57z" />
    <glyph glyph-name="uni1EAB" unicode="&#x1eab;" horiz-adv-x="1150" 
d="M471 -26q-106 0 -192.5 40t-137.5 117t-51 187q0 96 38 156t101.5 94.5t140.5 51.5t155 27q100 13 163 20t93.5 24t30.5 58v6q0 70 -26 118.5t-78 74.5t-130 26q-80 0 -137 -25t-92.5 -62.5t-53.5 -76.5l-173 57q43 102 116 159.5t161 81.5t174 24q56 0 127.5 -13.5
t138 -53.5t110 -118.5t43.5 -209.5v-737h-177v152h-12q-19 -39 -61 -80.5t-109 -69.5t-162 -28zM502 133q100 0 169 39t105 101.5t36 130.5v155q-11 -13 -48 -23.5t-84.5 -18.5t-92 -13.5t-70.5 -8.5q-65 -8 -121.5 -27.5t-90.5 -57t-34 -101.5q0 -58 30 -97t82 -59t119 -20
zM421 1254h-177v9l235 267h171l236 -267v-9h-179l-142 175zM694 1643q-37 0 -72.5 12.5t-67 29t-58 29t-45.5 12.5q-26 0 -38.5 -25t-14.5 -54h-126q3 90 42.5 149t119.5 59q39 0 72 -13t62 -29.5t55.5 -29.5t51.5 -13t38 19t18 62h123q-3 -94 -44.5 -151t-115.5 -57z" />
    <glyph glyph-name="uni1EAC" unicode="&#x1eac;" 
d="M52 0l541 1490h220l548 -1490h-200l-316 884q-29 82 -67.5 204.5t-93.5 312.5h36q-54 -192 -93.5 -316.5t-65.5 -200.5l-307 -884h-202zM324 416v166h765v-166h-765zM562 1654h-177v9l235 267h171l236 -267v-9h-179l-142 175zM709 -421q-51 0 -88 35t-37 84q0 50 37 84.5
t88 34.5q52 0 89 -34.5t37 -84.5q0 -49 -37 -84t-89 -35z" />
    <glyph glyph-name="uni1EAD" unicode="&#x1ead;" horiz-adv-x="1150" 
d="M471 -26q-106 0 -192.5 40t-137.5 117t-51 187q0 96 38 156t101.5 94.5t140.5 51.5t155 27q100 13 163 20t93.5 24t30.5 58v6q0 70 -26 118.5t-78 74.5t-130 26q-80 0 -137 -25t-92.5 -62.5t-53.5 -76.5l-173 57q43 102 116 159.5t161 81.5t174 24q56 0 127.5 -13.5
t138 -53.5t110 -118.5t43.5 -209.5v-737h-177v152h-12q-19 -39 -61 -80.5t-109 -69.5t-162 -28zM502 133q100 0 169 39t105 101.5t36 130.5v155q-11 -13 -48 -23.5t-84.5 -18.5t-92 -13.5t-70.5 -8.5q-65 -8 -121.5 -27.5t-90.5 -57t-34 -101.5q0 -58 30 -97t82 -59t119 -20
zM414 1282h-177v9l235 267h171l236 -267v-9h-179l-142 175zM560 -421q-51 0 -88 35t-37 84q0 50 37 84.5t88 34.5q52 0 89 -34.5t37 -84.5q0 -49 -37 -84t-89 -35z" />
    <glyph glyph-name="uni1EAE" unicode="&#x1eae;" 
d="M52 0l541 1490h220l548 -1490h-200l-316 884q-29 82 -67.5 204.5t-93.5 312.5h36q-54 -192 -93.5 -316.5t-65.5 -200.5l-307 -884h-202zM324 416v166h765v-166h-765zM711 1619q-81 0 -146.5 37.5t-104.5 102t-39 143.5h132q0 -68 44.5 -111.5t113.5 -43.5t113.5 43.5
t44.5 111.5h132q0 -79 -38.5 -143t-104 -102t-147.5 -38zM636 1987l140 276h201l-194 -276h-147z" />
    <glyph glyph-name="uni1EAF" unicode="&#x1eaf;" horiz-adv-x="1150" 
d="M471 -26q-106 0 -192.5 40t-137.5 117t-51 187q0 96 38 156t101.5 94.5t140.5 51.5t155 27q100 13 163 20t93.5 24t30.5 58v6q0 70 -26 118.5t-78 74.5t-130 26q-80 0 -137 -25t-92.5 -62.5t-53.5 -76.5l-173 57q43 102 116 159.5t161 81.5t174 24q56 0 127.5 -13.5
t138 -53.5t110 -118.5t43.5 -209.5v-737h-177v152h-12q-19 -39 -61 -80.5t-109 -69.5t-162 -28zM502 133q100 0 169 39t105 101.5t36 130.5v155q-11 -13 -48 -23.5t-84.5 -18.5t-92 -13.5t-70.5 -8.5q-65 -8 -121.5 -27.5t-90.5 -57t-34 -101.5q0 -58 30 -97t82 -59t119 -20
zM563 1247q-81 0 -146.5 37.5t-104.5 102t-39 143.5h132q0 -68 44.5 -111.5t113.5 -43.5t113.5 43.5t44.5 111.5h132q0 -79 -38.5 -143t-104 -102t-147.5 -38zM488 1615l140 276h201l-194 -276h-147z" />
    <glyph glyph-name="uni1EB0" unicode="&#x1eb0;" 
d="M52 0l541 1490h220l548 -1490h-200l-316 884q-29 82 -67.5 204.5t-93.5 312.5h36q-54 -192 -93.5 -316.5t-65.5 -200.5l-307 -884h-202zM324 416v166h765v-166h-765zM701 1619q-81 0 -147 38t-104.5 102t-38.5 143h132q0 -68 44.5 -111.5t113.5 -43.5t113.5 43.5
t44.5 111.5h132q0 -79 -38.5 -143.5t-104.5 -102t-147 -37.5zM776 1987h-147l-194 276h201z" />
    <glyph glyph-name="uni1EB1" unicode="&#x1eb1;" horiz-adv-x="1150" 
d="M471 -26q-106 0 -192.5 40t-137.5 117t-51 187q0 96 38 156t101.5 94.5t140.5 51.5t155 27q100 13 163 20t93.5 24t30.5 58v6q0 70 -26 118.5t-78 74.5t-130 26q-80 0 -137 -25t-92.5 -62.5t-53.5 -76.5l-173 57q43 102 116 159.5t161 81.5t174 24q56 0 127.5 -13.5
t138 -53.5t110 -118.5t43.5 -209.5v-737h-177v152h-12q-19 -39 -61 -80.5t-109 -69.5t-162 -28zM502 133q100 0 169 39t105 101.5t36 130.5v155q-11 -13 -48 -23.5t-84.5 -18.5t-92 -13.5t-70.5 -8.5q-65 -8 -121.5 -27.5t-90.5 -57t-34 -101.5q0 -58 30 -97t82 -59t119 -20
zM553 1247q-81 0 -147 38t-104.5 102t-38.5 143h132q0 -68 44.5 -111.5t113.5 -43.5t113.5 43.5t44.5 111.5h132q0 -79 -38.5 -143.5t-104.5 -102t-147 -37.5zM628 1615h-147l-194 276h201z" />
    <glyph glyph-name="uni1EB2" unicode="&#x1eb2;" 
d="M52 0l541 1490h220l548 -1490h-200l-316 884q-29 82 -67.5 204.5t-93.5 312.5h36q-54 -192 -93.5 -316.5t-65.5 -200.5l-307 -884h-202zM324 416v166h765v-166h-765zM711 1619q-81 0 -146.5 37.5t-104.5 102t-39 143.5h132q0 -68 44.5 -111.5t113.5 -43.5t113.5 43.5
t44.5 111.5h132q0 -79 -38.5 -143t-104 -102t-147.5 -38zM780 1987h-136l63 119q11 21 4.5 30t-26.5 9h-139v118h139q83 0 127 -29t48 -76t-34 -103z" />
    <glyph glyph-name="uni1EB3" unicode="&#x1eb3;" horiz-adv-x="1150" 
d="M471 -26q-106 0 -192.5 40t-137.5 117t-51 187q0 96 38 156t101.5 94.5t140.5 51.5t155 27q100 13 163 20t93.5 24t30.5 58v6q0 70 -26 118.5t-78 74.5t-130 26q-80 0 -137 -25t-92.5 -62.5t-53.5 -76.5l-173 57q43 102 116 159.5t161 81.5t174 24q56 0 127.5 -13.5
t138 -53.5t110 -118.5t43.5 -209.5v-737h-177v152h-12q-19 -39 -61 -80.5t-109 -69.5t-162 -28zM502 133q100 0 169 39t105 101.5t36 130.5v155q-11 -13 -48 -23.5t-84.5 -18.5t-92 -13.5t-70.5 -8.5q-65 -8 -121.5 -27.5t-90.5 -57t-34 -101.5q0 -58 30 -97t82 -59t119 -20
zM563 1247q-81 0 -146.5 37.5t-104.5 102t-39 143.5h132q0 -68 44.5 -111.5t113.5 -43.5t113.5 43.5t44.5 111.5h132q0 -79 -38.5 -143t-104 -102t-147.5 -38zM632 1615h-136l63 119q11 21 4.5 30t-26.5 9h-139v118h139q83 0 127 -29t48 -76t-34 -103z" />
    <glyph glyph-name="uni1EB4" unicode="&#x1eb4;" 
d="M52 0l541 1490h220l548 -1490h-200l-316 884q-29 82 -67.5 204.5t-93.5 312.5h36q-54 -192 -93.5 -316.5t-65.5 -200.5l-307 -884h-202zM324 416v166h765v-166h-765zM706 1621q-80 0 -144.5 37.5t-102.5 101t-38 141.5h128q0 -69 44 -112.5t113 -43.5t113 43.5t44 112.5
h128q0 -78 -38 -141.5t-102.5 -101t-144.5 -37.5zM846 2014q-37 0 -72.5 12.5t-67 29t-58 29t-45.5 12.5q-26 0 -38.5 -25t-14.5 -54h-126q3 90 42.5 149t119.5 59q39 0 72 -13t62 -29.5t55.5 -29.5t51.5 -13t38 19t18 62h123q-3 -94 -44.5 -151t-115.5 -57z" />
    <glyph glyph-name="uni1EB5" unicode="&#x1eb5;" horiz-adv-x="1150" 
d="M471 -26q-106 0 -192.5 40t-137.5 117t-51 187q0 96 38 156t101.5 94.5t140.5 51.5t155 27q100 13 163 20t93.5 24t30.5 58v6q0 70 -26 118.5t-78 74.5t-130 26q-80 0 -137 -25t-92.5 -62.5t-53.5 -76.5l-173 57q43 102 116 159.5t161 81.5t174 24q56 0 127.5 -13.5
t138 -53.5t110 -118.5t43.5 -209.5v-737h-177v152h-12q-19 -39 -61 -80.5t-109 -69.5t-162 -28zM502 133q100 0 169 39t105 101.5t36 130.5v155q-11 -13 -48 -23.5t-84.5 -18.5t-92 -13.5t-70.5 -8.5q-65 -8 -121.5 -27.5t-90.5 -57t-34 -101.5q0 -58 30 -97t82 -59t119 -20
zM558 1249q-80 0 -144.5 37.5t-102.5 101t-38 141.5h128q0 -69 44 -112.5t113 -43.5t113 43.5t44 112.5h128q0 -78 -38 -141.5t-102.5 -101t-144.5 -37.5zM698 1642q-37 0 -72.5 12.5t-67 29t-58 29t-45.5 12.5q-26 0 -38.5 -25t-14.5 -54h-126q3 90 42.5 149t119.5 59
q39 0 72 -13t62 -29.5t55.5 -29.5t51.5 -13t38 19t18 62h123q-3 -94 -44.5 -151t-115.5 -57z" />
    <glyph glyph-name="uni1EB6" unicode="&#x1eb6;" 
d="M52 0l541 1490h220l548 -1490h-200l-316 884q-29 82 -67.5 204.5t-93.5 312.5h36q-54 -192 -93.5 -316.5t-65.5 -200.5l-307 -884h-202zM324 416v166h765v-166h-765zM706 1647q-81 0 -146.5 37.5t-104.5 102t-39 143.5h132q0 -68 44.5 -111.5t113.5 -43.5t113.5 43.5
t44.5 111.5h132q0 -79 -38.5 -143t-104 -102t-147.5 -38zM709 -421q-51 0 -88 35t-37 84q0 50 37 84.5t88 34.5q52 0 89 -34.5t37 -84.5q0 -49 -37 -84t-89 -35z" />
    <glyph glyph-name="uni1EB7" unicode="&#x1eb7;" horiz-adv-x="1150" 
d="M471 -26q-106 0 -192.5 40t-137.5 117t-51 187q0 96 38 156t101.5 94.5t140.5 51.5t155 27q100 13 163 20t93.5 24t30.5 58v6q0 70 -26 118.5t-78 74.5t-130 26q-80 0 -137 -25t-92.5 -62.5t-53.5 -76.5l-173 57q43 102 116 159.5t161 81.5t174 24q56 0 127.5 -13.5
t138 -53.5t110 -118.5t43.5 -209.5v-737h-177v152h-12q-19 -39 -61 -80.5t-109 -69.5t-162 -28zM502 133q100 0 169 39t105 101.5t36 130.5v155q-11 -13 -48 -23.5t-84.5 -18.5t-92 -13.5t-70.5 -8.5q-65 -8 -121.5 -27.5t-90.5 -57t-34 -101.5q0 -58 30 -97t82 -59t119 -20
zM558 1275q-81 0 -146.5 37.5t-104.5 102t-39 143.5h132q0 -68 44.5 -111.5t113.5 -43.5t113.5 43.5t44.5 111.5h132q0 -79 -38.5 -143t-104 -102t-147.5 -38zM560 -421q-51 0 -88 35t-37 84q0 50 37 84.5t88 34.5q52 0 89 -34.5t37 -84.5q0 -49 -37 -84t-89 -35z" />
    <glyph glyph-name="uni1EB8" unicode="&#x1eb8;" horiz-adv-x="1231" 
d="M180 0v1490h908v-168h-718v-486h669v-168h-669v-500h727v-168h-917zM642 -421q-51 0 -88 35t-37 84q0 50 37 84.5t88 34.5q52 0 89 -34.5t37 -84.5q0 -49 -37 -84t-89 -35z" />
    <glyph glyph-name="uni1EB9" unicode="&#x1eb9;" horiz-adv-x="1194" 
d="M628 -24q-162 0 -279.5 72t-181 201t-63.5 301t62 303t175.5 205t265.5 74q89 0 175.5 -29.5t157 -95t112.5 -172.5t42 -262v-75h-868v152h771l-84 -56q0 110 -34.5 195.5t-102.5 134t-169 48.5t-173 -49.5t-110 -129t-38 -170.5v-101q0 -124 43 -210.5t120.5 -131
t179.5 -44.5q66 0 120 19t93 57.5t60 95.5l174 -48q-26 -84 -88 -148t-153.5 -100t-206.5 -36zM606 -421q-51 0 -88 35t-37 84q0 50 37 84.5t88 34.5q52 0 89 -34.5t37 -84.5q0 -49 -37 -84t-89 -35z" />
    <glyph glyph-name="uni1EBA" unicode="&#x1eba;" horiz-adv-x="1231" 
d="M180 0v1490h908v-168h-718v-486h669v-168h-669v-500h727v-168h-917zM698 1636h-136l71 137q11 20 4.5 29.5t-26.5 9.5h-139v118h139q62 0 101.5 -16.5t57.5 -45t13.5 -66.5t-31.5 -80z" />
    <glyph glyph-name="uni1EBB" unicode="&#x1ebb;" horiz-adv-x="1194" 
d="M628 -24q-162 0 -279.5 72t-181 201t-63.5 301t62 303t175.5 205t265.5 74q89 0 175.5 -29.5t157 -95t112.5 -172.5t42 -262v-75h-868v152h771l-84 -56q0 110 -34.5 195.5t-102.5 134t-169 48.5t-173 -49.5t-110 -129t-38 -170.5v-101q0 -124 43 -210.5t120.5 -131
t179.5 -44.5q66 0 120 19t93 57.5t60 95.5l174 -48q-26 -84 -88 -148t-153.5 -100t-206.5 -36zM662 1264h-136l71 137q11 20 4.5 29.5t-26.5 9.5h-139v118h139q62 0 101.5 -16.5t57.5 -45t13.5 -66.5t-31.5 -80z" />
    <glyph glyph-name="uni1EBC" unicode="&#x1ebc;" horiz-adv-x="1231" 
d="M180 0v1490h908v-168h-718v-486h669v-168h-669v-500h727v-168h-917zM770 1685q-37 0 -72.5 12.5t-67 29t-58 29t-45.5 12.5q-26 0 -38.5 -25t-14.5 -54h-126q3 90 42.5 149t119.5 59q39 0 72 -13t62 -29.5t55.5 -29.5t51.5 -13t38 19t18 62h123q-3 -94 -44.5 -151
t-115.5 -57z" />
    <glyph glyph-name="uni1EBD" unicode="&#x1ebd;" horiz-adv-x="1194" 
d="M628 -24q-162 0 -279.5 72t-181 201t-63.5 301t62 303t175.5 205t265.5 74q89 0 175.5 -29.5t157 -95t112.5 -172.5t42 -262v-75h-868v152h771l-84 -56q0 110 -34.5 195.5t-102.5 134t-169 48.5t-173 -49.5t-110 -129t-38 -170.5v-101q0 -124 43 -210.5t120.5 -131
t179.5 -44.5q66 0 120 19t93 57.5t60 95.5l174 -48q-26 -84 -88 -148t-153.5 -100t-206.5 -36zM734 1313q-37 0 -72.5 12.5t-67 29t-58 29t-45.5 12.5q-26 0 -38.5 -25t-14.5 -54h-126q3 90 42.5 149t119.5 59q39 0 72 -13t62 -29.5t55.5 -29.5t51.5 -13t38 19t18 62h123
q-3 -94 -44.5 -151t-115.5 -57z" />
    <glyph glyph-name="uni1EBE" unicode="&#x1ebe;" horiz-adv-x="1231" 
d="M180 0v1490h908v-168h-718v-486h669v-168h-669v-500h727v-168h-917zM502 1626h-177v9l235 267h171l236 -267v-9h-179l-142 175zM781 1987l140 276h201l-194 -276h-147z" />
    <glyph glyph-name="uni1EBF" unicode="&#x1ebf;" horiz-adv-x="1194" 
d="M628 -24q-162 0 -279.5 72t-181 201t-63.5 301t62 303t175.5 205t265.5 74q89 0 175.5 -29.5t157 -95t112.5 -172.5t42 -262v-75h-868v152h771l-84 -56q0 110 -34.5 195.5t-102.5 134t-169 48.5t-173 -49.5t-110 -129t-38 -170.5v-101q0 -124 43 -210.5t120.5 -131
t179.5 -44.5q66 0 120 19t93 57.5t60 95.5l174 -48q-26 -84 -88 -148t-153.5 -100t-206.5 -36zM466 1254h-177v9l235 267h171l236 -267v-9h-179l-142 175zM745 1615l140 276h201l-194 -276h-147z" />
    <glyph glyph-name="uni1EC0" unicode="&#x1ec0;" horiz-adv-x="1231" 
d="M180 0v1490h908v-168h-718v-486h669v-168h-669v-500h727v-168h-917zM502 1626h-177v9l235 267h171l236 -267v-9h-179l-142 175zM830 1987l-193 276h201l140 -276h-148z" />
    <glyph glyph-name="uni1EC1" unicode="&#x1ec1;" horiz-adv-x="1194" 
d="M628 -24q-162 0 -279.5 72t-181 201t-63.5 301t62 303t175.5 205t265.5 74q89 0 175.5 -29.5t157 -95t112.5 -172.5t42 -262v-75h-868v152h771l-84 -56q0 110 -34.5 195.5t-102.5 134t-169 48.5t-173 -49.5t-110 -129t-38 -170.5v-101q0 -124 43 -210.5t120.5 -131
t179.5 -44.5q66 0 120 19t93 57.5t60 95.5l174 -48q-26 -84 -88 -148t-153.5 -100t-206.5 -36zM466 1254h-177v9l235 267h171l236 -267v-9h-179l-142 175zM794 1615l-193 276h201l140 -276h-148z" />
    <glyph glyph-name="uni1EC2" unicode="&#x1ec2;" horiz-adv-x="1231" 
d="M180 0v1490h908v-168h-718v-486h669v-168h-669v-500h727v-168h-917zM502 1626h-177v9l235 267h171l236 -267v-9h-179l-142 175zM912 1987h-136l63 119q11 21 4.5 30t-26.5 9h-139v118h139q83 0 127 -29t48 -76t-34 -103z" />
    <glyph glyph-name="uni1EC3" unicode="&#x1ec3;" horiz-adv-x="1194" 
d="M628 -24q-162 0 -279.5 72t-181 201t-63.5 301t62 303t175.5 205t265.5 74q89 0 175.5 -29.5t157 -95t112.5 -172.5t42 -262v-75h-868v152h771l-84 -56q0 110 -34.5 195.5t-102.5 134t-169 48.5t-173 -49.5t-110 -129t-38 -170.5v-101q0 -124 43 -210.5t120.5 -131
t179.5 -44.5q66 0 120 19t93 57.5t60 95.5l174 -48q-26 -84 -88 -148t-153.5 -100t-206.5 -36zM466 1254h-177v9l235 267h171l236 -267v-9h-179l-142 175zM876 1615h-136l63 119q11 21 4.5 30t-26.5 9h-139v118h139q83 0 127 -29t48 -76t-34 -103z" />
    <glyph glyph-name="uni1EC4" unicode="&#x1ec4;" horiz-adv-x="1231" 
d="M180 0v1490h908v-168h-718v-486h669v-168h-669v-500h727v-168h-917zM502 1626h-177v9l235 267h171l236 -267v-9h-179l-142 175zM775 2015q-37 0 -72.5 12.5t-67 29t-58 29t-45.5 12.5q-26 0 -38.5 -25t-14.5 -54h-126q3 90 42.5 149t119.5 59q39 0 72 -13t62 -29.5
t55.5 -29.5t51.5 -13t38 19t18 62h123q-3 -94 -44.5 -151t-115.5 -57z" />
    <glyph glyph-name="uni1EC5" unicode="&#x1ec5;" horiz-adv-x="1194" 
d="M628 -24q-162 0 -279.5 72t-181 201t-63.5 301t62 303t175.5 205t265.5 74q89 0 175.5 -29.5t157 -95t112.5 -172.5t42 -262v-75h-868v152h771l-84 -56q0 110 -34.5 195.5t-102.5 134t-169 48.5t-173 -49.5t-110 -129t-38 -170.5v-101q0 -124 43 -210.5t120.5 -131
t179.5 -44.5q66 0 120 19t93 57.5t60 95.5l174 -48q-26 -84 -88 -148t-153.5 -100t-206.5 -36zM466 1254h-177v9l235 267h171l236 -267v-9h-179l-142 175zM739 1643q-37 0 -72.5 12.5t-67 29t-58 29t-45.5 12.5q-26 0 -38.5 -25t-14.5 -54h-126q3 90 42.5 149t119.5 59
q39 0 72 -13t62 -29.5t55.5 -29.5t51.5 -13t38 19t18 62h123q-3 -94 -44.5 -151t-115.5 -57z" />
    <glyph glyph-name="uni1EC6" unicode="&#x1ec6;" horiz-adv-x="1231" 
d="M180 0v1490h908v-168h-718v-486h669v-168h-669v-500h727v-168h-917zM495 1654h-177v9l235 267h171l236 -267v-9h-179l-142 175zM642 -421q-51 0 -88 35t-37 84q0 50 37 84.5t88 34.5q52 0 89 -34.5t37 -84.5q0 -49 -37 -84t-89 -35z" />
    <glyph glyph-name="uni1EC7" unicode="&#x1ec7;" horiz-adv-x="1194" 
d="M628 -24q-162 0 -279.5 72t-181 201t-63.5 301t62 303t175.5 205t265.5 74q89 0 175.5 -29.5t157 -95t112.5 -172.5t42 -262v-75h-868v152h771l-84 -56q0 110 -34.5 195.5t-102.5 134t-169 48.5t-173 -49.5t-110 -129t-38 -170.5v-101q0 -124 43 -210.5t120.5 -131
t179.5 -44.5q66 0 120 19t93 57.5t60 95.5l174 -48q-26 -84 -88 -148t-153.5 -100t-206.5 -36zM459 1282h-177v9l235 267h171l236 -267v-9h-179l-142 175zM606 -421q-51 0 -88 35t-37 84q0 50 37 84.5t88 34.5q52 0 89 -34.5t37 -84.5q0 -49 -37 -84t-89 -35z" />
    <glyph glyph-name="uni1EC8" unicode="&#x1ec8;" horiz-adv-x="550" 
d="M370 1490v-1490h-190v1490h190zM334 1636h-136l71 137q11 20 4.5 29.5t-26.5 9.5h-139v118h139q62 0 101.5 -16.5t57.5 -45t13.5 -66.5t-31.5 -80z" />
    <glyph glyph-name="uni1EC9" unicode="&#x1ec9;" horiz-adv-x="496" 
d="M158 0v1118h180v-1118h-180zM308 1264h-136l71 137q11 20 4.5 29.5t-26.5 9.5h-139v118h139q62 0 101.5 -16.5t57.5 -45t13.5 -66.5t-31.5 -80z" />
    <glyph glyph-name="uni1ECA" unicode="&#x1eca;" horiz-adv-x="550" 
d="M370 1490v-1490h-190v1490h190zM278 -421q-51 0 -88 35t-37 84q0 50 37 84.5t88 34.5q52 0 89 -34.5t37 -84.5q0 -49 -37 -84t-89 -35z" />
    <glyph glyph-name="uni1ECB" unicode="&#x1ecb;" horiz-adv-x="496" 
d="M158 0v1118h180v-1118h-180zM249 1301q-51 0 -88 35t-37 84q0 50 37 84.5t88 34.5q52 0 89 -34.5t37 -84.5q0 -49 -37 -84t-89 -35zM252 -421q-51 0 -88 35t-37 84q0 50 37 84.5t88 34.5q52 0 89 -34.5t37 -84.5q0 -49 -37 -84t-89 -35z" />
    <glyph glyph-name="uni1ECC" unicode="&#x1ecc;" horiz-adv-x="1566" 
d="M784 -20q-191 0 -340.5 92.5t-235.5 264t-86 407.5q0 237 86 408.5t235.5 264.5t340.5 93t340 -93t234.5 -264.5t85.5 -408.5q0 -236 -85.5 -407.5t-234.5 -264t-340 -92.5zM784 156q133 0 240.5 67.5t171 199t63.5 321.5q0 192 -63.5 323.5t-171 199t-240.5 67.5
q-134 0 -242 -68t-171.5 -199.5t-63.5 -322.5q0 -190 63.5 -321t171.5 -199t242 -68zM787 -421q-51 0 -88 35t-37 84q0 50 37 84.5t88 34.5q52 0 89 -34.5t37 -84.5q0 -49 -37 -84t-89 -35z" />
    <glyph glyph-name="uni1ECD" unicode="&#x1ecd;" horiz-adv-x="1228" 
d="M613 -24q-152 0 -266.5 72t-178.5 202t-64 302q0 175 64 305.5t178.5 202.5t266.5 72q153 0 268 -72t179 -202.5t64 -305.5q0 -172 -64 -302t-179 -202t-268 -72zM613 137q113 0 186 58t108 152.5t35 204.5q0 111 -35 206.5t-108 154t-186 58.5q-112 0 -184 -58.5
t-107 -153.5t-35 -207q0 -110 35 -204.5t107 -152.5t184 -58zM616 -421q-51 0 -88 35t-37 84q0 50 37 84.5t88 34.5q52 0 89 -34.5t37 -84.5q0 -49 -37 -84t-89 -35z" />
    <glyph glyph-name="uni1ECE" unicode="&#x1ece;" horiz-adv-x="1566" 
d="M784 -20q-191 0 -340.5 92.5t-235.5 264t-86 407.5q0 237 86 408.5t235.5 264.5t340.5 93t340 -93t234.5 -264.5t85.5 -408.5q0 -236 -85.5 -407.5t-234.5 -264t-340 -92.5zM784 156q133 0 240.5 67.5t171 199t63.5 321.5q0 192 -63.5 323.5t-171 199t-240.5 67.5
q-134 0 -242 -68t-171.5 -199.5t-63.5 -322.5q0 -190 63.5 -321t171.5 -199t242 -68zM843 1636h-136l71 137q11 20 4.5 29.5t-26.5 9.5h-139v118h139q62 0 101.5 -16.5t57.5 -45t13.5 -66.5t-31.5 -80z" />
    <glyph glyph-name="uni1ECF" unicode="&#x1ecf;" horiz-adv-x="1228" 
d="M613 -24q-152 0 -266.5 72t-178.5 202t-64 302q0 175 64 305.5t178.5 202.5t266.5 72q153 0 268 -72t179 -202.5t64 -305.5q0 -172 -64 -302t-179 -202t-268 -72zM613 137q113 0 186 58t108 152.5t35 204.5q0 111 -35 206.5t-108 154t-186 58.5q-112 0 -184 -58.5
t-107 -153.5t-35 -207q0 -110 35 -204.5t107 -152.5t184 -58zM672 1264h-136l71 137q11 20 4.5 29.5t-26.5 9.5h-139v118h139q62 0 101.5 -16.5t57.5 -45t13.5 -66.5t-31.5 -80z" />
    <glyph glyph-name="uni1ED0" unicode="&#x1ed0;" horiz-adv-x="1566" 
d="M784 -20q-191 0 -340.5 92.5t-235.5 264t-86 407.5q0 237 86 408.5t235.5 264.5t340.5 93t340 -93t234.5 -264.5t85.5 -408.5q0 -236 -85.5 -407.5t-234.5 -264t-340 -92.5zM784 156q133 0 240.5 67.5t171 199t63.5 321.5q0 192 -63.5 323.5t-171 199t-240.5 67.5
q-134 0 -242 -68t-171.5 -199.5t-63.5 -322.5q0 -190 63.5 -321t171.5 -199t242 -68zM647 1626h-177v9l235 267h171l236 -267v-9h-179l-142 175zM926 1987l140 276h201l-194 -276h-147z" />
    <glyph glyph-name="uni1ED1" unicode="&#x1ed1;" horiz-adv-x="1228" 
d="M613 -24q-152 0 -266.5 72t-178.5 202t-64 302q0 175 64 305.5t178.5 202.5t266.5 72q153 0 268 -72t179 -202.5t64 -305.5q0 -172 -64 -302t-179 -202t-268 -72zM613 137q113 0 186 58t108 152.5t35 204.5q0 111 -35 206.5t-108 154t-186 58.5q-112 0 -184 -58.5
t-107 -153.5t-35 -207q0 -110 35 -204.5t107 -152.5t184 -58zM476 1254h-177v9l235 267h171l236 -267v-9h-179l-142 175zM755 1615l140 276h201l-194 -276h-147z" />
    <glyph glyph-name="uni1ED2" unicode="&#x1ed2;" horiz-adv-x="1566" 
d="M784 -20q-191 0 -340.5 92.5t-235.5 264t-86 407.5q0 237 86 408.5t235.5 264.5t340.5 93t340 -93t234.5 -264.5t85.5 -408.5q0 -236 -85.5 -407.5t-234.5 -264t-340 -92.5zM784 156q133 0 240.5 67.5t171 199t63.5 321.5q0 192 -63.5 323.5t-171 199t-240.5 67.5
q-134 0 -242 -68t-171.5 -199.5t-63.5 -322.5q0 -190 63.5 -321t171.5 -199t242 -68zM647 1626h-177v9l235 267h171l236 -267v-9h-179l-142 175zM975 1987l-193 276h201l140 -276h-148z" />
    <glyph glyph-name="uni1ED3" unicode="&#x1ed3;" horiz-adv-x="1228" 
d="M613 -24q-152 0 -266.5 72t-178.5 202t-64 302q0 175 64 305.5t178.5 202.5t266.5 72q153 0 268 -72t179 -202.5t64 -305.5q0 -172 -64 -302t-179 -202t-268 -72zM613 137q113 0 186 58t108 152.5t35 204.5q0 111 -35 206.5t-108 154t-186 58.5q-112 0 -184 -58.5
t-107 -153.5t-35 -207q0 -110 35 -204.5t107 -152.5t184 -58zM476 1254h-177v9l235 267h171l236 -267v-9h-179l-142 175zM804 1615l-193 276h201l140 -276h-148z" />
    <glyph glyph-name="uni1ED4" unicode="&#x1ed4;" horiz-adv-x="1566" 
d="M784 -20q-191 0 -340.5 92.5t-235.5 264t-86 407.5q0 237 86 408.5t235.5 264.5t340.5 93t340 -93t234.5 -264.5t85.5 -408.5q0 -236 -85.5 -407.5t-234.5 -264t-340 -92.5zM784 156q133 0 240.5 67.5t171 199t63.5 321.5q0 192 -63.5 323.5t-171 199t-240.5 67.5
q-134 0 -242 -68t-171.5 -199.5t-63.5 -322.5q0 -190 63.5 -321t171.5 -199t242 -68zM647 1626h-177v9l235 267h171l236 -267v-9h-179l-142 175zM1057 1987h-136l63 119q11 21 4.5 30t-26.5 9h-139v118h139q83 0 127 -29t48 -76t-34 -103z" />
    <glyph glyph-name="uni1ED5" unicode="&#x1ed5;" horiz-adv-x="1228" 
d="M613 -24q-152 0 -266.5 72t-178.5 202t-64 302q0 175 64 305.5t178.5 202.5t266.5 72q153 0 268 -72t179 -202.5t64 -305.5q0 -172 -64 -302t-179 -202t-268 -72zM613 137q113 0 186 58t108 152.5t35 204.5q0 111 -35 206.5t-108 154t-186 58.5q-112 0 -184 -58.5
t-107 -153.5t-35 -207q0 -110 35 -204.5t107 -152.5t184 -58zM476 1254h-177v9l235 267h171l236 -267v-9h-179l-142 175zM886 1615h-136l63 119q11 21 4.5 30t-26.5 9h-139v118h139q83 0 127 -29t48 -76t-34 -103z" />
    <glyph glyph-name="uni1ED6" unicode="&#x1ed6;" horiz-adv-x="1566" 
d="M784 -20q-191 0 -340.5 92.5t-235.5 264t-86 407.5q0 237 86 408.5t235.5 264.5t340.5 93t340 -93t234.5 -264.5t85.5 -408.5q0 -236 -85.5 -407.5t-234.5 -264t-340 -92.5zM784 156q133 0 240.5 67.5t171 199t63.5 321.5q0 192 -63.5 323.5t-171 199t-240.5 67.5
q-134 0 -242 -68t-171.5 -199.5t-63.5 -322.5q0 -190 63.5 -321t171.5 -199t242 -68zM647 1626h-177v9l235 267h171l236 -267v-9h-179l-142 175zM920 2015q-37 0 -72.5 12.5t-67 29t-58 29t-45.5 12.5q-26 0 -38.5 -25t-14.5 -54h-126q3 90 42.5 149t119.5 59q39 0 72 -13
t62 -29.5t55.5 -29.5t51.5 -13t38 19t18 62h123q-3 -94 -44.5 -151t-115.5 -57z" />
    <glyph glyph-name="uni1ED7" unicode="&#x1ed7;" horiz-adv-x="1228" 
d="M613 -24q-152 0 -266.5 72t-178.5 202t-64 302q0 175 64 305.5t178.5 202.5t266.5 72q153 0 268 -72t179 -202.5t64 -305.5q0 -172 -64 -302t-179 -202t-268 -72zM613 137q113 0 186 58t108 152.5t35 204.5q0 111 -35 206.5t-108 154t-186 58.5q-112 0 -184 -58.5
t-107 -153.5t-35 -207q0 -110 35 -204.5t107 -152.5t184 -58zM476 1254h-177v9l235 267h171l236 -267v-9h-179l-142 175zM749 1643q-37 0 -72.5 12.5t-67 29t-58 29t-45.5 12.5q-26 0 -38.5 -25t-14.5 -54h-126q3 90 42.5 149t119.5 59q39 0 72 -13t62 -29.5t55.5 -29.5
t51.5 -13t38 19t18 62h123q-3 -94 -44.5 -151t-115.5 -57z" />
    <glyph glyph-name="uni1ED8" unicode="&#x1ed8;" horiz-adv-x="1566" 
d="M784 -20q-191 0 -340.5 92.5t-235.5 264t-86 407.5q0 237 86 408.5t235.5 264.5t340.5 93t340 -93t234.5 -264.5t85.5 -408.5q0 -236 -85.5 -407.5t-234.5 -264t-340 -92.5zM784 156q133 0 240.5 67.5t171 199t63.5 321.5q0 192 -63.5 323.5t-171 199t-240.5 67.5
q-134 0 -242 -68t-171.5 -199.5t-63.5 -322.5q0 -190 63.5 -321t171.5 -199t242 -68zM640 1654h-177v9l235 267h171l236 -267v-9h-179l-142 175zM787 -421q-51 0 -88 35t-37 84q0 50 37 84.5t88 34.5q52 0 89 -34.5t37 -84.5q0 -49 -37 -84t-89 -35z" />
    <glyph glyph-name="uni1ED9" unicode="&#x1ed9;" horiz-adv-x="1228" 
d="M613 -24q-152 0 -266.5 72t-178.5 202t-64 302q0 175 64 305.5t178.5 202.5t266.5 72q153 0 268 -72t179 -202.5t64 -305.5q0 -172 -64 -302t-179 -202t-268 -72zM613 137q113 0 186 58t108 152.5t35 204.5q0 111 -35 206.5t-108 154t-186 58.5q-112 0 -184 -58.5
t-107 -153.5t-35 -207q0 -110 35 -204.5t107 -152.5t184 -58zM469 1282h-177v9l235 267h171l236 -267v-9h-179l-142 175zM616 -421q-51 0 -88 35t-37 84q0 50 37 84.5t88 34.5q52 0 89 -34.5t37 -84.5q0 -49 -37 -84t-89 -35z" />
    <glyph glyph-name="uni1EDA" unicode="&#x1eda;" horiz-adv-x="1560" 
d="M780 1386v124q59 0 93.5 -3t73 -7t107.5 -7t196 -3q18 0 18 18v190h170v-182q0 -85 -42 -127.5t-128 -42.5q-39 0 -72.5 6t-81.5 14t-126.5 14t-207.5 6zM784 -20q-191 0 -340.5 92.5t-235.5 264t-86 407.5q0 237 86 408.5t235.5 264.5t340.5 93t340 -93t234.5 -264.5
t85.5 -408.5q0 -236 -85.5 -407.5t-234.5 -264t-340 -92.5zM784 156q133 0 240.5 67.5t171 199t63.5 321.5q0 192 -63.5 323.5t-171 199t-240.5 67.5q-134 0 -242 -68t-171.5 -199.5t-63.5 -322.5q0 -190 63.5 -321t171.5 -199t242 -68zM705 1636l140 294h201l-194 -294
h-147z" />
    <glyph glyph-name="uni1EDB" unicode="&#x1edb;" horiz-adv-x="1222" 
d="M611 1014v118q44 0 86 -2t84.5 -5t85 -5t85.5 -2q34 0 34 34v214h168v-198q0 -77 -42 -115.5t-128 -38.5h-186.5h-186.5zM613 -24q-152 0 -266.5 72t-178.5 202t-64 302q0 175 64 305.5t178.5 202.5t266.5 72q153 0 268 -72t179 -202.5t64 -305.5q0 -172 -64 -302
t-179 -202t-268 -72zM613 137q113 0 186 58t108 152.5t35 204.5q0 111 -35 206.5t-108 154t-186 58.5q-112 0 -184 -58.5t-107 -153.5t-35 -207q0 -110 35 -204.5t107 -152.5t184 -58zM534 1264l140 294h201l-194 -294h-147z" />
    <glyph glyph-name="uni1EDC" unicode="&#x1edc;" horiz-adv-x="1560" 
d="M780 1386v124q59 0 93.5 -3t73 -7t107.5 -7t196 -3q18 0 18 18v190h170v-182q0 -85 -42 -127.5t-128 -42.5q-39 0 -72.5 6t-81.5 14t-126.5 14t-207.5 6zM784 -20q-191 0 -340.5 92.5t-235.5 264t-86 407.5q0 237 86 408.5t235.5 264.5t340.5 93t340 -93t234.5 -264.5
t85.5 -408.5q0 -236 -85.5 -407.5t-234.5 -264t-340 -92.5zM784 156q133 0 240.5 67.5t171 199t63.5 321.5q0 192 -63.5 323.5t-171 199t-240.5 67.5q-134 0 -242 -68t-171.5 -199.5t-63.5 -322.5q0 -190 63.5 -321t171.5 -199t242 -68zM713 1636l-193 294h201l140 -294
h-148z" />
    <glyph glyph-name="uni1EDD" unicode="&#x1edd;" horiz-adv-x="1222" 
d="M611 1014v118q44 0 86 -2t84.5 -5t85 -5t85.5 -2q34 0 34 34v214h168v-198q0 -77 -42 -115.5t-128 -38.5h-186.5h-186.5zM613 -24q-152 0 -266.5 72t-178.5 202t-64 302q0 175 64 305.5t178.5 202.5t266.5 72q153 0 268 -72t179 -202.5t64 -305.5q0 -172 -64 -302
t-179 -202t-268 -72zM613 137q113 0 186 58t108 152.5t35 204.5q0 111 -35 206.5t-108 154t-186 58.5q-112 0 -184 -58.5t-107 -153.5t-35 -207q0 -110 35 -204.5t107 -152.5t184 -58zM542 1264l-193 294h201l140 -294h-148z" />
    <glyph glyph-name="uni1EDE" unicode="&#x1ede;" horiz-adv-x="1560" 
d="M780 1386v124q59 0 93.5 -3t73 -7t107.5 -7t196 -3q18 0 18 18v190h170v-182q0 -85 -42 -127.5t-128 -42.5q-39 0 -72.5 6t-81.5 14t-126.5 14t-207.5 6zM784 -20q-191 0 -340.5 92.5t-235.5 264t-86 407.5q0 237 86 408.5t235.5 264.5t340.5 93t340 -93t234.5 -264.5
t85.5 -408.5q0 -236 -85.5 -407.5t-234.5 -264t-340 -92.5zM784 156q133 0 240.5 67.5t171 199t63.5 321.5q0 192 -63.5 323.5t-171 199t-240.5 67.5q-134 0 -242 -68t-171.5 -199.5t-63.5 -322.5q0 -190 63.5 -321t171.5 -199t242 -68zM843 1636h-136l71 137
q11 20 4.5 29.5t-26.5 9.5h-139v118h139q62 0 101.5 -16.5t57.5 -45t13.5 -66.5t-31.5 -80z" />
    <glyph glyph-name="uni1EDF" unicode="&#x1edf;" horiz-adv-x="1222" 
d="M611 1014v118q44 0 86 -2t84.5 -5t85 -5t85.5 -2q34 0 34 34v214h168v-198q0 -77 -42 -115.5t-128 -38.5h-186.5h-186.5zM613 -24q-152 0 -266.5 72t-178.5 202t-64 302q0 175 64 305.5t178.5 202.5t266.5 72q153 0 268 -72t179 -202.5t64 -305.5q0 -172 -64 -302
t-179 -202t-268 -72zM613 137q113 0 186 58t108 152.5t35 204.5q0 111 -35 206.5t-108 154t-186 58.5q-112 0 -184 -58.5t-107 -153.5t-35 -207q0 -110 35 -204.5t107 -152.5t184 -58zM672 1264h-136l71 137q11 20 4.5 29.5t-26.5 9.5h-139v118h139q62 0 101.5 -16.5
t57.5 -45t13.5 -66.5t-31.5 -80z" />
    <glyph glyph-name="uni1EE0" unicode="&#x1ee0;" horiz-adv-x="1560" 
d="M780 1386v124q59 0 93.5 -3t73 -7t107.5 -7t196 -3q18 0 18 18v190h170v-182q0 -85 -42 -127.5t-128 -42.5q-39 0 -72.5 6t-81.5 14t-126.5 14t-207.5 6zM784 -20q-191 0 -340.5 92.5t-235.5 264t-86 407.5q0 237 86 408.5t235.5 264.5t340.5 93t340 -93t234.5 -264.5
t85.5 -408.5q0 -236 -85.5 -407.5t-234.5 -264t-340 -92.5zM784 156q133 0 240.5 67.5t171 199t63.5 321.5q0 192 -63.5 323.5t-171 199t-240.5 67.5q-134 0 -242 -68t-171.5 -199.5t-63.5 -322.5q0 -190 63.5 -321t171.5 -199t242 -68zM915 1685q-37 0 -72.5 12.5t-67 29
t-58 29t-45.5 12.5q-26 0 -38.5 -25t-14.5 -54h-126q3 90 42.5 149t119.5 59q39 0 72 -13t62 -29.5t55.5 -29.5t51.5 -13t38 19t18 62h123q-3 -94 -44.5 -151t-115.5 -57z" />
    <glyph glyph-name="uni1EE1" unicode="&#x1ee1;" horiz-adv-x="1222" 
d="M611 1014v118q44 0 86 -2t84.5 -5t85 -5t85.5 -2q34 0 34 34v214h168v-198q0 -77 -42 -115.5t-128 -38.5h-186.5h-186.5zM613 -24q-152 0 -266.5 72t-178.5 202t-64 302q0 175 64 305.5t178.5 202.5t266.5 72q153 0 268 -72t179 -202.5t64 -305.5q0 -172 -64 -302
t-179 -202t-268 -72zM613 137q113 0 186 58t108 152.5t35 204.5q0 111 -35 206.5t-108 154t-186 58.5q-112 0 -184 -58.5t-107 -153.5t-35 -207q0 -110 35 -204.5t107 -152.5t184 -58zM744 1313q-37 0 -72.5 12.5t-67 29t-58 29t-45.5 12.5q-26 0 -38.5 -25t-14.5 -54h-126
q3 90 42.5 149t119.5 59q39 0 72 -13t62 -29.5t55.5 -29.5t51.5 -13t38 19t18 62h123q-3 -94 -44.5 -151t-115.5 -57z" />
    <glyph glyph-name="uni1EE2" unicode="&#x1ee2;" horiz-adv-x="1560" 
d="M780 1386v124q59 0 93.5 -3t73 -7t107.5 -7t196 -3q18 0 18 18v190h170v-182q0 -85 -42 -127.5t-128 -42.5q-39 0 -72.5 6t-81.5 14t-126.5 14t-207.5 6zM784 -20q-191 0 -340.5 92.5t-235.5 264t-86 407.5q0 237 86 408.5t235.5 264.5t340.5 93t340 -93t234.5 -264.5
t85.5 -408.5q0 -236 -85.5 -407.5t-234.5 -264t-340 -92.5zM784 156q133 0 240.5 67.5t171 199t63.5 321.5q0 192 -63.5 323.5t-171 199t-240.5 67.5q-134 0 -242 -68t-171.5 -199.5t-63.5 -322.5q0 -190 63.5 -321t171.5 -199t242 -68zM787 -421q-51 0 -88 35t-37 84
q0 50 37 84.5t88 34.5q52 0 89 -34.5t37 -84.5q0 -49 -37 -84t-89 -35z" />
    <glyph glyph-name="uni1EE3" unicode="&#x1ee3;" horiz-adv-x="1222" 
d="M611 1014v118q44 0 86 -2t84.5 -5t85 -5t85.5 -2q34 0 34 34v214h168v-198q0 -77 -42 -115.5t-128 -38.5h-186.5h-186.5zM613 -24q-152 0 -266.5 72t-178.5 202t-64 302q0 175 64 305.5t178.5 202.5t266.5 72q153 0 268 -72t179 -202.5t64 -305.5q0 -172 -64 -302
t-179 -202t-268 -72zM613 137q113 0 186 58t108 152.5t35 204.5q0 111 -35 206.5t-108 154t-186 58.5q-112 0 -184 -58.5t-107 -153.5t-35 -207q0 -110 35 -204.5t107 -152.5t184 -58zM616 -421q-51 0 -88 35t-37 84q0 50 37 84.5t88 34.5q52 0 89 -34.5t37 -84.5
q0 -49 -37 -84t-89 -35z" />
    <glyph glyph-name="uni1EE4" unicode="&#x1ee4;" horiz-adv-x="1524" 
d="M763 -24q-176 0 -307.5 69t-203.5 189t-72 273v983h190v-968q0 -107 47.5 -190.5t135.5 -131.5t210 -48t209.5 48t134.5 131.5t47 190.5v968h190v-983q0 -153 -72 -273t-202.5 -189t-306.5 -69zM766 -421q-51 0 -88 35t-37 84q0 50 37 84.5t88 34.5q52 0 89 -34.5
t37 -84.5q0 -49 -37 -84t-89 -35z" />
    <glyph glyph-name="uni1EE5" unicode="&#x1ee5;" horiz-adv-x="1211" 
d="M537 -14q-113 0 -198.5 46.5t-133 140.5t-47.5 235v710h180v-695q0 -129 68 -202t185 -73q80 0 143.5 35t100.5 102.5t37 162.5v670h181v-1118h-174v271h24q-52 -157 -147.5 -221t-218.5 -64zM609 -421q-51 0 -88 35t-37 84q0 50 37 84.5t88 34.5q52 0 89 -34.5t37 -84.5
q0 -49 -37 -84t-89 -35z" />
    <glyph glyph-name="uni1EE6" unicode="&#x1ee6;" horiz-adv-x="1524" 
d="M763 -24q-176 0 -307.5 69t-203.5 189t-72 273v983h190v-968q0 -107 47.5 -190.5t135.5 -131.5t210 -48t209.5 48t134.5 131.5t47 190.5v968h190v-983q0 -153 -72 -273t-202.5 -189t-306.5 -69zM822 1636h-136l71 137q11 20 4.5 29.5t-26.5 9.5h-139v118h139
q62 0 101.5 -16.5t57.5 -45t13.5 -66.5t-31.5 -80z" />
    <glyph glyph-name="uni1EE7" unicode="&#x1ee7;" horiz-adv-x="1211" 
d="M537 -14q-113 0 -198.5 46.5t-133 140.5t-47.5 235v710h180v-695q0 -129 68 -202t185 -73q80 0 143.5 35t100.5 102.5t37 162.5v670h181v-1118h-174v271h24q-52 -157 -147.5 -221t-218.5 -64zM664 1264h-136l71 137q11 20 4.5 29.5t-26.5 9.5h-139v118h139
q62 0 101.5 -16.5t57.5 -45t13.5 -66.5t-31.5 -80z" />
    <glyph glyph-name="uni1EE8" unicode="&#x1ee8;" horiz-adv-x="1518" 
d="M1158 1346v144h180q18 0 18 18v190h170v-182q0 -85 -42 -127.5t-128 -42.5h-198zM763 -24q-176 0 -307.5 69t-203.5 189t-72 273v983h190v-968q0 -107 47.5 -190.5t135.5 -131.5t210 -48t209.5 48t134.5 131.5t47 190.5v968h190v-983q0 -153 -72 -273t-202.5 -189
t-306.5 -69zM684 1636l140 294h201l-194 -294h-147z" />
    <glyph glyph-name="uni1EE9" unicode="&#x1ee9;" horiz-adv-x="1269" 
d="M944 998v120h90q34 0 34 34v214h160v-198q0 -85 -42 -127.5t-128 -42.5h-114zM537 -14q-113 0 -198.5 46.5t-133 140.5t-47.5 235v710h180v-695q0 -129 68 -202t185 -73q80 0 143.5 35t100.5 102.5t37 162.5v670h181v-1118h-174v271h24q-52 -157 -147.5 -221t-218.5 -64z
M526 1264l140 294h201l-194 -294h-147z" />
    <glyph glyph-name="uni1EEA" unicode="&#x1eea;" horiz-adv-x="1518" 
d="M1158 1346v144h180q18 0 18 18v190h170v-182q0 -85 -42 -127.5t-128 -42.5h-198zM763 -24q-176 0 -307.5 69t-203.5 189t-72 273v983h190v-968q0 -107 47.5 -190.5t135.5 -131.5t210 -48t209.5 48t134.5 131.5t47 190.5v968h190v-983q0 -153 -72 -273t-202.5 -189
t-306.5 -69zM692 1636l-193 294h201l140 -294h-148z" />
    <glyph glyph-name="uni1EEB" unicode="&#x1eeb;" horiz-adv-x="1269" 
d="M944 998v120h90q34 0 34 34v214h160v-198q0 -85 -42 -127.5t-128 -42.5h-114zM537 -14q-113 0 -198.5 46.5t-133 140.5t-47.5 235v710h180v-695q0 -129 68 -202t185 -73q80 0 143.5 35t100.5 102.5t37 162.5v670h181v-1118h-174v271h24q-52 -157 -147.5 -221t-218.5 -64z
M534 1264l-193 294h201l140 -294h-148z" />
    <glyph glyph-name="uni1EEC" unicode="&#x1eec;" horiz-adv-x="1518" 
d="M1158 1346v144h180q18 0 18 18v190h170v-182q0 -85 -42 -127.5t-128 -42.5h-198zM763 -24q-176 0 -307.5 69t-203.5 189t-72 273v983h190v-968q0 -107 47.5 -190.5t135.5 -131.5t210 -48t209.5 48t134.5 131.5t47 190.5v968h190v-983q0 -153 -72 -273t-202.5 -189
t-306.5 -69zM822 1636h-136l71 137q11 20 4.5 29.5t-26.5 9.5h-139v118h139q62 0 101.5 -16.5t57.5 -45t13.5 -66.5t-31.5 -80z" />
    <glyph glyph-name="uni1EED" unicode="&#x1eed;" horiz-adv-x="1269" 
d="M944 998v120h90q34 0 34 34v214h160v-198q0 -85 -42 -127.5t-128 -42.5h-114zM537 -14q-113 0 -198.5 46.5t-133 140.5t-47.5 235v710h180v-695q0 -129 68 -202t185 -73q80 0 143.5 35t100.5 102.5t37 162.5v670h181v-1118h-174v271h24q-52 -157 -147.5 -221t-218.5 -64z
M664 1264h-136l71 137q11 20 4.5 29.5t-26.5 9.5h-139v118h139q62 0 101.5 -16.5t57.5 -45t13.5 -66.5t-31.5 -80z" />
    <glyph glyph-name="uni1EEE" unicode="&#x1eee;" horiz-adv-x="1518" 
d="M1158 1346v144h180q18 0 18 18v190h170v-182q0 -85 -42 -127.5t-128 -42.5h-198zM763 -24q-176 0 -307.5 69t-203.5 189t-72 273v983h190v-968q0 -107 47.5 -190.5t135.5 -131.5t210 -48t209.5 48t134.5 131.5t47 190.5v968h190v-983q0 -153 -72 -273t-202.5 -189
t-306.5 -69zM894 1685q-37 0 -72.5 12.5t-67 29t-58 29t-45.5 12.5q-26 0 -38.5 -25t-14.5 -54h-126q3 90 42.5 149t119.5 59q39 0 72 -13t62 -29.5t55.5 -29.5t51.5 -13t38 19t18 62h123q-3 -94 -44.5 -151t-115.5 -57z" />
    <glyph glyph-name="uni1EEF" unicode="&#x1eef;" horiz-adv-x="1269" 
d="M944 998v120h90q34 0 34 34v214h160v-198q0 -85 -42 -127.5t-128 -42.5h-114zM537 -14q-113 0 -198.5 46.5t-133 140.5t-47.5 235v710h180v-695q0 -129 68 -202t185 -73q80 0 143.5 35t100.5 102.5t37 162.5v670h181v-1118h-174v271h24q-52 -157 -147.5 -221t-218.5 -64z
M736 1313q-37 0 -72.5 12.5t-67 29t-58 29t-45.5 12.5q-26 0 -38.5 -25t-14.5 -54h-126q3 90 42.5 149t119.5 59q39 0 72 -13t62 -29.5t55.5 -29.5t51.5 -13t38 19t18 62h123q-3 -94 -44.5 -151t-115.5 -57z" />
    <glyph glyph-name="uni1EF0" unicode="&#x1ef0;" horiz-adv-x="1518" 
d="M1158 1346v144h180q18 0 18 18v190h170v-182q0 -85 -42 -127.5t-128 -42.5h-198zM763 -24q-176 0 -307.5 69t-203.5 189t-72 273v983h190v-968q0 -107 47.5 -190.5t135.5 -131.5t210 -48t209.5 48t134.5 131.5t47 190.5v968h190v-983q0 -153 -72 -273t-202.5 -189
t-306.5 -69zM766 -421q-51 0 -88 35t-37 84q0 50 37 84.5t88 34.5q52 0 89 -34.5t37 -84.5q0 -49 -37 -84t-89 -35z" />
    <glyph glyph-name="uni1EF1" unicode="&#x1ef1;" horiz-adv-x="1269" 
d="M944 998v120h90q34 0 34 34v214h160v-198q0 -85 -42 -127.5t-128 -42.5h-114zM537 -14q-113 0 -198.5 46.5t-133 140.5t-47.5 235v710h180v-695q0 -129 68 -202t185 -73q80 0 143.5 35t100.5 102.5t37 162.5v670h181v-1118h-174v271h24q-52 -157 -147.5 -221t-218.5 -64z
M609 -421q-51 0 -88 35t-37 84q0 50 37 84.5t88 34.5q52 0 89 -34.5t37 -84.5q0 -49 -37 -84t-89 -35z" />
    <glyph glyph-name="Ygrave" unicode="&#x1ef2;" horiz-adv-x="1390" 
d="M600 0v610l-548 880h220l295 -481q50 -81 88.5 -154.5t79.5 -185.5h-76q41 114 80 188.5t86 151.5l294 481h219l-548 -880v-610h-190zM624 1636l-193 294h201l140 -294h-148z" />
    <glyph glyph-name="ygrave" unicode="&#x1ef3;" horiz-adv-x="1151" 
d="M140 -405l46 156l19 -5q55 -14 100 -7.5t81 44.5t63 118l32 93l-427 1124h197l238 -663q38 -104 64 -206t55 -198h-66q29 96 55.5 198.5t63.5 205.5l240 663h196l-491 -1285q-34 -89 -81.5 -146.5t-110.5 -85t-142 -27.5q-48 0 -83 7t-49 14zM505 1264l-193 294h201
l140 -294h-148z" />
    <glyph glyph-name="uni1EF4" unicode="&#x1ef4;" horiz-adv-x="1390" 
d="M600 0v610l-548 880h220l295 -481q50 -81 88.5 -154.5t79.5 -185.5h-76q41 114 80 188.5t86 151.5l294 481h219l-548 -880v-610h-190zM698 -421q-51 0 -88 35t-37 84q0 50 37 84.5t88 34.5q52 0 89 -34.5t37 -84.5q0 -49 -37 -84t-89 -35z" />
    <glyph glyph-name="uni1EF5" unicode="&#x1ef5;" horiz-adv-x="1151" 
d="M140 -405l46 156l19 -5q55 -14 100 -7.5t81 44.5t63 118l32 93l-427 1124h197l238 -663q38 -104 64 -206t55 -198h-66q29 96 55.5 198.5t63.5 205.5l240 663h196l-491 -1285q-34 -89 -81.5 -146.5t-110.5 -85t-142 -27.5q-48 0 -83 7t-49 14zM859 -421q-51 0 -88 35
t-37 84q0 50 37 84.5t88 34.5q52 0 89 -34.5t37 -84.5q0 -49 -37 -84t-89 -35z" />
    <glyph glyph-name="uni1EF6" unicode="&#x1ef6;" horiz-adv-x="1390" 
d="M600 0v610l-548 880h220l295 -481q50 -81 88.5 -154.5t79.5 -185.5h-76q41 114 80 188.5t86 151.5l294 481h219l-548 -880v-610h-190zM754 1636h-136l71 137q11 20 4.5 29.5t-26.5 9.5h-139v118h139q62 0 101.5 -16.5t57.5 -45t13.5 -66.5t-31.5 -80z" />
    <glyph glyph-name="uni1EF7" unicode="&#x1ef7;" horiz-adv-x="1151" 
d="M140 -405l46 156l19 -5q55 -14 100 -7.5t81 44.5t63 118l32 93l-427 1124h197l238 -663q38 -104 64 -206t55 -198h-66q29 96 55.5 198.5t63.5 205.5l240 663h196l-491 -1285q-34 -89 -81.5 -146.5t-110.5 -85t-142 -27.5q-48 0 -83 7t-49 14zM635 1264h-136l71 137
q11 20 4.5 29.5t-26.5 9.5h-139v118h139q62 0 101.5 -16.5t57.5 -45t13.5 -66.5t-31.5 -80z" />
    <glyph glyph-name="uni1EF8" unicode="&#x1ef8;" horiz-adv-x="1390" 
d="M600 0v610l-548 880h220l295 -481q50 -81 88.5 -154.5t79.5 -185.5h-76q41 114 80 188.5t86 151.5l294 481h219l-548 -880v-610h-190zM826 1685q-37 0 -72.5 12.5t-67 29t-58 29t-45.5 12.5q-26 0 -38.5 -25t-14.5 -54h-126q3 90 42.5 149t119.5 59q39 0 72 -13t62 -29.5
t55.5 -29.5t51.5 -13t38 19t18 62h123q-3 -94 -44.5 -151t-115.5 -57z" />
    <glyph glyph-name="uni1EF9" unicode="&#x1ef9;" horiz-adv-x="1151" 
d="M140 -405l46 156l19 -5q55 -14 100 -7.5t81 44.5t63 118l32 93l-427 1124h197l238 -663q38 -104 64 -206t55 -198h-66q29 96 55.5 198.5t63.5 205.5l240 663h196l-491 -1285q-34 -89 -81.5 -146.5t-110.5 -85t-142 -27.5q-48 0 -83 7t-49 14zM707 1313q-37 0 -72.5 12.5
t-67 29t-58 29t-45.5 12.5q-26 0 -38.5 -25t-14.5 -54h-126q3 90 42.5 149t119.5 59q39 0 72 -13t62 -29.5t55.5 -29.5t51.5 -13t38 19t18 62h123q-3 -94 -44.5 -151t-115.5 -57z" />
    <glyph glyph-name="dong" unicode="&#x20ab;" horiz-adv-x="1254" 
d="M577 -24q-139 0 -246 71t-167 201t-60 308q0 177 60.5 306.5t167.5 199.5t246 70q109 0 173 -36t98.5 -81.5t52.5 -75.5h14v551h180v-1490h-174v173h-20q-18 -31 -53.5 -77.5t-100 -83t-171.5 -36.5zM604 137q102 0 172 53.5t106 148.5t36 219t-35.5 216.5t-105.5 144.5
t-173 52q-106 0 -176.5 -55t-105.5 -148.5t-35 -209.5q0 -117 35.5 -212.5t106.5 -152t175 -56.5zM598 1235v138h646v-138h-646zM1092 -222v-166h-934v166h934z" />
    <glyph glyph-name="Atilde" 
d="M52 0l541 1490h220l548 -1490h-200l-316 884q-29 82 -67.5 204.5t-93.5 312.5h36q-54 -192 -93.5 -316.5t-65.5 -200.5l-307 -884h-202zM324 416v166h765v-166h-765zM837 1685q-37 0 -72.5 12.5t-67 29t-58 29t-45.5 12.5q-26 0 -38.5 -25t-14.5 -54h-126q3 90 42.5 149
t119.5 59q39 0 72 -13t62 -29.5t55.5 -29.5t51.5 -13t38 19t18 62h123q-3 -94 -44.5 -151t-115.5 -57z" />
    <glyph glyph-name="Agrave" 
d="M52 0l541 1490h220l548 -1490h-200l-316 884q-29 82 -67.5 204.5t-93.5 312.5h36q-54 -192 -93.5 -316.5t-65.5 -200.5l-307 -884h-202zM324 416v166h765v-166h-765zM635 1636l-193 294h201l140 -294h-148z" />
    <glyph glyph-name="Aacute" 
d="M52 0l541 1490h220l548 -1490h-200l-316 884q-29 82 -67.5 204.5t-93.5 312.5h36q-54 -192 -93.5 -316.5t-65.5 -200.5l-307 -884h-202zM324 416v166h765v-166h-765zM627 1636l140 294h201l-194 -294h-147z" />
    <glyph glyph-name="Amacron" 
d="M52 0l541 1490h220l548 -1490h-200l-316 884q-29 82 -67.5 204.5t-93.5 312.5h36q-54 -192 -93.5 -316.5t-65.5 -200.5l-307 -884h-202zM324 416v166h765v-166h-765zM983 1863v-142h-554v142h554z" />
    <glyph glyph-name="uni01DE" 
d="M52 0l541 1490h220l548 -1490h-200l-316 884q-29 82 -67.5 204.5t-93.5 312.5h36q-54 -192 -93.5 -316.5t-65.5 -200.5l-307 -884h-202zM324 416v166h765v-166h-765zM922 1645q-49 0 -84 35t-35 84t35 83.5t84 34.5t83.5 -34.5t34.5 -83.5t-34.5 -84t-83.5 -35zM501 1645
q-49 0 -84 35t-35 84t35 83.5t84 34.5t83.5 -34.5t34.5 -83.5t-34.5 -84t-83.5 -35zM984 2153v-128h-554v128h554z" />
    <glyph glyph-name="D" horiz-adv-x="1478" 
d="M645 0h-360v168h348q182 0 301.5 69.5t178.5 199.5t59 311q0 179 -58.5 307.5t-174 197.5t-288.5 69h-374v168h387q218 0 372.5 -89t237 -255.5t82.5 -397.5q0 -233 -83 -400.5t-242 -257.5t-386 -90zM370 1490v-1490h-190v1490h190z" />
    <glyph glyph-name="E" horiz-adv-x="1231" 
d="M180 0v1490h908v-168h-718v-486h669v-168h-669v-500h727v-168h-917z" />
    <glyph glyph-name="I" horiz-adv-x="550" 
d="M370 1490v-1490h-190v1490h190z" />
    <glyph glyph-name="O" horiz-adv-x="1566" 
d="M784 -20q-191 0 -340.5 92.5t-235.5 264t-86 407.5q0 237 86 408.5t235.5 264.5t340.5 93t340 -93t234.5 -264.5t85.5 -408.5q0 -236 -85.5 -407.5t-234.5 -264t-340 -92.5zM784 156q133 0 240.5 67.5t171 199t63.5 321.5q0 192 -63.5 323.5t-171 199t-240.5 67.5
q-134 0 -242 -68t-171.5 -199.5t-63.5 -322.5q0 -190 63.5 -321t171.5 -199t242 -68z" />
    <glyph glyph-name="U" horiz-adv-x="1524" 
d="M763 -24q-176 0 -307.5 69t-203.5 189t-72 273v983h190v-968q0 -107 47.5 -190.5t135.5 -131.5t210 -48t209.5 48t134.5 131.5t47 190.5v968h190v-983q0 -153 -72 -273t-202.5 -189t-306.5 -69z" />
    <glyph glyph-name="Y" horiz-adv-x="1390" 
d="M600 0v610l-548 880h220l295 -481q50 -81 88.5 -154.5t79.5 -185.5h-76q41 114 80 188.5t86 151.5l294 481h219l-548 -880v-610h-190z" />
    <glyph glyph-name="a" horiz-adv-x="1150" 
d="M471 -26q-106 0 -192.5 40t-137.5 117t-51 187q0 96 38 156t101.5 94.5t140.5 51.5t155 27q100 13 163 20t93.5 24t30.5 58v6q0 70 -26 118.5t-78 74.5t-130 26q-80 0 -137 -25t-92.5 -62.5t-53.5 -76.5l-173 57q43 102 116 159.5t161 81.5t174 24q56 0 127.5 -13.5
t138 -53.5t110 -118.5t43.5 -209.5v-737h-177v152h-12q-19 -39 -61 -80.5t-109 -69.5t-162 -28zM502 133q100 0 169 39t105 101.5t36 130.5v155q-11 -13 -48 -23.5t-84.5 -18.5t-92 -13.5t-70.5 -8.5q-65 -8 -121.5 -27.5t-90.5 -57t-34 -101.5q0 -58 30 -97t82 -59t119 -20
z" />
    <glyph glyph-name="d" horiz-adv-x="1254" 
d="M577 -24q-139 0 -246 71t-167 201t-60 308q0 177 60.5 306.5t167.5 199.5t246 70q109 0 173 -36t98.5 -81.5t52.5 -75.5h14v551h180v-1490h-174v173h-20q-18 -31 -53.5 -77.5t-100 -83t-171.5 -36.5zM604 137q102 0 172 53.5t106 148.5t36 219t-35.5 216.5t-105.5 144.5
t-173 52q-106 0 -176.5 -55t-105.5 -148.5t-35 -209.5q0 -117 35.5 -212.5t106.5 -152t175 -56.5z" />
    <glyph glyph-name="e" horiz-adv-x="1194" 
d="M628 -24q-162 0 -279.5 72t-181 201t-63.5 301t62 303t175.5 205t265.5 74q89 0 175.5 -29.5t157 -95t112.5 -172.5t42 -262v-75h-868v152h771l-84 -56q0 110 -34.5 195.5t-102.5 134t-169 48.5t-173 -49.5t-110 -129t-38 -170.5v-101q0 -124 43 -210.5t120.5 -131
t179.5 -44.5q66 0 120 19t93 57.5t60 95.5l174 -48q-26 -84 -88 -148t-153.5 -100t-206.5 -36z" />
    <glyph glyph-name="dotlessi" horiz-adv-x="496" 
d="M158 0v1118h180v-1118h-180z" />
    <glyph glyph-name="uni1ECB.ccmp" horiz-adv-x="496" 
d="M158 0v1118h180v-1118h-180zM252 -421q-51 0 -88 35t-37 84q0 50 37 84.5t88 34.5q52 0 89 -34.5t37 -84.5q0 -49 -37 -84t-89 -35z" />
    <glyph glyph-name="o" horiz-adv-x="1228" 
d="M613 -24q-152 0 -266.5 72t-178.5 202t-64 302q0 175 64 305.5t178.5 202.5t266.5 72q153 0 268 -72t179 -202.5t64 -305.5q0 -172 -64 -302t-179 -202t-268 -72zM613 137q113 0 186 58t108 152.5t35 204.5q0 111 -35 206.5t-108 154t-186 58.5q-112 0 -184 -58.5
t-107 -153.5t-35 -207q0 -110 35 -204.5t107 -152.5t184 -58z" />
    <glyph glyph-name="u" horiz-adv-x="1211" 
d="M537 -14q-113 0 -198.5 46.5t-133 140.5t-47.5 235v710h180v-695q0 -129 68 -202t185 -73q80 0 143.5 35t100.5 102.5t37 162.5v670h181v-1118h-174v271h24q-52 -157 -147.5 -221t-218.5 -64z" />
    <glyph glyph-name="y" horiz-adv-x="1151" 
d="M140 -405l46 156l19 -5q55 -14 100 -7.5t81 44.5t63 118l32 93l-427 1124h197l238 -663q38 -104 64 -206t55 -198h-66q29 96 55.5 198.5t63.5 205.5l240 663h196l-491 -1285q-34 -89 -81.5 -146.5t-110.5 -85t-142 -27.5q-48 0 -83 7t-49 14z" />
    <glyph glyph-name="space.tf" horiz-adv-x="550" 
 />
    <glyph glyph-name="uni00A0.tf" horiz-adv-x="550" 
 />
    <glyph glyph-name="underscore" horiz-adv-x="934" 
d="M934 0v-166h-934v166h934z" />
    <glyph glyph-name="uni0307" horiz-adv-x="0" 
d="M247 1301q-51 0 -88 35t-37 84q0 50 37 84.5t88 34.5q52 0 89 -34.5t37 -84.5q0 -49 -37 -84t-89 -35z" />
    <glyph glyph-name="uni0302" horiz-adv-x="0" 
d="M279 1282h-177v9l235 267h171l236 -267v-9h-179l-142 175z" />
    <glyph glyph-name="uni0306" horiz-adv-x="0" 
d="M389 1275q-81 0 -146.5 37.5t-104.5 102t-39 143.5h132q0 -68 44.5 -111.5t113.5 -43.5t113.5 43.5t44.5 111.5h132q0 -79 -38.5 -143t-104 -102t-147.5 -38z" />
    <glyph glyph-name="dieresismacroncomb.lc" horiz-adv-x="1210" 
d="M816 1273q-49 0 -84 35t-35 84t35 83.5t84 34.5t83.5 -34.5t34.5 -83.5t-34.5 -84t-83.5 -35zM395 1273q-49 0 -84 35t-35 84t35 83.5t84 34.5t83.5 -34.5t34.5 -83.5t-34.5 -84t-83.5 -35zM878 1781v-128h-554v128h554z" />
    <glyph glyph-name="breveacutecomb.cn" horiz-adv-x="768" 
d="M389 1247q-81 0 -146.5 37.5t-104.5 102t-39 143.5h132q0 -68 44.5 -111.5t113.5 -43.5t113.5 43.5t44.5 111.5h132q0 -79 -38.5 -143t-104 -102t-147.5 -38zM314 1615l140 276h201l-194 -276h-147z" />
    <glyph glyph-name="brevegravecomb.cn" horiz-adv-x="768" 
d="M379 1247q-81 0 -147 38t-104.5 102t-38.5 143h132q0 -68 44.5 -111.5t113.5 -43.5t113.5 43.5t44.5 111.5h132q0 -79 -38.5 -143.5t-104.5 -102t-147 -37.5zM454 1615h-147l-194 276h201z" />
    <glyph glyph-name="brevetildecomb.cn" horiz-adv-x="768" 
d="M384 1249q-80 0 -144.5 37.5t-102.5 101t-38 141.5h128q0 -69 44 -112.5t113 -43.5t113 43.5t44 112.5h128q0 -78 -38 -141.5t-102.5 -101t-144.5 -37.5zM524 1642q-37 0 -72.5 12.5t-67 29t-58 29t-45.5 12.5q-26 0 -38.5 -25t-14.5 -54h-126q3 90 42.5 149t119.5 59
q39 0 72 -13t62 -29.5t55.5 -29.5t51.5 -13t38 19t18 62h123q-3 -94 -44.5 -151t-115.5 -57z" />
    <glyph glyph-name="circumflexacutecomb.cn" horiz-adv-x="832" 
d="M279 1254h-177v9l235 267h171l236 -267v-9h-179l-142 175zM558 1615l140 276h201l-194 -276h-147z" />
    <glyph glyph-name="circumflexgravecomb.cn" horiz-adv-x="832" 
d="M279 1254h-177v9l235 267h171l236 -267v-9h-179l-142 175zM607 1615l-193 276h201l140 -276h-148z" />
    <glyph glyph-name="circumflexhookcomb.cn" horiz-adv-x="832" 
d="M279 1254h-177v9l235 267h171l236 -267v-9h-179l-142 175zM689 1615h-136l63 119q11 21 4.5 30t-26.5 9h-139v118h139q83 0 127 -29t48 -76t-34 -103z" />
    <glyph glyph-name="circumflextildecomb.cn" horiz-adv-x="832" 
d="M279 1254h-177v9l235 267h171l236 -267v-9h-179l-142 175zM552 1643q-37 0 -72.5 12.5t-67 29t-58 29t-45.5 12.5q-26 0 -38.5 -25t-14.5 -54h-126q3 90 42.5 149t119.5 59q39 0 72 -13t62 -29.5t55.5 -29.5t51.5 -13t38 19t18 62h123q-3 -94 -44.5 -151t-115.5 -57z" />
    <glyph glyph-name="uni03060309" horiz-adv-x="0" 
d="M389 1247q-81 0 -146.5 37.5t-104.5 102t-39 143.5h132q0 -68 44.5 -111.5t113.5 -43.5t113.5 43.5t44.5 111.5h132q0 -79 -38.5 -143t-104 -102t-147.5 -38zM458 1615h-136l63 119q11 21 4.5 30t-26.5 9h-139v118h139q83 0 127 -29t48 -76t-34 -103z" />
    <glyph glyph-name="crossbar" horiz-adv-x="926" 
d="M140 676v138h646v-138h-646z" />
    <glyph glyph-name="crossbar_short.uc" horiz-adv-x="873" 
d="M50 668v154h773v-154h-773z" />
    </font>
</defs>
</svg>
