<?xml version="1.0" standalone="no"?>
<!DOCTYPE svg PUBLIC "-//W3C//DTD SVG 1.1//EN" "http://www.w3.org/Graphics/SVG/1.1/DTD/svg11.dtd" >
<svg xmlns="http://www.w3.org/2000/svg" xmlns:xlink="http://www.w3.org/1999/xlink" version="1.1">
<metadata>
Created by FontForge 20200511 at Fri May 24 18:06:21 2024
 By convertio
Copyright 2016 The Inter Project Authors (https://github.com/rsms/inter)
</metadata>
<defs>
<font id="Inter-Regular" horiz-adv-x="0" >
  <font-face 
    font-family="Inter"
    font-weight="400"
    font-stretch="normal"
    units-per-em="2048"
    panose-1="2 0 5 3 0 0 0 2 0 4"
    ascent="1638"
    descent="-410"
    cap-height="1490"
    bbox="-1512.02 -448 2663 1930"
    underline-thickness="140"
    underline-position="-418"
    unicode-range="U+0020-A69F"
  />
<missing-glyph horiz-adv-x="1344" 
d="M1016 -416h-688v2272h688v-2272zM512 -192v-64h320v64h-215l215 127v65h-320v-64h216zM512 320v-256h320v256h-320zM768 128h-192v128h192v-128zM512 704v-256h320v256h-192v-128h64v64h64v-128h-192v192h-64zM512 832v-64h320v224h-64v-160h-256zM512 960v-64h192v160
h128v64h-320v-64h128v-96h-128zM640 1248h-64v96h64v-96zM512 1408v-224h320v64h-128v160h-192zM512 1536v-64h320v64h-144v96h144v64h-320v-64h112v-96h-112z" />
    <glyph glyph-name=".notdef" horiz-adv-x="1344" 
d="M1016 -416h-688v2272h688v-2272zM512 -192v-64h320v64h-215l215 127v65h-320v-64h216zM512 320v-256h320v256h-320zM768 128h-192v128h192v-128zM512 704v-256h320v256h-192v-128h64v64h64v-128h-192v192h-64zM512 832v-64h320v224h-64v-160h-256zM512 960v-64h192v160
h128v64h-320v-64h128v-96h-128zM640 1248h-64v96h64v-96zM512 1408v-224h320v64h-128v160h-192zM512 1536v-64h320v64h-144v96h144v64h-320v-64h112v-96h-112z" />
    <glyph glyph-name=".null" horiz-adv-x="1200" 
 />
    <glyph glyph-name=".null" horiz-adv-x="1200" 
 />
    <glyph glyph-name="A" unicode="A" horiz-adv-x="1413" 
d="M52 0l541 1490h220l548 -1490h-200l-316 884q-29 82 -67.5 204.5t-93.5 312.5h36q-54 -192 -93.5 -316.5t-65.5 -200.5l-307 -884h-202zM324 416v166h765v-166h-765z" />
    <glyph glyph-name="Adieresis" unicode="&#xc4;" horiz-adv-x="1413" 
d="M52 0l541 1490h220l548 -1490h-200l-316 884q-29 82 -67.5 204.5t-93.5 312.5h36q-54 -192 -93.5 -316.5t-65.5 -200.5l-307 -884h-202zM324 416v166h765v-166h-765zM917 1673q-49 0 -84 35t-35 84t35 83.5t84 34.5t83.5 -34.5t34.5 -83.5t-34.5 -84t-83.5 -35zM496 1673
q-49 0 -84 35t-35 84t35 83.5t84 34.5t83.5 -34.5t34.5 -83.5t-34.5 -84t-83.5 -35z" />
    <glyph glyph-name="uni04D0" unicode="&#x4d0;" horiz-adv-x="1413" 
d="M52 0l541 1490h220l548 -1490h-200l-316 884q-29 82 -67.5 204.5t-93.5 312.5h36q-54 -192 -93.5 -316.5t-65.5 -200.5l-307 -884h-202zM324 416v166h765v-166h-765zM706 1647q-81 0 -146.5 37.5t-104.5 102t-39 143.5h132q0 -68 44.5 -111.5t113.5 -43.5t113.5 43.5
t44.5 111.5h132q0 -79 -38.5 -143t-104 -102t-147.5 -38z" />
    <glyph glyph-name="uni04D2" unicode="&#x4d2;" horiz-adv-x="1413" 
d="M52 0l541 1490h220l548 -1490h-200l-316 884q-29 82 -67.5 204.5t-93.5 312.5h36q-54 -192 -93.5 -316.5t-65.5 -200.5l-307 -884h-202zM324 416v166h765v-166h-765zM917 1673q-49 0 -84 35t-35 84t35 83.5t84 34.5t83.5 -34.5t34.5 -83.5t-34.5 -84t-83.5 -35zM496 1673
q-49 0 -84 35t-35 84t35 83.5t84 34.5t83.5 -34.5t34.5 -83.5t-34.5 -84t-83.5 -35z" />
    <glyph glyph-name="AE" horiz-adv-x="2035" 
d="M52 0l716 1490h1122v-168h-716v-492h670v-168h-670v-494h727v-168h-909v1367h-93l-638 -1367h-209zM395 416v158h686v-158h-686z" />
    <glyph glyph-name="uni04D4" unicode="&#x4d4;" horiz-adv-x="2035" 
d="M52 0l716 1490h1122v-168h-716v-492h670v-168h-670v-494h727v-168h-909v1367h-93l-638 -1367h-209zM395 416v158h686v-158h-686z" />
    <glyph glyph-name="C" horiz-adv-x="1496" 
d="M783 -20q-191 0 -340.5 92.5t-235 264t-85.5 407.5q0 237 85.5 408.5t235 264.5t340.5 93q113 0 213.5 -33t180.5 -96.5t133.5 -154t73.5 -205.5h-190q-16 77 -54.5 135t-94 98t-122.5 60t-140 20q-134 0 -242 -68t-171 -199.5t-63 -322.5q0 -190 63.5 -321.5t171.5 -199
t241 -67.5q73 0 140 20.5t122.5 60t94 98t54.5 134.5h190q-19 -114 -72.5 -204t-133.5 -154t-180.5 -97.5t-214.5 -33.5z" />
    <glyph glyph-name="E" horiz-adv-x="1231" 
d="M180 0v1490h908v-168h-718v-486h669v-168h-669v-500h727v-168h-917z" />
    <glyph glyph-name="uni04D6" unicode="&#x4d6;" horiz-adv-x="1231" 
d="M180 0v1490h908v-168h-718v-486h669v-168h-669v-500h727v-168h-917zM639 1647q-81 0 -146.5 37.5t-104.5 102t-39 143.5h132q0 -68 44.5 -111.5t113.5 -43.5t113.5 43.5t44.5 111.5h132q0 -79 -38.5 -143t-104 -102t-147.5 -38z" />
    <glyph glyph-name="H" horiz-adv-x="1522" 
d="M180 0v1490h190v-644h782v644h190v-1490h-190v678h-782v-678h-190z" />
    <glyph glyph-name="uni04C7" unicode="&#x4c7;" horiz-adv-x="1522" 
d="M947 -418v159q17 -3 32.5 -4t26.5 -1q83 0 114.5 24.5t31.5 76.5v291h190v-299q0 -124 -74 -190t-217 -66q-32 0 -60.5 2.5t-43.5 6.5zM180 0v1490h190v-644h782v644h190v-1490h-190v678h-782v-678h-190z" />
    <glyph glyph-name="uni04A2" unicode="&#x4a2;" horiz-adv-x="1552" 
d="M180 0v1490h190v-644h782v644h190v-1490h-190v678h-782v-678h-190zM1308 -320v320h-75v166h256l-1 -486h-180z" />
    <glyph glyph-name="uni04C9" unicode="&#x4c9;" horiz-adv-x="1522" 
d="M180 0v1490h190v-644h782v644h190v-1490h-190v678h-782v-678h-190zM1212 -320l95 320h-65v166h294l-145 -486h-179z" />
    <glyph glyph-name="uni04A4" unicode="&#x4a4;" horiz-adv-x="2018" 
d="M1920 1490v-160h-634l-128 160h762zM180 0v1490h190v-644h782v644h190v-1490h-190v678h-782v-678h-190z" />
    <glyph glyph-name="I" horiz-adv-x="550" 
d="M370 1490v-1490h-190v1490h190z" />
    <glyph glyph-name="uni04A0" unicode="&#x4a0;" horiz-adv-x="1718" 
d="M612 1490v-160h-514v160h514zM522 0v1490h190v-649h209l486 649h230l-555 -722l579 -768h-229l-503 676h-217v-676h-190z" />
    <glyph glyph-name="uni049A" unicode="&#x49a;" horiz-adv-x="1446" 
d="M180 0v1490h190v-649h209l486 649h230l-555 -722l579 -768h-229l-503 676h-217v-676h-190zM1226 -320v320h-75v166h256l-1 -486h-180z" />
    <glyph glyph-name="M" horiz-adv-x="1850" 
d="M180 0v1490h270l367 -940q13 -33 29.5 -82.5t35 -107.5t35.5 -115.5t30 -106.5h-42q14 46 31 102.5t35.5 115t35.5 109.5t30 85l362 940h271v-1490h-187v851q0 46 0.5 105t2 124t3 132t2.5 130h16q-21 -69 -44.5 -140.5t-46 -138t-42.5 -121.5t-34 -91l-333 -851h-165
l-338 851q-14 35 -33 88.5t-41.5 119t-46.5 138t-49 145.5h18q2 -56 3.5 -121t2.5 -131.5t2 -128t1 -110.5v-851h-181z" />
    <glyph glyph-name="uni04CD" unicode="&#x4cd;" horiz-adv-x="1850" 
d="M180 0v1490h270l367 -940q13 -33 29.5 -82.5t35 -107.5t35.5 -115.5t30 -106.5h-42q14 46 31 102.5t35.5 115t35.5 109.5t30 85l362 940h271v-1490h-187v851q0 46 0.5 105t2 124t3 132t2.5 130h16q-21 -69 -44.5 -140.5t-46 -138t-42.5 -121.5t-34 -91l-333 -851h-165
l-338 851q-14 35 -33 88.5t-41.5 119t-46.5 138t-49 145.5h18q2 -56 3.5 -121t2.5 -131.5t2 -128t1 -110.5v-851h-181zM1536 -320l95 320h-65v166h294l-145 -486h-179z" />
    <glyph glyph-name="uni0418" horiz-adv-x="1543" 
d="M1363 0h-191v850q0 40 2.5 110t7 164t8.5 205h35q-71 -126 -119 -211.5t-85 -148t-75 -121.5l-540 -848h-226v1490h190v-914q0 -46 -1 -112t-5 -144.5t-13 -164.5h-27q39 83 78 156t73.5 131t57.5 95l606 953h224v-1490z" />
    <glyph glyph-name="uni04E2" unicode="&#x4e2;" horiz-adv-x="1543" 
d="M1363 0h-191v850q0 40 2.5 110t7 164t8.5 205h35q-71 -126 -119 -211.5t-85 -148t-75 -121.5l-540 -848h-226v1490h190v-914q0 -46 -1 -112t-5 -144.5t-13 -164.5h-27q39 83 78 156t73.5 131t57.5 95l606 953h224v-1490zM1049 1863v-142h-554v142h554z" />
    <glyph glyph-name="uni04E4" unicode="&#x4e4;" horiz-adv-x="1543" 
d="M1363 0h-191v850q0 40 2.5 110t7 164t8.5 205h35q-71 -126 -119 -211.5t-85 -148t-75 -121.5l-540 -848h-226v1490h190v-914q0 -46 -1 -112t-5 -144.5t-13 -164.5h-27q39 83 78 156t73.5 131t57.5 95l606 953h224v-1490zM983 1673q-49 0 -84 35t-35 84t35 83.5t84 34.5
t83.5 -34.5t34.5 -83.5t-34.5 -84t-83.5 -35zM562 1673q-49 0 -84 35t-35 84t35 83.5t84 34.5t83.5 -34.5t34.5 -83.5t-34.5 -84t-83.5 -35z" />
    <glyph glyph-name="uni048A" unicode="&#x48a;" horiz-adv-x="1543" 
d="M1363 0h-191v850q0 40 2.5 110t7 164t8.5 205h35q-71 -126 -119 -211.5t-85 -148t-75 -121.5l-540 -848h-226v1490h190v-914q0 -46 -1 -112t-5 -144.5t-13 -164.5h-27q39 83 78 156t73.5 131t57.5 95l606 953h224v-1490zM772 1647q-81 0 -146.5 37.5t-104.5 102
t-39 143.5h132q0 -68 44.5 -111.5t113.5 -43.5t113.5 43.5t44.5 111.5h132q0 -79 -38.5 -143t-104 -102t-147.5 -38zM1234 -320l95 320h-65v166h294l-145 -486h-179z" />
    <glyph glyph-name="O" horiz-adv-x="1566" 
d="M784 -20q-191 0 -340.5 92.5t-235.5 264t-86 407.5q0 237 86 408.5t235.5 264.5t340.5 93t340 -93t234.5 -264.5t85.5 -408.5q0 -236 -85.5 -407.5t-234.5 -264t-340 -92.5zM784 156q133 0 240.5 67.5t171 199t63.5 321.5q0 192 -63.5 323.5t-171 199t-240.5 67.5
q-134 0 -242 -68t-171.5 -199.5t-63.5 -322.5q0 -190 63.5 -321t171.5 -199t242 -68z" />
    <glyph glyph-name="uni03F4" horiz-adv-x="1566" 
d="M1292 824v-160h-1024v160h1024zM784 -20q-191 0 -340.5 92.5t-235.5 264t-86 407.5q0 237 86 408.5t235.5 264.5t340.5 93t340 -93t234.5 -264.5t85.5 -408.5q0 -236 -85.5 -407.5t-234.5 -264t-340 -92.5zM784 156q133 0 240.5 67.5t171 199t63.5 321.5
q0 192 -63.5 323.5t-171 199t-240.5 67.5q-134 0 -242 -68t-171.5 -199.5t-63.5 -322.5q0 -190 63.5 -321t171.5 -199t242 -68z" />
    <glyph glyph-name="uni04E6" unicode="&#x4e6;" horiz-adv-x="1566" 
d="M784 -20q-191 0 -340.5 92.5t-235.5 264t-86 407.5q0 237 86 408.5t235.5 264.5t340.5 93t340 -93t234.5 -264.5t85.5 -408.5q0 -236 -85.5 -407.5t-234.5 -264t-340 -92.5zM784 156q133 0 240.5 67.5t171 199t63.5 321.5q0 192 -63.5 323.5t-171 199t-240.5 67.5
q-134 0 -242 -68t-171.5 -199.5t-63.5 -322.5q0 -190 63.5 -321t171.5 -199t242 -68zM995 1673q-49 0 -84 35t-35 84t35 83.5t84 34.5t83.5 -34.5t34.5 -83.5t-34.5 -84t-83.5 -35zM574 1673q-49 0 -84 35t-35 84t35 83.5t84 34.5t83.5 -34.5t34.5 -83.5t-34.5 -84
t-83.5 -35z" />
    <glyph glyph-name="uni04E8" unicode="&#x4e8;" horiz-adv-x="1566" 
d="M1292 824v-160h-1024v160h1024zM784 -20q-191 0 -340.5 92.5t-235.5 264t-86 407.5q0 237 86 408.5t235.5 264.5t340.5 93t340 -93t234.5 -264.5t85.5 -408.5q0 -236 -85.5 -407.5t-234.5 -264t-340 -92.5zM784 156q133 0 240.5 67.5t171 199t63.5 321.5
q0 192 -63.5 323.5t-171 199t-240.5 67.5q-134 0 -242 -68t-171.5 -199.5t-63.5 -322.5q0 -190 63.5 -321t171.5 -199t242 -68z" />
    <glyph glyph-name="uni04EA" unicode="&#x4ea;" horiz-adv-x="1566" 
d="M1292 824v-160h-1024v160h1024zM784 -20q-191 0 -340.5 92.5t-235.5 264t-86 407.5q0 237 86 408.5t235.5 264.5t340.5 93t340 -93t234.5 -264.5t85.5 -408.5q0 -236 -85.5 -407.5t-234.5 -264t-340 -92.5zM784 156q133 0 240.5 67.5t171 199t63.5 321.5
q0 192 -63.5 323.5t-171 199t-240.5 67.5q-134 0 -242 -68t-171.5 -199.5t-63.5 -322.5q0 -190 63.5 -321t171.5 -199t242 -68zM995 1673q-49 0 -84 35t-35 84t35 83.5t84 34.5t83.5 -34.5t34.5 -83.5t-34.5 -84t-83.5 -35zM574 1673q-49 0 -84 35t-35 84t35 83.5t84 34.5
t83.5 -34.5t34.5 -83.5t-34.5 -84t-83.5 -35z" />
    <glyph glyph-name="uni048E" unicode="&#x48e;" horiz-adv-x="1300" 
d="M826 958l302 -464l-134 -86l-302 464zM180 0v1490h510q174 0 286.5 -63.5t167 -170.5t54.5 -240t-54.5 -241t-166.5 -172t-286 -64h-361v167h352q118 0 190 40.5t104.5 111t32.5 158.5t-32.5 157.5t-105 109.5t-191.5 40h-310v-1323h-190z" />
    <glyph glyph-name="T" horiz-adv-x="1322" 
d="M98 1322v168h1126v-168h-467v-1322h-190v1322h-469z" />
    <glyph glyph-name="X" horiz-adv-x="1397" 
d="M57 0l583 833v-141l-550 798h220l215 -316q48 -70 78.5 -118t56 -94t57.5 -110h-33q32 63 57.5 109t57 94.5t79.5 118.5l219 316h215l-549 -790v140l577 -840h-219l-261 378q-42 62 -71 106.5t-54 89t-56 106.5h41q-30 -59 -55.5 -103.5t-55 -90t-73.5 -108.5l-263 -378
h-216z" />
    <glyph glyph-name="uni04B2" unicode="&#x4b2;" horiz-adv-x="1437" 
d="M57 0l583 833v-141l-550 798h220l215 -316q48 -70 78.5 -118t56 -94t57.5 -110h-33q32 63 57.5 109t57 94.5t79.5 118.5l219 316h215l-549 -790v140l577 -840h-219l-261 378q-42 62 -71 106.5t-54 89t-56 106.5h41q-30 -59 -55.5 -103.5t-55 -90t-73.5 -108.5l-263 -378
h-216zM1234 -320v320h-75v166h256l-1 -486h-180z" />
    <glyph glyph-name="uni04FC" unicode="&#x4fc;" horiz-adv-x="1437" 
d="M57 0l583 833v-141l-550 798h220l215 -316q48 -70 78.5 -118t56 -94t57.5 -110h-33q32 63 57.5 109t57 94.5t79.5 118.5l219 316h215l-549 -790v140l577 -840h-219l-261 378q-42 62 -71 106.5t-54 89t-56 106.5h41q-30 -59 -55.5 -103.5t-55 -90t-73.5 -108.5l-263 -378
h-216zM1121 -428q-31 0 -60.5 3.5t-52.5 10.5l14 155q26 -4 52.5 -6t51.5 -2q61 0 97.5 38t36.5 125v104h-77v164h251v-246q0 -167 -80.5 -256.5t-232.5 -89.5z" />
    <glyph glyph-name="Y" horiz-adv-x="1390" 
d="M600 0v610l-548 880h220l295 -481q50 -81 88.5 -154.5t79.5 -185.5h-76q41 114 80 188.5t86 151.5l294 481h219l-548 -880v-610h-190z" />
    <glyph glyph-name="a" horiz-adv-x="1150" 
d="M471 -26q-106 0 -192.5 40t-137.5 117t-51 187q0 96 38 156t101.5 94.5t140.5 51.5t155 27q100 13 163 20t93.5 24t30.5 58v6q0 70 -26 118.5t-78 74.5t-130 26q-80 0 -137 -25t-92.5 -62.5t-53.5 -76.5l-173 57q43 102 116 159.5t161 81.5t174 24q56 0 127.5 -13.5
t138 -53.5t110 -118.5t43.5 -209.5v-737h-177v152h-12q-19 -39 -61 -80.5t-109 -69.5t-162 -28zM502 133q100 0 169 39t105 101.5t36 130.5v155q-11 -13 -48 -23.5t-84.5 -18.5t-92 -13.5t-70.5 -8.5q-65 -8 -121.5 -27.5t-90.5 -57t-34 -101.5q0 -58 30 -97t82 -59t119 -20
z" />
    <glyph glyph-name="uni04D1" unicode="&#x4d1;" horiz-adv-x="1150" 
d="M471 -26q-106 0 -192.5 40t-137.5 117t-51 187q0 96 38 156t101.5 94.5t140.5 51.5t155 27q100 13 163 20t93.5 24t30.5 58v6q0 70 -26 118.5t-78 74.5t-130 26q-80 0 -137 -25t-92.5 -62.5t-53.5 -76.5l-173 57q43 102 116 159.5t161 81.5t174 24q56 0 127.5 -13.5
t138 -53.5t110 -118.5t43.5 -209.5v-737h-177v152h-12q-19 -39 -61 -80.5t-109 -69.5t-162 -28zM502 133q100 0 169 39t105 101.5t36 130.5v155q-11 -13 -48 -23.5t-84.5 -18.5t-92 -13.5t-70.5 -8.5q-65 -8 -121.5 -27.5t-90.5 -57t-34 -101.5q0 -58 30 -97t82 -59t119 -20
zM558 1275q-81 0 -146.5 37.5t-104.5 102t-39 143.5h132q0 -68 44.5 -111.5t113.5 -43.5t113.5 43.5t44.5 111.5h132q0 -79 -38.5 -143t-104 -102t-147.5 -38z" />
    <glyph glyph-name="uni04D3" unicode="&#x4d3;" horiz-adv-x="1150" 
d="M471 -26q-106 0 -192.5 40t-137.5 117t-51 187q0 96 38 156t101.5 94.5t140.5 51.5t155 27q100 13 163 20t93.5 24t30.5 58v6q0 70 -26 118.5t-78 74.5t-130 26q-80 0 -137 -25t-92.5 -62.5t-53.5 -76.5l-173 57q43 102 116 159.5t161 81.5t174 24q56 0 127.5 -13.5
t138 -53.5t110 -118.5t43.5 -209.5v-737h-177v152h-12q-19 -39 -61 -80.5t-109 -69.5t-162 -28zM502 133q100 0 169 39t105 101.5t36 130.5v155q-11 -13 -48 -23.5t-84.5 -18.5t-92 -13.5t-70.5 -8.5q-65 -8 -121.5 -27.5t-90.5 -57t-34 -101.5q0 -58 30 -97t82 -59t119 -20
zM769 1301q-49 0 -84 35t-35 84t35 83.5t84 34.5t83.5 -34.5t34.5 -83.5t-34.5 -84t-83.5 -35zM348 1301q-49 0 -84 35t-35 84t35 83.5t84 34.5t83.5 -34.5t34.5 -83.5t-34.5 -84t-83.5 -35z" />
    <glyph glyph-name="ae" horiz-adv-x="1879" 
d="M472 -26q-106 0 -193 40t-138 117t-51 187q0 96 43 160t113 101.5t154 54t166 16.5h1108l-84 -63q14 109 -19 196t-104 138t-172 51t-174 -49.5t-112 -129t-39 -170.5v-101q0 -124 43 -210t120 -131t178 -45q67 0 121 19t93.5 57.5t60.5 95.5l175 -45q-26 -85 -88 -149.5
t-154 -101t-208 -36.5q-122 0 -218.5 41t-158.5 114t-83 169l31 565q37 82 95.5 142t138 92.5t179.5 32.5q89 0 175 -29.5t156 -95t111.5 -172.5t41.5 -262v-75h-1211q-79 0 -146.5 -20.5t-109 -62.5t-41.5 -106q0 -87 65.5 -131.5t165.5 -44.5t168.5 39t104 101.5
t35.5 130.5v351q0 69 -25.5 118t-77 75t-129.5 26q-80 0 -137 -25t-92.5 -62.5t-53.5 -76.5l-173 57q43 102 116 159.5t161 81.5t174 24q65 0 141 -17.5t141.5 -71t97.5 -160.5l-35 -680h-20q-17 -47 -58 -88.5t-99 -73t-127 -49.5t-142 -18z" />
    <glyph glyph-name="uni04D5" unicode="&#x4d5;" horiz-adv-x="1879" 
d="M472 -26q-106 0 -193 40t-138 117t-51 187q0 96 43 160t113 101.5t154 54t166 16.5h1108l-84 -63q14 109 -19 196t-104 138t-172 51t-174 -49.5t-112 -129t-39 -170.5v-101q0 -124 43 -210t120 -131t178 -45q67 0 121 19t93.5 57.5t60.5 95.5l175 -45q-26 -85 -88 -149.5
t-154 -101t-208 -36.5q-122 0 -218.5 41t-158.5 114t-83 169l31 565q37 82 95.5 142t138 92.5t179.5 32.5q89 0 175 -29.5t156 -95t111.5 -172.5t41.5 -262v-75h-1211q-79 0 -146.5 -20.5t-109 -62.5t-41.5 -106q0 -87 65.5 -131.5t165.5 -44.5t168.5 39t104 101.5
t35.5 130.5v351q0 69 -25.5 118t-77 75t-129.5 26q-80 0 -137 -25t-92.5 -62.5t-53.5 -76.5l-173 57q43 102 116 159.5t161 81.5t174 24q65 0 141 -17.5t141.5 -71t97.5 -160.5l-35 -680h-20q-17 -47 -58 -88.5t-99 -73t-127 -49.5t-142 -18z" />
    <glyph glyph-name="c" horiz-adv-x="1170" 
d="M613 -24q-152 0 -266.5 72t-178.5 202t-64 302q0 175 64 305.5t178.5 202.5t266.5 72q81 0 153 -21t131.5 -60.5t102.5 -97t66 -130.5l-173 -49q-12 43 -37 79t-60.5 62.5t-81.5 41t-101 14.5q-112 0 -184 -58.5t-107 -153.5t-35 -207q0 -110 35 -204.5t107 -152.5
t184 -58q56 0 103 15t83.5 42.5t61.5 65.5t37 83l172 -49q-22 -75 -65.5 -133.5t-103.5 -100t-133 -63t-155 -21.5z" />
    <glyph glyph-name="e" horiz-adv-x="1194" 
d="M628 -24q-162 0 -279.5 72t-181 201t-63.5 301t62 303t175.5 205t265.5 74q89 0 175.5 -29.5t157 -95t112.5 -172.5t42 -262v-75h-868v152h771l-84 -56q0 110 -34.5 195.5t-102.5 134t-169 48.5t-173 -49.5t-110 -129t-38 -170.5v-101q0 -124 43 -210.5t120.5 -131
t179.5 -44.5q66 0 120 19t93 57.5t60 95.5l174 -48q-26 -84 -88 -148t-153.5 -100t-206.5 -36z" />
    <glyph glyph-name="uni04D7" unicode="&#x4d7;" horiz-adv-x="1194" 
d="M628 -24q-162 0 -279.5 72t-181 201t-63.5 301t62 303t175.5 205t265.5 74q89 0 175.5 -29.5t157 -95t112.5 -172.5t42 -262v-75h-868v152h771l-84 -56q0 110 -34.5 195.5t-102.5 134t-169 48.5t-173 -49.5t-110 -129t-38 -170.5v-101q0 -124 43 -210.5t120.5 -131
t179.5 -44.5q66 0 120 19t93 57.5t60 95.5l174 -48q-26 -84 -88 -148t-153.5 -100t-206.5 -36zM603 1275q-81 0 -146.5 37.5t-104.5 102t-39 143.5h132q0 -68 44.5 -111.5t113.5 -43.5t113.5 43.5t44.5 111.5h132q0 -79 -38.5 -143t-104 -102t-147.5 -38z" />
    <glyph glyph-name="eturn" horiz-adv-x="1194" 
d="M566 1142q162 0 279.5 -72t181 -201t63.5 -301q0 -171 -62 -302.5t-175 -205.5t-266 -74q-89 0 -175.5 29.5t-157 95t-112.5 172.5t-42 262v75h868v-152h-771l84 56q0 -110 34.5 -195.5t102.5 -134t169 -48.5t173 49.5t110 129t38 170.5v101q0 125 -43 211t-120 130.5
t-180 44.5q-66 0 -120 -19t-93 -57.5t-60 -95.5l-174 48q26 85 88 148.5t154 99.5t206 36z" />
    <glyph glyph-name="h" horiz-adv-x="1211" 
d="M338 670v-670h-180v1490h180v-643h-31q51 155 145.5 220t221.5 65q113 0 198.5 -46.5t133 -140t47.5 -235.5v-710h-181v695q0 129 -67.5 202t-184.5 73q-80 0 -144 -35t-101 -102t-37 -163z" />
    <glyph glyph-name="uni04BB" unicode="&#x4bb;" horiz-adv-x="1211" 
d="M338 670v-670h-180v1490h180v-643h-31q51 155 145.5 220t221.5 65q113 0 198.5 -46.5t133 -140t47.5 -235.5v-710h-181v695q0 129 -67.5 202t-184.5 73q-80 0 -144 -35t-101 -102t-37 -163z" />
    <glyph glyph-name="dotlessi" horiz-adv-x="496" 
d="M158 0v1118h180v-1118h-180z" />
    <glyph glyph-name="l" horiz-adv-x="496" 
d="M338 1490v-1490h-180v1490h180z" />
    <glyph glyph-name="uni04CF" unicode="&#x4cf;" horiz-adv-x="496" 
d="M338 1490v-1490h-180v1490h180z" />
    <glyph glyph-name="o" horiz-adv-x="1228" 
d="M613 -24q-152 0 -266.5 72t-178.5 202t-64 302q0 175 64 305.5t178.5 202.5t266.5 72q153 0 268 -72t179 -202.5t64 -305.5q0 -172 -64 -302t-179 -202t-268 -72zM613 137q113 0 186 58t108 152.5t35 204.5q0 111 -35 206.5t-108 154t-186 58.5q-112 0 -184 -58.5
t-107 -153.5t-35 -207q0 -110 35 -204.5t107 -152.5t184 -58z" />
    <glyph glyph-name="uni0473" unicode="&#x473;" horiz-adv-x="1228" 
d="M613 -24q-152 0 -266.5 72t-178.5 202t-64 302q0 175 64 305.5t178.5 202.5t266.5 72q153 0 268 -72t179 -202.5t64 -305.5q0 -172 -64 -302t-179 -202t-268 -72zM613 137q113 0 186 58t108 152.5t35 204.5q0 111 -35 206.5t-108 154t-186 58.5q-112 0 -184 -58.5
t-107 -153.5t-35 -207q0 -110 35 -204.5t107 -152.5t184 -58zM267 424l-78 61q59 74 121.5 131t144.5 57q68 0 123.5 -23.5t102.5 -47t88 -23.5q56 0 99.5 25.5t86.5 89.5l81 -55q-58 -86 -119.5 -138.5t-148.5 -52.5q-68 0 -123.5 23.5t-102 47t-88.5 23.5q-49 0 -95 -29.5
t-92 -88.5z" />
    <glyph glyph-name="uni04E7" unicode="&#x4e7;" horiz-adv-x="1228" 
d="M613 -24q-152 0 -266.5 72t-178.5 202t-64 302q0 175 64 305.5t178.5 202.5t266.5 72q153 0 268 -72t179 -202.5t64 -305.5q0 -172 -64 -302t-179 -202t-268 -72zM613 137q113 0 186 58t108 152.5t35 204.5q0 111 -35 206.5t-108 154t-186 58.5q-112 0 -184 -58.5
t-107 -153.5t-35 -207q0 -110 35 -204.5t107 -152.5t184 -58zM824 1301q-49 0 -84 35t-35 84t35 83.5t84 34.5t83.5 -34.5t34.5 -83.5t-34.5 -84t-83.5 -35zM403 1301q-49 0 -84 35t-35 84t35 83.5t84 34.5t83.5 -34.5t34.5 -83.5t-34.5 -84t-83.5 -35z" />
    <glyph glyph-name="uni0479" unicode="&#x479;" horiz-adv-x="2339" 
d="M613 -24q-152 0 -266.5 72t-178.5 202t-64 302q0 175 64 305.5t178.5 202.5t266.5 72q153 0 268 -72t179 -202.5t64 -305.5q0 -172 -64 -302t-179 -202t-268 -72zM613 137q113 0 186 58t108 152.5t35 204.5q0 111 -35 206.5t-108 154t-186 58.5q-112 0 -184 -58.5
t-107 -153.5t-35 -207q0 -110 35 -204.5t107 -152.5t184 -58zM1328 -405l46 156l19 -5q55 -14 100 -7.5t81 44.5t63 118l32 93l-427 1124h197l238 -663q38 -104 64 -206t55 -198h-66q29 96 55.5 198.5t63.5 205.5l240 663h196l-491 -1285q-34 -89 -81.5 -146.5t-110.5 -85
t-142 -27.5q-48 0 -83 7t-49 14z" />
    <glyph glyph-name="uni048F" unicode="&#x48f;" horiz-adv-x="1248" 
d="M788 390l338 -376l-116 -110l-338 376zM158 -418v1536h174v-179h20q19 30 53 75.5t98 81.5t173 36q140 0 246.5 -70t167 -199.5t60.5 -306.5q0 -178 -60 -308t-166.5 -201t-246.5 -71q-106 0 -171 36.5t-100 83t-54 77.5h-14v-591h-180zM650 137q105 0 175.5 56.5
t106 152t35.5 212.5q0 116 -35 209.5t-105.5 148.5t-176.5 55q-103 0 -173 -52t-105.5 -144.5t-35.5 -216.5t36 -219t106.5 -148.5t171.5 -53.5z" />
    <glyph glyph-name="x" horiz-adv-x="1118" 
d="M65 0l441 643l-1 -138l-417 613h210l139 -217q54 -84 93.5 -157t81.5 -141h-94q43 68 78.5 141t90.5 157l142 217h206l-419 -621v133l437 -630h-209l-164 251q-53 82 -91.5 152.5t-79.5 135.5h95q-41 -65 -76 -135.5t-89 -152.5l-166 -251h-208z" />
    <glyph glyph-name="y" horiz-adv-x="1151" 
d="M140 -405l46 156l19 -5q55 -14 100 -7.5t81 44.5t63 118l32 93l-427 1124h197l238 -663q38 -104 64 -206t55 -198h-66q29 96 55.5 198.5t63.5 205.5l240 663h196l-491 -1285q-34 -89 -81.5 -146.5t-110.5 -85t-142 -27.5q-48 0 -83 7t-49 14z" />
    <glyph glyph-name="uni04EF" unicode="&#x4ef;" horiz-adv-x="1151" 
d="M140 -405l46 156l19 -5q55 -14 100 -7.5t81 44.5t63 118l32 93l-427 1124h197l238 -663q38 -104 64 -206t55 -198h-66q29 96 55.5 198.5t63.5 205.5l240 663h196l-491 -1285q-34 -89 -81.5 -146.5t-110.5 -85t-142 -27.5q-48 0 -83 7t-49 14zM853 1491v-142h-554v142h554
z" />
    <glyph glyph-name="uni04F1" unicode="&#x4f1;" horiz-adv-x="1151" 
d="M140 -405l46 156l19 -5q55 -14 100 -7.5t81 44.5t63 118l32 93l-427 1124h197l238 -663q38 -104 64 -206t55 -198h-66q29 96 55.5 198.5t63.5 205.5l240 663h196l-491 -1285q-34 -89 -81.5 -146.5t-110.5 -85t-142 -27.5q-48 0 -83 7t-49 14zM787 1301q-49 0 -84 35
t-35 84t35 83.5t84 34.5t83.5 -34.5t34.5 -83.5t-34.5 -84t-83.5 -35zM366 1301q-49 0 -84 35t-35 84t35 83.5t84 34.5t83.5 -34.5t34.5 -83.5t-34.5 -84t-83.5 -35z" />
    <glyph glyph-name="uni04F3" unicode="&#x4f3;" horiz-adv-x="1151" 
d="M140 -405l46 156l19 -5q55 -14 100 -7.5t81 44.5t63 118l32 93l-427 1124h197l238 -663q38 -104 64 -206t55 -198h-66q29 96 55.5 198.5t63.5 205.5l240 663h196l-491 -1285q-34 -89 -81.5 -146.5t-110.5 -85t-142 -27.5q-48 0 -83 7t-49 14zM405 1264h-147l117 294h200z
M733 1264h-148l168 294h201z" />
    <glyph glyph-name="uni04EE" unicode="&#x4ee;" horiz-adv-x="1287" 
d="M258 0v169h104q74 0 119 23.5t67 78.5l28 68l-524 1151h208l196 -444q53 -120 91 -222t69.5 -198t65.5 -197h-53q47 134 98.5 283t125.5 334l178 444h204l-515 -1244q-30 -72 -70 -127.5t-108.5 -87t-182.5 -31.5h-101zM920 1863v-142h-554v142h554z" />
    <glyph glyph-name="uni04F0" unicode="&#x4f0;" horiz-adv-x="1287" 
d="M258 0v169h104q74 0 119 23.5t67 78.5l28 68l-524 1151h208l196 -444q53 -120 91 -222t69.5 -198t65.5 -197h-53q47 134 98.5 283t125.5 334l178 444h204l-515 -1244q-30 -72 -70 -127.5t-108.5 -87t-182.5 -31.5h-101zM854 1673q-49 0 -84 35t-35 84t35 83.5t84 34.5
t83.5 -34.5t34.5 -83.5t-34.5 -84t-83.5 -35zM433 1673q-49 0 -84 35t-35 84t35 83.5t84 34.5t83.5 -34.5t34.5 -83.5t-34.5 -84t-83.5 -35z" />
    <glyph glyph-name="uni04F2" unicode="&#x4f2;" horiz-adv-x="1287" 
d="M258 0v169h104q74 0 119 23.5t67 78.5l28 68l-524 1151h208l196 -444q53 -120 91 -222t69.5 -198t65.5 -197h-53q47 134 98.5 283t125.5 334l178 444h204l-515 -1244q-30 -72 -70 -127.5t-108.5 -87t-182.5 -31.5h-101zM472 1636h-147l117 294h200zM800 1636h-148
l168 294h201z" />
    <glyph glyph-name="Pi" horiz-adv-x="1522" 
d="M1342 1490v-1490h-190v1322h-782v-1322h-190v1490h1162z" />
    <glyph glyph-name="Psi" horiz-adv-x="1802" 
d="M1438 1490h184v-385q0 -169 -41 -294.5t-123 -209t-204.5 -125t-285.5 -41.5h-134q-162 0 -284.5 41.5t-204.5 125t-123.5 209t-41.5 294.5v385h184v-374q0 -189 46.5 -303.5t149.5 -166t273 -51.5h136q171 0 274 51.5t149 166t46 303.5v374zM809 1490h184v-1490h-184
v1490z" />
    <glyph glyph-name="uni04FA" unicode="&#x4fa;" horiz-adv-x="1212" 
d="M1114 1490v-167h-717v-1323h-190v1490h907zM20 668v154h813v-154h-813zM250 -428q-31 0 -60.5 3.5t-52.5 10.5l14 155q26 -4 52.5 -6t51.5 -2q61 0 97.5 38t36.5 125v104h-77v164h251v-246q0 -167 -80.5 -256.5t-232.5 -89.5z" />
    <glyph glyph-name="uni0416" horiz-adv-x="1966" 
d="M1078 1490v-1490h-190v1490h190zM57 0l481 777l-443 713h231l384 -662h550l382 662h230l-443 -715l480 -775h-218l-398 660h-620l-401 -660h-215z" />
    <glyph glyph-name="uni0496" unicode="&#x496;" horiz-adv-x="2006" 
d="M1078 1490v-1490h-190v1490h190zM57 0l481 777l-443 713h231l384 -662h550l382 662h230l-443 -715l480 -775h-218l-398 660h-620l-401 -660h-215zM1812 -320v320h-75v166h256l-1 -486h-180z" />
    <glyph glyph-name="Kacyr" horiz-adv-x="1376" 
d="M180 0v1490h190v-649h209l486 649h230l-555 -722l579 -768h-229l-503 676h-217v-676h-190z" />
    <glyph glyph-name="uni049C" unicode="&#x49c;" horiz-adv-x="1365" 
d="M489 1075h161v-665h-161v665zM180 0v1490h190v-666h348l341 666h222l-392 -743l419 -747h-213l-364 643h-361v-643h-190z" />
    <glyph glyph-name="uni04C3" unicode="&#x4c3;" horiz-adv-x="1398" 
d="M445 672v164h215q188 0 323 -70t208 -200.5t73 -312.5q0 -172 -59 -296t-169 -190.5t-263 -66.5l-2 166q149 -1 230 111.5t73 302.5q-7 190 -121 291t-293 101h-215zM180 0v1490h189v-649h167l509 649h237l-670 -818h-243v-672h-189z" />
    <glyph glyph-name="uni041B" horiz-adv-x="1532" 
d="M98 0v167h40q70 0 112.5 28t66.5 106.5t36 229.5l79 959h920v-1490h-190v1323h-557l-66 -808q-11 -133 -34.5 -230.5t-66.5 -160.5t-112.5 -93.5t-172.5 -30.5h-55z" />
    <glyph glyph-name="uni0472" unicode="&#x472;" horiz-adv-x="1566" 
d="M1292 824v-160h-1024v160h1024zM784 -20q-191 0 -340.5 92.5t-235.5 264t-86 407.5q0 237 86 408.5t235.5 264.5t340.5 93t340 -93t234.5 -264.5t85.5 -408.5q0 -236 -85.5 -407.5t-234.5 -264t-340 -92.5zM784 156q133 0 240.5 67.5t171 199t63.5 321.5
q0 192 -63.5 323.5t-171 199t-240.5 67.5q-134 0 -242 -68t-171.5 -199.5t-63.5 -322.5q0 -190 63.5 -321t171.5 -199t242 -68z" />
    <glyph glyph-name="uni0423" horiz-adv-x="1287" 
d="M258 0v169h104q74 0 119 23.5t67 78.5l28 68l-524 1151h208l196 -444q53 -120 91 -222t69.5 -198t65.5 -197h-53q47 134 98.5 283t125.5 334l178 444h204l-515 -1244q-30 -72 -70 -127.5t-108.5 -87t-182.5 -31.5h-101z" />
    <glyph glyph-name="uni04B4" unicode="&#x4b4;" horiz-adv-x="1875" 
d="M98 1330v160h1118v-160h-1118zM1687 0h-1119v1490h190v-1323h739v1323h190v-1490zM1653 -320v320h-75v166h256l-1 -486h-180z" />
    <glyph glyph-name="uni0427" horiz-adv-x="1434" 
d="M657 556q-155 0 -267 50t-172 155.5t-60 270.5v458h190v-457q0 -163 94 -235.5t239 -72.5q123 0 233 41t207 111v-186q-96 -60 -209.5 -97.5t-254.5 -37.5zM1064 0v1490h190v-1490h-190z" />
    <glyph glyph-name="uni04B6" unicode="&#x4b6;" horiz-adv-x="1464" 
d="M657 556q-155 0 -267 50t-172 155.5t-60 270.5v458h190v-457q0 -163 94 -235.5t239 -72.5q123 0 233 41t207 111v-186q-96 -60 -209.5 -97.5t-254.5 -37.5zM1064 0v1490h190v-1490h-190zM1220 -320v320h-75v166h256l-1 -486h-180z" />
    <glyph glyph-name="uni04B8" unicode="&#x4b8;" horiz-adv-x="1434" 
d="M657 556q-155 0 -267 50t-172 155.5t-60 270.5v458h190v-457q0 -163 94 -235.5t239 -72.5q123 0 233 41t207 111v-186q-96 -60 -209.5 -97.5t-254.5 -37.5zM1064 0v1490h190v-1490h-190zM625 315v646h162v-646h-162z" />
    <glyph glyph-name="uni04BA" unicode="&#x4ba;" horiz-adv-x="1434" 
d="M777 934q155 0 267 -50t172 -155t60 -271v-458h-190v457q0 163 -93.5 235.5t-239.5 72.5q-123 0 -233 -40.5t-207 -111.5v186q96 60 209.5 97.5t254.5 37.5zM370 1490v-1490h-190v1490h190z" />
    <glyph glyph-name="uni042C" horiz-adv-x="1330" 
d="M319 902h405q154 0 266.5 -54t174 -153.5t61.5 -235.5q0 -141 -61 -244t-173.5 -159t-267.5 -56h-544v1490h190v-1325h354q145 0 229.5 80t84.5 216q0 85 -38.5 146t-108.5 94.5t-167 33.5h-405v167z" />
    <glyph glyph-name="uni042D" horiz-adv-x="1496" 
d="M714 -20q-115 0 -216 34t-181 97.5t-132.5 154t-72.5 203.5h190q16 -76 54.5 -134.5t94 -98.5t123 -60t140.5 -20q134 0 241.5 67.5t170.5 198.5t63 322q0 192 -63 323.5t-170.5 199t-241.5 67.5q-73 0 -140.5 -20t-123 -60t-94 -98t-54.5 -135h-190q20 115 73.5 205.5
t133.5 154t180.5 96.5t214.5 33q191 0 340 -93t234.5 -264.5t85.5 -408.5q0 -235 -85.5 -406.5t-234.5 -264.5t-340 -93zM567 677v167h692v-167h-692z" />
    <glyph glyph-name="uni0494" unicode="&#x494;" horiz-adv-x="1335" 
d="M1087 1490v-167h-717v-1323h-190v1490h907zM596 -89v176h107q155 0 246.5 87.5t91.5 237.5q0 151 -92 241t-246 90q-156 0 -247 -95t-91 -259h-89q0 174 48 292.5t144 178.5t238 60q154 0 272 -64.5t185.5 -179t67.5 -264.5q0 -149 -67.5 -262t-186.5 -176t-274 -63h-107
z" />
    <glyph glyph-name="uni04A6" unicode="&#x4a6;" horiz-adv-x="2269" 
d="M1342 1490v-1490h-190v1322h-782v-1322h-190v1490h1162zM1530 -89v176h107q155 0 246.5 87.5t91.5 237.5q0 151 -92 241t-246 90q-156 0 -247 -95t-91 -259h-89q0 174 48 292.5t144 178.5t238 60q154 0 272 -64.5t185.5 -179t67.5 -264.5q0 -149 -67.5 -262t-186.5 -176
t-274 -63h-107z" />
    <glyph glyph-name="uni04A8" unicode="&#x4a8;" horiz-adv-x="2018" 
d="M1631 -21q-87 0 -172 16.5t-158 48.5t-125 76q-104 72 -183 172.5t-122.5 223.5t-43.5 260q0 166 63 289t173.5 191t254.5 68q145 0 256 -67t174 -185.5t63 -273.5q0 -160 -57.5 -290t-155.5 -228.5t-222.5 -165t-260 -100.5t-266.5 -34q-222 0 -385.5 93.5t-252.5 264.5
t-89 406q0 237 86 408.5t235.5 264.5t340.5 93v-176q-134 0 -242 -67.5t-171.5 -199t-63.5 -323.5q0 -183 64.5 -315t186 -202.5t291.5 -70.5q150 0 288 49t247.5 137t173 204.5t63.5 251.5q0 108 -38 186.5t-106 121t-159 42.5q-92 0 -159.5 -45t-104.5 -127t-37 -195
q0 -115 41.5 -225t118 -199.5t181.5 -142.5q53 -40 119 -53.5t157 -13.5q50 0 106.5 10.5t123.5 39.5l56 -154q-37 -17 -81.5 -32t-96 -23.5t-111.5 -8.5z" />
    <glyph glyph-name="uni04BC" unicode="&#x4bc;" horiz-adv-x="1719" 
d="M969 -20q-191 0 -339 93t-232 265t-84 408q0 177 48 318t136.5 240.5t211 152.5t271.5 53q193 0 329 -87.5t208.5 -242t72.5 -356.5v-163h-1134v166h1006l-57 -11q0 150 -47.5 267t-142 184t-235.5 67q-137 0 -246 -68t-172.5 -199t-63.5 -321q0 -191 63 -323t170 -199.5
t237 -67.5q80 0 146 21.5t118.5 62.5t90.5 98t61 129h196q-20 -108 -73.5 -197.5t-134 -154t-183 -100t-221.5 -35.5zM20 1057h177v-77q0 -72 9 -104t39.5 -40t93.5 -8h43v-166h-45q-159 0 -238 83t-79 249v63z" />
    <glyph glyph-name="uni04D8" unicode="&#x4d8;" horiz-adv-x="1527" 
d="M738 -20q-192 0 -328.5 87.5t-209 242t-72.5 356.5v163h1134v-166h-1005l56 11q0 -149 47.5 -266.5t142.5 -184.5t235 -67q138 0 247 68t172.5 199t63.5 321q0 191 -63 322.5t-170 199.5t-238 68q-79 0 -145.5 -21.5t-119 -62.5t-90.5 -98t-61 -129h-196
q20 108 73.5 197.5t134 154t183.5 100t221 35.5q191 0 339 -93t232 -264.5t84 -408.5q0 -177 -48 -318t-136.5 -240.5t-211 -152.5t-271.5 -53z" />
    <glyph glyph-name="uni04E0" unicode="&#x4e0;" horiz-adv-x="1270" 
d="M634 -20q-134 0 -247 47t-183 135.5t-79 213.5h194q8 -74 51.5 -125.5t113 -77.5t153.5 -26q91 0 164 31t115.5 92t42.5 151q0 80 -37.5 148t-119.5 110t-217 42h-122v151l377 439v12h-641v167h891v-139l-470 -541v31q163 17 281 -38t182.5 -156.5t64.5 -226.5
q0 -128 -66 -227.5t-181.5 -156t-266.5 -56.5z" />
    <glyph glyph-name="uni0474" unicode="&#x474;" horiz-adv-x="1442" 
d="M1045 1209q50 142 112 221.5t181 79.5h52v-174h-23q-61 0 -84 -39t-49 -111l-434 -1186h-202l-546 1490h202l436 -1245h18z" />
    <glyph glyph-name="gamma" horiz-adv-x="1151" 
d="M488 -20l-434 1138h197l238 -663q38 -103 64.5 -205.5t55.5 -198.5h-66q29 96 55.5 198.5t63.5 205.5l238 663h197l-435 -1138h-174zM485 -418v426h180v-426h-180z" />
    <glyph glyph-name="psi" horiz-adv-x="1593" 
d="M706 -20q-175 0 -297.5 70t-186.5 205.5t-64 329.5v533h180v-533q0 -150 42.5 -248.5t125 -147t200.5 -48.5h180q119 0 201 48.5t125 147t43 248.5v533h180v-533q0 -194 -64 -329.5t-186.5 -205.5t-298.5 -70h-180zM706 -418v1802h180v-1802h-180z" />
    <glyph glyph-name="uni0433" horiz-adv-x="893" 
d="M852 1118v-166h-514v-952h-180v1118h694z" />
    <glyph glyph-name="uni04FB" unicode="&#x4fb;" horiz-adv-x="893" 
d="M852 1118v-166h-514v-952h-180v1118h694zM9 489v138h646v-138h-646zM191 -428q-31 0 -60.5 3.5t-52.5 10.5l14 155q26 -4 52.5 -6t51.5 -2q61 0 97.5 38t36.5 125v104h-77v164h251v-246q0 -167 -80.5 -256.5t-232.5 -89.5z" />
    <glyph glyph-name="uni0436" horiz-adv-x="1659" 
d="M65 0l449 569l-443 549h213l368 -475h89v475h180v-475h87l366 475h215l-442 -549l447 -569h-217l-371 477h-85v-477h-180v477h-85l-373 -477h-218z" />
    <glyph glyph-name="uni0497" unicode="&#x497;" horiz-adv-x="1699" 
d="M65 0l449 569l-443 549h213l368 -475h89v475h180v-475h87l366 475h215l-442 -549l447 -569h-217l-371 477h-85v-477h-180v477h-85l-373 -477h-218zM1496 -320v320h-75v166h256l-1 -486h-180z" />
    <glyph glyph-name="uni0437" horiz-adv-x="1012" 
d="M504 -13q-111 0 -203.5 35.5t-148 100.5t-58.5 152h184q4 -57 70.5 -96t155.5 -39q100 0 163 51.5t63 128.5q0 82 -67.5 133t-183.5 51h-73v134h73q95 0 158 48t63 127q0 75 -52.5 122.5t-138.5 47.5q-84 0 -149 -42t-67 -111h-174q2 90 55.5 157.5t142 105t194.5 37.5
q112 0 194 -42t126.5 -112t44.5 -155q0 -100 -62 -162t-152 -79v-8q128 -20 193 -90t65 -174q0 -93 -53.5 -165.5t-147.5 -114t-215 -41.5z" />
    <glyph glyph-name="uni0438" horiz-adv-x="1211" 
d="M1053 0h-181v806h-13l-530 -806h-171v1118h180v-809h13l532 809h170v-1118z" />
    <glyph glyph-name="uni048B" unicode="&#x48b;" horiz-adv-x="1211" 
d="M1053 0h-181v806h-13l-530 -806h-171v1118h180v-809h13l532 809h170v-1118zM605 1275q-81 0 -146.5 37.5t-104.5 102t-39 143.5h132q0 -68 44.5 -111.5t113.5 -43.5t113.5 43.5t44.5 111.5h132q0 -79 -38.5 -143t-104 -102t-147.5 -38zM923 -320l95 320h-65v166h294
l-145 -486h-179z" />
    <glyph glyph-name="uni043A" horiz-adv-x="1110" 
d="M158 0v1118h180v-484h112l398 484h228l-446 -541l452 -577h-228l-361 468h-155v-468h-180z" />
    <glyph glyph-name="uni04C4" unicode="&#x4c4;" horiz-adv-x="1202" 
d="M282 468v158h281q118 0 216 -32.5t169.5 -92.5t110.5 -142t39 -181q0 -112 -49.5 -204t-136 -153t-197.5 -81l-51 147q75 19 133 60t91 100t33 131q0 85 -45.5 150t-126.5 102.5t-186 37.5h-281zM158 0v1118h180v-484h112l395 484h231l-535 -650h-203v-468h-180z" />
    <glyph glyph-name="uni049B" unicode="&#x49b;" horiz-adv-x="1150" 
d="M158 0v1118h180v-484h112l398 484h228l-446 -541l452 -577h-228l-361 468h-155v-468h-180zM971 -320v320h-75v166h256l-1 -486h-180z" />
    <glyph glyph-name="uni049D" unicode="&#x49d;" horiz-adv-x="1199" 
d="M158 0v1118h180v-484h302l315 484h210l-360 -541l366 -577h-210l-287 468h-336v-468h-180zM443 836h159v-572h-159v572z" />
    <glyph glyph-name="uni04A1" unicode="&#x4a1;" horiz-adv-x="1284" 
d="M20 972v146h400v-146h-400zM332 0v1118h180v-484h112l398 484h228l-446 -541l452 -577h-228l-361 468h-155v-468h-180z" />
    <glyph glyph-name="uni043B" horiz-adv-x="1178" 
d="M20 0v166h40q49 0 82 19t54 68t32.5 138t17.5 229l20 498h754v-1118h-181v952h-402l-17 -394q-8 -185 -40.5 -309.5t-103.5 -186.5t-195 -62h-61z" />
    <glyph glyph-name="uni04C6" unicode="&#x4c6;" horiz-adv-x="1178" 
d="M20 0v166h40q49 0 82 19t54 68t32.5 138t17.5 229l20 498h754v-1118h-181v952h-402l-17 -394q-8 -185 -40.5 -309.5t-103.5 -186.5t-195 -62h-61zM890 -320l95 320h-65v166h294l-145 -486h-179z" />
    <glyph glyph-name="uni052F" unicode="&#x52f;" horiz-adv-x="1208" 
d="M20 0v166h40q49 0 82 19t54 68t32.5 138t17.5 229l20 498h754v-1118h-181v952h-402l-17 -394q-8 -185 -40.5 -309.5t-103.5 -186.5t-195 -62h-61zM986 -320v320h-75v166h256l-1 -486h-180z" />
    <glyph glyph-name="uni04CE" unicode="&#x4ce;" horiz-adv-x="1577" 
d="M158 0v1118h270l255 -618q24 -58 42 -109t31.5 -97t25 -90.5t22.5 -89.5h-30q10 43 21 86.5t24.5 90.5t31.5 98.5t42 110.5l252 618h274v-1118h-181v584q0 57 0.5 114t1.5 115t2 117t2 119h20q-23 -89 -44 -161t-47 -143.5t-63 -160.5l-244 -584h-158l-247 584
q-37 88 -63 159.5t-47.5 144t-44.5 161.5h24q1 -51 2.5 -108t2.5 -117t1.5 -120.5t0.5 -119.5v-584h-179zM1289 -320l95 320h-65v166h294l-145 -486h-179z" />
    <glyph glyph-name="uni04A3" unicode="&#x4a3;" horiz-adv-x="1235" 
d="M908 657v-166h-613v166h613zM338 1118v-1118h-180v1118h180zM1047 1118v-1118h-180v1118h180zM1013 -320v320h-75v166h256l-1 -486h-180z" />
    <glyph glyph-name="uni04A5" unicode="&#x4a5;" horiz-adv-x="1387" 
d="M963 972v146h392v-146h-392zM908 657v-166h-613v166h613zM338 1118v-1118h-180v1118h180zM1047 1118v-1118h-180v1118h180z" />
    <glyph glyph-name="uni04C8" unicode="&#x4c8;" horiz-adv-x="1205" 
d="M757 -427q-33 0 -61.5 2.5t-43.5 6.5v150q15 -2 31 -3t28 -1q83 0 119.5 24.5t36.5 76.5v171h180v-171q0 -124 -74 -190t-216 -66zM908 657v-166h-613v166h613zM338 1118v-1118h-180v1118h180zM1047 1118v-1118h-180v1118h180z" />
    <glyph glyph-name="uni04CA" unicode="&#x4ca;" horiz-adv-x="1205" 
d="M908 657v-166h-613v166h613zM338 1118v-1118h-180v1118h180zM1047 1118v-1118h-180v1118h180zM917 -320l95 320h-65v166h294l-145 -486h-179z" />
    <glyph glyph-name="uni04FD" unicode="&#x4fd;" horiz-adv-x="1067" 
d="M667 -436q-30 0 -60 3.5t-53 10.5l14 170q17 -6 53 -11t58 -5q65 0 98.5 45.5t33.5 133.5q0 37 -7.5 65.5t-26 63t-53.5 88.5l-191 299l-261 -427h-207l352 558l-351 560h207l260 -449l262 449h207l-356 -560l224 -354q41 -64 66 -117t37 -102t12 -102q0 -99 -38 -170.5
t-109 -110t-171 -38.5z" />
    <glyph glyph-name="uni04B3" unicode="&#x4b3;" horiz-adv-x="1158" 
d="M65 0l441 643l-1 -138l-417 613h210l139 -217q54 -84 93.5 -157t81.5 -141h-94q43 68 78.5 141t90.5 157l142 217h206l-419 -621v133l437 -630h-209l-164 251q-53 82 -91.5 152.5t-79.5 135.5h95q-41 -65 -76 -135.5t-89 -152.5l-166 -251h-208zM971 -320v320h-75v166
h256l-1 -486h-180z" />
    <glyph glyph-name="uni0447" horiz-adv-x="1183" 
d="M583 350q-194 0 -309.5 102.5t-115.5 307.5v358h180v-358q0 -126 70 -185t175 -59q107 0 195 20t176 51v-166q-58 -21 -115.5 -37t-120 -25t-135.5 -9zM845 0v1118h180v-1118h-180z" />
    <glyph glyph-name="uni04B7" unicode="&#x4b7;" horiz-adv-x="1213" 
d="M583 350q-194 0 -309.5 102.5t-115.5 307.5v358h180v-358q0 -126 70 -185t175 -59q107 0 195 20t176 51v-166q-58 -21 -115.5 -37t-120 -25t-135.5 -9zM845 0v1118h180v-1118h-180zM991 -320v320h-75v166h256l-1 -486h-180z" />
    <glyph glyph-name="uni04B9" unicode="&#x4b9;" horiz-adv-x="1183" 
d="M583 350q-194 0 -309.5 102.5t-115.5 307.5v358h180v-358q0 -126 70 -185t175 -59q107 0 195 20t176 51v-166q-58 -21 -115.5 -37t-120 -25t-135.5 -9zM845 0v1118h180v-1118h-180zM512 113v646h162v-646h-162z" />
    <glyph glyph-name="uni044C" horiz-adv-x="1144" 
d="M310 717h321q132 0 223.5 -46t138.5 -126t47 -183q0 -101 -47.5 -183t-138.5 -130.5t-223 -48.5h-473v1118h180v-952h293q99 0 163 52.5t64 135.5q0 87 -64 141.5t-163 54.5h-321v167z" />
    <glyph glyph-name="uni048D" unicode="&#x48d;" horiz-adv-x="1260" 
d="M20 972v146h775v-146h-775zM274 1118v266h170v-266h-170zM426 717h321q132 0 223 -46t138.5 -126t47.5 -183q0 -101 -47.5 -183t-138.5 -130.5t-223 -48.5h-473v1118h180v-952h293q99 0 163 52.5t64 135.5q0 87 -64 141.5t-163 54.5h-321v167z" />
    <glyph glyph-name="uni0463" unicode="&#x463;" horiz-adv-x="1260" 
d="M20 972v146h775v-146h-775zM274 1118v372h170v-372h-170zM426 717h321q132 0 223 -46t138.5 -126t47.5 -183q0 -101 -47.5 -183t-138.5 -130.5t-223 -48.5h-473v1118h180v-952h293q99 0 163 52.5t64 135.5q0 87 -64 141.5t-163 54.5h-321v167z" />
    <glyph glyph-name="uni044D" horiz-adv-x="1170" 
d="M557 -24q-82 0 -155 21.5t-133 63t-103 100t-66 133.5l172 49q12 -45 37 -83t61.5 -65.5t83.5 -42.5t103 -15q112 0 184 58t107 152.5t35 204.5q0 112 -35 207t-107 153.5t-184 58.5q-55 0 -101 -14.5t-81.5 -41t-60.5 -62.5t-37 -79l-173 49q23 73 66 130.5t102.5 97
t131.5 60.5t153 21q152 0 266.5 -72t178.5 -202.5t64 -305.5q0 -172 -64 -302t-178.5 -202t-266.5 -72zM911 480h-517v162h517v-162z" />
    <glyph glyph-name="uni0495" unicode="&#x495;" horiz-adv-x="1109" 
d="M463 -322v160h80q91 0 156.5 39.5t100.5 114.5t35 183q0 93 -30 157.5t-87 97.5t-137 33t-136.5 -33t-86.5 -97.5t-30 -157.5h-26q0 126 31.5 227.5t100 161t179.5 59.5q108 0 197 -58t142 -159t53 -231q0 -144 -59.5 -256.5t-164 -176.5t-238.5 -64h-80zM852 1118v-166
h-514v-952h-180v1118h694z" />
    <glyph glyph-name="uni04A7" unicode="&#x4a7;" horiz-adv-x="1888" 
d="M1396 -286l-52 156q135 35 201.5 115t66.5 187q0 98 -49.5 168.5t-132 109t-180.5 38.5h-278v160h278q155 1 275.5 -56.5t189.5 -164.5t69 -255q0 -56 -21 -126.5t-67 -139.5t-120 -121t-180 -71zM1046 1118v-1118h-180v952h-527v-952h-181v1118h888z" />
    <glyph glyph-name="uni04A9" unicode="&#x4a9;" horiz-adv-x="1594" 
d="M696 -24q-188 0 -320.5 68.5t-202 197.5t-69.5 310q0 175 64 305.5t179.5 202.5t267.5 72v-161q-112 0 -184.5 -58.5t-108 -153.5t-35.5 -207q0 -130 47 -223.5t139 -143t226 -49.5q84 0 180.5 21.5t182.5 70.5t140 129t54 197q0 79 -28.5 139t-79 93.5t-118.5 33.5
q-66 0 -116.5 -33.5t-78.5 -93.5t-28 -140q0 -107 42.5 -185t111 -129t145.5 -78q50 -24 100 -29.5t90 -5.5q58 0 109 13t96 34l52 -137q-62 -30 -127 -41t-134 -11q-104 0 -205.5 26.5t-187.5 73.5q-121 67 -197.5 188t-76.5 281q0 124 51.5 220.5t143 152t210.5 55.5
q120 0 212 -55.5t144 -152t52 -219.5q0 -141 -64 -249t-171.5 -181.5t-239.5 -110.5t-267 -37z" />
    <glyph glyph-name="uni04B5" unicode="&#x4b5;" horiz-adv-x="1350" 
d="M728 1118v-160h-708v160h708zM285 0v1118h180v-952h527v952h181v-1118h-888zM1139 -320v320h-75v166h256l-1 -486h-180z" />
    <glyph glyph-name="uni04BD" unicode="&#x4bd;" horiz-adv-x="1462" 
d="M384 500q-181 0 -272.5 96t-91.5 262h158q0 -98 48.5 -154t157.5 -56v-148zM896 -24q-162 0 -279.5 72t-181 201t-63.5 301t62 303t175.5 205t265.5 74q89 0 175.5 -29.5t157 -95t112.5 -172.5t42 -262v-75h-868v152h771l-84 -56q0 110 -34.5 195.5t-102.5 134t-169 48.5
t-173 -49.5t-110 -129t-38 -170.5v-101q0 -124 43 -210.5t120.5 -131t179.5 -44.5q66 0 120 19t93 57.5t60 95.5l174 -48q-26 -84 -88 -148t-153.5 -100t-206.5 -36z" />
    <glyph glyph-name="uni04E1" unicode="&#x4e1;" horiz-adv-x="1270" 
d="M634 -392q-134 0 -247 47t-183 135.5t-79 213.5h194q8 -74 51.5 -125.5t113 -77.5t153.5 -26q91 0 164 31t115.5 92t42.5 151q0 80 -37.5 148t-119.5 110t-217 42h-122v151l377 439v12h-641v167h891v-139l-470 -541v31q163 17 281 -38t182.5 -156.5t64.5 -226.5
q0 -128 -66 -227.5t-181.5 -156t-266.5 -56.5z" />
    <glyph glyph-name="uni0475" unicode="&#x475;" horiz-adv-x="1214" 
d="M464 0l-410 1118h197l302 -885h12l232 679q37 107 109 156.5t179 49.5h75v-159h-72q-81 0 -110 -77l-325 -882h-189z" />
    <glyph glyph-name="uni20B4" unicode="&#x20b4;" horiz-adv-x="1295" 
d="M652 1343q-84 0 -133.5 -22.5t-73.5 -57t-31.5 -70.5t-7.5 -62h-205q1 102 46 188t143.5 138.5t261.5 52.5q137 0 233 -39.5t146.5 -116.5t50.5 -190q0 -66 -27.5 -127.5t-80.5 -108.5l-173 52q36 45 63.5 90t27.5 94q0 81 -60 130t-180 49zM1185 825h-1075v163h1075
v-163zM1185 522h-1075v163h1075v-163zM646 -20q-211 0 -333.5 90t-122.5 259q0 66 30 130t85 104l190 -26q-57 -51 -80.5 -99.5t-23.5 -106.5q0 -83 65.5 -131t189.5 -48q118 0 192.5 48.5t74.5 155.5h203q0 -128 -58.5 -211.5t-164 -124t-247.5 -40.5z" />
    <glyph glyph-name="three" horiz-adv-x="1265" 
d="M635 -20q-146 0 -259 50t-179.5 139t-71.5 207h192q6 -71 48.5 -122.5t112 -79t154.5 -27.5q94 0 166.5 32.5t114.5 91.5t42 136q0 81 -40.5 142.5t-117.5 96.5t-188 35h-121v165h121q87 0 153.5 31.5t103.5 88.5t37 134q0 74 -32.5 129t-92.5 85.5t-141 30.5
q-76 0 -142.5 -27.5t-109 -78.5t-45.5 -124h-183q4 117 70 206t174.5 139t239.5 50q139 0 239.5 -56t154.5 -147t54 -197q0 -126 -66.5 -214t-180.5 -122v-12q95 -15 162.5 -64t103 -124t35.5 -169q0 -122 -66 -218t-181 -151.5t-261 -55.5z" />
    <glyph glyph-name="three.1" horiz-adv-x="1270" 
d="M634 -20q-134 0 -247 47t-183 135.5t-79 213.5h194q8 -74 51.5 -125.5t113 -77.5t153.5 -26q91 0 164 31t115.5 92t42.5 151q0 80 -37.5 148t-119.5 110t-217 42h-122v151l377 439v12h-641v167h891v-139l-470 -541v31q163 17 281 -38t182.5 -156.5t64.5 -226.5
q0 -128 -66 -227.5t-181.5 -156t-266.5 -56.5z" />
    <glyph glyph-name="space.tf" horiz-adv-x="550" 
 />
    <glyph glyph-name="uni00A0.tf" horiz-adv-x="550" 
 />
    <glyph glyph-name="hungarumlaut" horiz-adv-x="1016" 
d="M317 1264h-147l117 294h200zM645 1264h-148l168 294h201z" />
    <glyph glyph-name="uni030F" 
d="M699 1264l-170 294h200l117 -294h-147zM371 1264l-221 294h201l168 -294h-148z" />
    <glyph glyph-name="uni0304" 
d="M766 1491v-142h-554v142h554z" />
    <glyph glyph-name="space" unicode=" " horiz-adv-x="576" 
 />
    <glyph glyph-name="uni00A0" unicode="&#xa0;" horiz-adv-x="576" 
 />
    <glyph glyph-name="h.sc" horiz-adv-x="1205" 
d="M908 657v-166h-613v166h613zM338 1118v-1118h-180v1118h180zM1047 1118v-1118h-180v1118h180z" />
    <glyph glyph-name="m.sc" horiz-adv-x="1577" 
d="M158 0v1118h270l255 -618q24 -58 42 -109t31.5 -97t25 -90.5t22.5 -89.5h-30q10 43 21 86.5t24.5 90.5t31.5 98.5t42 110.5l252 618h274v-1118h-181v584q0 57 0.5 114t1.5 115t2 117t2 119h20q-23 -89 -44 -161t-47 -143.5t-63 -160.5l-244 -584h-158l-247 584
q-37 88 -63 159.5t-47.5 144t-44.5 161.5h24q1 -51 2.5 -108t2.5 -117t1.5 -120.5t0.5 -119.5v-584h-179z" />
    <glyph glyph-name="t.sc" horiz-adv-x="954" 
d="M388 0v957h-368v161h914v-161h-366v-957h-180z" />
    <glyph glyph-name="uni0413" horiz-adv-x="1185" 
d="M1087 1490v-167h-717v-1323h-190v1490h907z" />
    <glyph glyph-name="uni04F6" unicode="&#x4f6;" horiz-adv-x="1185" 
d="M1087 1490v-167h-717v-1323h-190v1490h907zM336 -320v320h-75v166h256l-1 -486h-180z" />
    <glyph glyph-name="uni0492" unicode="&#x492;" horiz-adv-x="1185" 
d="M1087 1490v-167h-717v-1323h-190v1490h907zM-7 668v154h813v-154h-813z" />
    <glyph glyph-name="uni0460" unicode="&#x460;" horiz-adv-x="1836" 
d="M180 402v1088h190v-1088q0 -126 67 -188t154 -62q102 0 167.5 62t65.5 188v1088h190v-1088q0 -126 61.5 -188t155.5 -62t164.5 62t70.5 188v1088h190v-1088q0 -141 -57 -235t-153 -140.5t-215 -46.5q-102 0 -181.5 35.5t-130.5 107.5q-55 -73 -140 -108t-188 -35
q-119 0 -212 46.5t-146 140.5t-53 235z" />
    <glyph glyph-name="uni0462" unicode="&#x462;" horiz-adv-x="1410" 
d="M399 902h405q154 0 266.5 -54t174 -153.5t61.5 -235.5q0 -141 -61 -244t-173.5 -159t-267.5 -56h-544v1490h190v-1325h354q145 0 229.5 80t84.5 216q0 85 -38.5 146t-108.5 94.5t-167 33.5h-405v167zM22 1102v154h813v-154h-813z" />
    <glyph glyph-name="uni0464" unicode="&#x464;" horiz-adv-x="1958" 
d="M1340 840v-166h-1017v166h1017zM1846 1024l-189 -3q-16 76 -54.5 134.5t-94 98t-122.5 60t-140 20.5q-133 0 -241 -67.5t-171 -199t-63 -323.5q0 -191 63 -322t171 -198.5t241 -67.5q73 0 140 20t122.5 60t94 98.5t54.5 134.5l189 -3q-21 -114 -74.5 -204t-133.5 -153
t-179.5 -96t-212.5 -33q-191 0 -340.5 92.5t-234.5 264t-85 407.5q0 237 85 408.5t234.5 264.5t340.5 93q111 0 210.5 -32.5t179.5 -95t134.5 -153t75.5 -205.5zM370 1490v-1490h-190v1490h190z" />
    <glyph glyph-name="uni0466" unicode="&#x466;" horiz-adv-x="1413" 
d="M799 559v-559h-186v559h186zM52 0l541 1490h220l548 -1490h-200l-316 884q-29 82 -67.5 204.5t-93.5 312.5h36q-54 -192 -93.5 -316.5t-65.5 -200.5l-307 -884h-202zM324 478v162h765v-162h-765z" />
    <glyph glyph-name="uni0468" unicode="&#x468;" horiz-adv-x="1919" 
d="M370 1490v-1490h-190v1490h190zM1305 559v-559h-185v559h185zM558 0l542 1490h219l548 -1490h-200l-315 884q-27 76 -66.5 201t-95.5 316h36q-54 -192 -93.5 -316.5t-65.5 -200.5l-307 -884h-202zM280 478v162h1315v-162h-1315z" />
    <glyph glyph-name="uni046A" unicode="&#x46a;" horiz-adv-x="1747" 
d="M158 0v366q0 144 54 244.5t159.5 153t257.5 52.5h489q153 0 258 -52.5t159 -153t54 -244.5v-366h-190v368q0 136 -73.5 209t-208.5 73h-487q-136 0 -209 -73t-73 -209v-368h-190zM779 0v779h188v-779h-188zM801 621l-536 869h222l450 -793l-29 -76h-107zM838 621l-21 84
l448 785h217l-535 -869h-109zM407 1326v164h918v-164h-918z" />
    <glyph glyph-name="uni046C" unicode="&#x46c;" horiz-adv-x="2345" 
d="M757 0v366q0 144 54 244.5t159.5 153t257.5 52.5h489q153 0 257.5 -52.5t158.5 -153t54 -244.5v-366h-189v368q0 136 -73.5 209t-208.5 73h-488q-135 0 -208 -73t-73 -209v-368h-190zM180 0v1490h190v-1490h-190zM325 650v166h945v-166h-945zM1378 0v779h188v-779h-188z
M1399 621l-535 869h222l449 -793l-28 -76h-108zM1437 621l-21 84l448 785h216l-534 -869h-109zM1006 1326v164h918v-164h-918z" />
    <glyph glyph-name="uni046E" unicode="&#x46e;" horiz-adv-x="1115" 
d="M185 1490h299q141 0 250 -47t171 -133t62 -203q0 -116 -62 -203t-173.5 -135t-261.5 -48h-147v126h143q157 0 225 69.5t68 171.5q0 108 -67 171.5t-208 63.5h-299v167zM323 799h147q246 0 384.5 -99t138.5 -292q0 -135 -62 -230.5t-171 -146.5t-249 -51h-51
q-74 0 -106.5 -31.5t-32.5 -80.5q0 -52 28 -87.5t65.5 -58.5t65.5 -36l-83 -134q-67 28 -129.5 73.5t-102 111t-39.5 152.5q0 130 92.5 194t249.5 64h42q87 0 148 33t93 93t32 141q0 130 -81.5 198t-235.5 68h-143v119zM432 1909l174 -172l175 172h148v-12l-271 -273h-105
l-268 273v12h147z" />
    <glyph glyph-name="uni0470" unicode="&#x470;" horiz-adv-x="1802" 
d="M1438 1490h184v-385q0 -169 -41 -294.5t-123 -209t-204.5 -125t-285.5 -41.5h-134q-162 0 -284.5 41.5t-204.5 125t-123.5 209t-41.5 294.5v385h184v-374q0 -189 46.5 -303.5t149.5 -166t273 -51.5h136q171 0 274 51.5t149 166t46 303.5v374zM809 1490h184v-1490h-184
v1490z" />
    <glyph glyph-name="uni0476" unicode="&#x476;" horiz-adv-x="1442" 
d="M1045 1209q50 142 112 221.5t181 79.5h52v-174h-23q-61 0 -84 -39t-49 -111l-434 -1186h-202l-546 1490h202l436 -1245h18zM812 1636l-170 294h200l117 -294h-147zM484 1636l-221 294h201l168 -294h-148z" />
    <glyph glyph-name="uni0478" unicode="&#x478;" horiz-adv-x="2717" 
d="M784 -20q-191 0 -340.5 92.5t-235.5 264t-86 407.5q0 237 86 408.5t235.5 264.5t340.5 93t340 -93t234.5 -264.5t85.5 -408.5q0 -236 -85.5 -407.5t-234.5 -264t-340 -92.5zM784 156q133 0 240.5 67.5t171 199t63.5 321.5q0 192 -63.5 323.5t-171 199t-240.5 67.5
q-134 0 -242 -68t-171.5 -199.5t-63.5 -322.5q0 -190 63.5 -321t171.5 -199t242 -68zM1706 -405l46 156l19 -5q55 -14 100 -7.5t81 44.5t63 118l32 93l-427 1124h197l238 -663q38 -104 64 -206t55 -198h-66q29 96 55.5 198.5t63.5 205.5l240 663h196l-491 -1285
q-34 -89 -81.5 -146.5t-110.5 -85t-142 -27.5q-48 0 -83 7t-49 14z" />
    <glyph glyph-name="uni0498" unicode="&#x498;" horiz-adv-x="1265" 
d="M635 -20q-146 0 -259 50t-179.5 139t-71.5 207h192q6 -71 48.5 -122.5t112 -79t154.5 -27.5q94 0 166.5 32.5t114.5 91.5t42 136q0 81 -40.5 142.5t-117.5 96.5t-188 35h-121v165h121q87 0 153.5 31.5t103.5 88.5t37 134q0 74 -32.5 129t-92.5 85.5t-141 30.5
q-76 0 -142.5 -27.5t-109 -78.5t-45.5 -124h-183q4 117 70 206t174.5 139t239.5 50q139 0 239.5 -56t154.5 -147t54 -197q0 -126 -66.5 -214t-180.5 -122v-12q95 -15 162.5 -64t103 -124t35.5 -169q0 -122 -66 -218t-181 -151.5t-261 -55.5zM549 -418v105h118
q55 0 76.5 14.5t21.5 51.5t-21.5 51t-76.5 14h-82l30 230h95v-48v-86q98 -4 143.5 -42.5t45.5 -119.5q0 -88 -55.5 -129t-175.5 -41h-119z" />
    <glyph glyph-name="uni04AA" unicode="&#x4aa;" horiz-adv-x="1496" 
d="M783 -20q-191 0 -340.5 92.5t-235 264t-85.5 407.5q0 237 85.5 408.5t235 264.5t340.5 93q113 0 213.5 -33t180.5 -96.5t133.5 -154t73.5 -205.5h-190q-16 77 -54.5 135t-94 98t-122.5 60t-140 20q-134 0 -242 -68t-171 -199.5t-63 -322.5q0 -190 63.5 -321.5t171.5 -199
t241 -67.5q73 0 140 20.5t122.5 60t94 98t54.5 134.5h190q-19 -114 -72.5 -204t-133.5 -154t-180.5 -97.5t-214.5 -33.5zM671 -429v105h118q55 0 76.5 14.5t21.5 51.5t-21.5 51t-76.5 14h-82l30 230h95v-48v-86q98 -4 143.5 -42.5t45.5 -119.5q0 -88 -55.5 -129t-175.5 -41
h-119z" />
    <glyph glyph-name="uni04AC" unicode="&#x4ac;" horiz-adv-x="1322" 
d="M98 1322v168h1126v-168h-467v-1322h-190v1322h-469zM723 -320v320h-75v166h256l-1 -486h-180z" />
    <glyph glyph-name="uni04AE" unicode="&#x4ae;" horiz-adv-x="1390" 
d="M600 0v610l-548 880h220l295 -481q50 -81 88.5 -154.5t79.5 -185.5h-76q41 114 80 188.5t86 151.5l294 481h219l-548 -880v-610h-190z" />
    <glyph glyph-name="uni04BE" unicode="&#x4be;" horiz-adv-x="1719" 
d="M969 -20q-191 0 -339 93t-232 265t-84 408q0 177 48 318t136.5 240.5t211 152.5t271.5 53q193 0 329 -87.5t208.5 -242t72.5 -356.5v-163h-1134v166h1006l-57 -11q0 150 -47.5 267t-142 184t-235.5 67q-137 0 -246 -68t-172.5 -199t-63.5 -321q0 -191 63 -323t170 -199.5
t237 -67.5q80 0 146 21.5t118.5 62.5t90.5 98t61 129h196q-20 -108 -73.5 -197.5t-134 -154t-183 -100t-221.5 -35.5zM20 1057h177v-77q0 -72 9 -104t39.5 -40t93.5 -8h43v-166h-45q-159 0 -238 83t-79 249v63zM871 -320v384h181l-1 -384h-180z" />
    <glyph glyph-name="uni04C0" unicode="&#x4c0;" horiz-adv-x="550" 
d="M370 1490v-1490h-190v1490h190z" />
    <glyph glyph-name="uni04C1" unicode="&#x4c1;" horiz-adv-x="1966" 
d="M1078 1490v-1490h-190v1490h190zM57 0l481 777l-443 713h231l384 -662h550l382 662h230l-443 -715l480 -775h-218l-398 660h-620l-401 -660h-215zM983 1647q-81 0 -146.5 37.5t-104.5 102t-39 143.5h132q0 -68 44.5 -111.5t113.5 -43.5t113.5 43.5t44.5 111.5h132
q0 -79 -38.5 -143t-104 -102t-147.5 -38z" />
    <glyph glyph-name="uni04C5" unicode="&#x4c5;" horiz-adv-x="1532" 
d="M98 0v167h40q70 0 112.5 28t66.5 106.5t36 229.5l79 959h920v-1490h-190v1323h-557l-66 -808q-11 -133 -34.5 -230.5t-66.5 -160.5t-112.5 -93.5t-172.5 -30.5h-55zM1222 -320l95 320h-65v166h294l-145 -486h-179z" />
    <glyph glyph-name="uni04CB" unicode="&#x4cb;" horiz-adv-x="1464" 
d="M657 556q-155 0 -267 50t-172 155.5t-60 270.5v458h190v-457q0 -163 94 -235.5t239 -72.5q123 0 233 41t207 111v-186q-96 -60 -209.5 -97.5t-254.5 -37.5zM1064 0v1490h190v-1490h-190zM1220 -320v320h-75v166h256l-1 -486h-180z" />
    <glyph glyph-name="uni04DA" unicode="&#x4da;" horiz-adv-x="1527" 
d="M738 -20q-192 0 -328.5 87.5t-209 242t-72.5 356.5v163h1134v-166h-1005l56 11q0 -149 47.5 -266.5t142.5 -184.5t235 -67q138 0 247 68t172.5 199t63.5 321q0 191 -63 322.5t-170 199.5t-238 68q-79 0 -145.5 -21.5t-119 -62.5t-90.5 -98t-61 -129h-196
q20 108 73.5 197.5t134 154t183.5 100t221 35.5q191 0 339 -93t232 -264.5t84 -408.5q0 -177 -48 -318t-136.5 -240.5t-211 -152.5t-271.5 -53zM961 1673q-49 0 -84 35t-35 84t35 83.5t84 34.5t83.5 -34.5t34.5 -83.5t-34.5 -84t-83.5 -35zM540 1673q-49 0 -84 35t-35 84
t35 83.5t84 34.5t83.5 -34.5t34.5 -83.5t-34.5 -84t-83.5 -35z" />
    <glyph glyph-name="uni04DC" unicode="&#x4dc;" horiz-adv-x="1966" 
d="M1078 1490v-1490h-190v1490h190zM57 0l481 777l-443 713h231l384 -662h550l382 662h230l-443 -715l480 -775h-218l-398 660h-620l-401 -660h-215zM1194 1673q-49 0 -84 35t-35 84t35 83.5t84 34.5t83.5 -34.5t34.5 -83.5t-34.5 -84t-83.5 -35zM773 1673q-49 0 -84 35
t-35 84t35 83.5t84 34.5t83.5 -34.5t34.5 -83.5t-34.5 -84t-83.5 -35z" />
    <glyph glyph-name="uni04DE" unicode="&#x4de;" horiz-adv-x="1265" 
d="M635 -20q-146 0 -259 50t-179.5 139t-71.5 207h192q6 -71 48.5 -122.5t112 -79t154.5 -27.5q94 0 166.5 32.5t114.5 91.5t42 136q0 81 -40.5 142.5t-117.5 96.5t-188 35h-121v165h121q87 0 153.5 31.5t103.5 88.5t37 134q0 74 -32.5 129t-92.5 85.5t-141 30.5
q-76 0 -142.5 -27.5t-109 -78.5t-45.5 -124h-183q4 117 70 206t174.5 139t239.5 50q139 0 239.5 -56t154.5 -147t54 -197q0 -126 -66.5 -214t-180.5 -122v-12q95 -15 162.5 -64t103 -124t35.5 -169q0 -122 -66 -218t-181 -151.5t-261 -55.5zM845 1673q-49 0 -84 35t-35 84
t35 83.5t84 34.5t83.5 -34.5t34.5 -83.5t-34.5 -84t-83.5 -35zM424 1673q-49 0 -84 35t-35 84t35 83.5t84 34.5t83.5 -34.5t34.5 -83.5t-34.5 -84t-83.5 -35z" />
    <glyph glyph-name="uni04EC" unicode="&#x4ec;" horiz-adv-x="1496" 
d="M714 -20q-115 0 -216 34t-181 97.5t-132.5 154t-72.5 203.5h190q16 -76 54.5 -134.5t94 -98.5t123 -60t140.5 -20q134 0 241.5 67.5t170.5 198.5t63 322q0 192 -63 323.5t-170.5 199t-241.5 67.5q-73 0 -140.5 -20t-123 -60t-94 -98t-54.5 -135h-190q20 115 73.5 205.5
t133.5 154t180.5 96.5t214.5 33q191 0 340 -93t234.5 -264.5t85.5 -408.5q0 -235 -85.5 -406.5t-234.5 -264.5t-340 -93zM567 677v167h692v-167h-692zM925 1673q-49 0 -84 35t-35 84t35 83.5t84 34.5t83.5 -34.5t34.5 -83.5t-34.5 -84t-83.5 -35zM504 1673q-49 0 -84 35
t-35 84t35 83.5t84 34.5t83.5 -34.5t34.5 -83.5t-34.5 -84t-83.5 -35z" />
    <glyph glyph-name="uni04F4" unicode="&#x4f4;" horiz-adv-x="1434" 
d="M657 556q-155 0 -267 50t-172 155.5t-60 270.5v458h190v-457q0 -163 94 -235.5t239 -72.5q123 0 233 41t207 111v-186q-96 -60 -209.5 -97.5t-254.5 -37.5zM1064 0v1490h190v-1490h-190zM917 1673q-49 0 -84 35t-35 84t35 83.5t84 34.5t83.5 -34.5t34.5 -83.5t-34.5 -84
t-83.5 -35zM496 1673q-49 0 -84 35t-35 84t35 83.5t84 34.5t83.5 -34.5t34.5 -83.5t-34.5 -84t-83.5 -35z" />
    <glyph glyph-name="uni04F8" unicode="&#x4f8;" horiz-adv-x="1808" 
d="M319 902h405q154 0 266.5 -54t174 -153.5t61.5 -235.5q0 -141 -61 -244t-173.5 -159t-267.5 -56h-544v1490h190v-1325h354q145 0 229.5 80t84.5 216q0 85 -38.5 146t-108.5 94.5t-167 33.5h-405v167zM1628 1490v-1490h-190v1490h190zM1081 1673q-49 0 -84 35t-35 84
t35 83.5t84 34.5t83.5 -34.5t34.5 -83.5t-34.5 -84t-83.5 -35zM660 1673q-49 0 -84 35t-35 84t35 83.5t84 34.5t83.5 -34.5t34.5 -83.5t-34.5 -84t-83.5 -35z" />
    <glyph glyph-name="uni04FE" unicode="&#x4fe;" horiz-adv-x="1397" 
d="M174 699v134h1038v-134h-1038zM57 0l583 833v-141l-550 798h220l215 -316q48 -70 78.5 -118t56 -94t57.5 -110h-33q32 63 57.5 109t57 94.5t79.5 118.5l219 316h215l-549 -790v140l577 -840h-219l-261 378q-42 62 -71 106.5t-54 89t-56 106.5h41q-30 -59 -55.5 -103.5
t-55 -90t-73.5 -108.5l-263 -378h-216z" />
    <glyph glyph-name="uni0480" unicode="&#x480;" horiz-adv-x="1455" 
d="M718 137q-121 0 -228.5 47t-190 136.5t-130 217t-47.5 287.5q0 214 82 368t224.5 237.5t324.5 83.5q108 0 204 -30t172.5 -88t127.5 -141t70 -190h-190q-19 90 -75.5 151t-137 92.5t-171.5 31.5q-126 0 -227 -59.5t-159.5 -174.5t-58.5 -281q0 -167 59 -281.5t160 -173.5
t226 -59q92 0 172 31.5t136.5 92t75.5 148.5h75q0 -92 -37 -173t-104 -142.5t-157 -96t-196 -34.5zM1137 0l8 583h182v-583h-190z" />
    <glyph glyph-name="uni048C" unicode="&#x48c;" horiz-adv-x="1410" 
d="M399 902h405q154 0 266.5 -54t174 -153.5t61.5 -235.5q0 -141 -61 -244t-173.5 -159t-267.5 -56h-544v1490h190v-1325h354q145 0 229.5 80t84.5 216q0 85 -38.5 146t-108.5 94.5t-167 33.5h-405v167zM22 1102v154h813v-154h-813z" />
    <glyph glyph-name="uni04F7" unicode="&#x4f7;" horiz-adv-x="893" 
d="M852 1118v-166h-514v-952h-180v1118h694zM304 -320v320h-75v166h256l-1 -486h-180z" />
    <glyph glyph-name="uni0493" unicode="&#x493;" horiz-adv-x="893" 
d="M852 1118v-166h-514v-952h-180v1118h694zM9 489v138h646v-138h-646z" />
    <glyph glyph-name="uni0461" unicode="&#x461;" horiz-adv-x="1652" 
d="M505 -20q-102 0 -180.5 47.5t-122.5 132t-44 194.5v764h180v-763q0 -96 54 -152.5t146 -56.5q93 0 146.5 56.5t53.5 152.5v763h180v-763q0 -96 53.5 -152.5t144.5 -56.5q92 0 145 56.5t53 152.5v763h180v-764q0 -110 -44 -194.5t-121.5 -132t-179.5 -47.5
q-109 0 -186.5 49t-119 134t-42.5 191h54q0 -105 -41.5 -190t-119.5 -134.5t-189 -49.5z" />
    <glyph glyph-name="uni0465" unicode="&#x465;" horiz-adv-x="1601" 
d="M1172 640v-162h-879v162h879zM338 1118v-1118h-180v1118h180zM1057 -24q-158 0 -272.5 74.5t-176 204.5t-61.5 297q0 171 63.5 301.5t177.5 204.5t267 74q119 0 215 -44t156.5 -124t74.5 -188h-181q-12 50 -45.5 94.5t-88 72.5t-130.5 28q-97 0 -171 -51t-115 -143.5
t-41 -218.5q0 -127 40.5 -222t114 -147t172.5 -52q100 0 171 52t93 143h181q-14 -102 -71.5 -182.5t-152 -127t-220.5 -46.5z" />
    <glyph glyph-name="uni0467" unicode="&#x467;" horiz-adv-x="1169" 
d="M920 0l-299 787l-103 331h157l440 -1118h-195zM499 0v245q0 69 -30 104.5t-100 38.5v155q65 0 123.5 -26t92.5 -105q35 79 93 105t123 26v-155q-69 -3 -100 -37.5t-31 -105.5v-245h-171zM54 0l438 1118h155l-106 -331l-295 -787h-192z" />
    <glyph glyph-name="uni0469" unicode="&#x469;" horiz-adv-x="1589" 
d="M1339 0l-299 787l-103 331h157l441 -1118h-196zM158 0v1118h182v-1118h-182zM257 388v155h504v-155h-504zM918 0v245q0 69 -30 104.5t-100 38.5v155q65 0 123.5 -26t92.5 -105q35 79 93 105t123 26v-155q-70 -3 -100 -38.5t-30 -104.5v-245h-172zM473 0l438 1118h156
l-106 -331l-296 -787h-192z" />
    <glyph glyph-name="uni046B" unicode="&#x46b;" horiz-adv-x="1422" 
d="M96 0v162q0 244 120.5 344.5t332.5 100.5h325q211 0 331.5 -100.5t120.5 -344.5v-162h-180v162q0 109 -34 169.5t-95 85t-143 24.5h-325q-82 0 -143.5 -24t-96 -84.5t-34.5 -170.5v-162h-179zM622 0v577h179v-577h-179zM606 451l-405 667h210l358 -631l-21 -36h-142z
M688 451l-17 42l350 625h217l-413 -667h-137zM360 955v163h752v-163h-752z" />
    <glyph glyph-name="uni046D" unicode="&#x46d;" horiz-adv-x="1963" 
d="M637 0v144q0 120 39.5 201t100 132t126 77.5t119 36.5t77.5 10l317 4q238 3 344.5 -111.5t106.5 -331.5v-162h-179v162q0 109 -34 169.5t-95 85t-143 24.5h-325q-82 0 -144 -24t-96 -84.5t-34 -170.5v-162h-180zM158 0v1118h180v-1118h-180zM267 441v166h862v-160z
M1163 0v577h179v-577h-179zM1147 451l-404 667h210l357 -631l-21 -36h-142zM1229 451l-16 42l350 625h216l-413 -667h-137zM902 955v163h751v-163h-751z" />
    <glyph glyph-name="uni046F" unicode="&#x46f;" horiz-adv-x="1070" 
d="M454 -418q-112 0 -193.5 35t-126 100t-44.5 154t43.5 154t123.5 100t189 35h74q107 0 164.5 41.5t57.5 117.5q0 77 -57.5 118.5t-164.5 41.5h-252v160h236q107 0 164.5 41.5t57.5 118.5t-57.5 118t-164.5 41h-360v160h360q121 0 208.5 -37t135.5 -105t48 -161
q0 -94 -51.5 -152.5t-140 -85t-200.5 -26.5h-236v48h252q112 0 200.5 -32.5t140 -96.5t51.5 -159t-48 -165t-135.5 -108t-208.5 -38h-74q-89 0 -137.5 -33.5t-48.5 -95.5t50.5 -95.5t143.5 -33.5h46v-160h-46zM367 1558l144 -175l142 175h179v-9l-236 -267h-171l-235 267v9
h177z" />
    <glyph glyph-name="uni0471" unicode="&#x471;" horiz-adv-x="1593" 
d="M706 -20q-175 0 -297.5 70t-186.5 205.5t-64 329.5v533h180v-533q0 -150 42.5 -248.5t125 -147t200.5 -48.5h180q119 0 201 48.5t125 147t43 248.5v533h180v-533q0 -194 -64 -329.5t-186.5 -205.5t-298.5 -70h-180zM706 -418v1802h180v-1802h-180z" />
    <glyph glyph-name="uni0477" unicode="&#x477;" horiz-adv-x="1214" 
d="M464 0l-410 1118h197l302 -885h12l232 679q37 107 109 156.5t179 49.5h75v-159h-72q-81 0 -110 -77l-325 -882h-189zM650 1264l-170 294h200l117 -294h-147zM322 1264l-221 294h201l168 -294h-148z" />
    <glyph glyph-name="uni0499" unicode="&#x499;" horiz-adv-x="1012" 
d="M504 -13q-111 0 -203.5 35.5t-148 100.5t-58.5 152h184q4 -57 70.5 -96t155.5 -39q100 0 163 51.5t63 128.5q0 82 -67.5 133t-183.5 51h-73v134h73q95 0 158 48t63 127q0 75 -52.5 122.5t-138.5 47.5q-84 0 -149 -42t-67 -111h-174q2 90 55.5 157.5t142 105t194.5 37.5
q112 0 194 -42t126.5 -112t44.5 -155q0 -100 -62 -162t-152 -79v-8q128 -20 193 -90t65 -174q0 -93 -53.5 -165.5t-147.5 -114t-215 -41.5zM394 -418v105h118q55 0 76.5 14.5t21.5 51.5t-21.5 51t-76.5 14h-82l30 230h95v-48v-86q98 -4 143.5 -42.5t45.5 -119.5
q0 -88 -55.5 -129t-175.5 -41h-119z" />
    <glyph glyph-name="uni04AB" unicode="&#x4ab;" horiz-adv-x="1170" 
d="M613 -24q-152 0 -266.5 72t-178.5 202t-64 302q0 175 64 305.5t178.5 202.5t266.5 72q81 0 153 -21t131.5 -60.5t102.5 -97t66 -130.5l-173 -49q-12 43 -37 79t-60.5 62.5t-81.5 41t-101 14.5q-112 0 -184 -58.5t-107 -153.5t-35 -207q0 -110 35 -204.5t107 -152.5
t184 -58q56 0 103 15t83.5 42.5t61.5 65.5t37 83l172 -49q-22 -75 -65.5 -133.5t-103.5 -100t-133 -63t-155 -21.5zM502 -418v105h118q55 0 76.5 14.5t21.5 51.5t-21.5 51t-76.5 14h-82l30 230h95v-48v-86q98 -4 143.5 -42.5t45.5 -119.5q0 -88 -55.5 -129t-175.5 -41h-119z
" />
    <glyph glyph-name="uni04AD" unicode="&#x4ad;" horiz-adv-x="954" 
d="M388 0v957h-368v161h914v-161h-366v-957h-180zM534 -320v320h-75v166h256l-1 -486h-180z" />
    <glyph glyph-name="uni04AF" unicode="&#x4af;" horiz-adv-x="1151" 
d="M488 -20l-434 1138h197l238 -663q38 -103 64.5 -205.5t55.5 -198.5h-66q29 96 55.5 198.5t63.5 205.5l238 663h197l-435 -1138h-174zM485 -418v426h180v-426h-180z" />
    <glyph glyph-name="uni04BF" unicode="&#x4bf;" horiz-adv-x="1462" 
d="M384 500q-181 0 -272.5 96t-91.5 262h158q0 -98 48.5 -154t157.5 -56v-148zM896 -24q-162 0 -279.5 72t-181 201t-63.5 301t62 303t175.5 205t265.5 74q89 0 175.5 -29.5t157 -95t112.5 -172.5t42 -262v-75h-868v152h771l-84 -56q0 110 -34.5 195.5t-102.5 134t-169 48.5
t-173 -49.5t-110 -129t-38 -170.5v-101q0 -124 43 -210.5t120.5 -131t179.5 -44.5q66 0 120 19t93 57.5t60 95.5l174 -48q-26 -84 -88 -148t-153.5 -100t-206.5 -36zM762 -418v105h118q55 0 76.5 14.5t21.5 51.5t-21.5 51t-76.5 14h-82l30 230h95v-48v-86q98 -4 143.5 -42.5
t45.5 -119.5q0 -88 -55.5 -129t-175.5 -41h-119z" />
    <glyph glyph-name="uni04C2" unicode="&#x4c2;" horiz-adv-x="1659" 
d="M65 0l449 569l-443 549h213l368 -475h89v475h180v-475h87l366 475h215l-442 -549l447 -569h-217l-371 477h-85v-477h-180v477h-85l-373 -477h-218zM830 1275q-81 0 -146.5 37.5t-104.5 102t-39 143.5h132q0 -68 44.5 -111.5t113.5 -43.5t113.5 43.5t44.5 111.5h132
q0 -79 -38.5 -143t-104 -102t-147.5 -38z" />
    <glyph glyph-name="uni04CC" unicode="&#x4cc;" horiz-adv-x="1213" 
d="M583 350q-194 0 -309.5 102.5t-115.5 307.5v358h180v-358q0 -126 70 -185t175 -59q107 0 195 20t176 51v-166q-58 -21 -115.5 -37t-120 -25t-135.5 -9zM845 0v1118h180v-1118h-180zM991 -320v320h-75v166h256l-1 -486h-180z" />
    <glyph glyph-name="uni04D9" unicode="&#x4d9;" horiz-adv-x="1194" 
d="M566 1142q162 0 279.5 -72t181 -201t63.5 -301q0 -171 -62 -302.5t-175 -205.5t-266 -74q-89 0 -175.5 29.5t-157 95t-112.5 172.5t-42 262v75h868v-152h-771l84 56q0 -110 34.5 -195.5t102.5 -134t169 -48.5t173 49.5t110 129t38 170.5v101q0 125 -43 211t-120 130.5
t-180 44.5q-66 0 -120 -19t-93 -57.5t-60 -95.5l-174 48q26 85 88 148.5t154 99.5t206 36z" />
    <glyph glyph-name="uni04DB" unicode="&#x4db;" horiz-adv-x="1194" 
d="M566 1142q162 0 279.5 -72t181 -201t63.5 -301q0 -171 -62 -302.5t-175 -205.5t-266 -74q-89 0 -175.5 29.5t-157 95t-112.5 172.5t-42 262v75h868v-152h-771l84 56q0 -110 34.5 -195.5t102.5 -134t169 -48.5t173 49.5t110 129t38 170.5v101q0 125 -43 211t-120 130.5
t-180 44.5q-66 0 -120 -19t-93 -57.5t-60 -95.5l-174 48q26 85 88 148.5t154 99.5t206 36zM811 1301q-49 0 -84 35t-35 84t35 83.5t84 34.5t83.5 -34.5t34.5 -83.5t-34.5 -84t-83.5 -35zM390 1301q-49 0 -84 35t-35 84t35 83.5t84 34.5t83.5 -34.5t34.5 -83.5t-34.5 -84
t-83.5 -35z" />
    <glyph glyph-name="uni04DD" unicode="&#x4dd;" horiz-adv-x="1659" 
d="M65 0l449 569l-443 549h213l368 -475h89v475h180v-475h87l366 475h215l-442 -549l447 -569h-217l-371 477h-85v-477h-180v477h-85l-373 -477h-218zM1041 1301q-49 0 -84 35t-35 84t35 83.5t84 34.5t83.5 -34.5t34.5 -83.5t-34.5 -84t-83.5 -35zM620 1301q-49 0 -84 35
t-35 84t35 83.5t84 34.5t83.5 -34.5t34.5 -83.5t-34.5 -84t-83.5 -35z" />
    <glyph glyph-name="uni04DF" unicode="&#x4df;" horiz-adv-x="1012" 
d="M504 -13q-111 0 -203.5 35.5t-148 100.5t-58.5 152h184q4 -57 70.5 -96t155.5 -39q100 0 163 51.5t63 128.5q0 82 -67.5 133t-183.5 51h-73v134h73q95 0 158 48t63 127q0 75 -52.5 122.5t-138.5 47.5q-84 0 -149 -42t-67 -111h-174q2 90 55.5 157.5t142 105t194.5 37.5
q112 0 194 -42t126.5 -112t44.5 -155q0 -100 -62 -162t-152 -79v-8q128 -20 193 -90t65 -174q0 -93 -53.5 -165.5t-147.5 -114t-215 -41.5zM716 1301q-49 0 -84 35t-35 84t35 83.5t84 34.5t83.5 -34.5t34.5 -83.5t-34.5 -84t-83.5 -35zM295 1301q-49 0 -84 35t-35 84
t35 83.5t84 34.5t83.5 -34.5t34.5 -83.5t-34.5 -84t-83.5 -35z" />
    <glyph glyph-name="uni04E3" unicode="&#x4e3;" horiz-adv-x="1211" 
d="M1053 0h-181v806h-13l-530 -806h-171v1118h180v-809h13l532 809h170v-1118zM882 1491v-142h-554v142h554z" />
    <glyph glyph-name="uni04E5" unicode="&#x4e5;" horiz-adv-x="1211" 
d="M1053 0h-181v806h-13l-530 -806h-171v1118h180v-809h13l532 809h170v-1118zM816 1301q-49 0 -84 35t-35 84t35 83.5t84 34.5t83.5 -34.5t34.5 -83.5t-34.5 -84t-83.5 -35zM395 1301q-49 0 -84 35t-35 84t35 83.5t84 34.5t83.5 -34.5t34.5 -83.5t-34.5 -84t-83.5 -35z" />
    <glyph glyph-name="uni04E9" unicode="&#x4e9;" horiz-adv-x="1228" 
d="M613 -24q-152 0 -266.5 72t-178.5 202t-64 302q0 175 64 305.5t178.5 202.5t266.5 72q153 0 268 -72t179 -202.5t64 -305.5q0 -172 -64 -302t-179 -202t-268 -72zM613 137q113 0 186 58t108 152.5t35 204.5q0 111 -35 206.5t-108 154t-186 58.5q-112 0 -184 -58.5
t-107 -153.5t-35 -207q0 -110 35 -204.5t107 -152.5t184 -58zM267 424l-78 61q59 74 121.5 131t144.5 57q68 0 123.5 -23.5t102.5 -47t88 -23.5q56 0 99.5 25.5t86.5 89.5l81 -55q-58 -86 -119.5 -138.5t-148.5 -52.5q-68 0 -123.5 23.5t-102 47t-88.5 23.5q-49 0 -95 -29.5
t-92 -88.5z" />
    <glyph glyph-name="uni04EB" unicode="&#x4eb;" horiz-adv-x="1228" 
d="M613 -24q-152 0 -266.5 72t-178.5 202t-64 302q0 175 64 305.5t178.5 202.5t266.5 72q153 0 268 -72t179 -202.5t64 -305.5q0 -172 -64 -302t-179 -202t-268 -72zM613 137q113 0 186 58t108 152.5t35 204.5q0 111 -35 206.5t-108 154t-186 58.5q-112 0 -184 -58.5
t-107 -153.5t-35 -207q0 -110 35 -204.5t107 -152.5t184 -58zM267 424l-78 61q59 74 121.5 131t144.5 57q68 0 123.5 -23.5t102.5 -47t88 -23.5q56 0 99.5 25.5t86.5 89.5l81 -55q-58 -86 -119.5 -138.5t-148.5 -52.5q-68 0 -123.5 23.5t-102 47t-88.5 23.5q-49 0 -95 -29.5
t-92 -88.5zM824 1301q-49 0 -84 35t-35 84t35 83.5t84 34.5t83.5 -34.5t34.5 -83.5t-34.5 -84t-83.5 -35zM403 1301q-49 0 -84 35t-35 84t35 83.5t84 34.5t83.5 -34.5t34.5 -83.5t-34.5 -84t-83.5 -35z" />
    <glyph glyph-name="uni04ED" unicode="&#x4ed;" horiz-adv-x="1170" 
d="M557 -24q-82 0 -155 21.5t-133 63t-103 100t-66 133.5l172 49q12 -45 37 -83t61.5 -65.5t83.5 -42.5t103 -15q112 0 184 58t107 152.5t35 204.5q0 112 -35 207t-107 153.5t-184 58.5q-55 0 -101 -14.5t-81.5 -41t-60.5 -62.5t-37 -79l-173 49q23 73 66 130.5t102.5 97
t131.5 60.5t153 21q152 0 266.5 -72t178.5 -202.5t64 -305.5q0 -172 -64 -302t-178.5 -202t-266.5 -72zM911 480h-517v162h517v-162zM770 1301q-49 0 -84 35t-35 84t35 83.5t84 34.5t83.5 -34.5t34.5 -83.5t-34.5 -84t-83.5 -35zM349 1301q-49 0 -84 35t-35 84t35 83.5
t84 34.5t83.5 -34.5t34.5 -83.5t-34.5 -84t-83.5 -35z" />
    <glyph glyph-name="uni04F5" unicode="&#x4f5;" horiz-adv-x="1183" 
d="M583 350q-194 0 -309.5 102.5t-115.5 307.5v358h180v-358q0 -126 70 -185t175 -59q107 0 195 20t176 51v-166q-58 -21 -115.5 -37t-120 -25t-135.5 -9zM845 0v1118h180v-1118h-180zM804 1301q-49 0 -84 35t-35 84t35 83.5t84 34.5t83.5 -34.5t34.5 -83.5t-34.5 -84
t-83.5 -35zM383 1301q-49 0 -84 35t-35 84t35 83.5t84 34.5t83.5 -34.5t34.5 -83.5t-34.5 -84t-83.5 -35z" />
    <glyph glyph-name="uni04F9" unicode="&#x4f9;" horiz-adv-x="1508" 
d="M310 717h321q132 0 223.5 -46t138.5 -126t47 -183q0 -101 -47.5 -183t-138.5 -130.5t-223 -48.5h-473v1118h180v-952h293q99 0 163 52.5t64 135.5q0 87 -64 141.5t-163 54.5h-321v167zM1170 0v1118h180v-1118h-180zM960 1301q-49 0 -84 35t-35 84t35 83.5t84 34.5
t83.5 -34.5t34.5 -83.5t-34.5 -84t-83.5 -35zM539 1301q-49 0 -84 35t-35 84t35 83.5t84 34.5t83.5 -34.5t34.5 -83.5t-34.5 -84t-83.5 -35z" />
    <glyph glyph-name="uni04FF" unicode="&#x4ff;" horiz-adv-x="1118" 
d="M113 502v134h882v-134h-882zM65 0l441 643l-1 -138l-417 613h210l139 -217q54 -84 93.5 -157t81.5 -141h-94q43 68 78.5 141t90.5 157l142 217h206l-419 -621v133l437 -630h-209l-164 251q-53 82 -91.5 152.5t-79.5 135.5h95q-41 -65 -76 -135.5t-89 -152.5l-166 -251
h-208z" />
    <glyph glyph-name="uni0481" unicode="&#x481;" horiz-adv-x="1158" 
d="M719 137v-496h-179v496h179zM613 -24q-157 0 -271.5 74.5t-176 204.5t-61.5 297q0 171 63 302t177.5 204.5t266.5 73.5q120 0 215.5 -44t156.5 -124t75 -188h-181q-12 51 -45.5 95.5t-88 72t-130.5 27.5q-97 0 -170.5 -51t-114.5 -144t-41 -218q0 -127 40.5 -221.5
t113.5 -147t172 -52.5v-161z" />
    <glyph glyph-name="uni0482" unicode="&#x482;" horiz-adv-x="1294" 
d="M816 808l-207 -360l291 -172l-72 -128l-291 172l-182 -320h-175l225 398l-289 172l70 128l295 -172l200 362l-289 168l75 130l290 -170l185 326h172l-228 -406l294 -170l-76 -126z" />
    <glyph glyph-name="uni0488" unicode="&#x488;" 
d="M-650 1268h-114q1 81 58 133.5t156 52.5q95 0 152 -52.5t57 -133.5h-111q0 40 -23 70t-75 30q-55 0 -77.5 -31t-22.5 -69zM-55 990h-114q0 83 56.5 135.5t153.5 52.5q98 0 155.5 -52.5t57.5 -135.5h-114q1 41 -21.5 70.5t-77.5 29.5q-52 0 -74 -30t-22 -70zM132 488h-115
q1 80 57.5 133t153.5 53q98 0 155 -52.5t57 -133.5h-114q1 40 -21 70t-77 30q-50 0 -73 -30t-23 -70zM-67 -32h-114q1 81 58 135.5t156 54.5q95 0 152 -53.5t57 -136.5h-110q0 39 -23 70.5t-76 31.5t-76.5 -31.5t-23.5 -70.5zM-644 -318h-114q1 83 57.5 136.5t152.5 53.5
q98 0 155.5 -53.5t57.5 -136.5h-113q-1 40 -23 71t-77 31q-52 0 -74 -32t-22 -70zM-1221 990h-116q0 83 57 135.5t155 52.5t155 -52.5t57 -135.5h-112q-1 41 -23.5 70.5t-76.5 29.5q-52 0 -74 -29.5t-22 -70.5zM-1400 488h-112q-1 81 56 133.5t153 52.5q99 0 156.5 -52.5
t57.5 -133.5h-114q0 41 -23 70.5t-77 29.5q-52 0 -74 -31t-23 -69zM-1233 -32h-113q-1 81 56 135.5t153 54.5q97 0 154.5 -53.5t57.5 -136.5h-112q-1 39 -23 70.5t-77 31.5q-52 0 -73.5 -32.5t-22.5 -69.5z" />
    <glyph glyph-name="uni0489" unicode="&#x489;" 
d="M-658 1126l-12 14l122 338h96l-70 -352h-136zM-123 904l-96 100v14l325 154l66 -70zM368 422l-347 70v140l15 10l332 -122v-98zM21 -238l-198 300l96 98h18l149 -326zM-670 -414l70 352h136l12 -14l-122 -338h-96zM-1227 -148l-71 66l295 202l97 -100l-1 -14zM-1159 422
l-333 122v98l347 -68v-140zM-1063 862l-146 328l64 66l198 -298l-100 -96h-16z" />
    <glyph glyph-name="uni0483" unicode="&#x483;" 
d="M-214 1312h-546v-126h-176v240h547v108h175v-222z" />
    <glyph glyph-name="uni0484" unicode="&#x484;" 
d="M-916 1438h42q81 0 145 18t118.5 41t107.5 41t112 18q111 0 175 -52.5t64 -161.5v-38h-137v16q0 53 -30 77.5t-76 24.5q-43 0 -90.5 -18t-103.5 -41t-125.5 -41t-157.5 -18h-44v134z" />
    <glyph glyph-name="uni0485" unicode="&#x485;" 
d="M-504 1301l-166 201v124h191l-3 -142l61 -115z" />
    <glyph glyph-name="uni0486" unicode="&#x486;" 
d="M-358 1502l-166 -201l-82 68l60 115l-4 142h192v-124z" />
    <glyph glyph-name="uni0487" unicode="&#x487;" 
d="M-312 1438h160v-134h-175q-51 0 -90.5 18t-78.5 41t-88 41t-121 18q-46 0 -89.5 -23.5t-43.5 -78.5v-16h-136v38q0 98 74.5 156t204.5 58q79 0 134.5 -18t96.5 -41.5t77 -41t75 -17.5z" />
    <glyph glyph-name="uniA69F" unicode="&#xa69f;" 
d="M-587 1536v-109h-179v109h179zM-742 1754v-552h-134v552h134zM-383 1186q-117 0 -189.5 76t-72.5 202v20q0 83 33 145t92.5 96.5t136.5 34.5q54 0 106 -20.5t85.5 -62t33.5 -104.5h-120q-4 42 -34 60t-71 18q-45 0 -74 -20t-42.5 -58t-13.5 -91v-19q0 -79 31.5 -123
t98.5 -44q54 0 78 25.5t27 68.5h120q-1 -89 -66 -146.5t-159 -57.5zM-572 1426v98h246v-98h-246z" />
    <glyph glyph-name="uni0308" 
d="M816 1301q-49 0 -84 35t-35 84t35 83.5t84 34.5t83.5 -34.5t34.5 -83.5t-34.5 -84t-83.5 -35zM395 1301q-49 0 -84 35t-35 84t35 83.5t84 34.5t83.5 -34.5t34.5 -83.5t-34.5 -84t-83.5 -35z" />
    <glyph glyph-name="uni0306" 
d="M389 1275q-81 0 -146.5 37.5t-104.5 102t-39 143.5h132q0 -68 44.5 -111.5t113.5 -43.5t113.5 43.5t44.5 111.5h132q0 -79 -38.5 -143t-104 -102t-147.5 -38z" />
    <glyph glyph-name="uni0327" 
d="M155 -418v105h118q55 0 76.5 14.5t21.5 51.5t-21.5 51t-76.5 14h-82l30 230h95v-48v-86q98 -4 143.5 -42.5t45.5 -119.5q0 -88 -55.5 -129t-175.5 -41h-119z" />
    <glyph glyph-name="uni2DFF" unicode="&#x2dff;" 
d="M-902 1512h407v-103h-407v103zM-1010 1754h134v-552h-134v552zM-303 1754h148l-240 -352h-62l-18 57zM-731 1754h148l172 -297l-18 -55h-62zM-508 1202v302h125v-302h-125zM-634 1754h377l-33 -103h-314zM-651 1202h-125v81q0 122 64 175t187 54l164 1q112 1 181.5 -48
t69.5 -182v-81h-125v81q0 76 -27 101t-99 25h-164q-58 0 -92 -19t-34 -107v-81z" />
    <glyph glyph-name="_part.crossbar_vert" horiz-adv-x="418" 
d="M128 422v646h162v-646h-162z" />
    <glyph glyph-name="_part.cyrtail" horiz-adv-x="575" 
d="M161 -320l95 320h-65v166h294l-145 -486h-179z" />
    <glyph glyph-name="_part.cyrtic" horiz-adv-x="356" 
d="M125 -320v320h-75v166h256l-1 -486h-180z" />
    <glyph glyph-name="_part.cyrtic_center" horiz-adv-x="437" 
d="M128 -320v384h181l-1 -384h-180z" />
    <glyph glyph-name="_part.cyrtic_hook" horiz-adv-x="526" 
d="M163 -428q-31 0 -60.5 3.5t-52.5 10.5l14 155q26 -4 52.5 -6t51.5 -2q61 0 97.5 38t36.5 125v104h-77v164h251v-246q0 -167 -80.5 -256.5t-232.5 -89.5z" />
    <glyph glyph-name="_part.fitacy_bar" horiz-adv-x="1215" 
d="M262 424l-78 61q59 74 121.5 131t144.5 57q68 0 123.5 -23.5t102.5 -47t88 -23.5q56 0 99.5 25.5t86.5 89.5l81 -55q-58 -86 -119.5 -138.5t-148.5 -52.5q-68 0 -123.5 23.5t-102 47t-88.5 23.5q-49 0 -95 -29.5t-92 -88.5z" />
    <glyph glyph-name="largerighthook" horiz-adv-x="1083" 
d="M384 -89v176h107q155 0 246.5 87.5t91.5 237.5q0 151 -92 241t-246 90q-156 0 -247 -95t-91 -259h-89q0 174 48 292.5t144 178.5t238 60q154 0 272 -64.5t185.5 -179t67.5 -264.5q0 -149 -67.5 -262t-186.5 -176t-274 -63h-107z" />
    <glyph glyph-name="crossbar" horiz-adv-x="926" 
d="M140 676v138h646v-138h-646z" />
    <glyph glyph-name="crossbar.uc" horiz-adv-x="913" 
d="M50 668v154h813v-154h-813z" />
    </font>
</defs>
</svg>
