<?xml version="1.0" encoding="UTF-8" standalone="no"?>
<svg
   viewBox="0 0 80 80"
   version="1.1"
   id="svg1"
   xmlns="http://www.w3.org/2000/svg">
   <path
      id="path14"
      style="fill:none;fill-rule:evenodd;stroke:#ffffff;stroke-width:6.36961;stroke-dasharray:none;stroke-opacity:1"
      d="m 70.71875,0 c -5.12581,1.6324494e-4 -9.281087,4.1554401 -9.28125,9.28125 4.6e-5,1.447236 0.332994,2.816293 0.923828,4.037109 l -14.3125,32.234375 -13.40625,-16.103515 c 0.09092,-0.521732 0.140723,-1.057698 0.140625,-1.605469 C 34.78304,22.717177 30.626573,18.561584 25.5,18.5625 c -5.12581,1.63e-4 -9.281087,4.15544 -9.28125,9.28125 -2.92e-4,1.632933 0.425801,3.165155 1.166016,4.498047 L 6.171875,61.982422 C 2.5776337,63.262257 1.2845829e-4,66.685224 0,70.71875 1.6324494e-4,75.84456 4.1554401,79.999837 9.28125,80 c 5.12581,-1.63e-4 9.281087,-4.15544 9.28125,-9.28125 -5.2e-5,-1.632248 -0.42612,-3.163506 -1.166016,-4.496094 L 27.472656,39.589844 40.689453,54.291016 c -0.233593,0.819543 -0.353206,1.667351 -0.355469,2.519531 1.63e-4,5.125825 4.155425,9.281087 9.28125,9.28125 5.125825,-1.63e-4 9.281087,-4.155425 9.28125,-9.28125 -10e-4,-1.762153 -0.503711,-3.487598 -1.449218,-4.974609 L 73.330078,18.1875 C 77.184246,17.059239 79.999866,13.500148 80,9.28125 79.999837,4.1554401 75.84456,1.6324494e-4 70.71875,0 Z"
      transform="matrix(0.92625172,0,0,0.92625172,2.949931,2.949931)" />
</svg>