<?xml version="1.0" encoding="UTF-8" standalone="no"?>
<!-- Uploaded to: SVG Repo, www.svgrepo.com, Generator: SVG Repo Mixer Tools -->

<svg
   width="800px"
   height="800px"
   viewBox="0 0 24 24"
   fill="none"
   version="1.1"
   id="svg7"
   sodipodi:docname="server.svg"
   inkscape:version="1.3.2 (091e20e, 2023-11-25, custom)"
   xmlns:inkscape="http://www.inkscape.org/namespaces/inkscape"
   xmlns:sodipodi="http://sodipodi.sourceforge.net/DTD/sodipodi-0.dtd"
   xmlns="http://www.w3.org/2000/svg"
   xmlns:svg="http://www.w3.org/2000/svg">
  <defs
     id="defs7" />
  <sodipodi:namedview
     id="namedview7"
     pagecolor="#ffffff"
     bordercolor="#000000"
     borderopacity="0.25"
     inkscape:showpageshadow="2"
     inkscape:pageopacity="0.0"
     inkscape:pagecheckerboard="0"
     inkscape:deskcolor="#d1d1d1"
     showgrid="false"
     inkscape:zoom="1.03875"
     inkscape:cx="400"
     inkscape:cy="477.01564"
     inkscape:window-width="1920"
     inkscape:window-height="1009"
     inkscape:window-x="-8"
     inkscape:window-y="-8"
     inkscape:window-maximized="1"
     inkscape:current-layer="svg7" />
  <path
     d="M22 19H14M2 19H10"
     stroke="#1C274C"
     stroke-width="1.5"
     stroke-linecap="round"
     id="path1"
     style="stroke:#000000;stroke-opacity:1" />
  <path
     d="M12 17V14"
     stroke="#1C274C"
     stroke-width="1.5"
     stroke-linecap="round"
     id="path2"
     style="stroke:#000000;stroke-opacity:1" />
  <circle
     cx="12"
     cy="19"
     r="2"
     stroke="#1C274C"
     stroke-width="1.5"
     id="circle2"
     style="stroke:#000000;stroke-opacity:1" />
  <path
     d="M2 11C2 9.34315 3.34315 8 5 8H19C20.6569 8 22 9.34315 22 11C22 12.6569 20.6569 14 19 14H5C3.34315 14 2 12.6569 2 11Z"
     stroke="#1C274C"
     stroke-width="1.5"
     id="path3"
     style="stroke:#000000;stroke-opacity:1" />
  <path
     d="M2 5C2 3.34315 3.34315 2 5 2H19C20.6569 2 22 3.34315 22 5C22 6.65685 20.6569 8 19 8H5C3.34315 8 2 6.65685 2 5Z"
     stroke="#1C274C"
     stroke-width="1.5"
     id="path4"
     style="stroke-width:1.4999811;stroke-dasharray:none;stroke:#000000;stroke-opacity:1" />
  <path
     d="M13 5L19 5"
     stroke="#1C274C"
     stroke-width="1.5"
     stroke-linecap="round"
     id="path5"
     style="stroke:#000000;stroke-opacity:1" />
  <path
     d="M13 11L19 11"
     stroke="#1C274C"
     stroke-width="1.5"
     stroke-linecap="round"
     id="path6"
     style="stroke:#000000;stroke-opacity:1" />
  <circle
     cx="6"
     cy="5"
     r="1"
     fill="#1C274C"
     id="circle6"
     style="stroke:#000000;stroke-opacity:1;fill:none" />
  <circle
     cx="6"
     cy="11"
     r="1"
     fill="#1C274C"
     id="circle7"
     style="stroke:#000000;stroke-opacity:1;fill:none" />
</svg>
