<?xml version="1.0" encoding="UTF-8" standalone="no"?>
<svg
   width="209.42235mm"
   height="340.24951mm"
   viewBox="0 0 209.42235 340.24951"
   version="1.1"
   id="svg1"
   xmlns="http://www.w3.org/2000/svg">
   <defs
      id="defs1" />
   <g
      id="layer1"
      transform="translate(-8.2274048,41.462585)">
      <path
         id="path8"
         style="fill:#004280;fill-rule:evenodd;stroke-width:1.11958"
         d="m 100.78713,-41.462585 v 85.418558 h 24.30291 v -85.418558 z m 12.15171,94.711014 c -10.26416,-4.2e-5 -18.584952,8.320753 -18.584909,18.584912 -4.3e-5,10.264161 8.320749,18.584955 18.584909,18.584913 10.26396,-2.43e-4 18.58444,-8.320953 18.5844,-18.584913 4e-5,-10.263958 -8.32044,-18.584669 -18.5844,-18.584912 z M 82.202218,75.61709 8.2274048,118.32611 20.379118,139.3734 94.353931,96.664384 Z m 61.472732,0 -12.15171,21.047294 73.97481,42.709016 12.15171,-21.04729 z m -42.88782,25.52144 V 274.4835 h 24.30291 V 101.13853 Z M 68.352934,274.48402 v 24.30291 h 89.171306 v -24.30291 z" />
   </g>
</svg>